G04 #@! TF.FileFunction,Legend,Top*
%FSLAX46Y46*%
G04 Gerber Fmt 4.6, Leading zero omitted, Abs format (unit mm)*
G04 Created by KiCad (PCBNEW 4.0.4-stable) date Monday, October 17, 2016 'PMt' 09:40:26 PM*
%MOMM*%
%LPD*%
G01*
G04 APERTURE LIST*
%ADD10C,0.100000*%
%ADD11C,0.200000*%
%ADD12C,0.150000*%
%ADD13C,0.200660*%
%ADD14C,0.124460*%
G04 APERTURE END LIST*
D10*
D11*
X183291600Y-89789000D02*
X183291600Y-90424000D01*
X182529600Y-90551000D02*
X184053600Y-90551000D01*
X182783600Y-90932000D02*
X183799600Y-90932000D01*
X183037600Y-91313000D02*
X183545600Y-91313000D01*
X167213400Y-103784400D02*
X167213400Y-104419400D01*
X166451400Y-104546400D02*
X167975400Y-104546400D01*
X166705400Y-104927400D02*
X167721400Y-104927400D01*
X166959400Y-105308400D02*
X167467400Y-105308400D01*
X118445400Y-88366600D02*
X118953400Y-88366600D01*
X118191400Y-87985600D02*
X119207400Y-87985600D01*
X117937400Y-87604600D02*
X119461400Y-87604600D01*
X118699400Y-86842600D02*
X118699400Y-87477600D01*
D12*
X119924800Y-86991400D02*
X124524800Y-86991400D01*
X124524800Y-80191400D02*
X119924800Y-80191400D01*
X135009000Y-89927800D02*
X136009000Y-89927800D01*
X136009000Y-88227800D02*
X135009000Y-88227800D01*
X143298800Y-82030200D02*
X142298800Y-82030200D01*
X142298800Y-83730200D02*
X143298800Y-83730200D01*
X146874600Y-92829000D02*
X146874600Y-91829000D01*
X145174600Y-91829000D02*
X145174600Y-92829000D01*
X160502600Y-92252800D02*
X160502600Y-93776800D01*
X160629600Y-94157800D02*
X160629600Y-91871800D01*
X160756600Y-91617800D02*
X160756600Y-94411800D01*
X160883600Y-94665800D02*
X160883600Y-91363800D01*
X161010600Y-91236800D02*
X161010600Y-94792800D01*
X160121600Y-89712800D02*
X160121600Y-96316800D01*
X160121600Y-96316800D02*
X165963600Y-96316800D01*
X165963600Y-96316800D02*
X166725600Y-95554800D01*
X166725600Y-95554800D02*
X166725600Y-90474800D01*
X166725600Y-90474800D02*
X165963600Y-89712800D01*
X165963600Y-89712800D02*
X160121600Y-89712800D01*
X165582600Y-93014800D02*
X164820600Y-93014800D01*
X165201600Y-92633800D02*
X165201600Y-93395800D01*
X166471600Y-93014800D02*
G75*
G03X166471600Y-93014800I-3048000J0D01*
G01*
X129573400Y-86981400D02*
X130573400Y-86981400D01*
X130573400Y-85281400D02*
X129573400Y-85281400D01*
X152138000Y-90031200D02*
X151138000Y-90031200D01*
X151138000Y-91731200D02*
X152138000Y-91731200D01*
X156811600Y-83427200D02*
X155811600Y-83427200D01*
X155811600Y-85127200D02*
X156811600Y-85127200D01*
X135139800Y-85945600D02*
X135139800Y-84945600D01*
X133439800Y-84945600D02*
X133439800Y-85945600D01*
X147128600Y-103293800D02*
X147128600Y-102293800D01*
X145428600Y-102293800D02*
X145428600Y-103293800D01*
X130614800Y-104837600D02*
X131614800Y-104837600D01*
X131614800Y-103137600D02*
X130614800Y-103137600D01*
X173490000Y-97319200D02*
X174490000Y-97319200D01*
X174490000Y-95619200D02*
X173490000Y-95619200D01*
X182922800Y-95695400D02*
X181922800Y-95695400D01*
X181922800Y-97395400D02*
X182922800Y-97395400D01*
X148859800Y-91992400D02*
X148859800Y-90442400D01*
X147659800Y-91992400D02*
X147659800Y-90442400D01*
X171131200Y-100034800D02*
X171131200Y-101234800D01*
X169381200Y-101234800D02*
X169381200Y-100034800D01*
X165952200Y-97082400D02*
X161352200Y-97082400D01*
X161352200Y-103882400D02*
X165952200Y-103882400D01*
X182448200Y-86588600D02*
X182448200Y-89763600D01*
X182448200Y-89763600D02*
X184226200Y-89763600D01*
X184226200Y-89763600D02*
X184226200Y-86588600D01*
X177876200Y-86588600D02*
X177876200Y-89763600D01*
X177876200Y-89763600D02*
X179654200Y-89763600D01*
X179654200Y-89763600D02*
X179654200Y-86588600D01*
X184480200Y-80492600D02*
X184480200Y-86588600D01*
X184480200Y-86588600D02*
X177622200Y-86588600D01*
X177622200Y-86588600D02*
X177622200Y-78714600D01*
X177622200Y-78587600D02*
X184480200Y-78587600D01*
X184480200Y-78714600D02*
X184480200Y-80492600D01*
X160670240Y-81232960D02*
X160670240Y-81184700D01*
X159969200Y-78433980D02*
X160670240Y-78433980D01*
X160670240Y-78433980D02*
X160670240Y-78682900D01*
X160670240Y-81232960D02*
X160670240Y-81433620D01*
X160670240Y-81433620D02*
X159969200Y-81433620D01*
X157305960Y-79334360D02*
X157257700Y-79334360D01*
X154506980Y-80035400D02*
X154506980Y-79334360D01*
X154506980Y-79334360D02*
X154755900Y-79334360D01*
X157305960Y-79334360D02*
X157506620Y-79334360D01*
X157506620Y-79334360D02*
X157506620Y-80035400D01*
X152567640Y-81283760D02*
X152567640Y-81235500D01*
X151866600Y-78484780D02*
X152567640Y-78484780D01*
X152567640Y-78484780D02*
X152567640Y-78733700D01*
X152567640Y-81283760D02*
X152567640Y-81484420D01*
X152567640Y-81484420D02*
X151866600Y-81484420D01*
X152175160Y-82864960D02*
X152126900Y-82864960D01*
X149376180Y-83566000D02*
X149376180Y-82864960D01*
X149376180Y-82864960D02*
X149625100Y-82864960D01*
X152175160Y-82864960D02*
X152375820Y-82864960D01*
X152375820Y-82864960D02*
X152375820Y-83566000D01*
X179505560Y-91678760D02*
X179457300Y-91678760D01*
X176706580Y-92379800D02*
X176706580Y-91678760D01*
X176706580Y-91678760D02*
X176955500Y-91678760D01*
X179505560Y-91678760D02*
X179706220Y-91678760D01*
X179706220Y-91678760D02*
X179706220Y-92379800D01*
X131835600Y-95035400D02*
X133035600Y-95035400D01*
X133035600Y-96785400D02*
X131835600Y-96785400D01*
X135777000Y-97856600D02*
X135777000Y-96656600D01*
X137527000Y-96656600D02*
X137527000Y-97856600D01*
X135855000Y-92061000D02*
X134655000Y-92061000D01*
X134655000Y-90311000D02*
X135855000Y-90311000D01*
X143398800Y-81393000D02*
X142198800Y-81393000D01*
X142198800Y-79643000D02*
X143398800Y-79643000D01*
X142889000Y-92903600D02*
X142889000Y-91703600D01*
X144639000Y-91703600D02*
X144639000Y-92903600D01*
X150917200Y-96633000D02*
X149717200Y-96633000D01*
X149717200Y-94883000D02*
X150917200Y-94883000D01*
X134655000Y-92571600D02*
X135855000Y-92571600D01*
X135855000Y-94321600D02*
X134655000Y-94321600D01*
X163917600Y-80680000D02*
X163917600Y-81880000D01*
X162167600Y-81880000D02*
X162167600Y-80680000D01*
X153660400Y-98944400D02*
X152460400Y-98944400D01*
X152460400Y-97194400D02*
X153660400Y-97194400D01*
X127953800Y-82794400D02*
X127953800Y-81594400D01*
X129703800Y-81594400D02*
X129703800Y-82794400D01*
X161504600Y-86217200D02*
X161504600Y-87417200D01*
X159754600Y-87417200D02*
X159754600Y-86217200D01*
X142353000Y-91678200D02*
X142353000Y-92878200D01*
X140603000Y-92878200D02*
X140603000Y-91678200D01*
X152460400Y-92419200D02*
X153660400Y-92419200D01*
X153660400Y-94169200D02*
X152460400Y-94169200D01*
X151038000Y-87796400D02*
X152238000Y-87796400D01*
X152238000Y-89546400D02*
X151038000Y-89546400D01*
X135929400Y-86071000D02*
X135929400Y-84871000D01*
X137679400Y-84871000D02*
X137679400Y-86071000D01*
X166434800Y-84724800D02*
X166434800Y-83524800D01*
X168184800Y-83524800D02*
X168184800Y-84724800D01*
X152238000Y-87362000D02*
X151038000Y-87362000D01*
X151038000Y-85612000D02*
X152238000Y-85612000D01*
X130034000Y-99425200D02*
X130034000Y-100625200D01*
X128284000Y-100625200D02*
X128284000Y-99425200D01*
X151114200Y-103239600D02*
X152314200Y-103239600D01*
X152314200Y-104989600D02*
X151114200Y-104989600D01*
X137501600Y-102168400D02*
X137501600Y-103368400D01*
X135751600Y-103368400D02*
X135751600Y-102168400D01*
X151088800Y-100648800D02*
X152288800Y-100648800D01*
X152288800Y-102398800D02*
X151088800Y-102398800D01*
X138494800Y-103368400D02*
X138494800Y-102168400D01*
X140244800Y-102168400D02*
X140244800Y-103368400D01*
X163917600Y-86191800D02*
X163917600Y-87391800D01*
X162167600Y-87391800D02*
X162167600Y-86191800D01*
X182053200Y-92084600D02*
X182053200Y-93284600D01*
X180303200Y-93284600D02*
X180303200Y-92084600D01*
X173237600Y-90260200D02*
X174437600Y-90260200D01*
X174437600Y-92010200D02*
X173237600Y-92010200D01*
X174437600Y-94220000D02*
X173237600Y-94220000D01*
X173237600Y-92470000D02*
X174437600Y-92470000D01*
X125701000Y-100115400D02*
X125701000Y-95515400D01*
X118901000Y-95515400D02*
X118901000Y-100115400D01*
X171094400Y-81483200D02*
X171094400Y-78308200D01*
X171094400Y-78308200D02*
X169316400Y-78308200D01*
X169316400Y-78308200D02*
X169316400Y-81483200D01*
X175666400Y-81483200D02*
X175666400Y-78308200D01*
X175666400Y-78308200D02*
X173888400Y-78308200D01*
X173888400Y-78308200D02*
X173888400Y-81483200D01*
X169062400Y-87579200D02*
X169062400Y-81483200D01*
X169062400Y-81483200D02*
X175920400Y-81483200D01*
X175920400Y-81483200D02*
X175920400Y-89357200D01*
X175920400Y-89484200D02*
X169062400Y-89484200D01*
X169062400Y-89357200D02*
X169062400Y-87579200D01*
X145110200Y-84302600D02*
X145110200Y-89382600D01*
X145110200Y-89382600D02*
X140538200Y-89382600D01*
X140538200Y-89382600D02*
X140538200Y-84302600D01*
X140538200Y-84302600D02*
X145110200Y-84302600D01*
X143586200Y-84302600D02*
X143586200Y-84810600D01*
X143586200Y-84810600D02*
X142316200Y-84810600D01*
X142316200Y-84810600D02*
X142316200Y-84302600D01*
X145110200Y-95326200D02*
X145110200Y-100406200D01*
X145110200Y-100406200D02*
X140538200Y-100406200D01*
X140538200Y-100406200D02*
X140538200Y-95326200D01*
X140538200Y-95326200D02*
X145110200Y-95326200D01*
X143586200Y-95326200D02*
X143586200Y-95834200D01*
X143586200Y-95834200D02*
X142316200Y-95834200D01*
X142316200Y-95834200D02*
X142316200Y-95326200D01*
X175412400Y-102971600D02*
X172237400Y-102971600D01*
X172237400Y-102971600D02*
X172237400Y-104749600D01*
X172237400Y-104749600D02*
X175412400Y-104749600D01*
X175412400Y-98399600D02*
X172237400Y-98399600D01*
X172237400Y-98399600D02*
X172237400Y-100177600D01*
X172237400Y-100177600D02*
X175412400Y-100177600D01*
X181508400Y-105003600D02*
X175412400Y-105003600D01*
X175412400Y-105003600D02*
X175412400Y-98145600D01*
X175412400Y-98145600D02*
X183286400Y-98145600D01*
X183413400Y-98145600D02*
X183413400Y-105003600D01*
X183286400Y-105003600D02*
X181508400Y-105003600D01*
X120753381Y-84069181D02*
X120753381Y-83069181D01*
X121086715Y-83783467D01*
X121420048Y-83069181D01*
X121420048Y-84069181D01*
X121896238Y-84069181D02*
X121896238Y-83069181D01*
X122943857Y-83973943D02*
X122896238Y-84021562D01*
X122753381Y-84069181D01*
X122658143Y-84069181D01*
X122515285Y-84021562D01*
X122420047Y-83926324D01*
X122372428Y-83831086D01*
X122324809Y-83640610D01*
X122324809Y-83497752D01*
X122372428Y-83307276D01*
X122420047Y-83212038D01*
X122515285Y-83116800D01*
X122658143Y-83069181D01*
X122753381Y-83069181D01*
X122896238Y-83116800D01*
X122943857Y-83164419D01*
X123896238Y-84069181D02*
X123324809Y-84069181D01*
X123610523Y-84069181D02*
X123610523Y-83069181D01*
X123515285Y-83212038D01*
X123420047Y-83307276D01*
X123324809Y-83354895D01*
X131887934Y-89409543D02*
X131840315Y-89457162D01*
X131697458Y-89504781D01*
X131602220Y-89504781D01*
X131459362Y-89457162D01*
X131364124Y-89361924D01*
X131316505Y-89266686D01*
X131268886Y-89076210D01*
X131268886Y-88933352D01*
X131316505Y-88742876D01*
X131364124Y-88647638D01*
X131459362Y-88552400D01*
X131602220Y-88504781D01*
X131697458Y-88504781D01*
X131840315Y-88552400D01*
X131887934Y-88600019D01*
X132840315Y-89504781D02*
X132268886Y-89504781D01*
X132554600Y-89504781D02*
X132554600Y-88504781D01*
X132459362Y-88647638D01*
X132364124Y-88742876D01*
X132268886Y-88790495D01*
X145959534Y-83262743D02*
X145911915Y-83310362D01*
X145769058Y-83357981D01*
X145673820Y-83357981D01*
X145530962Y-83310362D01*
X145435724Y-83215124D01*
X145388105Y-83119886D01*
X145340486Y-82929410D01*
X145340486Y-82786552D01*
X145388105Y-82596076D01*
X145435724Y-82500838D01*
X145530962Y-82405600D01*
X145673820Y-82357981D01*
X145769058Y-82357981D01*
X145911915Y-82405600D01*
X145959534Y-82453219D01*
X146340486Y-82453219D02*
X146388105Y-82405600D01*
X146483343Y-82357981D01*
X146721439Y-82357981D01*
X146816677Y-82405600D01*
X146864296Y-82453219D01*
X146911915Y-82548457D01*
X146911915Y-82643695D01*
X146864296Y-82786552D01*
X146292867Y-83357981D01*
X146911915Y-83357981D01*
X148159743Y-93943466D02*
X148207362Y-93991085D01*
X148254981Y-94133942D01*
X148254981Y-94229180D01*
X148207362Y-94372038D01*
X148112124Y-94467276D01*
X148016886Y-94514895D01*
X147826410Y-94562514D01*
X147683552Y-94562514D01*
X147493076Y-94514895D01*
X147397838Y-94467276D01*
X147302600Y-94372038D01*
X147254981Y-94229180D01*
X147254981Y-94133942D01*
X147302600Y-93991085D01*
X147350219Y-93943466D01*
X147254981Y-93610133D02*
X147254981Y-92991085D01*
X147635933Y-93324419D01*
X147635933Y-93181561D01*
X147683552Y-93086323D01*
X147731171Y-93038704D01*
X147826410Y-92991085D01*
X148064505Y-92991085D01*
X148159743Y-93038704D01*
X148207362Y-93086323D01*
X148254981Y-93181561D01*
X148254981Y-93467276D01*
X148207362Y-93562514D01*
X148159743Y-93610133D01*
X163256934Y-91441543D02*
X163209315Y-91489162D01*
X163066458Y-91536781D01*
X162971220Y-91536781D01*
X162828362Y-91489162D01*
X162733124Y-91393924D01*
X162685505Y-91298686D01*
X162637886Y-91108210D01*
X162637886Y-90965352D01*
X162685505Y-90774876D01*
X162733124Y-90679638D01*
X162828362Y-90584400D01*
X162971220Y-90536781D01*
X163066458Y-90536781D01*
X163209315Y-90584400D01*
X163256934Y-90632019D01*
X164114077Y-90870114D02*
X164114077Y-91536781D01*
X163875981Y-90489162D02*
X163637886Y-91203448D01*
X164256934Y-91203448D01*
X128560534Y-88418943D02*
X128512915Y-88466562D01*
X128370058Y-88514181D01*
X128274820Y-88514181D01*
X128131962Y-88466562D01*
X128036724Y-88371324D01*
X127989105Y-88276086D01*
X127941486Y-88085610D01*
X127941486Y-87942752D01*
X127989105Y-87752276D01*
X128036724Y-87657038D01*
X128131962Y-87561800D01*
X128274820Y-87514181D01*
X128370058Y-87514181D01*
X128512915Y-87561800D01*
X128560534Y-87609419D01*
X129465296Y-87514181D02*
X128989105Y-87514181D01*
X128941486Y-87990371D01*
X128989105Y-87942752D01*
X129084343Y-87895133D01*
X129322439Y-87895133D01*
X129417677Y-87942752D01*
X129465296Y-87990371D01*
X129512915Y-88085610D01*
X129512915Y-88323705D01*
X129465296Y-88418943D01*
X129417677Y-88466562D01*
X129322439Y-88514181D01*
X129084343Y-88514181D01*
X128989105Y-88466562D01*
X128941486Y-88418943D01*
X154951134Y-91314543D02*
X154903515Y-91362162D01*
X154760658Y-91409781D01*
X154665420Y-91409781D01*
X154522562Y-91362162D01*
X154427324Y-91266924D01*
X154379705Y-91171686D01*
X154332086Y-90981210D01*
X154332086Y-90838352D01*
X154379705Y-90647876D01*
X154427324Y-90552638D01*
X154522562Y-90457400D01*
X154665420Y-90409781D01*
X154760658Y-90409781D01*
X154903515Y-90457400D01*
X154951134Y-90505019D01*
X155808277Y-90409781D02*
X155617800Y-90409781D01*
X155522562Y-90457400D01*
X155474943Y-90505019D01*
X155379705Y-90647876D01*
X155332086Y-90838352D01*
X155332086Y-91219305D01*
X155379705Y-91314543D01*
X155427324Y-91362162D01*
X155522562Y-91409781D01*
X155713039Y-91409781D01*
X155808277Y-91362162D01*
X155855896Y-91314543D01*
X155903515Y-91219305D01*
X155903515Y-90981210D01*
X155855896Y-90885971D01*
X155808277Y-90838352D01*
X155713039Y-90790733D01*
X155522562Y-90790733D01*
X155427324Y-90838352D01*
X155379705Y-90885971D01*
X155332086Y-90981210D01*
X156119534Y-82957943D02*
X156071915Y-83005562D01*
X155929058Y-83053181D01*
X155833820Y-83053181D01*
X155690962Y-83005562D01*
X155595724Y-82910324D01*
X155548105Y-82815086D01*
X155500486Y-82624610D01*
X155500486Y-82481752D01*
X155548105Y-82291276D01*
X155595724Y-82196038D01*
X155690962Y-82100800D01*
X155833820Y-82053181D01*
X155929058Y-82053181D01*
X156071915Y-82100800D01*
X156119534Y-82148419D01*
X156452867Y-82053181D02*
X157119534Y-82053181D01*
X156690962Y-83053181D01*
X134646943Y-82157866D02*
X134694562Y-82205485D01*
X134742181Y-82348342D01*
X134742181Y-82443580D01*
X134694562Y-82586438D01*
X134599324Y-82681676D01*
X134504086Y-82729295D01*
X134313610Y-82776914D01*
X134170752Y-82776914D01*
X133980276Y-82729295D01*
X133885038Y-82681676D01*
X133789800Y-82586438D01*
X133742181Y-82443580D01*
X133742181Y-82348342D01*
X133789800Y-82205485D01*
X133837419Y-82157866D01*
X134170752Y-81586438D02*
X134123133Y-81681676D01*
X134075514Y-81729295D01*
X133980276Y-81776914D01*
X133932657Y-81776914D01*
X133837419Y-81729295D01*
X133789800Y-81681676D01*
X133742181Y-81586438D01*
X133742181Y-81395961D01*
X133789800Y-81300723D01*
X133837419Y-81253104D01*
X133932657Y-81205485D01*
X133980276Y-81205485D01*
X134075514Y-81253104D01*
X134123133Y-81300723D01*
X134170752Y-81395961D01*
X134170752Y-81586438D01*
X134218371Y-81681676D01*
X134265990Y-81729295D01*
X134361229Y-81776914D01*
X134551705Y-81776914D01*
X134646943Y-81729295D01*
X134694562Y-81681676D01*
X134742181Y-81586438D01*
X134742181Y-81395961D01*
X134694562Y-81300723D01*
X134646943Y-81253104D01*
X134551705Y-81205485D01*
X134361229Y-81205485D01*
X134265990Y-81253104D01*
X134218371Y-81300723D01*
X134170752Y-81395961D01*
X148489943Y-102960466D02*
X148537562Y-103008085D01*
X148585181Y-103150942D01*
X148585181Y-103246180D01*
X148537562Y-103389038D01*
X148442324Y-103484276D01*
X148347086Y-103531895D01*
X148156610Y-103579514D01*
X148013752Y-103579514D01*
X147823276Y-103531895D01*
X147728038Y-103484276D01*
X147632800Y-103389038D01*
X147585181Y-103246180D01*
X147585181Y-103150942D01*
X147632800Y-103008085D01*
X147680419Y-102960466D01*
X148585181Y-102484276D02*
X148585181Y-102293800D01*
X148537562Y-102198561D01*
X148489943Y-102150942D01*
X148347086Y-102055704D01*
X148156610Y-102008085D01*
X147775657Y-102008085D01*
X147680419Y-102055704D01*
X147632800Y-102103323D01*
X147585181Y-102198561D01*
X147585181Y-102389038D01*
X147632800Y-102484276D01*
X147680419Y-102531895D01*
X147775657Y-102579514D01*
X148013752Y-102579514D01*
X148108990Y-102531895D01*
X148156610Y-102484276D01*
X148204229Y-102389038D01*
X148204229Y-102198561D01*
X148156610Y-102103323D01*
X148108990Y-102055704D01*
X148013752Y-102008085D01*
X126382543Y-104268543D02*
X126334924Y-104316162D01*
X126192067Y-104363781D01*
X126096829Y-104363781D01*
X125953971Y-104316162D01*
X125858733Y-104220924D01*
X125811114Y-104125686D01*
X125763495Y-103935210D01*
X125763495Y-103792352D01*
X125811114Y-103601876D01*
X125858733Y-103506638D01*
X125953971Y-103411400D01*
X126096829Y-103363781D01*
X126192067Y-103363781D01*
X126334924Y-103411400D01*
X126382543Y-103459019D01*
X127334924Y-104363781D02*
X126763495Y-104363781D01*
X127049209Y-104363781D02*
X127049209Y-103363781D01*
X126953971Y-103506638D01*
X126858733Y-103601876D01*
X126763495Y-103649495D01*
X127953971Y-103363781D02*
X128049210Y-103363781D01*
X128144448Y-103411400D01*
X128192067Y-103459019D01*
X128239686Y-103554257D01*
X128287305Y-103744733D01*
X128287305Y-103982829D01*
X128239686Y-104173305D01*
X128192067Y-104268543D01*
X128144448Y-104316162D01*
X128049210Y-104363781D01*
X127953971Y-104363781D01*
X127858733Y-104316162D01*
X127811114Y-104268543D01*
X127763495Y-104173305D01*
X127715876Y-103982829D01*
X127715876Y-103744733D01*
X127763495Y-103554257D01*
X127811114Y-103459019D01*
X127858733Y-103411400D01*
X127953971Y-103363781D01*
X169587943Y-96775543D02*
X169540324Y-96823162D01*
X169397467Y-96870781D01*
X169302229Y-96870781D01*
X169159371Y-96823162D01*
X169064133Y-96727924D01*
X169016514Y-96632686D01*
X168968895Y-96442210D01*
X168968895Y-96299352D01*
X169016514Y-96108876D01*
X169064133Y-96013638D01*
X169159371Y-95918400D01*
X169302229Y-95870781D01*
X169397467Y-95870781D01*
X169540324Y-95918400D01*
X169587943Y-95966019D01*
X170540324Y-96870781D02*
X169968895Y-96870781D01*
X170254609Y-96870781D02*
X170254609Y-95870781D01*
X170159371Y-96013638D01*
X170064133Y-96108876D01*
X169968895Y-96156495D01*
X171492705Y-96870781D02*
X170921276Y-96870781D01*
X171206990Y-96870781D02*
X171206990Y-95870781D01*
X171111752Y-96013638D01*
X171016514Y-96108876D01*
X170921276Y-96156495D01*
X177817543Y-96902543D02*
X177769924Y-96950162D01*
X177627067Y-96997781D01*
X177531829Y-96997781D01*
X177388971Y-96950162D01*
X177293733Y-96854924D01*
X177246114Y-96759686D01*
X177198495Y-96569210D01*
X177198495Y-96426352D01*
X177246114Y-96235876D01*
X177293733Y-96140638D01*
X177388971Y-96045400D01*
X177531829Y-95997781D01*
X177627067Y-95997781D01*
X177769924Y-96045400D01*
X177817543Y-96093019D01*
X178769924Y-96997781D02*
X178198495Y-96997781D01*
X178484209Y-96997781D02*
X178484209Y-95997781D01*
X178388971Y-96140638D01*
X178293733Y-96235876D01*
X178198495Y-96283495D01*
X179150876Y-96093019D02*
X179198495Y-96045400D01*
X179293733Y-95997781D01*
X179531829Y-95997781D01*
X179627067Y-96045400D01*
X179674686Y-96093019D01*
X179722305Y-96188257D01*
X179722305Y-96283495D01*
X179674686Y-96426352D01*
X179103257Y-96997781D01*
X179722305Y-96997781D01*
X148737581Y-89968295D02*
X147737581Y-89968295D01*
X147737581Y-89730200D01*
X147785200Y-89587342D01*
X147880438Y-89492104D01*
X147975676Y-89444485D01*
X148166152Y-89396866D01*
X148309010Y-89396866D01*
X148499486Y-89444485D01*
X148594724Y-89492104D01*
X148689962Y-89587342D01*
X148737581Y-89730200D01*
X148737581Y-89968295D01*
X148737581Y-88444485D02*
X148737581Y-89015914D01*
X148737581Y-88730200D02*
X147737581Y-88730200D01*
X147880438Y-88825438D01*
X147975676Y-88920676D01*
X148023295Y-89015914D01*
X170140334Y-104312981D02*
X169664143Y-104312981D01*
X169664143Y-103312981D01*
X170997477Y-104312981D02*
X170426048Y-104312981D01*
X170711762Y-104312981D02*
X170711762Y-103312981D01*
X170616524Y-103455838D01*
X170521286Y-103551076D01*
X170426048Y-103598695D01*
X162837905Y-100985581D02*
X162837905Y-99985581D01*
X163218858Y-99985581D01*
X163314096Y-100033200D01*
X163361715Y-100080819D01*
X163409334Y-100176057D01*
X163409334Y-100318914D01*
X163361715Y-100414152D01*
X163314096Y-100461771D01*
X163218858Y-100509390D01*
X162837905Y-100509390D01*
X164361715Y-100985581D02*
X163790286Y-100985581D01*
X164076000Y-100985581D02*
X164076000Y-99985581D01*
X163980762Y-100128438D01*
X163885524Y-100223676D01*
X163790286Y-100271295D01*
X180363905Y-86253581D02*
X180363905Y-85253581D01*
X180744858Y-85253581D01*
X180840096Y-85301200D01*
X180887715Y-85348819D01*
X180935334Y-85444057D01*
X180935334Y-85586914D01*
X180887715Y-85682152D01*
X180840096Y-85729771D01*
X180744858Y-85777390D01*
X180363905Y-85777390D01*
X181316286Y-85348819D02*
X181363905Y-85301200D01*
X181459143Y-85253581D01*
X181697239Y-85253581D01*
X181792477Y-85301200D01*
X181840096Y-85348819D01*
X181887715Y-85444057D01*
X181887715Y-85539295D01*
X181840096Y-85682152D01*
X181268667Y-86253581D01*
X181887715Y-86253581D01*
X159899362Y-78119219D02*
X159804124Y-78071600D01*
X159708886Y-77976362D01*
X159566029Y-77833505D01*
X159470790Y-77785886D01*
X159375552Y-77785886D01*
X159423171Y-78023981D02*
X159327933Y-77976362D01*
X159232695Y-77881124D01*
X159185076Y-77690648D01*
X159185076Y-77357314D01*
X159232695Y-77166838D01*
X159327933Y-77071600D01*
X159423171Y-77023981D01*
X159613648Y-77023981D01*
X159708886Y-77071600D01*
X159804124Y-77166838D01*
X159851743Y-77357314D01*
X159851743Y-77690648D01*
X159804124Y-77881124D01*
X159708886Y-77976362D01*
X159613648Y-78023981D01*
X159423171Y-78023981D01*
X160804124Y-78023981D02*
X160232695Y-78023981D01*
X160518409Y-78023981D02*
X160518409Y-77023981D01*
X160423171Y-77166838D01*
X160327933Y-77262076D01*
X160232695Y-77309695D01*
X155860762Y-78220819D02*
X155765524Y-78173200D01*
X155670286Y-78077962D01*
X155527429Y-77935105D01*
X155432190Y-77887486D01*
X155336952Y-77887486D01*
X155384571Y-78125581D02*
X155289333Y-78077962D01*
X155194095Y-77982724D01*
X155146476Y-77792248D01*
X155146476Y-77458914D01*
X155194095Y-77268438D01*
X155289333Y-77173200D01*
X155384571Y-77125581D01*
X155575048Y-77125581D01*
X155670286Y-77173200D01*
X155765524Y-77268438D01*
X155813143Y-77458914D01*
X155813143Y-77792248D01*
X155765524Y-77982724D01*
X155670286Y-78077962D01*
X155575048Y-78125581D01*
X155384571Y-78125581D01*
X156194095Y-77220819D02*
X156241714Y-77173200D01*
X156336952Y-77125581D01*
X156575048Y-77125581D01*
X156670286Y-77173200D01*
X156717905Y-77220819D01*
X156765524Y-77316057D01*
X156765524Y-77411295D01*
X156717905Y-77554152D01*
X156146476Y-78125581D01*
X156765524Y-78125581D01*
X149205962Y-80557619D02*
X149110724Y-80510000D01*
X149015486Y-80414762D01*
X148872629Y-80271905D01*
X148777390Y-80224286D01*
X148682152Y-80224286D01*
X148729771Y-80462381D02*
X148634533Y-80414762D01*
X148539295Y-80319524D01*
X148491676Y-80129048D01*
X148491676Y-79795714D01*
X148539295Y-79605238D01*
X148634533Y-79510000D01*
X148729771Y-79462381D01*
X148920248Y-79462381D01*
X149015486Y-79510000D01*
X149110724Y-79605238D01*
X149158343Y-79795714D01*
X149158343Y-80129048D01*
X149110724Y-80319524D01*
X149015486Y-80414762D01*
X148920248Y-80462381D01*
X148729771Y-80462381D01*
X149491676Y-79462381D02*
X150110724Y-79462381D01*
X149777390Y-79843333D01*
X149920248Y-79843333D01*
X150015486Y-79890952D01*
X150063105Y-79938571D01*
X150110724Y-80033810D01*
X150110724Y-80271905D01*
X150063105Y-80367143D01*
X150015486Y-80414762D01*
X149920248Y-80462381D01*
X149634533Y-80462381D01*
X149539295Y-80414762D01*
X149491676Y-80367143D01*
X148189962Y-84037419D02*
X148094724Y-83989800D01*
X147999486Y-83894562D01*
X147856629Y-83751705D01*
X147761390Y-83704086D01*
X147666152Y-83704086D01*
X147713771Y-83942181D02*
X147618533Y-83894562D01*
X147523295Y-83799324D01*
X147475676Y-83608848D01*
X147475676Y-83275514D01*
X147523295Y-83085038D01*
X147618533Y-82989800D01*
X147713771Y-82942181D01*
X147904248Y-82942181D01*
X147999486Y-82989800D01*
X148094724Y-83085038D01*
X148142343Y-83275514D01*
X148142343Y-83608848D01*
X148094724Y-83799324D01*
X147999486Y-83894562D01*
X147904248Y-83942181D01*
X147713771Y-83942181D01*
X148999486Y-83275514D02*
X148999486Y-83942181D01*
X148761390Y-82894562D02*
X148523295Y-83608848D01*
X149142343Y-83608848D01*
X178111162Y-95289619D02*
X178015924Y-95242000D01*
X177920686Y-95146762D01*
X177777829Y-95003905D01*
X177682590Y-94956286D01*
X177587352Y-94956286D01*
X177634971Y-95194381D02*
X177539733Y-95146762D01*
X177444495Y-95051524D01*
X177396876Y-94861048D01*
X177396876Y-94527714D01*
X177444495Y-94337238D01*
X177539733Y-94242000D01*
X177634971Y-94194381D01*
X177825448Y-94194381D01*
X177920686Y-94242000D01*
X178015924Y-94337238D01*
X178063543Y-94527714D01*
X178063543Y-94861048D01*
X178015924Y-95051524D01*
X177920686Y-95146762D01*
X177825448Y-95194381D01*
X177634971Y-95194381D01*
X178968305Y-94194381D02*
X178492114Y-94194381D01*
X178444495Y-94670571D01*
X178492114Y-94622952D01*
X178587352Y-94575333D01*
X178825448Y-94575333D01*
X178920686Y-94622952D01*
X178968305Y-94670571D01*
X179015924Y-94765810D01*
X179015924Y-95003905D01*
X178968305Y-95099143D01*
X178920686Y-95146762D01*
X178825448Y-95194381D01*
X178587352Y-95194381D01*
X178492114Y-95146762D01*
X178444495Y-95099143D01*
X128662134Y-96311981D02*
X128328800Y-95835790D01*
X128090705Y-96311981D02*
X128090705Y-95311981D01*
X128471658Y-95311981D01*
X128566896Y-95359600D01*
X128614515Y-95407219D01*
X128662134Y-95502457D01*
X128662134Y-95645314D01*
X128614515Y-95740552D01*
X128566896Y-95788171D01*
X128471658Y-95835790D01*
X128090705Y-95835790D01*
X129614515Y-96311981D02*
X129043086Y-96311981D01*
X129328800Y-96311981D02*
X129328800Y-95311981D01*
X129233562Y-95454838D01*
X129138324Y-95550076D01*
X129043086Y-95597695D01*
X134402534Y-99283781D02*
X134069200Y-98807590D01*
X133831105Y-99283781D02*
X133831105Y-98283781D01*
X134212058Y-98283781D01*
X134307296Y-98331400D01*
X134354915Y-98379019D01*
X134402534Y-98474257D01*
X134402534Y-98617114D01*
X134354915Y-98712352D01*
X134307296Y-98759971D01*
X134212058Y-98807590D01*
X133831105Y-98807590D01*
X134783486Y-98379019D02*
X134831105Y-98331400D01*
X134926343Y-98283781D01*
X135164439Y-98283781D01*
X135259677Y-98331400D01*
X135307296Y-98379019D01*
X135354915Y-98474257D01*
X135354915Y-98569495D01*
X135307296Y-98712352D01*
X134735867Y-99283781D01*
X135354915Y-99283781D01*
X131608534Y-91739981D02*
X131275200Y-91263790D01*
X131037105Y-91739981D02*
X131037105Y-90739981D01*
X131418058Y-90739981D01*
X131513296Y-90787600D01*
X131560915Y-90835219D01*
X131608534Y-90930457D01*
X131608534Y-91073314D01*
X131560915Y-91168552D01*
X131513296Y-91216171D01*
X131418058Y-91263790D01*
X131037105Y-91263790D01*
X131941867Y-90739981D02*
X132560915Y-90739981D01*
X132227581Y-91120933D01*
X132370439Y-91120933D01*
X132465677Y-91168552D01*
X132513296Y-91216171D01*
X132560915Y-91311410D01*
X132560915Y-91549505D01*
X132513296Y-91644743D01*
X132465677Y-91692362D01*
X132370439Y-91739981D01*
X132084724Y-91739981D01*
X131989486Y-91692362D01*
X131941867Y-91644743D01*
X146111934Y-80995781D02*
X145778600Y-80519590D01*
X145540505Y-80995781D02*
X145540505Y-79995781D01*
X145921458Y-79995781D01*
X146016696Y-80043400D01*
X146064315Y-80091019D01*
X146111934Y-80186257D01*
X146111934Y-80329114D01*
X146064315Y-80424352D01*
X146016696Y-80471971D01*
X145921458Y-80519590D01*
X145540505Y-80519590D01*
X146969077Y-80329114D02*
X146969077Y-80995781D01*
X146730981Y-79948162D02*
X146492886Y-80662448D01*
X147111934Y-80662448D01*
X140304781Y-92470266D02*
X139828590Y-92803600D01*
X140304781Y-93041695D02*
X139304781Y-93041695D01*
X139304781Y-92660742D01*
X139352400Y-92565504D01*
X139400019Y-92517885D01*
X139495257Y-92470266D01*
X139638114Y-92470266D01*
X139733352Y-92517885D01*
X139780971Y-92565504D01*
X139828590Y-92660742D01*
X139828590Y-93041695D01*
X139304781Y-91565504D02*
X139304781Y-92041695D01*
X139780971Y-92089314D01*
X139733352Y-92041695D01*
X139685733Y-91946457D01*
X139685733Y-91708361D01*
X139733352Y-91613123D01*
X139780971Y-91565504D01*
X139876210Y-91517885D01*
X140114305Y-91517885D01*
X140209543Y-91565504D01*
X140257162Y-91613123D01*
X140304781Y-91708361D01*
X140304781Y-91946457D01*
X140257162Y-92041695D01*
X140209543Y-92089314D01*
X153808134Y-96210381D02*
X153474800Y-95734190D01*
X153236705Y-96210381D02*
X153236705Y-95210381D01*
X153617658Y-95210381D01*
X153712896Y-95258000D01*
X153760515Y-95305619D01*
X153808134Y-95400857D01*
X153808134Y-95543714D01*
X153760515Y-95638952D01*
X153712896Y-95686571D01*
X153617658Y-95734190D01*
X153236705Y-95734190D01*
X154665277Y-95210381D02*
X154474800Y-95210381D01*
X154379562Y-95258000D01*
X154331943Y-95305619D01*
X154236705Y-95448476D01*
X154189086Y-95638952D01*
X154189086Y-96019905D01*
X154236705Y-96115143D01*
X154284324Y-96162762D01*
X154379562Y-96210381D01*
X154570039Y-96210381D01*
X154665277Y-96162762D01*
X154712896Y-96115143D01*
X154760515Y-96019905D01*
X154760515Y-95781810D01*
X154712896Y-95686571D01*
X154665277Y-95638952D01*
X154570039Y-95591333D01*
X154379562Y-95591333D01*
X154284324Y-95638952D01*
X154236705Y-95686571D01*
X154189086Y-95781810D01*
X131583134Y-93848181D02*
X131249800Y-93371990D01*
X131011705Y-93848181D02*
X131011705Y-92848181D01*
X131392658Y-92848181D01*
X131487896Y-92895800D01*
X131535515Y-92943419D01*
X131583134Y-93038657D01*
X131583134Y-93181514D01*
X131535515Y-93276752D01*
X131487896Y-93324371D01*
X131392658Y-93371990D01*
X131011705Y-93371990D01*
X131916467Y-92848181D02*
X132583134Y-92848181D01*
X132154562Y-93848181D01*
X165399981Y-81421266D02*
X164923790Y-81754600D01*
X165399981Y-81992695D02*
X164399981Y-81992695D01*
X164399981Y-81611742D01*
X164447600Y-81516504D01*
X164495219Y-81468885D01*
X164590457Y-81421266D01*
X164733314Y-81421266D01*
X164828552Y-81468885D01*
X164876171Y-81516504D01*
X164923790Y-81611742D01*
X164923790Y-81992695D01*
X165399981Y-80945076D02*
X165399981Y-80754600D01*
X165352362Y-80659361D01*
X165304743Y-80611742D01*
X165161886Y-80516504D01*
X164971410Y-80468885D01*
X164590457Y-80468885D01*
X164495219Y-80516504D01*
X164447600Y-80564123D01*
X164399981Y-80659361D01*
X164399981Y-80849838D01*
X164447600Y-80945076D01*
X164495219Y-80992695D01*
X164590457Y-81040314D01*
X164828552Y-81040314D01*
X164923790Y-80992695D01*
X164971410Y-80945076D01*
X165019029Y-80849838D01*
X165019029Y-80659361D01*
X164971410Y-80564123D01*
X164923790Y-80516504D01*
X164828552Y-80468885D01*
X156481543Y-98470981D02*
X156148209Y-97994790D01*
X155910114Y-98470981D02*
X155910114Y-97470981D01*
X156291067Y-97470981D01*
X156386305Y-97518600D01*
X156433924Y-97566219D01*
X156481543Y-97661457D01*
X156481543Y-97804314D01*
X156433924Y-97899552D01*
X156386305Y-97947171D01*
X156291067Y-97994790D01*
X155910114Y-97994790D01*
X157433924Y-98470981D02*
X156862495Y-98470981D01*
X157148209Y-98470981D02*
X157148209Y-97470981D01*
X157052971Y-97613838D01*
X156957733Y-97709076D01*
X156862495Y-97756695D01*
X158052971Y-97470981D02*
X158148210Y-97470981D01*
X158243448Y-97518600D01*
X158291067Y-97566219D01*
X158338686Y-97661457D01*
X158386305Y-97851933D01*
X158386305Y-98090029D01*
X158338686Y-98280505D01*
X158291067Y-98375743D01*
X158243448Y-98423362D01*
X158148210Y-98470981D01*
X158052971Y-98470981D01*
X157957733Y-98423362D01*
X157910114Y-98375743D01*
X157862495Y-98280505D01*
X157814876Y-98090029D01*
X157814876Y-97851933D01*
X157862495Y-97661457D01*
X157910114Y-97566219D01*
X157957733Y-97518600D01*
X158052971Y-97470981D01*
X131381181Y-82837257D02*
X130904990Y-83170591D01*
X131381181Y-83408686D02*
X130381181Y-83408686D01*
X130381181Y-83027733D01*
X130428800Y-82932495D01*
X130476419Y-82884876D01*
X130571657Y-82837257D01*
X130714514Y-82837257D01*
X130809752Y-82884876D01*
X130857371Y-82932495D01*
X130904990Y-83027733D01*
X130904990Y-83408686D01*
X131381181Y-81884876D02*
X131381181Y-82456305D01*
X131381181Y-82170591D02*
X130381181Y-82170591D01*
X130524038Y-82265829D01*
X130619276Y-82361067D01*
X130666895Y-82456305D01*
X131381181Y-80932495D02*
X131381181Y-81503924D01*
X131381181Y-81218210D02*
X130381181Y-81218210D01*
X130524038Y-81313448D01*
X130619276Y-81408686D01*
X130666895Y-81503924D01*
X159354781Y-87485457D02*
X158878590Y-87818791D01*
X159354781Y-88056886D02*
X158354781Y-88056886D01*
X158354781Y-87675933D01*
X158402400Y-87580695D01*
X158450019Y-87533076D01*
X158545257Y-87485457D01*
X158688114Y-87485457D01*
X158783352Y-87533076D01*
X158830971Y-87580695D01*
X158878590Y-87675933D01*
X158878590Y-88056886D01*
X159354781Y-86533076D02*
X159354781Y-87104505D01*
X159354781Y-86818791D02*
X158354781Y-86818791D01*
X158497638Y-86914029D01*
X158592876Y-87009267D01*
X158640495Y-87104505D01*
X158450019Y-86152124D02*
X158402400Y-86104505D01*
X158354781Y-86009267D01*
X158354781Y-85771171D01*
X158402400Y-85675933D01*
X158450019Y-85628314D01*
X158545257Y-85580695D01*
X158640495Y-85580695D01*
X158783352Y-85628314D01*
X159354781Y-86199743D01*
X159354781Y-85580695D01*
X139034781Y-92489257D02*
X138558590Y-92822591D01*
X139034781Y-93060686D02*
X138034781Y-93060686D01*
X138034781Y-92679733D01*
X138082400Y-92584495D01*
X138130019Y-92536876D01*
X138225257Y-92489257D01*
X138368114Y-92489257D01*
X138463352Y-92536876D01*
X138510971Y-92584495D01*
X138558590Y-92679733D01*
X138558590Y-93060686D01*
X139034781Y-91536876D02*
X139034781Y-92108305D01*
X139034781Y-91822591D02*
X138034781Y-91822591D01*
X138177638Y-91917829D01*
X138272876Y-92013067D01*
X138320495Y-92108305D01*
X138034781Y-91203543D02*
X138034781Y-90584495D01*
X138415733Y-90917829D01*
X138415733Y-90774971D01*
X138463352Y-90679733D01*
X138510971Y-90632114D01*
X138606210Y-90584495D01*
X138844305Y-90584495D01*
X138939543Y-90632114D01*
X138987162Y-90679733D01*
X139034781Y-90774971D01*
X139034781Y-91060686D01*
X138987162Y-91155924D01*
X138939543Y-91203543D01*
X156379943Y-93721181D02*
X156046609Y-93244990D01*
X155808514Y-93721181D02*
X155808514Y-92721181D01*
X156189467Y-92721181D01*
X156284705Y-92768800D01*
X156332324Y-92816419D01*
X156379943Y-92911657D01*
X156379943Y-93054514D01*
X156332324Y-93149752D01*
X156284705Y-93197371D01*
X156189467Y-93244990D01*
X155808514Y-93244990D01*
X157332324Y-93721181D02*
X156760895Y-93721181D01*
X157046609Y-93721181D02*
X157046609Y-92721181D01*
X156951371Y-92864038D01*
X156856133Y-92959276D01*
X156760895Y-93006895D01*
X158189467Y-93054514D02*
X158189467Y-93721181D01*
X157951371Y-92673562D02*
X157713276Y-93387848D01*
X158332324Y-93387848D01*
X154957543Y-89098381D02*
X154624209Y-88622190D01*
X154386114Y-89098381D02*
X154386114Y-88098381D01*
X154767067Y-88098381D01*
X154862305Y-88146000D01*
X154909924Y-88193619D01*
X154957543Y-88288857D01*
X154957543Y-88431714D01*
X154909924Y-88526952D01*
X154862305Y-88574571D01*
X154767067Y-88622190D01*
X154386114Y-88622190D01*
X155909924Y-89098381D02*
X155338495Y-89098381D01*
X155624209Y-89098381D02*
X155624209Y-88098381D01*
X155528971Y-88241238D01*
X155433733Y-88336476D01*
X155338495Y-88384095D01*
X156814686Y-88098381D02*
X156338495Y-88098381D01*
X156290876Y-88574571D01*
X156338495Y-88526952D01*
X156433733Y-88479333D01*
X156671829Y-88479333D01*
X156767067Y-88526952D01*
X156814686Y-88574571D01*
X156862305Y-88669810D01*
X156862305Y-88907905D01*
X156814686Y-89003143D01*
X156767067Y-89050762D01*
X156671829Y-89098381D01*
X156433733Y-89098381D01*
X156338495Y-89050762D01*
X156290876Y-89003143D01*
X137282181Y-82202257D02*
X136805990Y-82535591D01*
X137282181Y-82773686D02*
X136282181Y-82773686D01*
X136282181Y-82392733D01*
X136329800Y-82297495D01*
X136377419Y-82249876D01*
X136472657Y-82202257D01*
X136615514Y-82202257D01*
X136710752Y-82249876D01*
X136758371Y-82297495D01*
X136805990Y-82392733D01*
X136805990Y-82773686D01*
X137282181Y-81249876D02*
X137282181Y-81821305D01*
X137282181Y-81535591D02*
X136282181Y-81535591D01*
X136425038Y-81630829D01*
X136520276Y-81726067D01*
X136567895Y-81821305D01*
X136282181Y-80392733D02*
X136282181Y-80583210D01*
X136329800Y-80678448D01*
X136377419Y-80726067D01*
X136520276Y-80821305D01*
X136710752Y-80868924D01*
X137091705Y-80868924D01*
X137186943Y-80821305D01*
X137234562Y-80773686D01*
X137282181Y-80678448D01*
X137282181Y-80487971D01*
X137234562Y-80392733D01*
X137186943Y-80345114D01*
X137091705Y-80297495D01*
X136853610Y-80297495D01*
X136758371Y-80345114D01*
X136710752Y-80392733D01*
X136663133Y-80487971D01*
X136663133Y-80678448D01*
X136710752Y-80773686D01*
X136758371Y-80821305D01*
X136853610Y-80868924D01*
X166009581Y-84716857D02*
X165533390Y-85050191D01*
X166009581Y-85288286D02*
X165009581Y-85288286D01*
X165009581Y-84907333D01*
X165057200Y-84812095D01*
X165104819Y-84764476D01*
X165200057Y-84716857D01*
X165342914Y-84716857D01*
X165438152Y-84764476D01*
X165485771Y-84812095D01*
X165533390Y-84907333D01*
X165533390Y-85288286D01*
X166009581Y-83764476D02*
X166009581Y-84335905D01*
X166009581Y-84050191D02*
X165009581Y-84050191D01*
X165152438Y-84145429D01*
X165247676Y-84240667D01*
X165295295Y-84335905D01*
X165009581Y-83431143D02*
X165009581Y-82764476D01*
X166009581Y-83193048D01*
X154932143Y-87015581D02*
X154598809Y-86539390D01*
X154360714Y-87015581D02*
X154360714Y-86015581D01*
X154741667Y-86015581D01*
X154836905Y-86063200D01*
X154884524Y-86110819D01*
X154932143Y-86206057D01*
X154932143Y-86348914D01*
X154884524Y-86444152D01*
X154836905Y-86491771D01*
X154741667Y-86539390D01*
X154360714Y-86539390D01*
X155884524Y-87015581D02*
X155313095Y-87015581D01*
X155598809Y-87015581D02*
X155598809Y-86015581D01*
X155503571Y-86158438D01*
X155408333Y-86253676D01*
X155313095Y-86301295D01*
X156455952Y-86444152D02*
X156360714Y-86396533D01*
X156313095Y-86348914D01*
X156265476Y-86253676D01*
X156265476Y-86206057D01*
X156313095Y-86110819D01*
X156360714Y-86063200D01*
X156455952Y-86015581D01*
X156646429Y-86015581D01*
X156741667Y-86063200D01*
X156789286Y-86110819D01*
X156836905Y-86206057D01*
X156836905Y-86253676D01*
X156789286Y-86348914D01*
X156741667Y-86396533D01*
X156646429Y-86444152D01*
X156455952Y-86444152D01*
X156360714Y-86491771D01*
X156313095Y-86539390D01*
X156265476Y-86634629D01*
X156265476Y-86825105D01*
X156313095Y-86920343D01*
X156360714Y-86967962D01*
X156455952Y-87015581D01*
X156646429Y-87015581D01*
X156741667Y-86967962D01*
X156789286Y-86920343D01*
X156836905Y-86825105D01*
X156836905Y-86634629D01*
X156789286Y-86539390D01*
X156741667Y-86491771D01*
X156646429Y-86444152D01*
X127884181Y-100642657D02*
X127407990Y-100975991D01*
X127884181Y-101214086D02*
X126884181Y-101214086D01*
X126884181Y-100833133D01*
X126931800Y-100737895D01*
X126979419Y-100690276D01*
X127074657Y-100642657D01*
X127217514Y-100642657D01*
X127312752Y-100690276D01*
X127360371Y-100737895D01*
X127407990Y-100833133D01*
X127407990Y-101214086D01*
X127884181Y-99690276D02*
X127884181Y-100261705D01*
X127884181Y-99975991D02*
X126884181Y-99975991D01*
X127027038Y-100071229D01*
X127122276Y-100166467D01*
X127169895Y-100261705D01*
X127884181Y-99214086D02*
X127884181Y-99023610D01*
X127836562Y-98928371D01*
X127788943Y-98880752D01*
X127646086Y-98785514D01*
X127455610Y-98737895D01*
X127074657Y-98737895D01*
X126979419Y-98785514D01*
X126931800Y-98833133D01*
X126884181Y-98928371D01*
X126884181Y-99118848D01*
X126931800Y-99214086D01*
X126979419Y-99261705D01*
X127074657Y-99309324D01*
X127312752Y-99309324D01*
X127407990Y-99261705D01*
X127455610Y-99214086D01*
X127503229Y-99118848D01*
X127503229Y-98928371D01*
X127455610Y-98833133D01*
X127407990Y-98785514D01*
X127312752Y-98737895D01*
X155135343Y-104541581D02*
X154802009Y-104065390D01*
X154563914Y-104541581D02*
X154563914Y-103541581D01*
X154944867Y-103541581D01*
X155040105Y-103589200D01*
X155087724Y-103636819D01*
X155135343Y-103732057D01*
X155135343Y-103874914D01*
X155087724Y-103970152D01*
X155040105Y-104017771D01*
X154944867Y-104065390D01*
X154563914Y-104065390D01*
X155516295Y-103636819D02*
X155563914Y-103589200D01*
X155659152Y-103541581D01*
X155897248Y-103541581D01*
X155992486Y-103589200D01*
X156040105Y-103636819D01*
X156087724Y-103732057D01*
X156087724Y-103827295D01*
X156040105Y-103970152D01*
X155468676Y-104541581D01*
X156087724Y-104541581D01*
X156706771Y-103541581D02*
X156802010Y-103541581D01*
X156897248Y-103589200D01*
X156944867Y-103636819D01*
X156992486Y-103732057D01*
X157040105Y-103922533D01*
X157040105Y-104160629D01*
X156992486Y-104351105D01*
X156944867Y-104446343D01*
X156897248Y-104493962D01*
X156802010Y-104541581D01*
X156706771Y-104541581D01*
X156611533Y-104493962D01*
X156563914Y-104446343D01*
X156516295Y-104351105D01*
X156468676Y-104160629D01*
X156468676Y-103922533D01*
X156516295Y-103732057D01*
X156563914Y-103636819D01*
X156611533Y-103589200D01*
X156706771Y-103541581D01*
X141727181Y-103385857D02*
X141250990Y-103719191D01*
X141727181Y-103957286D02*
X140727181Y-103957286D01*
X140727181Y-103576333D01*
X140774800Y-103481095D01*
X140822419Y-103433476D01*
X140917657Y-103385857D01*
X141060514Y-103385857D01*
X141155752Y-103433476D01*
X141203371Y-103481095D01*
X141250990Y-103576333D01*
X141250990Y-103957286D01*
X140822419Y-103004905D02*
X140774800Y-102957286D01*
X140727181Y-102862048D01*
X140727181Y-102623952D01*
X140774800Y-102528714D01*
X140822419Y-102481095D01*
X140917657Y-102433476D01*
X141012895Y-102433476D01*
X141155752Y-102481095D01*
X141727181Y-103052524D01*
X141727181Y-102433476D01*
X141727181Y-101481095D02*
X141727181Y-102052524D01*
X141727181Y-101766810D02*
X140727181Y-101766810D01*
X140870038Y-101862048D01*
X140965276Y-101957286D01*
X141012895Y-102052524D01*
X155160743Y-101976181D02*
X154827409Y-101499990D01*
X154589314Y-101976181D02*
X154589314Y-100976181D01*
X154970267Y-100976181D01*
X155065505Y-101023800D01*
X155113124Y-101071419D01*
X155160743Y-101166657D01*
X155160743Y-101309514D01*
X155113124Y-101404752D01*
X155065505Y-101452371D01*
X154970267Y-101499990D01*
X154589314Y-101499990D01*
X155541695Y-101071419D02*
X155589314Y-101023800D01*
X155684552Y-100976181D01*
X155922648Y-100976181D01*
X156017886Y-101023800D01*
X156065505Y-101071419D01*
X156113124Y-101166657D01*
X156113124Y-101261895D01*
X156065505Y-101404752D01*
X155494076Y-101976181D01*
X156113124Y-101976181D01*
X156494076Y-101071419D02*
X156541695Y-101023800D01*
X156636933Y-100976181D01*
X156875029Y-100976181D01*
X156970267Y-101023800D01*
X157017886Y-101071419D01*
X157065505Y-101166657D01*
X157065505Y-101261895D01*
X157017886Y-101404752D01*
X156446457Y-101976181D01*
X157065505Y-101976181D01*
X143327381Y-103512857D02*
X142851190Y-103846191D01*
X143327381Y-104084286D02*
X142327381Y-104084286D01*
X142327381Y-103703333D01*
X142375000Y-103608095D01*
X142422619Y-103560476D01*
X142517857Y-103512857D01*
X142660714Y-103512857D01*
X142755952Y-103560476D01*
X142803571Y-103608095D01*
X142851190Y-103703333D01*
X142851190Y-104084286D01*
X142422619Y-103131905D02*
X142375000Y-103084286D01*
X142327381Y-102989048D01*
X142327381Y-102750952D01*
X142375000Y-102655714D01*
X142422619Y-102608095D01*
X142517857Y-102560476D01*
X142613095Y-102560476D01*
X142755952Y-102608095D01*
X143327381Y-103179524D01*
X143327381Y-102560476D01*
X142327381Y-102227143D02*
X142327381Y-101608095D01*
X142708333Y-101941429D01*
X142708333Y-101798571D01*
X142755952Y-101703333D01*
X142803571Y-101655714D01*
X142898810Y-101608095D01*
X143136905Y-101608095D01*
X143232143Y-101655714D01*
X143279762Y-101703333D01*
X143327381Y-101798571D01*
X143327381Y-102084286D01*
X143279762Y-102179524D01*
X143232143Y-102227143D01*
X165374581Y-88145857D02*
X164898390Y-88479191D01*
X165374581Y-88717286D02*
X164374581Y-88717286D01*
X164374581Y-88336333D01*
X164422200Y-88241095D01*
X164469819Y-88193476D01*
X164565057Y-88145857D01*
X164707914Y-88145857D01*
X164803152Y-88193476D01*
X164850771Y-88241095D01*
X164898390Y-88336333D01*
X164898390Y-88717286D01*
X164469819Y-87764905D02*
X164422200Y-87717286D01*
X164374581Y-87622048D01*
X164374581Y-87383952D01*
X164422200Y-87288714D01*
X164469819Y-87241095D01*
X164565057Y-87193476D01*
X164660295Y-87193476D01*
X164803152Y-87241095D01*
X165374581Y-87812524D01*
X165374581Y-87193476D01*
X164707914Y-86336333D02*
X165374581Y-86336333D01*
X164326962Y-86574429D02*
X165041248Y-86812524D01*
X165041248Y-86193476D01*
X183510181Y-94292657D02*
X183033990Y-94625991D01*
X183510181Y-94864086D02*
X182510181Y-94864086D01*
X182510181Y-94483133D01*
X182557800Y-94387895D01*
X182605419Y-94340276D01*
X182700657Y-94292657D01*
X182843514Y-94292657D01*
X182938752Y-94340276D01*
X182986371Y-94387895D01*
X183033990Y-94483133D01*
X183033990Y-94864086D01*
X182605419Y-93911705D02*
X182557800Y-93864086D01*
X182510181Y-93768848D01*
X182510181Y-93530752D01*
X182557800Y-93435514D01*
X182605419Y-93387895D01*
X182700657Y-93340276D01*
X182795895Y-93340276D01*
X182938752Y-93387895D01*
X183510181Y-93959324D01*
X183510181Y-93340276D01*
X182510181Y-92435514D02*
X182510181Y-92911705D01*
X182986371Y-92959324D01*
X182938752Y-92911705D01*
X182891133Y-92816467D01*
X182891133Y-92578371D01*
X182938752Y-92483133D01*
X182986371Y-92435514D01*
X183081610Y-92387895D01*
X183319705Y-92387895D01*
X183414943Y-92435514D01*
X183462562Y-92483133D01*
X183510181Y-92578371D01*
X183510181Y-92816467D01*
X183462562Y-92911705D01*
X183414943Y-92959324D01*
X169308543Y-91612981D02*
X168975209Y-91136790D01*
X168737114Y-91612981D02*
X168737114Y-90612981D01*
X169118067Y-90612981D01*
X169213305Y-90660600D01*
X169260924Y-90708219D01*
X169308543Y-90803457D01*
X169308543Y-90946314D01*
X169260924Y-91041552D01*
X169213305Y-91089171D01*
X169118067Y-91136790D01*
X168737114Y-91136790D01*
X169689495Y-90708219D02*
X169737114Y-90660600D01*
X169832352Y-90612981D01*
X170070448Y-90612981D01*
X170165686Y-90660600D01*
X170213305Y-90708219D01*
X170260924Y-90803457D01*
X170260924Y-90898695D01*
X170213305Y-91041552D01*
X169641876Y-91612981D01*
X170260924Y-91612981D01*
X171118067Y-90612981D02*
X170927590Y-90612981D01*
X170832352Y-90660600D01*
X170784733Y-90708219D01*
X170689495Y-90851076D01*
X170641876Y-91041552D01*
X170641876Y-91422505D01*
X170689495Y-91517743D01*
X170737114Y-91565362D01*
X170832352Y-91612981D01*
X171022829Y-91612981D01*
X171118067Y-91565362D01*
X171165686Y-91517743D01*
X171213305Y-91422505D01*
X171213305Y-91184410D01*
X171165686Y-91089171D01*
X171118067Y-91041552D01*
X171022829Y-90993933D01*
X170832352Y-90993933D01*
X170737114Y-91041552D01*
X170689495Y-91089171D01*
X170641876Y-91184410D01*
X169308543Y-93822781D02*
X168975209Y-93346590D01*
X168737114Y-93822781D02*
X168737114Y-92822781D01*
X169118067Y-92822781D01*
X169213305Y-92870400D01*
X169260924Y-92918019D01*
X169308543Y-93013257D01*
X169308543Y-93156114D01*
X169260924Y-93251352D01*
X169213305Y-93298971D01*
X169118067Y-93346590D01*
X168737114Y-93346590D01*
X169689495Y-92918019D02*
X169737114Y-92870400D01*
X169832352Y-92822781D01*
X170070448Y-92822781D01*
X170165686Y-92870400D01*
X170213305Y-92918019D01*
X170260924Y-93013257D01*
X170260924Y-93108495D01*
X170213305Y-93251352D01*
X169641876Y-93822781D01*
X170260924Y-93822781D01*
X170594257Y-92822781D02*
X171260924Y-92822781D01*
X170832352Y-93822781D01*
D13*
X131890710Y-100325525D02*
X131557123Y-99848972D01*
X131318847Y-100325525D02*
X131318847Y-99324765D01*
X131700089Y-99324765D01*
X131795400Y-99372420D01*
X131843055Y-99420075D01*
X131890710Y-99515386D01*
X131890710Y-99658351D01*
X131843055Y-99753662D01*
X131795400Y-99801317D01*
X131700089Y-99848972D01*
X131318847Y-99848972D01*
X132176641Y-99324765D02*
X132510228Y-100325525D01*
X132843815Y-99324765D01*
X133701609Y-100325525D02*
X133129746Y-100325525D01*
X133415677Y-100325525D02*
X133415677Y-99324765D01*
X133320367Y-99467730D01*
X133225056Y-99563041D01*
X133129746Y-99610696D01*
D14*
X129966055Y-100043282D02*
X129680123Y-100043282D01*
X129823089Y-100043282D02*
X129823089Y-99542902D01*
X129775434Y-99614385D01*
X129727779Y-99662040D01*
X129680123Y-99685868D01*
X130275814Y-99542902D02*
X130323469Y-99542902D01*
X130371124Y-99566730D01*
X130394952Y-99590558D01*
X130418779Y-99638213D01*
X130442607Y-99733523D01*
X130442607Y-99852661D01*
X130418779Y-99947972D01*
X130394952Y-99995627D01*
X130371124Y-100019455D01*
X130323469Y-100043282D01*
X130275814Y-100043282D01*
X130228158Y-100019455D01*
X130204331Y-99995627D01*
X130180503Y-99947972D01*
X130156675Y-99852661D01*
X130156675Y-99733523D01*
X130180503Y-99638213D01*
X130204331Y-99590558D01*
X130228158Y-99566730D01*
X130275814Y-99542902D01*
X130657055Y-100043282D02*
X130657055Y-99542902D01*
X130704710Y-99852661D02*
X130847676Y-100043282D01*
X130847676Y-99709696D02*
X130657055Y-99900317D01*
D12*
X121094667Y-98016962D02*
X121237524Y-98064581D01*
X121475620Y-98064581D01*
X121570858Y-98016962D01*
X121618477Y-97969343D01*
X121666096Y-97874105D01*
X121666096Y-97778867D01*
X121618477Y-97683629D01*
X121570858Y-97636010D01*
X121475620Y-97588390D01*
X121285143Y-97540771D01*
X121189905Y-97493152D01*
X121142286Y-97445533D01*
X121094667Y-97350295D01*
X121094667Y-97255057D01*
X121142286Y-97159819D01*
X121189905Y-97112200D01*
X121285143Y-97064581D01*
X121523239Y-97064581D01*
X121666096Y-97112200D01*
X121999429Y-97064581D02*
X122237524Y-98064581D01*
X122428001Y-97350295D01*
X122618477Y-98064581D01*
X122856572Y-97064581D01*
X123761334Y-98064581D02*
X123189905Y-98064581D01*
X123475619Y-98064581D02*
X123475619Y-97064581D01*
X123380381Y-97207438D01*
X123285143Y-97302676D01*
X123189905Y-97350295D01*
X171158067Y-82776962D02*
X171300924Y-82824581D01*
X171539020Y-82824581D01*
X171634258Y-82776962D01*
X171681877Y-82729343D01*
X171729496Y-82634105D01*
X171729496Y-82538867D01*
X171681877Y-82443629D01*
X171634258Y-82396010D01*
X171539020Y-82348390D01*
X171348543Y-82300771D01*
X171253305Y-82253152D01*
X171205686Y-82205533D01*
X171158067Y-82110295D01*
X171158067Y-82015057D01*
X171205686Y-81919819D01*
X171253305Y-81872200D01*
X171348543Y-81824581D01*
X171586639Y-81824581D01*
X171729496Y-81872200D01*
X172062829Y-81824581D02*
X172300924Y-82824581D01*
X172491401Y-82110295D01*
X172681877Y-82824581D01*
X172919972Y-81824581D01*
X173253305Y-81919819D02*
X173300924Y-81872200D01*
X173396162Y-81824581D01*
X173634258Y-81824581D01*
X173729496Y-81872200D01*
X173777115Y-81919819D01*
X173824734Y-82015057D01*
X173824734Y-82110295D01*
X173777115Y-82253152D01*
X173205686Y-82824581D01*
X173824734Y-82824581D01*
X142214695Y-86396581D02*
X142214695Y-87206105D01*
X142262314Y-87301343D01*
X142309933Y-87348962D01*
X142405171Y-87396581D01*
X142595648Y-87396581D01*
X142690886Y-87348962D01*
X142738505Y-87301343D01*
X142786124Y-87206105D01*
X142786124Y-86396581D01*
X143786124Y-87396581D02*
X143214695Y-87396581D01*
X143500409Y-87396581D02*
X143500409Y-86396581D01*
X143405171Y-86539438D01*
X143309933Y-86634676D01*
X143214695Y-86682295D01*
X142189295Y-97420181D02*
X142189295Y-98229705D01*
X142236914Y-98324943D01*
X142284533Y-98372562D01*
X142379771Y-98420181D01*
X142570248Y-98420181D01*
X142665486Y-98372562D01*
X142713105Y-98324943D01*
X142760724Y-98229705D01*
X142760724Y-97420181D01*
X143189295Y-97515419D02*
X143236914Y-97467800D01*
X143332152Y-97420181D01*
X143570248Y-97420181D01*
X143665486Y-97467800D01*
X143713105Y-97515419D01*
X143760724Y-97610657D01*
X143760724Y-97705895D01*
X143713105Y-97848752D01*
X143141676Y-98420181D01*
X143760724Y-98420181D01*
X173101095Y-101077781D02*
X173101095Y-101887305D01*
X173148714Y-101982543D01*
X173196333Y-102030162D01*
X173291571Y-102077781D01*
X173482048Y-102077781D01*
X173577286Y-102030162D01*
X173624905Y-101982543D01*
X173672524Y-101887305D01*
X173672524Y-101077781D01*
X174577286Y-101411114D02*
X174577286Y-102077781D01*
X174339190Y-101030162D02*
X174101095Y-101744448D01*
X174720143Y-101744448D01*
M02*
