G04 #@! TF.FileFunction,Copper,L2,Bot,Signal*
%FSLAX46Y46*%
G04 Gerber Fmt 4.6, Leading zero omitted, Abs format (unit mm)*
G04 Created by KiCad (PCBNEW 4.0.4-stable) date Sunday, October 16, 2016 'PMt' 01:32:53 PM*
%MOMM*%
%LPD*%
G01*
G04 APERTURE LIST*
%ADD10C,0.100000*%
%ADD11C,0.600000*%
%ADD12C,0.254000*%
G04 APERTURE END LIST*
D10*
D11*
X149098000Y-78740000D03*
X157784800Y-95961200D03*
X165862000Y-97917000D03*
X152146000Y-84709000D03*
X158369000Y-82550000D03*
X141986000Y-101981000D03*
X172643800Y-93700600D03*
X117906800Y-96926400D03*
X121996200Y-86690200D03*
X177901600Y-94538800D03*
D12*
G36*
X185231082Y-77058878D02*
X185286255Y-77095745D01*
X185323121Y-77150918D01*
X185345000Y-77260911D01*
X185345000Y-105111089D01*
X185323121Y-105221082D01*
X185286255Y-105276255D01*
X185231082Y-105313122D01*
X185121090Y-105335000D01*
X116376911Y-105335000D01*
X116266918Y-105313121D01*
X116211745Y-105276255D01*
X116174878Y-105221082D01*
X116153000Y-105111090D01*
X116153000Y-77260910D01*
X116174878Y-77150918D01*
X116211745Y-77095745D01*
X116266918Y-77058879D01*
X116376911Y-77037000D01*
X185121090Y-77037000D01*
X185231082Y-77058878D01*
X185231082Y-77058878D01*
G37*
X185231082Y-77058878D02*
X185286255Y-77095745D01*
X185323121Y-77150918D01*
X185345000Y-77260911D01*
X185345000Y-105111089D01*
X185323121Y-105221082D01*
X185286255Y-105276255D01*
X185231082Y-105313122D01*
X185121090Y-105335000D01*
X116376911Y-105335000D01*
X116266918Y-105313121D01*
X116211745Y-105276255D01*
X116174878Y-105221082D01*
X116153000Y-105111090D01*
X116153000Y-77260910D01*
X116174878Y-77150918D01*
X116211745Y-77095745D01*
X116266918Y-77058879D01*
X116376911Y-77037000D01*
X185121090Y-77037000D01*
X185231082Y-77058878D01*
M02*
