G04 #@! TF.FileFunction,Copper,L1,Top,Signal*
%FSLAX46Y46*%
G04 Gerber Fmt 4.6, Leading zero omitted, Abs format (unit mm)*
G04 Created by KiCad (PCBNEW 4.0.4-stable) date Sunday, October 16, 2016 'PMt' 01:32:53 PM*
%MOMM*%
%LPD*%
G01*
G04 APERTURE LIST*
%ADD10C,0.100000*%
%ADD11R,1.500000X1.250000*%
%ADD12R,1.250000X1.500000*%
%ADD13R,0.600000X0.700000*%
%ADD14R,0.700000X0.600000*%
%ADD15R,1.500000X1.300000*%
%ADD16R,2.400000X6.350000*%
%ADD17R,0.800100X0.800100*%
%ADD18R,1.300000X1.500000*%
%ADD19R,1.600200X1.501140*%
%ADD20R,1.198880X1.198880*%
%ADD21R,6.350000X2.400000*%
%ADD22R,1.143000X0.508000*%
%ADD23R,3.048000X1.651000*%
%ADD24R,6.096000X6.096000*%
%ADD25C,0.600000*%
%ADD26C,0.250000*%
%ADD27C,0.500000*%
%ADD28C,0.254000*%
G04 APERTURE END LIST*
D10*
D11*
X120503000Y-103632000D03*
X118003000Y-103632000D03*
D12*
X133350000Y-96500000D03*
X133350000Y-94000000D03*
X155702000Y-84348000D03*
X155702000Y-86848000D03*
D11*
X167112000Y-95504000D03*
X164612000Y-95504000D03*
D12*
X119380000Y-95230000D03*
X119380000Y-92730000D03*
D11*
X128885000Y-101600000D03*
X126385000Y-101600000D03*
D12*
X160909000Y-84348000D03*
X160909000Y-86848000D03*
X167259000Y-102723000D03*
X167259000Y-100223000D03*
D11*
X130957000Y-86233000D03*
X133457000Y-86233000D03*
X150134000Y-94107000D03*
X152634000Y-94107000D03*
X147848000Y-81915000D03*
X150348000Y-81915000D03*
X147594000Y-104140000D03*
X150094000Y-104140000D03*
D12*
X141732000Y-96627000D03*
X141732000Y-94127000D03*
D13*
X124395000Y-88900000D03*
X125795000Y-88900000D03*
X157669000Y-80137000D03*
X159069000Y-80137000D03*
X125795000Y-90297000D03*
X124395000Y-90297000D03*
D14*
X130937000Y-84139000D03*
X130937000Y-82739000D03*
D13*
X131507000Y-81153000D03*
X132907000Y-81153000D03*
D14*
X133477000Y-82739000D03*
X133477000Y-84139000D03*
D15*
X150194000Y-100076000D03*
X147494000Y-100076000D03*
D16*
X119055000Y-81280000D03*
X126055000Y-81280000D03*
X160599000Y-100076000D03*
X153599000Y-100076000D03*
D17*
X180959760Y-101407000D03*
X180959760Y-99507000D03*
X178960780Y-100457000D03*
X177403760Y-98486000D03*
X177403760Y-96586000D03*
X175404780Y-97536000D03*
X177353000Y-100345240D03*
X175453000Y-100345240D03*
X176403000Y-102344220D03*
X173924000Y-98313240D03*
X172024000Y-98313240D03*
X172974000Y-100312220D03*
D15*
X147748000Y-84709000D03*
X150448000Y-84709000D03*
X144479000Y-84582000D03*
X141779000Y-84582000D03*
X117903000Y-98552000D03*
X120603000Y-98552000D03*
D18*
X136144000Y-96600000D03*
X136144000Y-93900000D03*
D15*
X120603000Y-101092000D03*
X117903000Y-101092000D03*
D18*
X158369000Y-84248000D03*
X158369000Y-86948000D03*
D15*
X157781000Y-94488000D03*
X160481000Y-94488000D03*
X167212000Y-97917000D03*
X164512000Y-97917000D03*
X172640000Y-91948000D03*
X175340000Y-91948000D03*
X155114000Y-89662000D03*
X157814000Y-89662000D03*
X122000000Y-88265000D03*
X119300000Y-88265000D03*
D18*
X179451000Y-94535000D03*
X179451000Y-97235000D03*
X128016000Y-91647000D03*
X128016000Y-88947000D03*
X141732000Y-87931000D03*
X141732000Y-90631000D03*
D15*
X157781000Y-91948000D03*
X160481000Y-91948000D03*
D18*
X163576000Y-86948000D03*
X163576000Y-84248000D03*
X182753000Y-94662000D03*
X182753000Y-97362000D03*
X166243000Y-84248000D03*
X166243000Y-86948000D03*
D15*
X130857000Y-88900000D03*
X133557000Y-88900000D03*
X147748000Y-78740000D03*
X150448000Y-78740000D03*
X144827000Y-96647000D03*
X147527000Y-96647000D03*
X136953000Y-78740000D03*
X139653000Y-78740000D03*
X144827000Y-94107000D03*
X147527000Y-94107000D03*
X139653000Y-81534000D03*
X136953000Y-81534000D03*
D18*
X182753000Y-102569000D03*
X182753000Y-99869000D03*
D19*
X143129000Y-81915000D03*
D20*
X144129760Y-78673960D03*
X142128240Y-78673960D03*
D21*
X172212000Y-87066000D03*
X172212000Y-80066000D03*
D22*
X130810000Y-93980000D03*
X130810000Y-95250000D03*
X130810000Y-96520000D03*
X130810000Y-97790000D03*
X124460000Y-97790000D03*
X124460000Y-96520000D03*
X124460000Y-95250000D03*
X124460000Y-93980000D03*
X152273000Y-86868000D03*
X152273000Y-88138000D03*
X152273000Y-89408000D03*
X152273000Y-90678000D03*
X145923000Y-90678000D03*
X145923000Y-89408000D03*
X145923000Y-88138000D03*
X145923000Y-86868000D03*
X162814000Y-93345000D03*
X162814000Y-92075000D03*
X162814000Y-90805000D03*
X162814000Y-89535000D03*
X169164000Y-89535000D03*
X169164000Y-90805000D03*
X169164000Y-92075000D03*
X169164000Y-93345000D03*
D23*
X141986000Y-104140000D03*
D24*
X135636000Y-101854000D03*
D23*
X141986000Y-99568000D03*
D21*
X181330600Y-80066000D03*
X181330600Y-87066000D03*
D25*
X149098000Y-78740000D03*
X157784800Y-95961200D03*
X165862000Y-97917000D03*
X152146000Y-84709000D03*
X158369000Y-82550000D03*
X141986000Y-101981000D03*
X172643800Y-93700600D03*
X117906800Y-96926400D03*
X121996200Y-86690200D03*
X177901600Y-94538800D03*
D26*
X120503000Y-103632000D02*
X120503000Y-101192000D01*
X120503000Y-101192000D02*
X120603000Y-101092000D01*
X120603000Y-101092000D02*
X120603000Y-98552000D01*
X124460000Y-96520000D02*
X120904000Y-96520000D01*
X120603000Y-96821000D02*
X120603000Y-98552000D01*
X120904000Y-96520000D02*
X120603000Y-96821000D01*
X166243000Y-84248000D02*
X167153600Y-84248000D01*
X170281600Y-89535000D02*
X169164000Y-89535000D01*
X170561000Y-89814400D02*
X170281600Y-89535000D01*
X170561000Y-91186000D02*
X170561000Y-89814400D01*
X170307000Y-91440000D02*
X170561000Y-91186000D01*
X167817800Y-91440000D02*
X170307000Y-91440000D01*
X167462200Y-91084400D02*
X167817800Y-91440000D01*
X167462200Y-84556600D02*
X167462200Y-91084400D01*
X167153600Y-84248000D02*
X167462200Y-84556600D01*
D27*
X133350000Y-94000000D02*
X136044000Y-94000000D01*
X136044000Y-94000000D02*
X136144000Y-93900000D01*
X130810000Y-93980000D02*
X133330000Y-93980000D01*
X133330000Y-93980000D02*
X133410000Y-93900000D01*
D26*
X136044000Y-94000000D02*
X136144000Y-93900000D01*
X133330000Y-93980000D02*
X133350000Y-94000000D01*
D27*
X155702000Y-86848000D02*
X158269000Y-86848000D01*
X158269000Y-86848000D02*
X158369000Y-86948000D01*
X152273000Y-86868000D02*
X155682000Y-86868000D01*
X155682000Y-86868000D02*
X155702000Y-86848000D01*
X164612000Y-95504000D02*
X164612000Y-97817000D01*
X164612000Y-97817000D02*
X164512000Y-97917000D01*
X164612000Y-95504000D02*
X164612000Y-92603000D01*
X164084000Y-92075000D02*
X162814000Y-92075000D01*
X164612000Y-92603000D02*
X164084000Y-92075000D01*
D26*
X125795000Y-90297000D02*
X125795000Y-95083400D01*
X125628400Y-95250000D02*
X124460000Y-95250000D01*
X125795000Y-95083400D02*
X125628400Y-95250000D01*
X125795000Y-90297000D02*
X133223000Y-90297000D01*
X133557000Y-89963000D02*
X133557000Y-88900000D01*
X133223000Y-90297000D02*
X133557000Y-89963000D01*
X133457000Y-86233000D02*
X133457000Y-84159000D01*
X133457000Y-84159000D02*
X133477000Y-84139000D01*
X133557000Y-88900000D02*
X133557000Y-86333000D01*
X133557000Y-86333000D02*
X133457000Y-86233000D01*
X119380000Y-95230000D02*
X124440000Y-95230000D01*
X124440000Y-95230000D02*
X124460000Y-95250000D01*
X119300000Y-88265000D02*
X119300000Y-81525000D01*
X119300000Y-81525000D02*
X119055000Y-81280000D01*
X119300000Y-88265000D02*
X119300000Y-92650000D01*
X119300000Y-92650000D02*
X119380000Y-92730000D01*
X119300000Y-82160000D02*
X119055000Y-81915000D01*
X128885000Y-101600000D02*
X130556000Y-101600000D01*
X130810000Y-101346000D02*
X130556000Y-101600000D01*
X130810000Y-101346000D02*
X130810000Y-97790000D01*
X128016000Y-91647000D02*
X128016000Y-97536000D01*
X128270000Y-97790000D02*
X130810000Y-97790000D01*
X128016000Y-97536000D02*
X128270000Y-97790000D01*
X167894000Y-83058000D02*
X167894000Y-83083400D01*
X163576000Y-82981800D02*
X163880800Y-82677000D01*
X163880800Y-82677000D02*
X167513000Y-82677000D01*
X167513000Y-82677000D02*
X167894000Y-83058000D01*
X163576000Y-84248000D02*
X163576000Y-82981800D01*
X168325800Y-90805000D02*
X169164000Y-90805000D01*
X168071800Y-90551000D02*
X168325800Y-90805000D01*
X168071800Y-83261200D02*
X168071800Y-90551000D01*
X167894000Y-83083400D02*
X168071800Y-83261200D01*
X159069000Y-80137000D02*
X172141000Y-80137000D01*
X172141000Y-80137000D02*
X172212000Y-80066000D01*
X160909000Y-84348000D02*
X163476000Y-84348000D01*
X163476000Y-84348000D02*
X163576000Y-84248000D01*
X159069000Y-80137000D02*
X160528000Y-80137000D01*
X160909000Y-80518000D02*
X160909000Y-84348000D01*
X160528000Y-80137000D02*
X160909000Y-80518000D01*
X160481000Y-94488000D02*
X162306000Y-94488000D01*
X163302000Y-102723000D02*
X167259000Y-102723000D01*
X162814000Y-102235000D02*
X163302000Y-102723000D01*
X162814000Y-94996000D02*
X162814000Y-102235000D01*
X162306000Y-94488000D02*
X162814000Y-94996000D01*
X159131000Y-94234000D02*
X159385000Y-94488000D01*
X159131000Y-88392000D02*
X158877000Y-88138000D01*
X155448000Y-88138000D02*
X158877000Y-88138000D01*
X159131000Y-94234000D02*
X159131000Y-88392000D01*
X159385000Y-94488000D02*
X160481000Y-94488000D01*
X176403000Y-102344220D02*
X167637780Y-102344220D01*
X167637780Y-102344220D02*
X167259000Y-102723000D01*
X155114000Y-89662000D02*
X155114000Y-88472000D01*
X155114000Y-88472000D02*
X155448000Y-88138000D01*
X155448000Y-88138000D02*
X152273000Y-88138000D01*
X176403000Y-102344220D02*
X180865780Y-102344220D01*
X180959760Y-102250240D02*
X180959760Y-101407000D01*
X180865780Y-102344220D02*
X180959760Y-102250240D01*
X128016000Y-88947000D02*
X130810000Y-88947000D01*
X130810000Y-88947000D02*
X130857000Y-88900000D01*
X125795000Y-88900000D02*
X127969000Y-88900000D01*
X127969000Y-88900000D02*
X128016000Y-88947000D01*
X130957000Y-86233000D02*
X130957000Y-84159000D01*
X130957000Y-84159000D02*
X130937000Y-84139000D01*
X130857000Y-88900000D02*
X130857000Y-86333000D01*
X130857000Y-86333000D02*
X130957000Y-86233000D01*
X150134000Y-94107000D02*
X147527000Y-94107000D01*
X147527000Y-96647000D02*
X147527000Y-94107000D01*
X150134000Y-94107000D02*
X150134000Y-89769000D01*
X150495000Y-89408000D02*
X152273000Y-89408000D01*
X150134000Y-89769000D02*
X150495000Y-89408000D01*
X147848000Y-81915000D02*
X143129000Y-81915000D01*
X143129000Y-81915000D02*
X143129000Y-87757000D01*
X143510000Y-88138000D02*
X145923000Y-88138000D01*
X143129000Y-87757000D02*
X143510000Y-88138000D01*
D27*
X147594000Y-104140000D02*
X141986000Y-104140000D01*
X147494000Y-100076000D02*
X147494000Y-104040000D01*
X147494000Y-104040000D02*
X147594000Y-104140000D01*
X150448000Y-78740000D02*
X149098000Y-78740000D01*
X144827000Y-96647000D02*
X141752000Y-96647000D01*
X141752000Y-96647000D02*
X141732000Y-96627000D01*
X136144000Y-96600000D02*
X141705000Y-96600000D01*
X141705000Y-96600000D02*
X141732000Y-96627000D01*
X141986000Y-99568000D02*
X141986000Y-96881000D01*
X141986000Y-96881000D02*
X141732000Y-96627000D01*
X157781000Y-94488000D02*
X157781000Y-95957400D01*
X157781000Y-95957400D02*
X157784800Y-95961200D01*
X167212000Y-97917000D02*
X165862000Y-97917000D01*
X150448000Y-84709000D02*
X152146000Y-84709000D01*
X158369000Y-84248000D02*
X158369000Y-82550000D01*
X144807000Y-96627000D02*
X144827000Y-96647000D01*
X141959000Y-96600000D02*
X141986000Y-96627000D01*
X141986000Y-99568000D02*
X141986000Y-101981000D01*
X172640000Y-91948000D02*
X172640000Y-93696800D01*
X172640000Y-93696800D02*
X172643800Y-93700600D01*
X117903000Y-98552000D02*
X117903000Y-96930200D01*
X117903000Y-96930200D02*
X117906800Y-96926400D01*
X122000000Y-88265000D02*
X122000000Y-86694000D01*
X122000000Y-86694000D02*
X121996200Y-86690200D01*
X179451000Y-94535000D02*
X177905400Y-94535000D01*
X177905400Y-94535000D02*
X177901600Y-94538800D01*
D26*
X124395000Y-90297000D02*
X124395000Y-88900000D01*
X124395000Y-90297000D02*
X124395000Y-93915000D01*
X124395000Y-93915000D02*
X124460000Y-93980000D01*
X144479000Y-84582000D02*
X144479000Y-86567000D01*
X144780000Y-86868000D02*
X145923000Y-86868000D01*
X144479000Y-86567000D02*
X144780000Y-86868000D01*
X173924000Y-98313240D02*
X173924000Y-90617000D01*
X157669000Y-78551000D02*
X157669000Y-80137000D01*
X158115000Y-78105000D02*
X157669000Y-78551000D01*
X175895000Y-78105000D02*
X158115000Y-78105000D01*
X176276000Y-78486000D02*
X175895000Y-78105000D01*
X176276000Y-89535000D02*
X176276000Y-78486000D01*
X175895000Y-89916000D02*
X176276000Y-89535000D01*
X174625000Y-89916000D02*
X175895000Y-89916000D01*
X173924000Y-90617000D02*
X174625000Y-89916000D01*
X157669000Y-80137000D02*
X149606000Y-80137000D01*
X148844000Y-84709000D02*
X147748000Y-84709000D01*
X149098000Y-84455000D02*
X148844000Y-84709000D01*
X149098000Y-84074000D02*
X149098000Y-84455000D01*
X149098000Y-83058000D02*
X149098000Y-84074000D01*
X149098000Y-80645000D02*
X149098000Y-83058000D01*
X149606000Y-80137000D02*
X149098000Y-80645000D01*
X147748000Y-84709000D02*
X144606000Y-84709000D01*
X144606000Y-84709000D02*
X144479000Y-84582000D01*
X130937000Y-82739000D02*
X130937000Y-81280000D01*
X131064000Y-81153000D02*
X131507000Y-81153000D01*
X130937000Y-81280000D02*
X131064000Y-81153000D01*
X133477000Y-82739000D02*
X133477000Y-81280000D01*
X133350000Y-81153000D02*
X132907000Y-81153000D01*
X133477000Y-81280000D02*
X133350000Y-81153000D01*
D27*
X153599000Y-100076000D02*
X150194000Y-100076000D01*
D26*
X178960780Y-100457000D02*
X178960780Y-97725220D01*
X178960780Y-97725220D02*
X179451000Y-97235000D01*
X182753000Y-97362000D02*
X179578000Y-97362000D01*
X179578000Y-97362000D02*
X179451000Y-97235000D01*
X182753000Y-99869000D02*
X182753000Y-97362000D01*
X177353000Y-100345240D02*
X177353000Y-98536760D01*
X177353000Y-98536760D02*
X177403760Y-98486000D01*
X178960780Y-100457000D02*
X177464760Y-100457000D01*
X177464760Y-100457000D02*
X177353000Y-100345240D01*
X172974000Y-100312220D02*
X175419980Y-100312220D01*
X175419980Y-100312220D02*
X175453000Y-100345240D01*
X172753020Y-100345240D02*
X172720000Y-100312220D01*
X145923000Y-89408000D02*
X141986000Y-89408000D01*
X141732000Y-89154000D02*
X141732000Y-87931000D01*
X141986000Y-89408000D02*
X141732000Y-89154000D01*
X141779000Y-84582000D02*
X141779000Y-87884000D01*
X141779000Y-87884000D02*
X141732000Y-87931000D01*
X157814000Y-89662000D02*
X157814000Y-91915000D01*
X157814000Y-91915000D02*
X157781000Y-91948000D01*
X157781000Y-91948000D02*
X152654000Y-91948000D01*
X152273000Y-91567000D02*
X152273000Y-90678000D01*
X152654000Y-91948000D02*
X152273000Y-91567000D01*
X130810000Y-95250000D02*
X137541000Y-95250000D01*
X138477000Y-90631000D02*
X141732000Y-90631000D01*
X138049000Y-91059000D02*
X138477000Y-90631000D01*
X138049000Y-94742000D02*
X138049000Y-91059000D01*
X137541000Y-95250000D02*
X138049000Y-94742000D01*
X130810000Y-96520000D02*
X130810000Y-95250000D01*
X162814000Y-90805000D02*
X160782000Y-90805000D01*
X160481000Y-91106000D02*
X160481000Y-91948000D01*
X160782000Y-90805000D02*
X160481000Y-91106000D01*
X169164000Y-92075000D02*
X167259000Y-92075000D01*
X165989000Y-90805000D02*
X162814000Y-90805000D01*
X167259000Y-92075000D02*
X165989000Y-90805000D01*
X166243000Y-86948000D02*
X163576000Y-86948000D01*
X147748000Y-78740000D02*
X144195800Y-78740000D01*
X144195800Y-78740000D02*
X144129760Y-78673960D01*
X136953000Y-81534000D02*
X136953000Y-78740000D01*
X142128240Y-78673960D02*
X139719040Y-78673960D01*
X139719040Y-78673960D02*
X139653000Y-78740000D01*
X175340000Y-91948000D02*
X176631600Y-91948000D01*
X177540800Y-80066000D02*
X181330600Y-80066000D01*
X177139600Y-80467200D02*
X177540800Y-80066000D01*
X177139600Y-91440000D02*
X177139600Y-80467200D01*
X176631600Y-91948000D02*
X177139600Y-91440000D01*
X175404780Y-97536000D02*
X175404780Y-92172780D01*
X175404780Y-92172780D02*
X175180000Y-91948000D01*
X182753000Y-94662000D02*
X182753000Y-88925400D01*
X182753000Y-88290400D02*
X181528600Y-87066000D01*
X182753000Y-88925400D02*
X182753000Y-88290400D01*
X181528600Y-87066000D02*
X181330600Y-87066000D01*
X182742840Y-94651840D02*
X182753000Y-94662000D01*
D28*
G36*
X185231082Y-77058878D02*
X185286255Y-77095745D01*
X185323121Y-77150918D01*
X185345000Y-77260911D01*
X185345000Y-105111089D01*
X185323121Y-105221082D01*
X185286255Y-105276255D01*
X185231082Y-105313122D01*
X185121090Y-105335000D01*
X151127233Y-105335000D01*
X151203698Y-105303327D01*
X151382327Y-105124699D01*
X151479000Y-104891310D01*
X151479000Y-104425750D01*
X151320250Y-104267000D01*
X150221000Y-104267000D01*
X150221000Y-104287000D01*
X149967000Y-104287000D01*
X149967000Y-104267000D01*
X149947000Y-104267000D01*
X149947000Y-104013000D01*
X149967000Y-104013000D01*
X149967000Y-103038750D01*
X150221000Y-103038750D01*
X150221000Y-104013000D01*
X151320250Y-104013000D01*
X151479000Y-103854250D01*
X151479000Y-103388690D01*
X151382327Y-103155301D01*
X151203698Y-102976673D01*
X150970309Y-102880000D01*
X150379750Y-102880000D01*
X150221000Y-103038750D01*
X149967000Y-103038750D01*
X149808250Y-102880000D01*
X149217691Y-102880000D01*
X148984302Y-102976673D01*
X148805673Y-103155301D01*
X148709000Y-103388690D01*
X148709000Y-103390301D01*
X148705897Y-103373810D01*
X148622454Y-103244135D01*
X148495134Y-103157141D01*
X148344000Y-103126536D01*
X148125000Y-103126536D01*
X148125000Y-101114464D01*
X148244000Y-101114464D01*
X148385190Y-101087897D01*
X148514865Y-101004454D01*
X148601859Y-100877134D01*
X148632464Y-100726000D01*
X148632464Y-99426000D01*
X149055536Y-99426000D01*
X149055536Y-100726000D01*
X149082103Y-100867190D01*
X149165546Y-100996865D01*
X149292866Y-101083859D01*
X149444000Y-101114464D01*
X150944000Y-101114464D01*
X151085190Y-101087897D01*
X151214865Y-101004454D01*
X151301859Y-100877134D01*
X151332464Y-100726000D01*
X151332464Y-100707000D01*
X152010536Y-100707000D01*
X152010536Y-103251000D01*
X152037103Y-103392190D01*
X152120546Y-103521865D01*
X152247866Y-103608859D01*
X152399000Y-103639464D01*
X154799000Y-103639464D01*
X154940190Y-103612897D01*
X155069865Y-103529454D01*
X155156859Y-103402134D01*
X155187464Y-103251000D01*
X155187464Y-100361750D01*
X158764000Y-100361750D01*
X158764000Y-103377310D01*
X158860673Y-103610699D01*
X159039302Y-103789327D01*
X159272691Y-103886000D01*
X160313250Y-103886000D01*
X160472000Y-103727250D01*
X160472000Y-100203000D01*
X158922750Y-100203000D01*
X158764000Y-100361750D01*
X155187464Y-100361750D01*
X155187464Y-96901000D01*
X155163697Y-96774690D01*
X158764000Y-96774690D01*
X158764000Y-99790250D01*
X158922750Y-99949000D01*
X160472000Y-99949000D01*
X160472000Y-96424750D01*
X160313250Y-96266000D01*
X159272691Y-96266000D01*
X159039302Y-96362673D01*
X158860673Y-96541301D01*
X158764000Y-96774690D01*
X155163697Y-96774690D01*
X155160897Y-96759810D01*
X155077454Y-96630135D01*
X154950134Y-96543141D01*
X154799000Y-96512536D01*
X152399000Y-96512536D01*
X152257810Y-96539103D01*
X152128135Y-96622546D01*
X152041141Y-96749866D01*
X152010536Y-96901000D01*
X152010536Y-99445000D01*
X151332464Y-99445000D01*
X151332464Y-99426000D01*
X151305897Y-99284810D01*
X151222454Y-99155135D01*
X151095134Y-99068141D01*
X150944000Y-99037536D01*
X149444000Y-99037536D01*
X149302810Y-99064103D01*
X149173135Y-99147546D01*
X149086141Y-99274866D01*
X149055536Y-99426000D01*
X148632464Y-99426000D01*
X148605897Y-99284810D01*
X148522454Y-99155135D01*
X148395134Y-99068141D01*
X148244000Y-99037536D01*
X146744000Y-99037536D01*
X146602810Y-99064103D01*
X146473135Y-99147546D01*
X146386141Y-99274866D01*
X146355536Y-99426000D01*
X146355536Y-100726000D01*
X146382103Y-100867190D01*
X146465546Y-100996865D01*
X146592866Y-101083859D01*
X146744000Y-101114464D01*
X146863000Y-101114464D01*
X146863000Y-103126536D01*
X146844000Y-103126536D01*
X146702810Y-103153103D01*
X146573135Y-103236546D01*
X146486141Y-103363866D01*
X146456751Y-103509000D01*
X143898464Y-103509000D01*
X143898464Y-103314500D01*
X143871897Y-103173310D01*
X143788454Y-103043635D01*
X143661134Y-102956641D01*
X143510000Y-102926036D01*
X140462000Y-102926036D01*
X140320810Y-102952603D01*
X140191135Y-103036046D01*
X140104141Y-103163366D01*
X140073536Y-103314500D01*
X140073536Y-104965500D01*
X140100103Y-105106690D01*
X140183546Y-105236365D01*
X140310866Y-105323359D01*
X140368352Y-105335000D01*
X139149025Y-105335000D01*
X139222327Y-105261698D01*
X139319000Y-105028309D01*
X139319000Y-102139750D01*
X139160250Y-101981000D01*
X135763000Y-101981000D01*
X135763000Y-102001000D01*
X135509000Y-102001000D01*
X135509000Y-101981000D01*
X132111750Y-101981000D01*
X131953000Y-102139750D01*
X131953000Y-105028309D01*
X132049673Y-105261698D01*
X132122975Y-105335000D01*
X116376911Y-105335000D01*
X116266918Y-105313121D01*
X116211745Y-105276255D01*
X116174878Y-105221082D01*
X116153000Y-105111090D01*
X116153000Y-103917750D01*
X116618000Y-103917750D01*
X116618000Y-104383310D01*
X116714673Y-104616699D01*
X116893302Y-104795327D01*
X117126691Y-104892000D01*
X117717250Y-104892000D01*
X117876000Y-104733250D01*
X117876000Y-103759000D01*
X116776750Y-103759000D01*
X116618000Y-103917750D01*
X116153000Y-103917750D01*
X116153000Y-101377750D01*
X116518000Y-101377750D01*
X116518000Y-101868310D01*
X116614673Y-102101699D01*
X116793302Y-102280327D01*
X117026691Y-102377000D01*
X117114620Y-102377000D01*
X116893302Y-102468673D01*
X116714673Y-102647301D01*
X116618000Y-102880690D01*
X116618000Y-103346250D01*
X116776750Y-103505000D01*
X117876000Y-103505000D01*
X117876000Y-102530750D01*
X117717250Y-102372000D01*
X117622250Y-102372000D01*
X117776000Y-102218250D01*
X117776000Y-101219000D01*
X118030000Y-101219000D01*
X118030000Y-102218250D01*
X118188750Y-102377000D01*
X118283750Y-102377000D01*
X118130000Y-102530750D01*
X118130000Y-103505000D01*
X118150000Y-103505000D01*
X118150000Y-103759000D01*
X118130000Y-103759000D01*
X118130000Y-104733250D01*
X118288750Y-104892000D01*
X118879309Y-104892000D01*
X119112698Y-104795327D01*
X119291327Y-104616699D01*
X119388000Y-104383310D01*
X119388000Y-104381699D01*
X119391103Y-104398190D01*
X119474546Y-104527865D01*
X119601866Y-104614859D01*
X119753000Y-104645464D01*
X121253000Y-104645464D01*
X121394190Y-104618897D01*
X121523865Y-104535454D01*
X121610859Y-104408134D01*
X121641464Y-104257000D01*
X121641464Y-103007000D01*
X121614897Y-102865810D01*
X121531454Y-102736135D01*
X121404134Y-102649141D01*
X121253000Y-102618536D01*
X121009000Y-102618536D01*
X121009000Y-102130464D01*
X121353000Y-102130464D01*
X121494190Y-102103897D01*
X121623865Y-102020454D01*
X121710859Y-101893134D01*
X121712354Y-101885750D01*
X125000000Y-101885750D01*
X125000000Y-102351310D01*
X125096673Y-102584699D01*
X125275302Y-102763327D01*
X125508691Y-102860000D01*
X126099250Y-102860000D01*
X126258000Y-102701250D01*
X126258000Y-101727000D01*
X125158750Y-101727000D01*
X125000000Y-101885750D01*
X121712354Y-101885750D01*
X121741464Y-101742000D01*
X121741464Y-100848690D01*
X125000000Y-100848690D01*
X125000000Y-101314250D01*
X125158750Y-101473000D01*
X126258000Y-101473000D01*
X126258000Y-100498750D01*
X126099250Y-100340000D01*
X125508691Y-100340000D01*
X125275302Y-100436673D01*
X125096673Y-100615301D01*
X125000000Y-100848690D01*
X121741464Y-100848690D01*
X121741464Y-100442000D01*
X121714897Y-100300810D01*
X121631454Y-100171135D01*
X121504134Y-100084141D01*
X121353000Y-100053536D01*
X121109000Y-100053536D01*
X121109000Y-99590464D01*
X121353000Y-99590464D01*
X121494190Y-99563897D01*
X121623865Y-99480454D01*
X121710859Y-99353134D01*
X121741464Y-99202000D01*
X121741464Y-98075750D01*
X123253500Y-98075750D01*
X123253500Y-98170309D01*
X123350173Y-98403698D01*
X123528801Y-98582327D01*
X123762190Y-98679000D01*
X124174250Y-98679000D01*
X124333000Y-98520250D01*
X124333000Y-97917000D01*
X124587000Y-97917000D01*
X124587000Y-98520250D01*
X124745750Y-98679000D01*
X125157810Y-98679000D01*
X125391199Y-98582327D01*
X125569827Y-98403698D01*
X125666500Y-98170309D01*
X125666500Y-98075750D01*
X125507750Y-97917000D01*
X124587000Y-97917000D01*
X124333000Y-97917000D01*
X123412250Y-97917000D01*
X123253500Y-98075750D01*
X121741464Y-98075750D01*
X121741464Y-97902000D01*
X121714897Y-97760810D01*
X121631454Y-97631135D01*
X121504134Y-97544141D01*
X121353000Y-97513536D01*
X121109000Y-97513536D01*
X121109000Y-97030592D01*
X121113592Y-97026000D01*
X123500474Y-97026000D01*
X123350173Y-97176302D01*
X123253500Y-97409691D01*
X123253500Y-97504250D01*
X123412250Y-97663000D01*
X124333000Y-97663000D01*
X124333000Y-97643000D01*
X124587000Y-97643000D01*
X124587000Y-97663000D01*
X125507750Y-97663000D01*
X125666500Y-97504250D01*
X125666500Y-97409691D01*
X125569827Y-97176302D01*
X125391199Y-96997673D01*
X125351134Y-96981078D01*
X125389359Y-96925134D01*
X125419964Y-96774000D01*
X125419964Y-96266000D01*
X125393397Y-96124810D01*
X125309954Y-95995135D01*
X125182634Y-95908141D01*
X125069712Y-95885274D01*
X125172690Y-95865897D01*
X125302365Y-95782454D01*
X125320440Y-95756000D01*
X125628400Y-95756000D01*
X125822038Y-95717483D01*
X125986196Y-95607796D01*
X126152796Y-95441196D01*
X126262483Y-95277038D01*
X126301000Y-95083400D01*
X126301000Y-90967193D01*
X126365865Y-90925454D01*
X126449534Y-90803000D01*
X126996571Y-90803000D01*
X126977536Y-90897000D01*
X126977536Y-92397000D01*
X127004103Y-92538190D01*
X127087546Y-92667865D01*
X127214866Y-92754859D01*
X127366000Y-92785464D01*
X127510000Y-92785464D01*
X127510000Y-97536000D01*
X127548517Y-97729638D01*
X127658204Y-97893796D01*
X127912204Y-98147796D01*
X128076362Y-98257483D01*
X128270000Y-98296000D01*
X129947907Y-98296000D01*
X129960046Y-98314865D01*
X130087366Y-98401859D01*
X130238500Y-98432464D01*
X130304000Y-98432464D01*
X130304000Y-101094000D01*
X130023464Y-101094000D01*
X130023464Y-100975000D01*
X129996897Y-100833810D01*
X129913454Y-100704135D01*
X129786134Y-100617141D01*
X129635000Y-100586536D01*
X128135000Y-100586536D01*
X127993810Y-100613103D01*
X127864135Y-100696546D01*
X127777141Y-100823866D01*
X127770000Y-100859130D01*
X127770000Y-100848690D01*
X127673327Y-100615301D01*
X127494698Y-100436673D01*
X127261309Y-100340000D01*
X126670750Y-100340000D01*
X126512000Y-100498750D01*
X126512000Y-101473000D01*
X126532000Y-101473000D01*
X126532000Y-101727000D01*
X126512000Y-101727000D01*
X126512000Y-102701250D01*
X126670750Y-102860000D01*
X127261309Y-102860000D01*
X127494698Y-102763327D01*
X127673327Y-102584699D01*
X127770000Y-102351310D01*
X127770000Y-102349699D01*
X127773103Y-102366190D01*
X127856546Y-102495865D01*
X127983866Y-102582859D01*
X128135000Y-102613464D01*
X129635000Y-102613464D01*
X129776190Y-102586897D01*
X129905865Y-102503454D01*
X129992859Y-102376134D01*
X130023464Y-102225000D01*
X130023464Y-102106000D01*
X130556000Y-102106000D01*
X130749638Y-102067483D01*
X130913796Y-101957796D01*
X131167796Y-101703796D01*
X131277483Y-101539638D01*
X131316000Y-101346000D01*
X131316000Y-98679691D01*
X131953000Y-98679691D01*
X131953000Y-101568250D01*
X132111750Y-101727000D01*
X135509000Y-101727000D01*
X135509000Y-98329750D01*
X135763000Y-98329750D01*
X135763000Y-101727000D01*
X139160250Y-101727000D01*
X139319000Y-101568250D01*
X139319000Y-98679691D01*
X139222327Y-98446302D01*
X139043699Y-98267673D01*
X138810310Y-98171000D01*
X135921750Y-98171000D01*
X135763000Y-98329750D01*
X135509000Y-98329750D01*
X135350250Y-98171000D01*
X132461690Y-98171000D01*
X132228301Y-98267673D01*
X132049673Y-98446302D01*
X131953000Y-98679691D01*
X131316000Y-98679691D01*
X131316000Y-98432464D01*
X131381500Y-98432464D01*
X131522690Y-98405897D01*
X131652365Y-98322454D01*
X131739359Y-98195134D01*
X131769964Y-98044000D01*
X131769964Y-97536000D01*
X131743397Y-97394810D01*
X131659954Y-97265135D01*
X131532634Y-97178141D01*
X131419712Y-97155274D01*
X131522690Y-97135897D01*
X131652365Y-97052454D01*
X131739359Y-96925134D01*
X131767584Y-96785750D01*
X132090000Y-96785750D01*
X132090000Y-97376309D01*
X132186673Y-97609698D01*
X132365301Y-97788327D01*
X132598690Y-97885000D01*
X133064250Y-97885000D01*
X133223000Y-97726250D01*
X133223000Y-96627000D01*
X133477000Y-96627000D01*
X133477000Y-97726250D01*
X133635750Y-97885000D01*
X134101310Y-97885000D01*
X134334699Y-97788327D01*
X134513327Y-97609698D01*
X134610000Y-97376309D01*
X134610000Y-96785750D01*
X134451250Y-96627000D01*
X133477000Y-96627000D01*
X133223000Y-96627000D01*
X132248750Y-96627000D01*
X132090000Y-96785750D01*
X131767584Y-96785750D01*
X131769964Y-96774000D01*
X131769964Y-96266000D01*
X131743397Y-96124810D01*
X131659954Y-95995135D01*
X131532634Y-95908141D01*
X131419712Y-95885274D01*
X131522690Y-95865897D01*
X131652365Y-95782454D01*
X131670440Y-95756000D01*
X132090000Y-95756000D01*
X132090000Y-96214250D01*
X132248750Y-96373000D01*
X133223000Y-96373000D01*
X133223000Y-96353000D01*
X133477000Y-96353000D01*
X133477000Y-96373000D01*
X134451250Y-96373000D01*
X134610000Y-96214250D01*
X134610000Y-95756000D01*
X135124571Y-95756000D01*
X135105536Y-95850000D01*
X135105536Y-97350000D01*
X135132103Y-97491190D01*
X135215546Y-97620865D01*
X135342866Y-97707859D01*
X135494000Y-97738464D01*
X136794000Y-97738464D01*
X136935190Y-97711897D01*
X137064865Y-97628454D01*
X137151859Y-97501134D01*
X137182464Y-97350000D01*
X137182464Y-97231000D01*
X140718536Y-97231000D01*
X140718536Y-97377000D01*
X140745103Y-97518190D01*
X140828546Y-97647865D01*
X140955866Y-97734859D01*
X141107000Y-97765464D01*
X141355000Y-97765464D01*
X141355000Y-98354036D01*
X140462000Y-98354036D01*
X140320810Y-98380603D01*
X140191135Y-98464046D01*
X140104141Y-98591366D01*
X140073536Y-98742500D01*
X140073536Y-100393500D01*
X140100103Y-100534690D01*
X140183546Y-100664365D01*
X140310866Y-100751359D01*
X140462000Y-100781964D01*
X141355000Y-100781964D01*
X141355000Y-101724818D01*
X141305118Y-101844946D01*
X141304882Y-102115865D01*
X141408339Y-102366252D01*
X141599741Y-102557987D01*
X141849946Y-102661882D01*
X142120865Y-102662118D01*
X142371252Y-102558661D01*
X142562987Y-102367259D01*
X142666882Y-102117054D01*
X142667118Y-101846135D01*
X142617000Y-101724839D01*
X142617000Y-100781964D01*
X143510000Y-100781964D01*
X143651190Y-100755397D01*
X143780865Y-100671954D01*
X143867859Y-100544634D01*
X143898464Y-100393500D01*
X143898464Y-98742500D01*
X143871897Y-98601310D01*
X143788454Y-98471635D01*
X143661134Y-98384641D01*
X143510000Y-98354036D01*
X142617000Y-98354036D01*
X142617000Y-97662445D01*
X142627865Y-97655454D01*
X142714859Y-97528134D01*
X142745464Y-97377000D01*
X142745464Y-97278000D01*
X143688536Y-97278000D01*
X143688536Y-97297000D01*
X143715103Y-97438190D01*
X143798546Y-97567865D01*
X143925866Y-97654859D01*
X144077000Y-97685464D01*
X145577000Y-97685464D01*
X145718190Y-97658897D01*
X145847865Y-97575454D01*
X145934859Y-97448134D01*
X145965464Y-97297000D01*
X145965464Y-95997000D01*
X145938897Y-95855810D01*
X145855454Y-95726135D01*
X145728134Y-95639141D01*
X145577000Y-95608536D01*
X144077000Y-95608536D01*
X143935810Y-95635103D01*
X143806135Y-95718546D01*
X143719141Y-95845866D01*
X143688536Y-95997000D01*
X143688536Y-96016000D01*
X142745464Y-96016000D01*
X142745464Y-95877000D01*
X142718897Y-95735810D01*
X142635454Y-95606135D01*
X142508134Y-95519141D01*
X142472870Y-95512000D01*
X142483310Y-95512000D01*
X142716699Y-95415327D01*
X142895327Y-95236698D01*
X142992000Y-95003309D01*
X142992000Y-94412750D01*
X142972000Y-94392750D01*
X143442000Y-94392750D01*
X143442000Y-94883310D01*
X143538673Y-95116699D01*
X143717302Y-95295327D01*
X143950691Y-95392000D01*
X144541250Y-95392000D01*
X144700000Y-95233250D01*
X144700000Y-94234000D01*
X144954000Y-94234000D01*
X144954000Y-95233250D01*
X145112750Y-95392000D01*
X145703309Y-95392000D01*
X145936698Y-95295327D01*
X146115327Y-95116699D01*
X146212000Y-94883310D01*
X146212000Y-94392750D01*
X146053250Y-94234000D01*
X144954000Y-94234000D01*
X144700000Y-94234000D01*
X143600750Y-94234000D01*
X143442000Y-94392750D01*
X142972000Y-94392750D01*
X142833250Y-94254000D01*
X141859000Y-94254000D01*
X141859000Y-94274000D01*
X141605000Y-94274000D01*
X141605000Y-94254000D01*
X140630750Y-94254000D01*
X140472000Y-94412750D01*
X140472000Y-95003309D01*
X140568673Y-95236698D01*
X140747301Y-95415327D01*
X140980690Y-95512000D01*
X140982301Y-95512000D01*
X140965810Y-95515103D01*
X140836135Y-95598546D01*
X140749141Y-95725866D01*
X140718536Y-95877000D01*
X140718536Y-95969000D01*
X137182464Y-95969000D01*
X137182464Y-95850000D01*
X137164777Y-95756000D01*
X137541000Y-95756000D01*
X137734638Y-95717483D01*
X137898796Y-95607796D01*
X138406796Y-95099796D01*
X138516483Y-94935638D01*
X138555000Y-94742000D01*
X138555000Y-93250691D01*
X140472000Y-93250691D01*
X140472000Y-93841250D01*
X140630750Y-94000000D01*
X141605000Y-94000000D01*
X141605000Y-92900750D01*
X141859000Y-92900750D01*
X141859000Y-94000000D01*
X142833250Y-94000000D01*
X142992000Y-93841250D01*
X142992000Y-93330690D01*
X143442000Y-93330690D01*
X143442000Y-93821250D01*
X143600750Y-93980000D01*
X144700000Y-93980000D01*
X144700000Y-92980750D01*
X144954000Y-92980750D01*
X144954000Y-93980000D01*
X146053250Y-93980000D01*
X146212000Y-93821250D01*
X146212000Y-93330690D01*
X146115327Y-93097301D01*
X145936698Y-92918673D01*
X145703309Y-92822000D01*
X145112750Y-92822000D01*
X144954000Y-92980750D01*
X144700000Y-92980750D01*
X144541250Y-92822000D01*
X143950691Y-92822000D01*
X143717302Y-92918673D01*
X143538673Y-93097301D01*
X143442000Y-93330690D01*
X142992000Y-93330690D01*
X142992000Y-93250691D01*
X142895327Y-93017302D01*
X142716699Y-92838673D01*
X142483310Y-92742000D01*
X142017750Y-92742000D01*
X141859000Y-92900750D01*
X141605000Y-92900750D01*
X141446250Y-92742000D01*
X140980690Y-92742000D01*
X140747301Y-92838673D01*
X140568673Y-93017302D01*
X140472000Y-93250691D01*
X138555000Y-93250691D01*
X138555000Y-91268592D01*
X138686592Y-91137000D01*
X140693536Y-91137000D01*
X140693536Y-91381000D01*
X140720103Y-91522190D01*
X140803546Y-91651865D01*
X140930866Y-91738859D01*
X141082000Y-91769464D01*
X142382000Y-91769464D01*
X142523190Y-91742897D01*
X142652865Y-91659454D01*
X142739859Y-91532134D01*
X142770464Y-91381000D01*
X142770464Y-90963750D01*
X144716500Y-90963750D01*
X144716500Y-91058309D01*
X144813173Y-91291698D01*
X144991801Y-91470327D01*
X145225190Y-91567000D01*
X145637250Y-91567000D01*
X145796000Y-91408250D01*
X145796000Y-90805000D01*
X146050000Y-90805000D01*
X146050000Y-91408250D01*
X146208750Y-91567000D01*
X146620810Y-91567000D01*
X146854199Y-91470327D01*
X147032827Y-91291698D01*
X147129500Y-91058309D01*
X147129500Y-90963750D01*
X146970750Y-90805000D01*
X146050000Y-90805000D01*
X145796000Y-90805000D01*
X144875250Y-90805000D01*
X144716500Y-90963750D01*
X142770464Y-90963750D01*
X142770464Y-89914000D01*
X144963474Y-89914000D01*
X144813173Y-90064302D01*
X144716500Y-90297691D01*
X144716500Y-90392250D01*
X144875250Y-90551000D01*
X145796000Y-90551000D01*
X145796000Y-90531000D01*
X146050000Y-90531000D01*
X146050000Y-90551000D01*
X146970750Y-90551000D01*
X147129500Y-90392250D01*
X147129500Y-90297691D01*
X147032827Y-90064302D01*
X146854199Y-89885673D01*
X146814134Y-89869078D01*
X146852359Y-89813134D01*
X146882964Y-89662000D01*
X146882964Y-89154000D01*
X146856397Y-89012810D01*
X146772954Y-88883135D01*
X146645634Y-88796141D01*
X146532712Y-88773274D01*
X146635690Y-88753897D01*
X146765365Y-88670454D01*
X146852359Y-88543134D01*
X146882964Y-88392000D01*
X146882964Y-87884000D01*
X146856397Y-87742810D01*
X146772954Y-87613135D01*
X146645634Y-87526141D01*
X146532712Y-87503274D01*
X146635690Y-87483897D01*
X146765365Y-87400454D01*
X146852359Y-87273134D01*
X146882964Y-87122000D01*
X146882964Y-86614000D01*
X146856397Y-86472810D01*
X146772954Y-86343135D01*
X146645634Y-86256141D01*
X146494500Y-86225536D01*
X145351500Y-86225536D01*
X145210310Y-86252103D01*
X145080635Y-86335546D01*
X145062560Y-86362000D01*
X144989592Y-86362000D01*
X144985000Y-86357408D01*
X144985000Y-85620464D01*
X145229000Y-85620464D01*
X145370190Y-85593897D01*
X145499865Y-85510454D01*
X145586859Y-85383134D01*
X145617464Y-85232000D01*
X145617464Y-85215000D01*
X146609536Y-85215000D01*
X146609536Y-85359000D01*
X146636103Y-85500190D01*
X146719546Y-85629865D01*
X146846866Y-85716859D01*
X146998000Y-85747464D01*
X148498000Y-85747464D01*
X148639190Y-85720897D01*
X148768865Y-85637454D01*
X148855859Y-85510134D01*
X148886464Y-85359000D01*
X148886464Y-85206553D01*
X149037638Y-85176483D01*
X149201796Y-85066796D01*
X149309536Y-84959056D01*
X149309536Y-85359000D01*
X149336103Y-85500190D01*
X149419546Y-85629865D01*
X149546866Y-85716859D01*
X149698000Y-85747464D01*
X151198000Y-85747464D01*
X151339190Y-85720897D01*
X151468865Y-85637454D01*
X151555859Y-85510134D01*
X151586464Y-85359000D01*
X151586464Y-85340000D01*
X151889818Y-85340000D01*
X152009946Y-85389882D01*
X152280865Y-85390118D01*
X152531252Y-85286661D01*
X152722987Y-85095259D01*
X152826882Y-84845054D01*
X152827118Y-84574135D01*
X152723661Y-84323748D01*
X152532259Y-84132013D01*
X152282054Y-84028118D01*
X152011135Y-84027882D01*
X151889839Y-84078000D01*
X151586464Y-84078000D01*
X151586464Y-84059000D01*
X151559897Y-83917810D01*
X151476454Y-83788135D01*
X151349134Y-83701141D01*
X151198000Y-83670536D01*
X149698000Y-83670536D01*
X149604000Y-83688223D01*
X149604000Y-83471691D01*
X154442000Y-83471691D01*
X154442000Y-84062250D01*
X154600750Y-84221000D01*
X155575000Y-84221000D01*
X155575000Y-83121750D01*
X155829000Y-83121750D01*
X155829000Y-84221000D01*
X156803250Y-84221000D01*
X156962000Y-84062250D01*
X156962000Y-83498000D01*
X157330536Y-83498000D01*
X157330536Y-84998000D01*
X157357103Y-85139190D01*
X157440546Y-85268865D01*
X157567866Y-85355859D01*
X157719000Y-85386464D01*
X159019000Y-85386464D01*
X159160190Y-85359897D01*
X159289865Y-85276454D01*
X159376859Y-85149134D01*
X159407464Y-84998000D01*
X159407464Y-83498000D01*
X159380897Y-83356810D01*
X159297454Y-83227135D01*
X159170134Y-83140141D01*
X159019000Y-83109536D01*
X159000000Y-83109536D01*
X159000000Y-82806182D01*
X159049882Y-82686054D01*
X159050118Y-82415135D01*
X158946661Y-82164748D01*
X158755259Y-81973013D01*
X158505054Y-81869118D01*
X158234135Y-81868882D01*
X157983748Y-81972339D01*
X157792013Y-82163741D01*
X157688118Y-82413946D01*
X157687882Y-82684865D01*
X157738000Y-82806161D01*
X157738000Y-83109536D01*
X157719000Y-83109536D01*
X157577810Y-83136103D01*
X157448135Y-83219546D01*
X157361141Y-83346866D01*
X157330536Y-83498000D01*
X156962000Y-83498000D01*
X156962000Y-83471691D01*
X156865327Y-83238302D01*
X156686699Y-83059673D01*
X156453310Y-82963000D01*
X155987750Y-82963000D01*
X155829000Y-83121750D01*
X155575000Y-83121750D01*
X155416250Y-82963000D01*
X154950690Y-82963000D01*
X154717301Y-83059673D01*
X154538673Y-83238302D01*
X154442000Y-83471691D01*
X149604000Y-83471691D01*
X149604000Y-83175000D01*
X150062250Y-83175000D01*
X150221000Y-83016250D01*
X150221000Y-82042000D01*
X150475000Y-82042000D01*
X150475000Y-83016250D01*
X150633750Y-83175000D01*
X151224309Y-83175000D01*
X151457698Y-83078327D01*
X151636327Y-82899699D01*
X151733000Y-82666310D01*
X151733000Y-82200750D01*
X151574250Y-82042000D01*
X150475000Y-82042000D01*
X150221000Y-82042000D01*
X150201000Y-82042000D01*
X150201000Y-81788000D01*
X150221000Y-81788000D01*
X150221000Y-80813750D01*
X150475000Y-80813750D01*
X150475000Y-81788000D01*
X151574250Y-81788000D01*
X151733000Y-81629250D01*
X151733000Y-81163690D01*
X151636327Y-80930301D01*
X151457698Y-80751673D01*
X151224309Y-80655000D01*
X150633750Y-80655000D01*
X150475000Y-80813750D01*
X150221000Y-80813750D01*
X150062250Y-80655000D01*
X149803592Y-80655000D01*
X149815592Y-80643000D01*
X157016633Y-80643000D01*
X157090546Y-80757865D01*
X157217866Y-80844859D01*
X157369000Y-80875464D01*
X157969000Y-80875464D01*
X158110190Y-80848897D01*
X158239865Y-80765454D01*
X158326859Y-80638134D01*
X158357464Y-80487000D01*
X158357464Y-79787000D01*
X158330897Y-79645810D01*
X158247454Y-79516135D01*
X158175000Y-79466629D01*
X158175000Y-78760592D01*
X158324592Y-78611000D01*
X168750110Y-78611000D01*
X168679141Y-78714866D01*
X168648536Y-78866000D01*
X168648536Y-79631000D01*
X159721367Y-79631000D01*
X159647454Y-79516135D01*
X159520134Y-79429141D01*
X159369000Y-79398536D01*
X158769000Y-79398536D01*
X158627810Y-79425103D01*
X158498135Y-79508546D01*
X158411141Y-79635866D01*
X158380536Y-79787000D01*
X158380536Y-80487000D01*
X158407103Y-80628190D01*
X158490546Y-80757865D01*
X158617866Y-80844859D01*
X158769000Y-80875464D01*
X159369000Y-80875464D01*
X159510190Y-80848897D01*
X159639865Y-80765454D01*
X159723534Y-80643000D01*
X160318408Y-80643000D01*
X160403000Y-80727592D01*
X160403000Y-83209536D01*
X160284000Y-83209536D01*
X160142810Y-83236103D01*
X160013135Y-83319546D01*
X159926141Y-83446866D01*
X159895536Y-83598000D01*
X159895536Y-85098000D01*
X159922103Y-85239190D01*
X160005546Y-85368865D01*
X160132866Y-85455859D01*
X160168130Y-85463000D01*
X160157690Y-85463000D01*
X159924301Y-85559673D01*
X159745673Y-85738302D01*
X159649000Y-85971691D01*
X159649000Y-86562250D01*
X159807750Y-86721000D01*
X160782000Y-86721000D01*
X160782000Y-86701000D01*
X161036000Y-86701000D01*
X161036000Y-86721000D01*
X162010250Y-86721000D01*
X162169000Y-86562250D01*
X162169000Y-86198000D01*
X162537536Y-86198000D01*
X162537536Y-87698000D01*
X162564103Y-87839190D01*
X162647546Y-87968865D01*
X162774866Y-88055859D01*
X162926000Y-88086464D01*
X164226000Y-88086464D01*
X164367190Y-88059897D01*
X164496865Y-87976454D01*
X164583859Y-87849134D01*
X164614464Y-87698000D01*
X164614464Y-87454000D01*
X165204536Y-87454000D01*
X165204536Y-87698000D01*
X165231103Y-87839190D01*
X165314546Y-87968865D01*
X165441866Y-88055859D01*
X165593000Y-88086464D01*
X166893000Y-88086464D01*
X167034190Y-88059897D01*
X167163865Y-87976454D01*
X167250859Y-87849134D01*
X167281464Y-87698000D01*
X167281464Y-86198000D01*
X167254897Y-86056810D01*
X167171454Y-85927135D01*
X167044134Y-85840141D01*
X166893000Y-85809536D01*
X165593000Y-85809536D01*
X165451810Y-85836103D01*
X165322135Y-85919546D01*
X165235141Y-86046866D01*
X165204536Y-86198000D01*
X165204536Y-86442000D01*
X164614464Y-86442000D01*
X164614464Y-86198000D01*
X164587897Y-86056810D01*
X164504454Y-85927135D01*
X164377134Y-85840141D01*
X164226000Y-85809536D01*
X162926000Y-85809536D01*
X162784810Y-85836103D01*
X162655135Y-85919546D01*
X162568141Y-86046866D01*
X162537536Y-86198000D01*
X162169000Y-86198000D01*
X162169000Y-85971691D01*
X162072327Y-85738302D01*
X161893699Y-85559673D01*
X161660310Y-85463000D01*
X161658699Y-85463000D01*
X161675190Y-85459897D01*
X161804865Y-85376454D01*
X161891859Y-85249134D01*
X161922464Y-85098000D01*
X161922464Y-84854000D01*
X162537536Y-84854000D01*
X162537536Y-84998000D01*
X162564103Y-85139190D01*
X162647546Y-85268865D01*
X162774866Y-85355859D01*
X162926000Y-85386464D01*
X164226000Y-85386464D01*
X164367190Y-85359897D01*
X164496865Y-85276454D01*
X164583859Y-85149134D01*
X164614464Y-84998000D01*
X164614464Y-84533750D01*
X164958000Y-84533750D01*
X164958000Y-85124309D01*
X165054673Y-85357698D01*
X165233301Y-85536327D01*
X165466690Y-85633000D01*
X165957250Y-85633000D01*
X166116000Y-85474250D01*
X166116000Y-84375000D01*
X166370000Y-84375000D01*
X166370000Y-85474250D01*
X166528750Y-85633000D01*
X167019310Y-85633000D01*
X167252699Y-85536327D01*
X167431327Y-85357698D01*
X167528000Y-85124309D01*
X167528000Y-84533750D01*
X167369250Y-84375000D01*
X166370000Y-84375000D01*
X166116000Y-84375000D01*
X165116750Y-84375000D01*
X164958000Y-84533750D01*
X164614464Y-84533750D01*
X164614464Y-83498000D01*
X164587897Y-83356810D01*
X164504454Y-83227135D01*
X164439860Y-83183000D01*
X165036158Y-83183000D01*
X164958000Y-83371691D01*
X164958000Y-83962250D01*
X165116750Y-84121000D01*
X166116000Y-84121000D01*
X166116000Y-84101000D01*
X166370000Y-84101000D01*
X166370000Y-84121000D01*
X167369250Y-84121000D01*
X167528000Y-83962250D01*
X167528000Y-83428918D01*
X167536204Y-83441196D01*
X167565800Y-83470792D01*
X167565800Y-90551000D01*
X167604317Y-90744638D01*
X167714004Y-90908796D01*
X167968004Y-91162796D01*
X168132162Y-91272483D01*
X168298400Y-91305550D01*
X168314046Y-91329865D01*
X168441366Y-91416859D01*
X168554288Y-91439726D01*
X168451310Y-91459103D01*
X168321635Y-91542546D01*
X168303560Y-91569000D01*
X167468592Y-91569000D01*
X166346796Y-90447204D01*
X166182638Y-90337517D01*
X165989000Y-90299000D01*
X163676093Y-90299000D01*
X163663954Y-90280135D01*
X163536634Y-90193141D01*
X163423712Y-90170274D01*
X163526690Y-90150897D01*
X163656365Y-90067454D01*
X163743359Y-89940134D01*
X163773964Y-89789000D01*
X163773964Y-89281000D01*
X163747397Y-89139810D01*
X163663954Y-89010135D01*
X163536634Y-88923141D01*
X163385500Y-88892536D01*
X162242500Y-88892536D01*
X162101310Y-88919103D01*
X161971635Y-89002546D01*
X161884641Y-89129866D01*
X161854036Y-89281000D01*
X161854036Y-89789000D01*
X161880603Y-89930190D01*
X161964046Y-90059865D01*
X162091366Y-90146859D01*
X162204288Y-90169726D01*
X162101310Y-90189103D01*
X161971635Y-90272546D01*
X161953560Y-90299000D01*
X160782000Y-90299000D01*
X160588362Y-90337517D01*
X160424204Y-90447204D01*
X160123204Y-90748204D01*
X160015405Y-90909536D01*
X159731000Y-90909536D01*
X159637000Y-90927223D01*
X159637000Y-88392000D01*
X159598483Y-88198362D01*
X159488796Y-88034204D01*
X159347173Y-87892581D01*
X159376859Y-87849134D01*
X159407464Y-87698000D01*
X159407464Y-87133750D01*
X159649000Y-87133750D01*
X159649000Y-87724309D01*
X159745673Y-87957698D01*
X159924301Y-88136327D01*
X160157690Y-88233000D01*
X160623250Y-88233000D01*
X160782000Y-88074250D01*
X160782000Y-86975000D01*
X161036000Y-86975000D01*
X161036000Y-88074250D01*
X161194750Y-88233000D01*
X161660310Y-88233000D01*
X161893699Y-88136327D01*
X162072327Y-87957698D01*
X162169000Y-87724309D01*
X162169000Y-87133750D01*
X162010250Y-86975000D01*
X161036000Y-86975000D01*
X160782000Y-86975000D01*
X159807750Y-86975000D01*
X159649000Y-87133750D01*
X159407464Y-87133750D01*
X159407464Y-86198000D01*
X159380897Y-86056810D01*
X159297454Y-85927135D01*
X159170134Y-85840141D01*
X159019000Y-85809536D01*
X157719000Y-85809536D01*
X157577810Y-85836103D01*
X157448135Y-85919546D01*
X157361141Y-86046866D01*
X157330536Y-86198000D01*
X157330536Y-86217000D01*
X156715464Y-86217000D01*
X156715464Y-86098000D01*
X156688897Y-85956810D01*
X156605454Y-85827135D01*
X156478134Y-85740141D01*
X156442870Y-85733000D01*
X156453310Y-85733000D01*
X156686699Y-85636327D01*
X156865327Y-85457698D01*
X156962000Y-85224309D01*
X156962000Y-84633750D01*
X156803250Y-84475000D01*
X155829000Y-84475000D01*
X155829000Y-84495000D01*
X155575000Y-84495000D01*
X155575000Y-84475000D01*
X154600750Y-84475000D01*
X154442000Y-84633750D01*
X154442000Y-85224309D01*
X154538673Y-85457698D01*
X154717301Y-85636327D01*
X154950690Y-85733000D01*
X154952301Y-85733000D01*
X154935810Y-85736103D01*
X154806135Y-85819546D01*
X154719141Y-85946866D01*
X154688536Y-86098000D01*
X154688536Y-86237000D01*
X152901112Y-86237000D01*
X152844500Y-86225536D01*
X151701500Y-86225536D01*
X151560310Y-86252103D01*
X151430635Y-86335546D01*
X151343641Y-86462866D01*
X151313036Y-86614000D01*
X151313036Y-87122000D01*
X151339603Y-87263190D01*
X151423046Y-87392865D01*
X151550366Y-87479859D01*
X151663288Y-87502726D01*
X151560310Y-87522103D01*
X151430635Y-87605546D01*
X151343641Y-87732866D01*
X151313036Y-87884000D01*
X151313036Y-88392000D01*
X151339603Y-88533190D01*
X151423046Y-88662865D01*
X151550366Y-88749859D01*
X151663288Y-88772726D01*
X151560310Y-88792103D01*
X151430635Y-88875546D01*
X151412560Y-88902000D01*
X150495000Y-88902000D01*
X150301362Y-88940517D01*
X150137204Y-89050204D01*
X149776204Y-89411204D01*
X149666517Y-89575362D01*
X149628000Y-89769000D01*
X149628000Y-93093536D01*
X149384000Y-93093536D01*
X149242810Y-93120103D01*
X149113135Y-93203546D01*
X149026141Y-93330866D01*
X148995536Y-93482000D01*
X148995536Y-93601000D01*
X148665464Y-93601000D01*
X148665464Y-93457000D01*
X148638897Y-93315810D01*
X148555454Y-93186135D01*
X148428134Y-93099141D01*
X148277000Y-93068536D01*
X146777000Y-93068536D01*
X146635810Y-93095103D01*
X146506135Y-93178546D01*
X146419141Y-93305866D01*
X146388536Y-93457000D01*
X146388536Y-94757000D01*
X146415103Y-94898190D01*
X146498546Y-95027865D01*
X146625866Y-95114859D01*
X146777000Y-95145464D01*
X147021000Y-95145464D01*
X147021000Y-95608536D01*
X146777000Y-95608536D01*
X146635810Y-95635103D01*
X146506135Y-95718546D01*
X146419141Y-95845866D01*
X146388536Y-95997000D01*
X146388536Y-97297000D01*
X146415103Y-97438190D01*
X146498546Y-97567865D01*
X146625866Y-97654859D01*
X146777000Y-97685464D01*
X148277000Y-97685464D01*
X148418190Y-97658897D01*
X148547865Y-97575454D01*
X148634859Y-97448134D01*
X148665464Y-97297000D01*
X148665464Y-95997000D01*
X148638897Y-95855810D01*
X148555454Y-95726135D01*
X148428134Y-95639141D01*
X148277000Y-95608536D01*
X148033000Y-95608536D01*
X148033000Y-95145464D01*
X148277000Y-95145464D01*
X148418190Y-95118897D01*
X148547865Y-95035454D01*
X148634859Y-94908134D01*
X148665464Y-94757000D01*
X148665464Y-94613000D01*
X148995536Y-94613000D01*
X148995536Y-94732000D01*
X149022103Y-94873190D01*
X149105546Y-95002865D01*
X149232866Y-95089859D01*
X149384000Y-95120464D01*
X150884000Y-95120464D01*
X151025190Y-95093897D01*
X151154865Y-95010454D01*
X151241859Y-94883134D01*
X151249000Y-94847870D01*
X151249000Y-94858310D01*
X151345673Y-95091699D01*
X151524302Y-95270327D01*
X151757691Y-95367000D01*
X152348250Y-95367000D01*
X152507000Y-95208250D01*
X152507000Y-94234000D01*
X152761000Y-94234000D01*
X152761000Y-95208250D01*
X152919750Y-95367000D01*
X153510309Y-95367000D01*
X153743698Y-95270327D01*
X153922327Y-95091699D01*
X154019000Y-94858310D01*
X154019000Y-94392750D01*
X153860250Y-94234000D01*
X152761000Y-94234000D01*
X152507000Y-94234000D01*
X152487000Y-94234000D01*
X152487000Y-93980000D01*
X152507000Y-93980000D01*
X152507000Y-93005750D01*
X152761000Y-93005750D01*
X152761000Y-93980000D01*
X153860250Y-93980000D01*
X154019000Y-93821250D01*
X154019000Y-93355690D01*
X153922327Y-93122301D01*
X153743698Y-92943673D01*
X153510309Y-92847000D01*
X152919750Y-92847000D01*
X152761000Y-93005750D01*
X152507000Y-93005750D01*
X152348250Y-92847000D01*
X151757691Y-92847000D01*
X151524302Y-92943673D01*
X151345673Y-93122301D01*
X151249000Y-93355690D01*
X151249000Y-93357301D01*
X151245897Y-93340810D01*
X151162454Y-93211135D01*
X151035134Y-93124141D01*
X150884000Y-93093536D01*
X150640000Y-93093536D01*
X150640000Y-89978592D01*
X150704592Y-89914000D01*
X151410907Y-89914000D01*
X151423046Y-89932865D01*
X151550366Y-90019859D01*
X151663288Y-90042726D01*
X151560310Y-90062103D01*
X151430635Y-90145546D01*
X151343641Y-90272866D01*
X151313036Y-90424000D01*
X151313036Y-90932000D01*
X151339603Y-91073190D01*
X151423046Y-91202865D01*
X151550366Y-91289859D01*
X151701500Y-91320464D01*
X151767000Y-91320464D01*
X151767000Y-91567000D01*
X151805517Y-91760638D01*
X151915204Y-91924796D01*
X152296204Y-92305796D01*
X152460362Y-92415483D01*
X152654000Y-92454000D01*
X156642536Y-92454000D01*
X156642536Y-92598000D01*
X156669103Y-92739190D01*
X156752546Y-92868865D01*
X156879866Y-92955859D01*
X157031000Y-92986464D01*
X158531000Y-92986464D01*
X158625000Y-92968777D01*
X158625000Y-93468571D01*
X158531000Y-93449536D01*
X157031000Y-93449536D01*
X156889810Y-93476103D01*
X156760135Y-93559546D01*
X156673141Y-93686866D01*
X156642536Y-93838000D01*
X156642536Y-95138000D01*
X156669103Y-95279190D01*
X156752546Y-95408865D01*
X156879866Y-95495859D01*
X157031000Y-95526464D01*
X157150000Y-95526464D01*
X157150000Y-95714169D01*
X157103918Y-95825146D01*
X157103682Y-96096065D01*
X157207139Y-96346452D01*
X157398541Y-96538187D01*
X157648746Y-96642082D01*
X157919665Y-96642318D01*
X158170052Y-96538861D01*
X158361787Y-96347459D01*
X158465682Y-96097254D01*
X158465918Y-95826335D01*
X158412000Y-95695842D01*
X158412000Y-95526464D01*
X158531000Y-95526464D01*
X158672190Y-95499897D01*
X158801865Y-95416454D01*
X158888859Y-95289134D01*
X158919464Y-95138000D01*
X158919464Y-94738056D01*
X159027204Y-94845796D01*
X159191362Y-94955483D01*
X159342536Y-94985553D01*
X159342536Y-95138000D01*
X159369103Y-95279190D01*
X159452546Y-95408865D01*
X159579866Y-95495859D01*
X159731000Y-95526464D01*
X161231000Y-95526464D01*
X161372190Y-95499897D01*
X161501865Y-95416454D01*
X161588859Y-95289134D01*
X161619464Y-95138000D01*
X161619464Y-94994000D01*
X162096408Y-94994000D01*
X162308000Y-95205592D01*
X162308000Y-96511974D01*
X162158698Y-96362673D01*
X161925309Y-96266000D01*
X160884750Y-96266000D01*
X160726000Y-96424750D01*
X160726000Y-99949000D01*
X160746000Y-99949000D01*
X160746000Y-100203000D01*
X160726000Y-100203000D01*
X160726000Y-103727250D01*
X160884750Y-103886000D01*
X161925309Y-103886000D01*
X162158698Y-103789327D01*
X162337327Y-103610699D01*
X162434000Y-103377310D01*
X162434000Y-102559565D01*
X162456204Y-102592796D01*
X162944204Y-103080796D01*
X163108362Y-103190483D01*
X163302000Y-103229000D01*
X166245536Y-103229000D01*
X166245536Y-103473000D01*
X166272103Y-103614190D01*
X166355546Y-103743865D01*
X166482866Y-103830859D01*
X166634000Y-103861464D01*
X167884000Y-103861464D01*
X168025190Y-103834897D01*
X168154865Y-103751454D01*
X168241859Y-103624134D01*
X168272464Y-103473000D01*
X168272464Y-102850220D01*
X175634422Y-102850220D01*
X175641053Y-102885460D01*
X175724496Y-103015135D01*
X175851816Y-103102129D01*
X176002950Y-103132734D01*
X176803050Y-103132734D01*
X176944240Y-103106167D01*
X177073915Y-103022724D01*
X177160909Y-102895404D01*
X177169141Y-102854750D01*
X181468000Y-102854750D01*
X181468000Y-103445309D01*
X181564673Y-103678698D01*
X181743301Y-103857327D01*
X181976690Y-103954000D01*
X182467250Y-103954000D01*
X182626000Y-103795250D01*
X182626000Y-102696000D01*
X182880000Y-102696000D01*
X182880000Y-103795250D01*
X183038750Y-103954000D01*
X183529310Y-103954000D01*
X183762699Y-103857327D01*
X183941327Y-103678698D01*
X184038000Y-103445309D01*
X184038000Y-102854750D01*
X183879250Y-102696000D01*
X182880000Y-102696000D01*
X182626000Y-102696000D01*
X181626750Y-102696000D01*
X181468000Y-102854750D01*
X177169141Y-102854750D01*
X177170059Y-102850220D01*
X180865780Y-102850220D01*
X181059418Y-102811703D01*
X181223576Y-102702016D01*
X181317556Y-102608036D01*
X181427243Y-102443878D01*
X181465760Y-102250240D01*
X181465760Y-102175578D01*
X181468000Y-102175156D01*
X181468000Y-102283250D01*
X181626750Y-102442000D01*
X182626000Y-102442000D01*
X182626000Y-101342750D01*
X182880000Y-101342750D01*
X182880000Y-102442000D01*
X183879250Y-102442000D01*
X184038000Y-102283250D01*
X184038000Y-101692691D01*
X183941327Y-101459302D01*
X183762699Y-101280673D01*
X183529310Y-101184000D01*
X183038750Y-101184000D01*
X182880000Y-101342750D01*
X182626000Y-101342750D01*
X182467250Y-101184000D01*
X181976690Y-101184000D01*
X181748274Y-101278613D01*
X181748274Y-101006950D01*
X181721707Y-100865760D01*
X181638264Y-100736085D01*
X181510944Y-100649091D01*
X181359810Y-100618486D01*
X180559710Y-100618486D01*
X180418520Y-100645053D01*
X180288845Y-100728496D01*
X180201851Y-100855816D01*
X180171246Y-101006950D01*
X180171246Y-101807050D01*
X180177111Y-101838220D01*
X177171578Y-101838220D01*
X177164947Y-101802980D01*
X177081504Y-101673305D01*
X176954184Y-101586311D01*
X176803050Y-101555706D01*
X176002950Y-101555706D01*
X175861760Y-101582273D01*
X175732085Y-101665716D01*
X175645091Y-101793036D01*
X175635941Y-101838220D01*
X168247103Y-101838220D01*
X168245897Y-101831810D01*
X168162454Y-101702135D01*
X168035134Y-101615141D01*
X167999870Y-101608000D01*
X168010310Y-101608000D01*
X168243699Y-101511327D01*
X168422327Y-101332698D01*
X168519000Y-101099309D01*
X168519000Y-100508750D01*
X168360250Y-100350000D01*
X167386000Y-100350000D01*
X167386000Y-100370000D01*
X167132000Y-100370000D01*
X167132000Y-100350000D01*
X166157750Y-100350000D01*
X165999000Y-100508750D01*
X165999000Y-101099309D01*
X166095673Y-101332698D01*
X166274301Y-101511327D01*
X166507690Y-101608000D01*
X166509301Y-101608000D01*
X166492810Y-101611103D01*
X166363135Y-101694546D01*
X166276141Y-101821866D01*
X166245536Y-101973000D01*
X166245536Y-102217000D01*
X163511592Y-102217000D01*
X163320000Y-102025408D01*
X163320000Y-94996000D01*
X163281483Y-94802362D01*
X163171796Y-94638204D01*
X162663796Y-94130204D01*
X162499638Y-94020517D01*
X162333469Y-93987464D01*
X163385500Y-93987464D01*
X163526690Y-93960897D01*
X163656365Y-93877454D01*
X163743359Y-93750134D01*
X163773964Y-93599000D01*
X163773964Y-93091000D01*
X163747397Y-92949810D01*
X163663954Y-92820135D01*
X163536634Y-92733141D01*
X163423712Y-92710274D01*
X163446425Y-92706000D01*
X163822632Y-92706000D01*
X163981000Y-92864369D01*
X163981000Y-94490536D01*
X163862000Y-94490536D01*
X163720810Y-94517103D01*
X163591135Y-94600546D01*
X163504141Y-94727866D01*
X163473536Y-94879000D01*
X163473536Y-96129000D01*
X163500103Y-96270190D01*
X163583546Y-96399865D01*
X163710866Y-96486859D01*
X163862000Y-96517464D01*
X163981000Y-96517464D01*
X163981000Y-96878536D01*
X163762000Y-96878536D01*
X163620810Y-96905103D01*
X163491135Y-96988546D01*
X163404141Y-97115866D01*
X163373536Y-97267000D01*
X163373536Y-98567000D01*
X163400103Y-98708190D01*
X163483546Y-98837865D01*
X163610866Y-98924859D01*
X163762000Y-98955464D01*
X165262000Y-98955464D01*
X165403190Y-98928897D01*
X165532865Y-98845454D01*
X165619859Y-98718134D01*
X165650464Y-98567000D01*
X165650464Y-98566539D01*
X165725946Y-98597882D01*
X165996865Y-98598118D01*
X166073536Y-98566438D01*
X166073536Y-98567000D01*
X166100103Y-98708190D01*
X166183546Y-98837865D01*
X166306008Y-98921540D01*
X166274301Y-98934673D01*
X166095673Y-99113302D01*
X165999000Y-99346691D01*
X165999000Y-99937250D01*
X166157750Y-100096000D01*
X167132000Y-100096000D01*
X167132000Y-100076000D01*
X167386000Y-100076000D01*
X167386000Y-100096000D01*
X168360250Y-100096000D01*
X168519000Y-99937250D01*
X168519000Y-99912170D01*
X172185486Y-99912170D01*
X172185486Y-100712270D01*
X172212053Y-100853460D01*
X172295496Y-100983135D01*
X172422816Y-101070129D01*
X172573950Y-101100734D01*
X173374050Y-101100734D01*
X173515240Y-101074167D01*
X173644915Y-100990724D01*
X173731909Y-100863404D01*
X173741059Y-100818220D01*
X174678209Y-100818220D01*
X174691053Y-100886480D01*
X174774496Y-101016155D01*
X174901816Y-101103149D01*
X175052950Y-101133754D01*
X175853050Y-101133754D01*
X175994240Y-101107187D01*
X176123915Y-101023744D01*
X176210909Y-100896424D01*
X176241514Y-100745290D01*
X176241514Y-99945190D01*
X176564486Y-99945190D01*
X176564486Y-100745290D01*
X176591053Y-100886480D01*
X176674496Y-101016155D01*
X176801816Y-101103149D01*
X176952950Y-101133754D01*
X177753050Y-101133754D01*
X177894240Y-101107187D01*
X178023915Y-101023744D01*
X178065420Y-100963000D01*
X178192202Y-100963000D01*
X178198833Y-100998240D01*
X178282276Y-101127915D01*
X178409596Y-101214909D01*
X178560730Y-101245514D01*
X179360830Y-101245514D01*
X179502020Y-101218947D01*
X179631695Y-101135504D01*
X179718689Y-101008184D01*
X179749294Y-100857050D01*
X179749294Y-100056950D01*
X179722727Y-99915760D01*
X179643573Y-99792750D01*
X179924710Y-99792750D01*
X179924710Y-100033359D01*
X180021383Y-100266748D01*
X180200011Y-100445377D01*
X180433400Y-100542050D01*
X180674010Y-100542050D01*
X180832760Y-100383300D01*
X180832760Y-99634000D01*
X180083460Y-99634000D01*
X179924710Y-99792750D01*
X179643573Y-99792750D01*
X179639284Y-99786085D01*
X179511964Y-99699091D01*
X179466780Y-99689941D01*
X179466780Y-98980641D01*
X179924710Y-98980641D01*
X179924710Y-99221250D01*
X180083460Y-99380000D01*
X180832760Y-99380000D01*
X180832760Y-98630700D01*
X180674010Y-98471950D01*
X180433400Y-98471950D01*
X180200011Y-98568623D01*
X180021383Y-98747252D01*
X179924710Y-98980641D01*
X179466780Y-98980641D01*
X179466780Y-98373464D01*
X180101000Y-98373464D01*
X180242190Y-98346897D01*
X180371865Y-98263454D01*
X180458859Y-98136134D01*
X180489464Y-97985000D01*
X180489464Y-97868000D01*
X181714536Y-97868000D01*
X181714536Y-98112000D01*
X181741103Y-98253190D01*
X181824546Y-98382865D01*
X181951866Y-98469859D01*
X182103000Y-98500464D01*
X182247000Y-98500464D01*
X182247000Y-98730536D01*
X182103000Y-98730536D01*
X181961810Y-98757103D01*
X181914758Y-98787380D01*
X181898137Y-98747252D01*
X181719509Y-98568623D01*
X181486120Y-98471950D01*
X181245510Y-98471950D01*
X181086760Y-98630700D01*
X181086760Y-99380000D01*
X181106760Y-99380000D01*
X181106760Y-99634000D01*
X181086760Y-99634000D01*
X181086760Y-100383300D01*
X181245510Y-100542050D01*
X181486120Y-100542050D01*
X181714536Y-100447437D01*
X181714536Y-100619000D01*
X181741103Y-100760190D01*
X181824546Y-100889865D01*
X181951866Y-100976859D01*
X182103000Y-101007464D01*
X183403000Y-101007464D01*
X183544190Y-100980897D01*
X183673865Y-100897454D01*
X183760859Y-100770134D01*
X183791464Y-100619000D01*
X183791464Y-99119000D01*
X183764897Y-98977810D01*
X183681454Y-98848135D01*
X183554134Y-98761141D01*
X183403000Y-98730536D01*
X183259000Y-98730536D01*
X183259000Y-98500464D01*
X183403000Y-98500464D01*
X183544190Y-98473897D01*
X183673865Y-98390454D01*
X183760859Y-98263134D01*
X183791464Y-98112000D01*
X183791464Y-96612000D01*
X183764897Y-96470810D01*
X183681454Y-96341135D01*
X183554134Y-96254141D01*
X183403000Y-96223536D01*
X182103000Y-96223536D01*
X181961810Y-96250103D01*
X181832135Y-96333546D01*
X181745141Y-96460866D01*
X181714536Y-96612000D01*
X181714536Y-96856000D01*
X180489464Y-96856000D01*
X180489464Y-96485000D01*
X180462897Y-96343810D01*
X180379454Y-96214135D01*
X180252134Y-96127141D01*
X180101000Y-96096536D01*
X178801000Y-96096536D01*
X178659810Y-96123103D01*
X178530135Y-96206546D01*
X178443141Y-96333866D01*
X178417801Y-96458998D01*
X178280062Y-96458998D01*
X178438810Y-96300250D01*
X178438810Y-96059641D01*
X178342137Y-95826252D01*
X178163509Y-95647623D01*
X177930120Y-95550950D01*
X177689510Y-95550950D01*
X177530760Y-95709700D01*
X177530760Y-96459000D01*
X177550760Y-96459000D01*
X177550760Y-96713000D01*
X177530760Y-96713000D01*
X177530760Y-97462300D01*
X177689510Y-97621050D01*
X177930120Y-97621050D01*
X178163509Y-97524377D01*
X178342137Y-97345748D01*
X178412536Y-97175790D01*
X178412536Y-97985000D01*
X178439103Y-98126190D01*
X178454780Y-98150553D01*
X178454780Y-99688422D01*
X178419540Y-99695053D01*
X178289865Y-99778496D01*
X178202871Y-99905816D01*
X178193721Y-99951000D01*
X178141514Y-99951000D01*
X178141514Y-99945190D01*
X178114947Y-99804000D01*
X178031504Y-99674325D01*
X177904184Y-99587331D01*
X177859000Y-99578181D01*
X177859000Y-99264129D01*
X177945000Y-99247947D01*
X178074675Y-99164504D01*
X178161669Y-99037184D01*
X178192274Y-98886050D01*
X178192274Y-98085950D01*
X178165707Y-97944760D01*
X178082264Y-97815085D01*
X177954944Y-97728091D01*
X177803810Y-97697486D01*
X177003710Y-97697486D01*
X176862520Y-97724053D01*
X176732845Y-97807496D01*
X176645851Y-97934816D01*
X176615246Y-98085950D01*
X176615246Y-98886050D01*
X176641813Y-99027240D01*
X176725256Y-99156915D01*
X176847000Y-99240099D01*
X176847000Y-99576662D01*
X176811760Y-99583293D01*
X176682085Y-99666736D01*
X176595091Y-99794056D01*
X176564486Y-99945190D01*
X176241514Y-99945190D01*
X176214947Y-99804000D01*
X176131504Y-99674325D01*
X176004184Y-99587331D01*
X175853050Y-99556726D01*
X175052950Y-99556726D01*
X174911760Y-99583293D01*
X174782085Y-99666736D01*
X174695091Y-99794056D01*
X174692628Y-99806220D01*
X173742578Y-99806220D01*
X173735947Y-99770980D01*
X173652504Y-99641305D01*
X173525184Y-99554311D01*
X173374050Y-99523706D01*
X172573950Y-99523706D01*
X172432760Y-99550273D01*
X172303085Y-99633716D01*
X172216091Y-99761036D01*
X172185486Y-99912170D01*
X168519000Y-99912170D01*
X168519000Y-99346691D01*
X168422327Y-99113302D01*
X168243699Y-98934673D01*
X168152755Y-98897003D01*
X168232865Y-98845454D01*
X168319859Y-98718134D01*
X168343985Y-98598990D01*
X170988950Y-98598990D01*
X170988950Y-98839600D01*
X171085623Y-99072989D01*
X171264252Y-99251617D01*
X171497641Y-99348290D01*
X171738250Y-99348290D01*
X171897000Y-99189540D01*
X171897000Y-98440240D01*
X172151000Y-98440240D01*
X172151000Y-99189540D01*
X172309750Y-99348290D01*
X172550359Y-99348290D01*
X172783748Y-99251617D01*
X172962377Y-99072989D01*
X173059050Y-98839600D01*
X173059050Y-98598990D01*
X172900300Y-98440240D01*
X172151000Y-98440240D01*
X171897000Y-98440240D01*
X171147700Y-98440240D01*
X170988950Y-98598990D01*
X168343985Y-98598990D01*
X168350464Y-98567000D01*
X168350464Y-97786880D01*
X170988950Y-97786880D01*
X170988950Y-98027490D01*
X171147700Y-98186240D01*
X171897000Y-98186240D01*
X171897000Y-97436940D01*
X172151000Y-97436940D01*
X172151000Y-98186240D01*
X172900300Y-98186240D01*
X173059050Y-98027490D01*
X173059050Y-97786880D01*
X172962377Y-97553491D01*
X172783748Y-97374863D01*
X172550359Y-97278190D01*
X172309750Y-97278190D01*
X172151000Y-97436940D01*
X171897000Y-97436940D01*
X171738250Y-97278190D01*
X171497641Y-97278190D01*
X171264252Y-97374863D01*
X171085623Y-97553491D01*
X170988950Y-97786880D01*
X168350464Y-97786880D01*
X168350464Y-97267000D01*
X168323897Y-97125810D01*
X168240454Y-96996135D01*
X168113134Y-96909141D01*
X167962000Y-96878536D01*
X166462000Y-96878536D01*
X166320810Y-96905103D01*
X166191135Y-96988546D01*
X166104141Y-97115866D01*
X166073536Y-97267000D01*
X166073536Y-97267461D01*
X165998054Y-97236118D01*
X165727135Y-97235882D01*
X165650464Y-97267562D01*
X165650464Y-97267000D01*
X165623897Y-97125810D01*
X165540454Y-96996135D01*
X165413134Y-96909141D01*
X165262000Y-96878536D01*
X165243000Y-96878536D01*
X165243000Y-96517464D01*
X165362000Y-96517464D01*
X165503190Y-96490897D01*
X165632865Y-96407454D01*
X165719859Y-96280134D01*
X165727000Y-96244870D01*
X165727000Y-96255310D01*
X165823673Y-96488699D01*
X166002302Y-96667327D01*
X166235691Y-96764000D01*
X166826250Y-96764000D01*
X166985000Y-96605250D01*
X166985000Y-95631000D01*
X167239000Y-95631000D01*
X167239000Y-96605250D01*
X167397750Y-96764000D01*
X167988309Y-96764000D01*
X168221698Y-96667327D01*
X168400327Y-96488699D01*
X168497000Y-96255310D01*
X168497000Y-95789750D01*
X168338250Y-95631000D01*
X167239000Y-95631000D01*
X166985000Y-95631000D01*
X166965000Y-95631000D01*
X166965000Y-95377000D01*
X166985000Y-95377000D01*
X166985000Y-94402750D01*
X167239000Y-94402750D01*
X167239000Y-95377000D01*
X168338250Y-95377000D01*
X168497000Y-95218250D01*
X168497000Y-94752690D01*
X168400327Y-94519301D01*
X168221698Y-94340673D01*
X167988309Y-94244000D01*
X167397750Y-94244000D01*
X167239000Y-94402750D01*
X166985000Y-94402750D01*
X166826250Y-94244000D01*
X166235691Y-94244000D01*
X166002302Y-94340673D01*
X165823673Y-94519301D01*
X165727000Y-94752690D01*
X165727000Y-94754301D01*
X165723897Y-94737810D01*
X165640454Y-94608135D01*
X165513134Y-94521141D01*
X165362000Y-94490536D01*
X165243000Y-94490536D01*
X165243000Y-92603000D01*
X165194968Y-92361527D01*
X165135680Y-92272796D01*
X165058185Y-92156816D01*
X164530184Y-91628816D01*
X164325473Y-91492032D01*
X164084000Y-91444000D01*
X163442112Y-91444000D01*
X163423712Y-91440274D01*
X163526690Y-91420897D01*
X163656365Y-91337454D01*
X163674440Y-91311000D01*
X165779408Y-91311000D01*
X166901204Y-92432796D01*
X167065362Y-92542483D01*
X167259000Y-92581000D01*
X168301907Y-92581000D01*
X168314046Y-92599865D01*
X168441366Y-92686859D01*
X168554288Y-92709726D01*
X168451310Y-92729103D01*
X168321635Y-92812546D01*
X168234641Y-92939866D01*
X168204036Y-93091000D01*
X168204036Y-93599000D01*
X168230603Y-93740190D01*
X168314046Y-93869865D01*
X168441366Y-93956859D01*
X168592500Y-93987464D01*
X169735500Y-93987464D01*
X169876690Y-93960897D01*
X170006365Y-93877454D01*
X170093359Y-93750134D01*
X170123964Y-93599000D01*
X170123964Y-93091000D01*
X170097397Y-92949810D01*
X170013954Y-92820135D01*
X169886634Y-92733141D01*
X169773712Y-92710274D01*
X169876690Y-92690897D01*
X170006365Y-92607454D01*
X170093359Y-92480134D01*
X170123964Y-92329000D01*
X170123964Y-91821000D01*
X170097397Y-91679810D01*
X170013954Y-91550135D01*
X169886634Y-91463141D01*
X169773712Y-91440274D01*
X169876690Y-91420897D01*
X170006365Y-91337454D01*
X170093359Y-91210134D01*
X170123964Y-91059000D01*
X170123964Y-90551000D01*
X170097397Y-90409810D01*
X170055028Y-90343966D01*
X170095199Y-90327327D01*
X170273827Y-90148698D01*
X170370500Y-89915309D01*
X170370500Y-89820750D01*
X170211750Y-89662000D01*
X169291000Y-89662000D01*
X169291000Y-89682000D01*
X169037000Y-89682000D01*
X169037000Y-89662000D01*
X169017000Y-89662000D01*
X169017000Y-89408000D01*
X169037000Y-89408000D01*
X169037000Y-89388000D01*
X169291000Y-89388000D01*
X169291000Y-89408000D01*
X170211750Y-89408000D01*
X170370500Y-89249250D01*
X170370500Y-89154691D01*
X170273827Y-88921302D01*
X170253525Y-88901000D01*
X171926250Y-88901000D01*
X172085000Y-88742250D01*
X172085000Y-87193000D01*
X172065000Y-87193000D01*
X172065000Y-86939000D01*
X172085000Y-86939000D01*
X172085000Y-85389750D01*
X171926250Y-85231000D01*
X168910690Y-85231000D01*
X168677301Y-85327673D01*
X168577800Y-85427175D01*
X168577800Y-83261200D01*
X168539283Y-83067562D01*
X168429596Y-82903404D01*
X168302943Y-82776751D01*
X168251796Y-82700204D01*
X167870796Y-82319204D01*
X167706638Y-82209517D01*
X167513000Y-82171000D01*
X163880800Y-82171000D01*
X163687162Y-82209517D01*
X163523004Y-82319204D01*
X163218204Y-82624004D01*
X163108517Y-82788162D01*
X163070000Y-82981800D01*
X163070000Y-83109536D01*
X162926000Y-83109536D01*
X162784810Y-83136103D01*
X162655135Y-83219546D01*
X162568141Y-83346866D01*
X162537536Y-83498000D01*
X162537536Y-83842000D01*
X161922464Y-83842000D01*
X161922464Y-83598000D01*
X161895897Y-83456810D01*
X161812454Y-83327135D01*
X161685134Y-83240141D01*
X161534000Y-83209536D01*
X161415000Y-83209536D01*
X161415000Y-80643000D01*
X168648536Y-80643000D01*
X168648536Y-81266000D01*
X168675103Y-81407190D01*
X168758546Y-81536865D01*
X168885866Y-81623859D01*
X169037000Y-81654464D01*
X175387000Y-81654464D01*
X175528190Y-81627897D01*
X175657865Y-81544454D01*
X175744859Y-81417134D01*
X175770000Y-81292982D01*
X175770000Y-85350974D01*
X175746699Y-85327673D01*
X175513310Y-85231000D01*
X172497750Y-85231000D01*
X172339000Y-85389750D01*
X172339000Y-86939000D01*
X172359000Y-86939000D01*
X172359000Y-87193000D01*
X172339000Y-87193000D01*
X172339000Y-88742250D01*
X172497750Y-88901000D01*
X175513310Y-88901000D01*
X175746699Y-88804327D01*
X175770000Y-88781026D01*
X175770000Y-89325408D01*
X175685408Y-89410000D01*
X174625000Y-89410000D01*
X174431362Y-89448517D01*
X174311728Y-89528454D01*
X174267204Y-89558204D01*
X173566204Y-90259204D01*
X173456517Y-90423362D01*
X173418000Y-90617000D01*
X173418000Y-90915206D01*
X173390000Y-90909536D01*
X171890000Y-90909536D01*
X171748810Y-90936103D01*
X171619135Y-91019546D01*
X171532141Y-91146866D01*
X171501536Y-91298000D01*
X171501536Y-92598000D01*
X171528103Y-92739190D01*
X171611546Y-92868865D01*
X171738866Y-92955859D01*
X171890000Y-92986464D01*
X172009000Y-92986464D01*
X172009000Y-93453569D01*
X171962918Y-93564546D01*
X171962682Y-93835465D01*
X172066139Y-94085852D01*
X172257541Y-94277587D01*
X172507746Y-94381482D01*
X172778665Y-94381718D01*
X173029052Y-94278261D01*
X173220787Y-94086859D01*
X173324682Y-93836654D01*
X173324918Y-93565735D01*
X173271000Y-93435242D01*
X173271000Y-92986464D01*
X173390000Y-92986464D01*
X173418000Y-92981195D01*
X173418000Y-97544662D01*
X173382760Y-97551293D01*
X173253085Y-97634736D01*
X173166091Y-97762056D01*
X173135486Y-97913190D01*
X173135486Y-98713290D01*
X173162053Y-98854480D01*
X173245496Y-98984155D01*
X173372816Y-99071149D01*
X173523950Y-99101754D01*
X174324050Y-99101754D01*
X174465240Y-99075187D01*
X174594915Y-98991744D01*
X174681909Y-98864424D01*
X174712514Y-98713290D01*
X174712514Y-98185528D01*
X174726276Y-98206915D01*
X174853596Y-98293909D01*
X175004730Y-98324514D01*
X175804830Y-98324514D01*
X175946020Y-98297947D01*
X176075695Y-98214504D01*
X176162689Y-98087184D01*
X176193294Y-97936050D01*
X176193294Y-97135950D01*
X176166727Y-96994760D01*
X176087573Y-96871750D01*
X176368710Y-96871750D01*
X176368710Y-97112359D01*
X176465383Y-97345748D01*
X176644011Y-97524377D01*
X176877400Y-97621050D01*
X177118010Y-97621050D01*
X177276760Y-97462300D01*
X177276760Y-96713000D01*
X176527460Y-96713000D01*
X176368710Y-96871750D01*
X176087573Y-96871750D01*
X176083284Y-96865085D01*
X175955964Y-96778091D01*
X175910780Y-96768941D01*
X175910780Y-96059641D01*
X176368710Y-96059641D01*
X176368710Y-96300250D01*
X176527460Y-96459000D01*
X177276760Y-96459000D01*
X177276760Y-95709700D01*
X177118010Y-95550950D01*
X176877400Y-95550950D01*
X176644011Y-95647623D01*
X176465383Y-95826252D01*
X176368710Y-96059641D01*
X175910780Y-96059641D01*
X175910780Y-94673665D01*
X177220482Y-94673665D01*
X177323939Y-94924052D01*
X177515341Y-95115787D01*
X177765546Y-95219682D01*
X178036465Y-95219918D01*
X178166958Y-95166000D01*
X178412536Y-95166000D01*
X178412536Y-95285000D01*
X178439103Y-95426190D01*
X178522546Y-95555865D01*
X178649866Y-95642859D01*
X178801000Y-95673464D01*
X180101000Y-95673464D01*
X180242190Y-95646897D01*
X180371865Y-95563454D01*
X180458859Y-95436134D01*
X180489464Y-95285000D01*
X180489464Y-93785000D01*
X180462897Y-93643810D01*
X180379454Y-93514135D01*
X180252134Y-93427141D01*
X180101000Y-93396536D01*
X178801000Y-93396536D01*
X178659810Y-93423103D01*
X178530135Y-93506546D01*
X178443141Y-93633866D01*
X178412536Y-93785000D01*
X178412536Y-93904000D01*
X178148631Y-93904000D01*
X178037654Y-93857918D01*
X177766735Y-93857682D01*
X177516348Y-93961139D01*
X177324613Y-94152541D01*
X177220718Y-94402746D01*
X177220482Y-94673665D01*
X175910780Y-94673665D01*
X175910780Y-92986464D01*
X176090000Y-92986464D01*
X176231190Y-92959897D01*
X176360865Y-92876454D01*
X176447859Y-92749134D01*
X176478464Y-92598000D01*
X176478464Y-92454000D01*
X176631600Y-92454000D01*
X176825238Y-92415483D01*
X176989396Y-92305796D01*
X177497396Y-91797796D01*
X177607083Y-91633638D01*
X177645600Y-91440000D01*
X177645600Y-85866000D01*
X177767136Y-85866000D01*
X177767136Y-88266000D01*
X177793703Y-88407190D01*
X177877146Y-88536865D01*
X178004466Y-88623859D01*
X178155600Y-88654464D01*
X182247000Y-88654464D01*
X182247000Y-93523536D01*
X182103000Y-93523536D01*
X181961810Y-93550103D01*
X181832135Y-93633546D01*
X181745141Y-93760866D01*
X181714536Y-93912000D01*
X181714536Y-95412000D01*
X181741103Y-95553190D01*
X181824546Y-95682865D01*
X181951866Y-95769859D01*
X182103000Y-95800464D01*
X183403000Y-95800464D01*
X183544190Y-95773897D01*
X183673865Y-95690454D01*
X183760859Y-95563134D01*
X183791464Y-95412000D01*
X183791464Y-93912000D01*
X183764897Y-93770810D01*
X183681454Y-93641135D01*
X183554134Y-93554141D01*
X183403000Y-93523536D01*
X183259000Y-93523536D01*
X183259000Y-88654464D01*
X184505600Y-88654464D01*
X184646790Y-88627897D01*
X184776465Y-88544454D01*
X184863459Y-88417134D01*
X184894064Y-88266000D01*
X184894064Y-85866000D01*
X184867497Y-85724810D01*
X184784054Y-85595135D01*
X184656734Y-85508141D01*
X184505600Y-85477536D01*
X178155600Y-85477536D01*
X178014410Y-85504103D01*
X177884735Y-85587546D01*
X177797741Y-85714866D01*
X177767136Y-85866000D01*
X177645600Y-85866000D01*
X177645600Y-80676792D01*
X177750392Y-80572000D01*
X177767136Y-80572000D01*
X177767136Y-81266000D01*
X177793703Y-81407190D01*
X177877146Y-81536865D01*
X178004466Y-81623859D01*
X178155600Y-81654464D01*
X184505600Y-81654464D01*
X184646790Y-81627897D01*
X184776465Y-81544454D01*
X184863459Y-81417134D01*
X184894064Y-81266000D01*
X184894064Y-78866000D01*
X184867497Y-78724810D01*
X184784054Y-78595135D01*
X184656734Y-78508141D01*
X184505600Y-78477536D01*
X178155600Y-78477536D01*
X178014410Y-78504103D01*
X177884735Y-78587546D01*
X177797741Y-78714866D01*
X177767136Y-78866000D01*
X177767136Y-79560000D01*
X177540800Y-79560000D01*
X177347162Y-79598517D01*
X177183004Y-79708204D01*
X176782000Y-80109208D01*
X176782000Y-78486000D01*
X176743483Y-78292362D01*
X176633796Y-78128204D01*
X176252796Y-77747204D01*
X176088638Y-77637517D01*
X175895000Y-77599000D01*
X158115000Y-77599000D01*
X157921362Y-77637517D01*
X157757204Y-77747204D01*
X157311204Y-78193204D01*
X157201517Y-78357362D01*
X157163000Y-78551000D01*
X157163000Y-79466807D01*
X157098135Y-79508546D01*
X157014466Y-79631000D01*
X151494456Y-79631000D01*
X151555859Y-79541134D01*
X151586464Y-79390000D01*
X151586464Y-78090000D01*
X151559897Y-77948810D01*
X151476454Y-77819135D01*
X151349134Y-77732141D01*
X151198000Y-77701536D01*
X149698000Y-77701536D01*
X149556810Y-77728103D01*
X149427135Y-77811546D01*
X149340141Y-77938866D01*
X149309536Y-78090000D01*
X149309536Y-78090461D01*
X149234054Y-78059118D01*
X148963135Y-78058882D01*
X148886464Y-78090562D01*
X148886464Y-78090000D01*
X148859897Y-77948810D01*
X148776454Y-77819135D01*
X148649134Y-77732141D01*
X148498000Y-77701536D01*
X146998000Y-77701536D01*
X146856810Y-77728103D01*
X146727135Y-77811546D01*
X146640141Y-77938866D01*
X146609536Y-78090000D01*
X146609536Y-78234000D01*
X145117664Y-78234000D01*
X145117664Y-78074520D01*
X145091097Y-77933330D01*
X145007654Y-77803655D01*
X144880334Y-77716661D01*
X144729200Y-77686056D01*
X143530320Y-77686056D01*
X143389130Y-77712623D01*
X143259455Y-77796066D01*
X143172461Y-77923386D01*
X143141856Y-78074520D01*
X143141856Y-79273400D01*
X143168423Y-79414590D01*
X143251866Y-79544265D01*
X143379186Y-79631259D01*
X143530320Y-79661864D01*
X144729200Y-79661864D01*
X144870390Y-79635297D01*
X145000065Y-79551854D01*
X145087059Y-79424534D01*
X145117664Y-79273400D01*
X145117664Y-79246000D01*
X146609536Y-79246000D01*
X146609536Y-79390000D01*
X146636103Y-79531190D01*
X146719546Y-79660865D01*
X146846866Y-79747859D01*
X146998000Y-79778464D01*
X148498000Y-79778464D01*
X148639190Y-79751897D01*
X148768865Y-79668454D01*
X148855859Y-79541134D01*
X148886464Y-79390000D01*
X148886464Y-79389539D01*
X148961946Y-79420882D01*
X149232865Y-79421118D01*
X149309536Y-79389438D01*
X149309536Y-79390000D01*
X149336103Y-79531190D01*
X149419546Y-79660865D01*
X149427734Y-79666459D01*
X149412362Y-79669517D01*
X149248204Y-79779204D01*
X148740204Y-80287204D01*
X148630517Y-80451362D01*
X148592000Y-80645000D01*
X148592000Y-80901536D01*
X147098000Y-80901536D01*
X146956810Y-80928103D01*
X146827135Y-81011546D01*
X146740141Y-81138866D01*
X146709536Y-81290000D01*
X146709536Y-81409000D01*
X144317564Y-81409000D01*
X144317564Y-81164430D01*
X144290997Y-81023240D01*
X144207554Y-80893565D01*
X144080234Y-80806571D01*
X143929100Y-80775966D01*
X142328900Y-80775966D01*
X142187710Y-80802533D01*
X142058035Y-80885976D01*
X141971041Y-81013296D01*
X141940436Y-81164430D01*
X141940436Y-82665570D01*
X141967003Y-82806760D01*
X142050446Y-82936435D01*
X142177766Y-83023429D01*
X142328900Y-83054034D01*
X142623000Y-83054034D01*
X142623000Y-83562571D01*
X142529000Y-83543536D01*
X141029000Y-83543536D01*
X140887810Y-83570103D01*
X140758135Y-83653546D01*
X140671141Y-83780866D01*
X140640536Y-83932000D01*
X140640536Y-85232000D01*
X140667103Y-85373190D01*
X140750546Y-85502865D01*
X140877866Y-85589859D01*
X141029000Y-85620464D01*
X141273000Y-85620464D01*
X141273000Y-86792536D01*
X141082000Y-86792536D01*
X140940810Y-86819103D01*
X140811135Y-86902546D01*
X140724141Y-87029866D01*
X140693536Y-87181000D01*
X140693536Y-88681000D01*
X140720103Y-88822190D01*
X140803546Y-88951865D01*
X140930866Y-89038859D01*
X141082000Y-89069464D01*
X141226000Y-89069464D01*
X141226000Y-89154000D01*
X141264517Y-89347638D01*
X141361335Y-89492536D01*
X141082000Y-89492536D01*
X140940810Y-89519103D01*
X140811135Y-89602546D01*
X140724141Y-89729866D01*
X140693536Y-89881000D01*
X140693536Y-90125000D01*
X138477000Y-90125000D01*
X138283362Y-90163517D01*
X138119204Y-90273204D01*
X137691204Y-90701204D01*
X137581517Y-90865362D01*
X137543000Y-91059000D01*
X137543000Y-94532408D01*
X137331408Y-94744000D01*
X137163429Y-94744000D01*
X137182464Y-94650000D01*
X137182464Y-93150000D01*
X137155897Y-93008810D01*
X137072454Y-92879135D01*
X136945134Y-92792141D01*
X136794000Y-92761536D01*
X135494000Y-92761536D01*
X135352810Y-92788103D01*
X135223135Y-92871546D01*
X135136141Y-92998866D01*
X135105536Y-93150000D01*
X135105536Y-93369000D01*
X134363464Y-93369000D01*
X134363464Y-93250000D01*
X134336897Y-93108810D01*
X134253454Y-92979135D01*
X134126134Y-92892141D01*
X133975000Y-92861536D01*
X132725000Y-92861536D01*
X132583810Y-92888103D01*
X132454135Y-92971546D01*
X132367141Y-93098866D01*
X132336536Y-93250000D01*
X132336536Y-93349000D01*
X131438112Y-93349000D01*
X131381500Y-93337536D01*
X130238500Y-93337536D01*
X130097310Y-93364103D01*
X129967635Y-93447546D01*
X129880641Y-93574866D01*
X129850036Y-93726000D01*
X129850036Y-94234000D01*
X129876603Y-94375190D01*
X129960046Y-94504865D01*
X130087366Y-94591859D01*
X130200288Y-94614726D01*
X130097310Y-94634103D01*
X129967635Y-94717546D01*
X129880641Y-94844866D01*
X129850036Y-94996000D01*
X129850036Y-95504000D01*
X129876603Y-95645190D01*
X129960046Y-95774865D01*
X130087366Y-95861859D01*
X130200288Y-95884726D01*
X130097310Y-95904103D01*
X129967635Y-95987546D01*
X129880641Y-96114866D01*
X129850036Y-96266000D01*
X129850036Y-96774000D01*
X129876603Y-96915190D01*
X129960046Y-97044865D01*
X130087366Y-97131859D01*
X130200288Y-97154726D01*
X130097310Y-97174103D01*
X129967635Y-97257546D01*
X129949560Y-97284000D01*
X128522000Y-97284000D01*
X128522000Y-92785464D01*
X128666000Y-92785464D01*
X128807190Y-92758897D01*
X128936865Y-92675454D01*
X129023859Y-92548134D01*
X129054464Y-92397000D01*
X129054464Y-90897000D01*
X129036777Y-90803000D01*
X133223000Y-90803000D01*
X133416638Y-90764483D01*
X133580796Y-90654796D01*
X133914796Y-90320796D01*
X134024483Y-90156638D01*
X134063000Y-89963000D01*
X134063000Y-89938464D01*
X134307000Y-89938464D01*
X134448190Y-89911897D01*
X134577865Y-89828454D01*
X134664859Y-89701134D01*
X134695464Y-89550000D01*
X134695464Y-88250000D01*
X134668897Y-88108810D01*
X134585454Y-87979135D01*
X134458134Y-87892141D01*
X134307000Y-87861536D01*
X134063000Y-87861536D01*
X134063000Y-87246464D01*
X134207000Y-87246464D01*
X134348190Y-87219897D01*
X134477865Y-87136454D01*
X134564859Y-87009134D01*
X134595464Y-86858000D01*
X134595464Y-85608000D01*
X134568897Y-85466810D01*
X134485454Y-85337135D01*
X134358134Y-85250141D01*
X134207000Y-85219536D01*
X133963000Y-85219536D01*
X133963000Y-84801874D01*
X133968190Y-84800897D01*
X134097865Y-84717454D01*
X134184859Y-84590134D01*
X134215464Y-84439000D01*
X134215464Y-83839000D01*
X134188897Y-83697810D01*
X134105454Y-83568135D01*
X133978134Y-83481141D01*
X133827000Y-83450536D01*
X133127000Y-83450536D01*
X132985810Y-83477103D01*
X132856135Y-83560546D01*
X132769141Y-83687866D01*
X132738536Y-83839000D01*
X132738536Y-84439000D01*
X132765103Y-84580190D01*
X132848546Y-84709865D01*
X132951000Y-84779869D01*
X132951000Y-85219536D01*
X132707000Y-85219536D01*
X132565810Y-85246103D01*
X132436135Y-85329546D01*
X132349141Y-85456866D01*
X132318536Y-85608000D01*
X132318536Y-86858000D01*
X132345103Y-86999190D01*
X132428546Y-87128865D01*
X132555866Y-87215859D01*
X132707000Y-87246464D01*
X133051000Y-87246464D01*
X133051000Y-87861536D01*
X132807000Y-87861536D01*
X132665810Y-87888103D01*
X132536135Y-87971546D01*
X132449141Y-88098866D01*
X132418536Y-88250000D01*
X132418536Y-89550000D01*
X132445103Y-89691190D01*
X132509329Y-89791000D01*
X131903456Y-89791000D01*
X131964859Y-89701134D01*
X131995464Y-89550000D01*
X131995464Y-88250000D01*
X131968897Y-88108810D01*
X131885454Y-87979135D01*
X131758134Y-87892141D01*
X131607000Y-87861536D01*
X131363000Y-87861536D01*
X131363000Y-87246464D01*
X131707000Y-87246464D01*
X131848190Y-87219897D01*
X131977865Y-87136454D01*
X132064859Y-87009134D01*
X132095464Y-86858000D01*
X132095464Y-85608000D01*
X132068897Y-85466810D01*
X131985454Y-85337135D01*
X131858134Y-85250141D01*
X131707000Y-85219536D01*
X131463000Y-85219536D01*
X131463000Y-84778498D01*
X131557865Y-84717454D01*
X131644859Y-84590134D01*
X131675464Y-84439000D01*
X131675464Y-83839000D01*
X131648897Y-83697810D01*
X131565454Y-83568135D01*
X131438134Y-83481141D01*
X131287000Y-83450536D01*
X130587000Y-83450536D01*
X130445810Y-83477103D01*
X130316135Y-83560546D01*
X130229141Y-83687866D01*
X130198536Y-83839000D01*
X130198536Y-84439000D01*
X130225103Y-84580190D01*
X130308546Y-84709865D01*
X130435866Y-84796859D01*
X130451000Y-84799924D01*
X130451000Y-85219536D01*
X130207000Y-85219536D01*
X130065810Y-85246103D01*
X129936135Y-85329546D01*
X129849141Y-85456866D01*
X129818536Y-85608000D01*
X129818536Y-86858000D01*
X129845103Y-86999190D01*
X129928546Y-87128865D01*
X130055866Y-87215859D01*
X130207000Y-87246464D01*
X130351000Y-87246464D01*
X130351000Y-87861536D01*
X130107000Y-87861536D01*
X129965810Y-87888103D01*
X129836135Y-87971546D01*
X129749141Y-88098866D01*
X129718536Y-88250000D01*
X129718536Y-88441000D01*
X129054464Y-88441000D01*
X129054464Y-88197000D01*
X129027897Y-88055810D01*
X128944454Y-87926135D01*
X128817134Y-87839141D01*
X128666000Y-87808536D01*
X127366000Y-87808536D01*
X127224810Y-87835103D01*
X127095135Y-87918546D01*
X127008141Y-88045866D01*
X126977536Y-88197000D01*
X126977536Y-88394000D01*
X126447367Y-88394000D01*
X126373454Y-88279135D01*
X126246134Y-88192141D01*
X126095000Y-88161536D01*
X125495000Y-88161536D01*
X125353810Y-88188103D01*
X125224135Y-88271546D01*
X125137141Y-88398866D01*
X125106536Y-88550000D01*
X125106536Y-89250000D01*
X125133103Y-89391190D01*
X125216546Y-89520865D01*
X125331537Y-89599435D01*
X125224135Y-89668546D01*
X125137141Y-89795866D01*
X125106536Y-89947000D01*
X125106536Y-90647000D01*
X125133103Y-90788190D01*
X125216546Y-90917865D01*
X125289000Y-90967371D01*
X125289000Y-93440818D01*
X125182634Y-93368141D01*
X125031500Y-93337536D01*
X124901000Y-93337536D01*
X124901000Y-90967193D01*
X124965865Y-90925454D01*
X125052859Y-90798134D01*
X125083464Y-90647000D01*
X125083464Y-89947000D01*
X125056897Y-89805810D01*
X124973454Y-89676135D01*
X124901000Y-89626629D01*
X124901000Y-89570193D01*
X124965865Y-89528454D01*
X125052859Y-89401134D01*
X125083464Y-89250000D01*
X125083464Y-88550000D01*
X125056897Y-88408810D01*
X124973454Y-88279135D01*
X124846134Y-88192141D01*
X124695000Y-88161536D01*
X124095000Y-88161536D01*
X123953810Y-88188103D01*
X123824135Y-88271546D01*
X123737141Y-88398866D01*
X123706536Y-88550000D01*
X123706536Y-89250000D01*
X123733103Y-89391190D01*
X123816546Y-89520865D01*
X123889000Y-89570371D01*
X123889000Y-89626807D01*
X123824135Y-89668546D01*
X123737141Y-89795866D01*
X123706536Y-89947000D01*
X123706536Y-90647000D01*
X123733103Y-90788190D01*
X123816546Y-90917865D01*
X123889000Y-90967371D01*
X123889000Y-93337536D01*
X123888500Y-93337536D01*
X123747310Y-93364103D01*
X123617635Y-93447546D01*
X123530641Y-93574866D01*
X123500036Y-93726000D01*
X123500036Y-94234000D01*
X123526603Y-94375190D01*
X123610046Y-94504865D01*
X123737366Y-94591859D01*
X123850288Y-94614726D01*
X123747310Y-94634103D01*
X123617635Y-94717546D01*
X123613225Y-94724000D01*
X120393464Y-94724000D01*
X120393464Y-94480000D01*
X120366897Y-94338810D01*
X120283454Y-94209135D01*
X120156134Y-94122141D01*
X120005000Y-94091536D01*
X118755000Y-94091536D01*
X118613810Y-94118103D01*
X118484135Y-94201546D01*
X118397141Y-94328866D01*
X118366536Y-94480000D01*
X118366536Y-95980000D01*
X118393103Y-96121190D01*
X118476546Y-96250865D01*
X118603866Y-96337859D01*
X118755000Y-96368464D01*
X120005000Y-96368464D01*
X120146190Y-96341897D01*
X120275865Y-96258454D01*
X120362859Y-96131134D01*
X120393464Y-95980000D01*
X120393464Y-95736000D01*
X123585037Y-95736000D01*
X123610046Y-95774865D01*
X123737366Y-95861859D01*
X123850288Y-95884726D01*
X123747310Y-95904103D01*
X123617635Y-95987546D01*
X123599560Y-96014000D01*
X120904000Y-96014000D01*
X120710362Y-96052517D01*
X120546204Y-96162204D01*
X120245204Y-96463204D01*
X120135517Y-96627362D01*
X120097000Y-96821000D01*
X120097000Y-97513536D01*
X119853000Y-97513536D01*
X119711810Y-97540103D01*
X119582135Y-97623546D01*
X119495141Y-97750866D01*
X119464536Y-97902000D01*
X119464536Y-99202000D01*
X119491103Y-99343190D01*
X119574546Y-99472865D01*
X119701866Y-99559859D01*
X119853000Y-99590464D01*
X120097000Y-99590464D01*
X120097000Y-100053536D01*
X119853000Y-100053536D01*
X119711810Y-100080103D01*
X119582135Y-100163546D01*
X119495141Y-100290866D01*
X119464536Y-100442000D01*
X119464536Y-101742000D01*
X119491103Y-101883190D01*
X119574546Y-102012865D01*
X119701866Y-102099859D01*
X119853000Y-102130464D01*
X119997000Y-102130464D01*
X119997000Y-102618536D01*
X119753000Y-102618536D01*
X119611810Y-102645103D01*
X119482135Y-102728546D01*
X119395141Y-102855866D01*
X119388000Y-102891130D01*
X119388000Y-102880690D01*
X119291327Y-102647301D01*
X119112698Y-102468673D01*
X118879309Y-102372000D01*
X118791380Y-102372000D01*
X119012698Y-102280327D01*
X119191327Y-102101699D01*
X119288000Y-101868310D01*
X119288000Y-101377750D01*
X119129250Y-101219000D01*
X118030000Y-101219000D01*
X117776000Y-101219000D01*
X116676750Y-101219000D01*
X116518000Y-101377750D01*
X116153000Y-101377750D01*
X116153000Y-100315690D01*
X116518000Y-100315690D01*
X116518000Y-100806250D01*
X116676750Y-100965000D01*
X117776000Y-100965000D01*
X117776000Y-99965750D01*
X118030000Y-99965750D01*
X118030000Y-100965000D01*
X119129250Y-100965000D01*
X119288000Y-100806250D01*
X119288000Y-100315690D01*
X119191327Y-100082301D01*
X119012698Y-99903673D01*
X118779309Y-99807000D01*
X118188750Y-99807000D01*
X118030000Y-99965750D01*
X117776000Y-99965750D01*
X117617250Y-99807000D01*
X117026691Y-99807000D01*
X116793302Y-99903673D01*
X116614673Y-100082301D01*
X116518000Y-100315690D01*
X116153000Y-100315690D01*
X116153000Y-97902000D01*
X116764536Y-97902000D01*
X116764536Y-99202000D01*
X116791103Y-99343190D01*
X116874546Y-99472865D01*
X117001866Y-99559859D01*
X117153000Y-99590464D01*
X118653000Y-99590464D01*
X118794190Y-99563897D01*
X118923865Y-99480454D01*
X119010859Y-99353134D01*
X119041464Y-99202000D01*
X119041464Y-97902000D01*
X119014897Y-97760810D01*
X118931454Y-97631135D01*
X118804134Y-97544141D01*
X118653000Y-97513536D01*
X118534000Y-97513536D01*
X118534000Y-97191734D01*
X118587682Y-97062454D01*
X118587918Y-96791535D01*
X118484461Y-96541148D01*
X118293059Y-96349413D01*
X118042854Y-96245518D01*
X117771935Y-96245282D01*
X117521548Y-96348739D01*
X117329813Y-96540141D01*
X117225918Y-96790346D01*
X117225682Y-97061265D01*
X117272000Y-97173364D01*
X117272000Y-97513536D01*
X117153000Y-97513536D01*
X117011810Y-97540103D01*
X116882135Y-97623546D01*
X116795141Y-97750866D01*
X116764536Y-97902000D01*
X116153000Y-97902000D01*
X116153000Y-78105000D01*
X117466536Y-78105000D01*
X117466536Y-84455000D01*
X117493103Y-84596190D01*
X117576546Y-84725865D01*
X117703866Y-84812859D01*
X117855000Y-84843464D01*
X118794000Y-84843464D01*
X118794000Y-87226536D01*
X118550000Y-87226536D01*
X118408810Y-87253103D01*
X118279135Y-87336546D01*
X118192141Y-87463866D01*
X118161536Y-87615000D01*
X118161536Y-88915000D01*
X118188103Y-89056190D01*
X118271546Y-89185865D01*
X118398866Y-89272859D01*
X118550000Y-89303464D01*
X118794000Y-89303464D01*
X118794000Y-91591536D01*
X118755000Y-91591536D01*
X118613810Y-91618103D01*
X118484135Y-91701546D01*
X118397141Y-91828866D01*
X118366536Y-91980000D01*
X118366536Y-93480000D01*
X118393103Y-93621190D01*
X118476546Y-93750865D01*
X118603866Y-93837859D01*
X118755000Y-93868464D01*
X120005000Y-93868464D01*
X120146190Y-93841897D01*
X120275865Y-93758454D01*
X120362859Y-93631134D01*
X120393464Y-93480000D01*
X120393464Y-91980000D01*
X120366897Y-91838810D01*
X120283454Y-91709135D01*
X120156134Y-91622141D01*
X120005000Y-91591536D01*
X119806000Y-91591536D01*
X119806000Y-89303464D01*
X120050000Y-89303464D01*
X120191190Y-89276897D01*
X120320865Y-89193454D01*
X120407859Y-89066134D01*
X120438464Y-88915000D01*
X120438464Y-87615000D01*
X120861536Y-87615000D01*
X120861536Y-88915000D01*
X120888103Y-89056190D01*
X120971546Y-89185865D01*
X121098866Y-89272859D01*
X121250000Y-89303464D01*
X122750000Y-89303464D01*
X122891190Y-89276897D01*
X123020865Y-89193454D01*
X123107859Y-89066134D01*
X123138464Y-88915000D01*
X123138464Y-87615000D01*
X123111897Y-87473810D01*
X123028454Y-87344135D01*
X122901134Y-87257141D01*
X122750000Y-87226536D01*
X122631000Y-87226536D01*
X122631000Y-86937231D01*
X122677082Y-86826254D01*
X122677318Y-86555335D01*
X122573861Y-86304948D01*
X122382459Y-86113213D01*
X122132254Y-86009318D01*
X121861335Y-86009082D01*
X121610948Y-86112539D01*
X121419213Y-86303941D01*
X121315318Y-86554146D01*
X121315082Y-86825065D01*
X121369000Y-86955558D01*
X121369000Y-87226536D01*
X121250000Y-87226536D01*
X121108810Y-87253103D01*
X120979135Y-87336546D01*
X120892141Y-87463866D01*
X120861536Y-87615000D01*
X120438464Y-87615000D01*
X120411897Y-87473810D01*
X120328454Y-87344135D01*
X120201134Y-87257141D01*
X120050000Y-87226536D01*
X119806000Y-87226536D01*
X119806000Y-84843464D01*
X120255000Y-84843464D01*
X120396190Y-84816897D01*
X120525865Y-84733454D01*
X120612859Y-84606134D01*
X120643464Y-84455000D01*
X120643464Y-81565750D01*
X124220000Y-81565750D01*
X124220000Y-84581310D01*
X124316673Y-84814699D01*
X124495302Y-84993327D01*
X124728691Y-85090000D01*
X125769250Y-85090000D01*
X125928000Y-84931250D01*
X125928000Y-81407000D01*
X126182000Y-81407000D01*
X126182000Y-84931250D01*
X126340750Y-85090000D01*
X127381309Y-85090000D01*
X127614698Y-84993327D01*
X127793327Y-84814699D01*
X127890000Y-84581310D01*
X127890000Y-82439000D01*
X130198536Y-82439000D01*
X130198536Y-83039000D01*
X130225103Y-83180190D01*
X130308546Y-83309865D01*
X130435866Y-83396859D01*
X130587000Y-83427464D01*
X131287000Y-83427464D01*
X131428190Y-83400897D01*
X131557865Y-83317454D01*
X131644859Y-83190134D01*
X131675464Y-83039000D01*
X131675464Y-82439000D01*
X131648897Y-82297810D01*
X131565454Y-82168135D01*
X131443000Y-82084466D01*
X131443000Y-81891464D01*
X131807000Y-81891464D01*
X131948190Y-81864897D01*
X132077865Y-81781454D01*
X132164859Y-81654134D01*
X132195464Y-81503000D01*
X132195464Y-80803000D01*
X132218536Y-80803000D01*
X132218536Y-81503000D01*
X132245103Y-81644190D01*
X132328546Y-81773865D01*
X132455866Y-81860859D01*
X132607000Y-81891464D01*
X132971000Y-81891464D01*
X132971000Y-82086633D01*
X132856135Y-82160546D01*
X132769141Y-82287866D01*
X132738536Y-82439000D01*
X132738536Y-83039000D01*
X132765103Y-83180190D01*
X132848546Y-83309865D01*
X132975866Y-83396859D01*
X133127000Y-83427464D01*
X133827000Y-83427464D01*
X133968190Y-83400897D01*
X134097865Y-83317454D01*
X134184859Y-83190134D01*
X134215464Y-83039000D01*
X134215464Y-82439000D01*
X134188897Y-82297810D01*
X134105454Y-82168135D01*
X133983000Y-82084466D01*
X133983000Y-81280000D01*
X133944483Y-81086362D01*
X133834796Y-80922204D01*
X133707796Y-80795204D01*
X133577632Y-80708231D01*
X133568897Y-80661810D01*
X133485454Y-80532135D01*
X133358134Y-80445141D01*
X133207000Y-80414536D01*
X132607000Y-80414536D01*
X132465810Y-80441103D01*
X132336135Y-80524546D01*
X132249141Y-80651866D01*
X132218536Y-80803000D01*
X132195464Y-80803000D01*
X132168897Y-80661810D01*
X132085454Y-80532135D01*
X131958134Y-80445141D01*
X131807000Y-80414536D01*
X131207000Y-80414536D01*
X131065810Y-80441103D01*
X130936135Y-80524546D01*
X130849141Y-80651866D01*
X130837940Y-80707181D01*
X130706204Y-80795204D01*
X130579204Y-80922204D01*
X130469517Y-81086362D01*
X130431000Y-81280000D01*
X130431000Y-82086633D01*
X130316135Y-82160546D01*
X130229141Y-82287866D01*
X130198536Y-82439000D01*
X127890000Y-82439000D01*
X127890000Y-81565750D01*
X127731250Y-81407000D01*
X126182000Y-81407000D01*
X125928000Y-81407000D01*
X124378750Y-81407000D01*
X124220000Y-81565750D01*
X120643464Y-81565750D01*
X120643464Y-78105000D01*
X120619697Y-77978690D01*
X124220000Y-77978690D01*
X124220000Y-80994250D01*
X124378750Y-81153000D01*
X125928000Y-81153000D01*
X125928000Y-77628750D01*
X126182000Y-77628750D01*
X126182000Y-81153000D01*
X127731250Y-81153000D01*
X127890000Y-80994250D01*
X127890000Y-78090000D01*
X135814536Y-78090000D01*
X135814536Y-79390000D01*
X135841103Y-79531190D01*
X135924546Y-79660865D01*
X136051866Y-79747859D01*
X136203000Y-79778464D01*
X136447000Y-79778464D01*
X136447000Y-80495536D01*
X136203000Y-80495536D01*
X136061810Y-80522103D01*
X135932135Y-80605546D01*
X135845141Y-80732866D01*
X135814536Y-80884000D01*
X135814536Y-82184000D01*
X135841103Y-82325190D01*
X135924546Y-82454865D01*
X136051866Y-82541859D01*
X136203000Y-82572464D01*
X137703000Y-82572464D01*
X137844190Y-82545897D01*
X137973865Y-82462454D01*
X138060859Y-82335134D01*
X138091464Y-82184000D01*
X138091464Y-81819750D01*
X138268000Y-81819750D01*
X138268000Y-82310310D01*
X138364673Y-82543699D01*
X138543302Y-82722327D01*
X138776691Y-82819000D01*
X139367250Y-82819000D01*
X139526000Y-82660250D01*
X139526000Y-81661000D01*
X139780000Y-81661000D01*
X139780000Y-82660250D01*
X139938750Y-82819000D01*
X140529309Y-82819000D01*
X140762698Y-82722327D01*
X140941327Y-82543699D01*
X141038000Y-82310310D01*
X141038000Y-81819750D01*
X140879250Y-81661000D01*
X139780000Y-81661000D01*
X139526000Y-81661000D01*
X138426750Y-81661000D01*
X138268000Y-81819750D01*
X138091464Y-81819750D01*
X138091464Y-80884000D01*
X138067697Y-80757690D01*
X138268000Y-80757690D01*
X138268000Y-81248250D01*
X138426750Y-81407000D01*
X139526000Y-81407000D01*
X139526000Y-80407750D01*
X139780000Y-80407750D01*
X139780000Y-81407000D01*
X140879250Y-81407000D01*
X141038000Y-81248250D01*
X141038000Y-80757690D01*
X140941327Y-80524301D01*
X140762698Y-80345673D01*
X140529309Y-80249000D01*
X139938750Y-80249000D01*
X139780000Y-80407750D01*
X139526000Y-80407750D01*
X139367250Y-80249000D01*
X138776691Y-80249000D01*
X138543302Y-80345673D01*
X138364673Y-80524301D01*
X138268000Y-80757690D01*
X138067697Y-80757690D01*
X138064897Y-80742810D01*
X137981454Y-80613135D01*
X137854134Y-80526141D01*
X137703000Y-80495536D01*
X137459000Y-80495536D01*
X137459000Y-79778464D01*
X137703000Y-79778464D01*
X137844190Y-79751897D01*
X137973865Y-79668454D01*
X138060859Y-79541134D01*
X138091464Y-79390000D01*
X138091464Y-78090000D01*
X138514536Y-78090000D01*
X138514536Y-79390000D01*
X138541103Y-79531190D01*
X138624546Y-79660865D01*
X138751866Y-79747859D01*
X138903000Y-79778464D01*
X140403000Y-79778464D01*
X140544190Y-79751897D01*
X140673865Y-79668454D01*
X140760859Y-79541134D01*
X140791464Y-79390000D01*
X140791464Y-79179960D01*
X141140336Y-79179960D01*
X141140336Y-79273400D01*
X141166903Y-79414590D01*
X141250346Y-79544265D01*
X141377666Y-79631259D01*
X141528800Y-79661864D01*
X142727680Y-79661864D01*
X142868870Y-79635297D01*
X142998545Y-79551854D01*
X143085539Y-79424534D01*
X143116144Y-79273400D01*
X143116144Y-78074520D01*
X143089577Y-77933330D01*
X143006134Y-77803655D01*
X142878814Y-77716661D01*
X142727680Y-77686056D01*
X141528800Y-77686056D01*
X141387610Y-77712623D01*
X141257935Y-77796066D01*
X141170941Y-77923386D01*
X141140336Y-78074520D01*
X141140336Y-78167960D01*
X140791464Y-78167960D01*
X140791464Y-78090000D01*
X140764897Y-77948810D01*
X140681454Y-77819135D01*
X140554134Y-77732141D01*
X140403000Y-77701536D01*
X138903000Y-77701536D01*
X138761810Y-77728103D01*
X138632135Y-77811546D01*
X138545141Y-77938866D01*
X138514536Y-78090000D01*
X138091464Y-78090000D01*
X138064897Y-77948810D01*
X137981454Y-77819135D01*
X137854134Y-77732141D01*
X137703000Y-77701536D01*
X136203000Y-77701536D01*
X136061810Y-77728103D01*
X135932135Y-77811546D01*
X135845141Y-77938866D01*
X135814536Y-78090000D01*
X127890000Y-78090000D01*
X127890000Y-77978690D01*
X127793327Y-77745301D01*
X127614698Y-77566673D01*
X127381309Y-77470000D01*
X126340750Y-77470000D01*
X126182000Y-77628750D01*
X125928000Y-77628750D01*
X125769250Y-77470000D01*
X124728691Y-77470000D01*
X124495302Y-77566673D01*
X124316673Y-77745301D01*
X124220000Y-77978690D01*
X120619697Y-77978690D01*
X120616897Y-77963810D01*
X120533454Y-77834135D01*
X120406134Y-77747141D01*
X120255000Y-77716536D01*
X117855000Y-77716536D01*
X117713810Y-77743103D01*
X117584135Y-77826546D01*
X117497141Y-77953866D01*
X117466536Y-78105000D01*
X116153000Y-78105000D01*
X116153000Y-77260910D01*
X116174878Y-77150918D01*
X116211745Y-77095745D01*
X116266918Y-77058879D01*
X116376911Y-77037000D01*
X185121090Y-77037000D01*
X185231082Y-77058878D01*
X185231082Y-77058878D01*
G37*
X185231082Y-77058878D02*
X185286255Y-77095745D01*
X185323121Y-77150918D01*
X185345000Y-77260911D01*
X185345000Y-105111089D01*
X185323121Y-105221082D01*
X185286255Y-105276255D01*
X185231082Y-105313122D01*
X185121090Y-105335000D01*
X151127233Y-105335000D01*
X151203698Y-105303327D01*
X151382327Y-105124699D01*
X151479000Y-104891310D01*
X151479000Y-104425750D01*
X151320250Y-104267000D01*
X150221000Y-104267000D01*
X150221000Y-104287000D01*
X149967000Y-104287000D01*
X149967000Y-104267000D01*
X149947000Y-104267000D01*
X149947000Y-104013000D01*
X149967000Y-104013000D01*
X149967000Y-103038750D01*
X150221000Y-103038750D01*
X150221000Y-104013000D01*
X151320250Y-104013000D01*
X151479000Y-103854250D01*
X151479000Y-103388690D01*
X151382327Y-103155301D01*
X151203698Y-102976673D01*
X150970309Y-102880000D01*
X150379750Y-102880000D01*
X150221000Y-103038750D01*
X149967000Y-103038750D01*
X149808250Y-102880000D01*
X149217691Y-102880000D01*
X148984302Y-102976673D01*
X148805673Y-103155301D01*
X148709000Y-103388690D01*
X148709000Y-103390301D01*
X148705897Y-103373810D01*
X148622454Y-103244135D01*
X148495134Y-103157141D01*
X148344000Y-103126536D01*
X148125000Y-103126536D01*
X148125000Y-101114464D01*
X148244000Y-101114464D01*
X148385190Y-101087897D01*
X148514865Y-101004454D01*
X148601859Y-100877134D01*
X148632464Y-100726000D01*
X148632464Y-99426000D01*
X149055536Y-99426000D01*
X149055536Y-100726000D01*
X149082103Y-100867190D01*
X149165546Y-100996865D01*
X149292866Y-101083859D01*
X149444000Y-101114464D01*
X150944000Y-101114464D01*
X151085190Y-101087897D01*
X151214865Y-101004454D01*
X151301859Y-100877134D01*
X151332464Y-100726000D01*
X151332464Y-100707000D01*
X152010536Y-100707000D01*
X152010536Y-103251000D01*
X152037103Y-103392190D01*
X152120546Y-103521865D01*
X152247866Y-103608859D01*
X152399000Y-103639464D01*
X154799000Y-103639464D01*
X154940190Y-103612897D01*
X155069865Y-103529454D01*
X155156859Y-103402134D01*
X155187464Y-103251000D01*
X155187464Y-100361750D01*
X158764000Y-100361750D01*
X158764000Y-103377310D01*
X158860673Y-103610699D01*
X159039302Y-103789327D01*
X159272691Y-103886000D01*
X160313250Y-103886000D01*
X160472000Y-103727250D01*
X160472000Y-100203000D01*
X158922750Y-100203000D01*
X158764000Y-100361750D01*
X155187464Y-100361750D01*
X155187464Y-96901000D01*
X155163697Y-96774690D01*
X158764000Y-96774690D01*
X158764000Y-99790250D01*
X158922750Y-99949000D01*
X160472000Y-99949000D01*
X160472000Y-96424750D01*
X160313250Y-96266000D01*
X159272691Y-96266000D01*
X159039302Y-96362673D01*
X158860673Y-96541301D01*
X158764000Y-96774690D01*
X155163697Y-96774690D01*
X155160897Y-96759810D01*
X155077454Y-96630135D01*
X154950134Y-96543141D01*
X154799000Y-96512536D01*
X152399000Y-96512536D01*
X152257810Y-96539103D01*
X152128135Y-96622546D01*
X152041141Y-96749866D01*
X152010536Y-96901000D01*
X152010536Y-99445000D01*
X151332464Y-99445000D01*
X151332464Y-99426000D01*
X151305897Y-99284810D01*
X151222454Y-99155135D01*
X151095134Y-99068141D01*
X150944000Y-99037536D01*
X149444000Y-99037536D01*
X149302810Y-99064103D01*
X149173135Y-99147546D01*
X149086141Y-99274866D01*
X149055536Y-99426000D01*
X148632464Y-99426000D01*
X148605897Y-99284810D01*
X148522454Y-99155135D01*
X148395134Y-99068141D01*
X148244000Y-99037536D01*
X146744000Y-99037536D01*
X146602810Y-99064103D01*
X146473135Y-99147546D01*
X146386141Y-99274866D01*
X146355536Y-99426000D01*
X146355536Y-100726000D01*
X146382103Y-100867190D01*
X146465546Y-100996865D01*
X146592866Y-101083859D01*
X146744000Y-101114464D01*
X146863000Y-101114464D01*
X146863000Y-103126536D01*
X146844000Y-103126536D01*
X146702810Y-103153103D01*
X146573135Y-103236546D01*
X146486141Y-103363866D01*
X146456751Y-103509000D01*
X143898464Y-103509000D01*
X143898464Y-103314500D01*
X143871897Y-103173310D01*
X143788454Y-103043635D01*
X143661134Y-102956641D01*
X143510000Y-102926036D01*
X140462000Y-102926036D01*
X140320810Y-102952603D01*
X140191135Y-103036046D01*
X140104141Y-103163366D01*
X140073536Y-103314500D01*
X140073536Y-104965500D01*
X140100103Y-105106690D01*
X140183546Y-105236365D01*
X140310866Y-105323359D01*
X140368352Y-105335000D01*
X139149025Y-105335000D01*
X139222327Y-105261698D01*
X139319000Y-105028309D01*
X139319000Y-102139750D01*
X139160250Y-101981000D01*
X135763000Y-101981000D01*
X135763000Y-102001000D01*
X135509000Y-102001000D01*
X135509000Y-101981000D01*
X132111750Y-101981000D01*
X131953000Y-102139750D01*
X131953000Y-105028309D01*
X132049673Y-105261698D01*
X132122975Y-105335000D01*
X116376911Y-105335000D01*
X116266918Y-105313121D01*
X116211745Y-105276255D01*
X116174878Y-105221082D01*
X116153000Y-105111090D01*
X116153000Y-103917750D01*
X116618000Y-103917750D01*
X116618000Y-104383310D01*
X116714673Y-104616699D01*
X116893302Y-104795327D01*
X117126691Y-104892000D01*
X117717250Y-104892000D01*
X117876000Y-104733250D01*
X117876000Y-103759000D01*
X116776750Y-103759000D01*
X116618000Y-103917750D01*
X116153000Y-103917750D01*
X116153000Y-101377750D01*
X116518000Y-101377750D01*
X116518000Y-101868310D01*
X116614673Y-102101699D01*
X116793302Y-102280327D01*
X117026691Y-102377000D01*
X117114620Y-102377000D01*
X116893302Y-102468673D01*
X116714673Y-102647301D01*
X116618000Y-102880690D01*
X116618000Y-103346250D01*
X116776750Y-103505000D01*
X117876000Y-103505000D01*
X117876000Y-102530750D01*
X117717250Y-102372000D01*
X117622250Y-102372000D01*
X117776000Y-102218250D01*
X117776000Y-101219000D01*
X118030000Y-101219000D01*
X118030000Y-102218250D01*
X118188750Y-102377000D01*
X118283750Y-102377000D01*
X118130000Y-102530750D01*
X118130000Y-103505000D01*
X118150000Y-103505000D01*
X118150000Y-103759000D01*
X118130000Y-103759000D01*
X118130000Y-104733250D01*
X118288750Y-104892000D01*
X118879309Y-104892000D01*
X119112698Y-104795327D01*
X119291327Y-104616699D01*
X119388000Y-104383310D01*
X119388000Y-104381699D01*
X119391103Y-104398190D01*
X119474546Y-104527865D01*
X119601866Y-104614859D01*
X119753000Y-104645464D01*
X121253000Y-104645464D01*
X121394190Y-104618897D01*
X121523865Y-104535454D01*
X121610859Y-104408134D01*
X121641464Y-104257000D01*
X121641464Y-103007000D01*
X121614897Y-102865810D01*
X121531454Y-102736135D01*
X121404134Y-102649141D01*
X121253000Y-102618536D01*
X121009000Y-102618536D01*
X121009000Y-102130464D01*
X121353000Y-102130464D01*
X121494190Y-102103897D01*
X121623865Y-102020454D01*
X121710859Y-101893134D01*
X121712354Y-101885750D01*
X125000000Y-101885750D01*
X125000000Y-102351310D01*
X125096673Y-102584699D01*
X125275302Y-102763327D01*
X125508691Y-102860000D01*
X126099250Y-102860000D01*
X126258000Y-102701250D01*
X126258000Y-101727000D01*
X125158750Y-101727000D01*
X125000000Y-101885750D01*
X121712354Y-101885750D01*
X121741464Y-101742000D01*
X121741464Y-100848690D01*
X125000000Y-100848690D01*
X125000000Y-101314250D01*
X125158750Y-101473000D01*
X126258000Y-101473000D01*
X126258000Y-100498750D01*
X126099250Y-100340000D01*
X125508691Y-100340000D01*
X125275302Y-100436673D01*
X125096673Y-100615301D01*
X125000000Y-100848690D01*
X121741464Y-100848690D01*
X121741464Y-100442000D01*
X121714897Y-100300810D01*
X121631454Y-100171135D01*
X121504134Y-100084141D01*
X121353000Y-100053536D01*
X121109000Y-100053536D01*
X121109000Y-99590464D01*
X121353000Y-99590464D01*
X121494190Y-99563897D01*
X121623865Y-99480454D01*
X121710859Y-99353134D01*
X121741464Y-99202000D01*
X121741464Y-98075750D01*
X123253500Y-98075750D01*
X123253500Y-98170309D01*
X123350173Y-98403698D01*
X123528801Y-98582327D01*
X123762190Y-98679000D01*
X124174250Y-98679000D01*
X124333000Y-98520250D01*
X124333000Y-97917000D01*
X124587000Y-97917000D01*
X124587000Y-98520250D01*
X124745750Y-98679000D01*
X125157810Y-98679000D01*
X125391199Y-98582327D01*
X125569827Y-98403698D01*
X125666500Y-98170309D01*
X125666500Y-98075750D01*
X125507750Y-97917000D01*
X124587000Y-97917000D01*
X124333000Y-97917000D01*
X123412250Y-97917000D01*
X123253500Y-98075750D01*
X121741464Y-98075750D01*
X121741464Y-97902000D01*
X121714897Y-97760810D01*
X121631454Y-97631135D01*
X121504134Y-97544141D01*
X121353000Y-97513536D01*
X121109000Y-97513536D01*
X121109000Y-97030592D01*
X121113592Y-97026000D01*
X123500474Y-97026000D01*
X123350173Y-97176302D01*
X123253500Y-97409691D01*
X123253500Y-97504250D01*
X123412250Y-97663000D01*
X124333000Y-97663000D01*
X124333000Y-97643000D01*
X124587000Y-97643000D01*
X124587000Y-97663000D01*
X125507750Y-97663000D01*
X125666500Y-97504250D01*
X125666500Y-97409691D01*
X125569827Y-97176302D01*
X125391199Y-96997673D01*
X125351134Y-96981078D01*
X125389359Y-96925134D01*
X125419964Y-96774000D01*
X125419964Y-96266000D01*
X125393397Y-96124810D01*
X125309954Y-95995135D01*
X125182634Y-95908141D01*
X125069712Y-95885274D01*
X125172690Y-95865897D01*
X125302365Y-95782454D01*
X125320440Y-95756000D01*
X125628400Y-95756000D01*
X125822038Y-95717483D01*
X125986196Y-95607796D01*
X126152796Y-95441196D01*
X126262483Y-95277038D01*
X126301000Y-95083400D01*
X126301000Y-90967193D01*
X126365865Y-90925454D01*
X126449534Y-90803000D01*
X126996571Y-90803000D01*
X126977536Y-90897000D01*
X126977536Y-92397000D01*
X127004103Y-92538190D01*
X127087546Y-92667865D01*
X127214866Y-92754859D01*
X127366000Y-92785464D01*
X127510000Y-92785464D01*
X127510000Y-97536000D01*
X127548517Y-97729638D01*
X127658204Y-97893796D01*
X127912204Y-98147796D01*
X128076362Y-98257483D01*
X128270000Y-98296000D01*
X129947907Y-98296000D01*
X129960046Y-98314865D01*
X130087366Y-98401859D01*
X130238500Y-98432464D01*
X130304000Y-98432464D01*
X130304000Y-101094000D01*
X130023464Y-101094000D01*
X130023464Y-100975000D01*
X129996897Y-100833810D01*
X129913454Y-100704135D01*
X129786134Y-100617141D01*
X129635000Y-100586536D01*
X128135000Y-100586536D01*
X127993810Y-100613103D01*
X127864135Y-100696546D01*
X127777141Y-100823866D01*
X127770000Y-100859130D01*
X127770000Y-100848690D01*
X127673327Y-100615301D01*
X127494698Y-100436673D01*
X127261309Y-100340000D01*
X126670750Y-100340000D01*
X126512000Y-100498750D01*
X126512000Y-101473000D01*
X126532000Y-101473000D01*
X126532000Y-101727000D01*
X126512000Y-101727000D01*
X126512000Y-102701250D01*
X126670750Y-102860000D01*
X127261309Y-102860000D01*
X127494698Y-102763327D01*
X127673327Y-102584699D01*
X127770000Y-102351310D01*
X127770000Y-102349699D01*
X127773103Y-102366190D01*
X127856546Y-102495865D01*
X127983866Y-102582859D01*
X128135000Y-102613464D01*
X129635000Y-102613464D01*
X129776190Y-102586897D01*
X129905865Y-102503454D01*
X129992859Y-102376134D01*
X130023464Y-102225000D01*
X130023464Y-102106000D01*
X130556000Y-102106000D01*
X130749638Y-102067483D01*
X130913796Y-101957796D01*
X131167796Y-101703796D01*
X131277483Y-101539638D01*
X131316000Y-101346000D01*
X131316000Y-98679691D01*
X131953000Y-98679691D01*
X131953000Y-101568250D01*
X132111750Y-101727000D01*
X135509000Y-101727000D01*
X135509000Y-98329750D01*
X135763000Y-98329750D01*
X135763000Y-101727000D01*
X139160250Y-101727000D01*
X139319000Y-101568250D01*
X139319000Y-98679691D01*
X139222327Y-98446302D01*
X139043699Y-98267673D01*
X138810310Y-98171000D01*
X135921750Y-98171000D01*
X135763000Y-98329750D01*
X135509000Y-98329750D01*
X135350250Y-98171000D01*
X132461690Y-98171000D01*
X132228301Y-98267673D01*
X132049673Y-98446302D01*
X131953000Y-98679691D01*
X131316000Y-98679691D01*
X131316000Y-98432464D01*
X131381500Y-98432464D01*
X131522690Y-98405897D01*
X131652365Y-98322454D01*
X131739359Y-98195134D01*
X131769964Y-98044000D01*
X131769964Y-97536000D01*
X131743397Y-97394810D01*
X131659954Y-97265135D01*
X131532634Y-97178141D01*
X131419712Y-97155274D01*
X131522690Y-97135897D01*
X131652365Y-97052454D01*
X131739359Y-96925134D01*
X131767584Y-96785750D01*
X132090000Y-96785750D01*
X132090000Y-97376309D01*
X132186673Y-97609698D01*
X132365301Y-97788327D01*
X132598690Y-97885000D01*
X133064250Y-97885000D01*
X133223000Y-97726250D01*
X133223000Y-96627000D01*
X133477000Y-96627000D01*
X133477000Y-97726250D01*
X133635750Y-97885000D01*
X134101310Y-97885000D01*
X134334699Y-97788327D01*
X134513327Y-97609698D01*
X134610000Y-97376309D01*
X134610000Y-96785750D01*
X134451250Y-96627000D01*
X133477000Y-96627000D01*
X133223000Y-96627000D01*
X132248750Y-96627000D01*
X132090000Y-96785750D01*
X131767584Y-96785750D01*
X131769964Y-96774000D01*
X131769964Y-96266000D01*
X131743397Y-96124810D01*
X131659954Y-95995135D01*
X131532634Y-95908141D01*
X131419712Y-95885274D01*
X131522690Y-95865897D01*
X131652365Y-95782454D01*
X131670440Y-95756000D01*
X132090000Y-95756000D01*
X132090000Y-96214250D01*
X132248750Y-96373000D01*
X133223000Y-96373000D01*
X133223000Y-96353000D01*
X133477000Y-96353000D01*
X133477000Y-96373000D01*
X134451250Y-96373000D01*
X134610000Y-96214250D01*
X134610000Y-95756000D01*
X135124571Y-95756000D01*
X135105536Y-95850000D01*
X135105536Y-97350000D01*
X135132103Y-97491190D01*
X135215546Y-97620865D01*
X135342866Y-97707859D01*
X135494000Y-97738464D01*
X136794000Y-97738464D01*
X136935190Y-97711897D01*
X137064865Y-97628454D01*
X137151859Y-97501134D01*
X137182464Y-97350000D01*
X137182464Y-97231000D01*
X140718536Y-97231000D01*
X140718536Y-97377000D01*
X140745103Y-97518190D01*
X140828546Y-97647865D01*
X140955866Y-97734859D01*
X141107000Y-97765464D01*
X141355000Y-97765464D01*
X141355000Y-98354036D01*
X140462000Y-98354036D01*
X140320810Y-98380603D01*
X140191135Y-98464046D01*
X140104141Y-98591366D01*
X140073536Y-98742500D01*
X140073536Y-100393500D01*
X140100103Y-100534690D01*
X140183546Y-100664365D01*
X140310866Y-100751359D01*
X140462000Y-100781964D01*
X141355000Y-100781964D01*
X141355000Y-101724818D01*
X141305118Y-101844946D01*
X141304882Y-102115865D01*
X141408339Y-102366252D01*
X141599741Y-102557987D01*
X141849946Y-102661882D01*
X142120865Y-102662118D01*
X142371252Y-102558661D01*
X142562987Y-102367259D01*
X142666882Y-102117054D01*
X142667118Y-101846135D01*
X142617000Y-101724839D01*
X142617000Y-100781964D01*
X143510000Y-100781964D01*
X143651190Y-100755397D01*
X143780865Y-100671954D01*
X143867859Y-100544634D01*
X143898464Y-100393500D01*
X143898464Y-98742500D01*
X143871897Y-98601310D01*
X143788454Y-98471635D01*
X143661134Y-98384641D01*
X143510000Y-98354036D01*
X142617000Y-98354036D01*
X142617000Y-97662445D01*
X142627865Y-97655454D01*
X142714859Y-97528134D01*
X142745464Y-97377000D01*
X142745464Y-97278000D01*
X143688536Y-97278000D01*
X143688536Y-97297000D01*
X143715103Y-97438190D01*
X143798546Y-97567865D01*
X143925866Y-97654859D01*
X144077000Y-97685464D01*
X145577000Y-97685464D01*
X145718190Y-97658897D01*
X145847865Y-97575454D01*
X145934859Y-97448134D01*
X145965464Y-97297000D01*
X145965464Y-95997000D01*
X145938897Y-95855810D01*
X145855454Y-95726135D01*
X145728134Y-95639141D01*
X145577000Y-95608536D01*
X144077000Y-95608536D01*
X143935810Y-95635103D01*
X143806135Y-95718546D01*
X143719141Y-95845866D01*
X143688536Y-95997000D01*
X143688536Y-96016000D01*
X142745464Y-96016000D01*
X142745464Y-95877000D01*
X142718897Y-95735810D01*
X142635454Y-95606135D01*
X142508134Y-95519141D01*
X142472870Y-95512000D01*
X142483310Y-95512000D01*
X142716699Y-95415327D01*
X142895327Y-95236698D01*
X142992000Y-95003309D01*
X142992000Y-94412750D01*
X142972000Y-94392750D01*
X143442000Y-94392750D01*
X143442000Y-94883310D01*
X143538673Y-95116699D01*
X143717302Y-95295327D01*
X143950691Y-95392000D01*
X144541250Y-95392000D01*
X144700000Y-95233250D01*
X144700000Y-94234000D01*
X144954000Y-94234000D01*
X144954000Y-95233250D01*
X145112750Y-95392000D01*
X145703309Y-95392000D01*
X145936698Y-95295327D01*
X146115327Y-95116699D01*
X146212000Y-94883310D01*
X146212000Y-94392750D01*
X146053250Y-94234000D01*
X144954000Y-94234000D01*
X144700000Y-94234000D01*
X143600750Y-94234000D01*
X143442000Y-94392750D01*
X142972000Y-94392750D01*
X142833250Y-94254000D01*
X141859000Y-94254000D01*
X141859000Y-94274000D01*
X141605000Y-94274000D01*
X141605000Y-94254000D01*
X140630750Y-94254000D01*
X140472000Y-94412750D01*
X140472000Y-95003309D01*
X140568673Y-95236698D01*
X140747301Y-95415327D01*
X140980690Y-95512000D01*
X140982301Y-95512000D01*
X140965810Y-95515103D01*
X140836135Y-95598546D01*
X140749141Y-95725866D01*
X140718536Y-95877000D01*
X140718536Y-95969000D01*
X137182464Y-95969000D01*
X137182464Y-95850000D01*
X137164777Y-95756000D01*
X137541000Y-95756000D01*
X137734638Y-95717483D01*
X137898796Y-95607796D01*
X138406796Y-95099796D01*
X138516483Y-94935638D01*
X138555000Y-94742000D01*
X138555000Y-93250691D01*
X140472000Y-93250691D01*
X140472000Y-93841250D01*
X140630750Y-94000000D01*
X141605000Y-94000000D01*
X141605000Y-92900750D01*
X141859000Y-92900750D01*
X141859000Y-94000000D01*
X142833250Y-94000000D01*
X142992000Y-93841250D01*
X142992000Y-93330690D01*
X143442000Y-93330690D01*
X143442000Y-93821250D01*
X143600750Y-93980000D01*
X144700000Y-93980000D01*
X144700000Y-92980750D01*
X144954000Y-92980750D01*
X144954000Y-93980000D01*
X146053250Y-93980000D01*
X146212000Y-93821250D01*
X146212000Y-93330690D01*
X146115327Y-93097301D01*
X145936698Y-92918673D01*
X145703309Y-92822000D01*
X145112750Y-92822000D01*
X144954000Y-92980750D01*
X144700000Y-92980750D01*
X144541250Y-92822000D01*
X143950691Y-92822000D01*
X143717302Y-92918673D01*
X143538673Y-93097301D01*
X143442000Y-93330690D01*
X142992000Y-93330690D01*
X142992000Y-93250691D01*
X142895327Y-93017302D01*
X142716699Y-92838673D01*
X142483310Y-92742000D01*
X142017750Y-92742000D01*
X141859000Y-92900750D01*
X141605000Y-92900750D01*
X141446250Y-92742000D01*
X140980690Y-92742000D01*
X140747301Y-92838673D01*
X140568673Y-93017302D01*
X140472000Y-93250691D01*
X138555000Y-93250691D01*
X138555000Y-91268592D01*
X138686592Y-91137000D01*
X140693536Y-91137000D01*
X140693536Y-91381000D01*
X140720103Y-91522190D01*
X140803546Y-91651865D01*
X140930866Y-91738859D01*
X141082000Y-91769464D01*
X142382000Y-91769464D01*
X142523190Y-91742897D01*
X142652865Y-91659454D01*
X142739859Y-91532134D01*
X142770464Y-91381000D01*
X142770464Y-90963750D01*
X144716500Y-90963750D01*
X144716500Y-91058309D01*
X144813173Y-91291698D01*
X144991801Y-91470327D01*
X145225190Y-91567000D01*
X145637250Y-91567000D01*
X145796000Y-91408250D01*
X145796000Y-90805000D01*
X146050000Y-90805000D01*
X146050000Y-91408250D01*
X146208750Y-91567000D01*
X146620810Y-91567000D01*
X146854199Y-91470327D01*
X147032827Y-91291698D01*
X147129500Y-91058309D01*
X147129500Y-90963750D01*
X146970750Y-90805000D01*
X146050000Y-90805000D01*
X145796000Y-90805000D01*
X144875250Y-90805000D01*
X144716500Y-90963750D01*
X142770464Y-90963750D01*
X142770464Y-89914000D01*
X144963474Y-89914000D01*
X144813173Y-90064302D01*
X144716500Y-90297691D01*
X144716500Y-90392250D01*
X144875250Y-90551000D01*
X145796000Y-90551000D01*
X145796000Y-90531000D01*
X146050000Y-90531000D01*
X146050000Y-90551000D01*
X146970750Y-90551000D01*
X147129500Y-90392250D01*
X147129500Y-90297691D01*
X147032827Y-90064302D01*
X146854199Y-89885673D01*
X146814134Y-89869078D01*
X146852359Y-89813134D01*
X146882964Y-89662000D01*
X146882964Y-89154000D01*
X146856397Y-89012810D01*
X146772954Y-88883135D01*
X146645634Y-88796141D01*
X146532712Y-88773274D01*
X146635690Y-88753897D01*
X146765365Y-88670454D01*
X146852359Y-88543134D01*
X146882964Y-88392000D01*
X146882964Y-87884000D01*
X146856397Y-87742810D01*
X146772954Y-87613135D01*
X146645634Y-87526141D01*
X146532712Y-87503274D01*
X146635690Y-87483897D01*
X146765365Y-87400454D01*
X146852359Y-87273134D01*
X146882964Y-87122000D01*
X146882964Y-86614000D01*
X146856397Y-86472810D01*
X146772954Y-86343135D01*
X146645634Y-86256141D01*
X146494500Y-86225536D01*
X145351500Y-86225536D01*
X145210310Y-86252103D01*
X145080635Y-86335546D01*
X145062560Y-86362000D01*
X144989592Y-86362000D01*
X144985000Y-86357408D01*
X144985000Y-85620464D01*
X145229000Y-85620464D01*
X145370190Y-85593897D01*
X145499865Y-85510454D01*
X145586859Y-85383134D01*
X145617464Y-85232000D01*
X145617464Y-85215000D01*
X146609536Y-85215000D01*
X146609536Y-85359000D01*
X146636103Y-85500190D01*
X146719546Y-85629865D01*
X146846866Y-85716859D01*
X146998000Y-85747464D01*
X148498000Y-85747464D01*
X148639190Y-85720897D01*
X148768865Y-85637454D01*
X148855859Y-85510134D01*
X148886464Y-85359000D01*
X148886464Y-85206553D01*
X149037638Y-85176483D01*
X149201796Y-85066796D01*
X149309536Y-84959056D01*
X149309536Y-85359000D01*
X149336103Y-85500190D01*
X149419546Y-85629865D01*
X149546866Y-85716859D01*
X149698000Y-85747464D01*
X151198000Y-85747464D01*
X151339190Y-85720897D01*
X151468865Y-85637454D01*
X151555859Y-85510134D01*
X151586464Y-85359000D01*
X151586464Y-85340000D01*
X151889818Y-85340000D01*
X152009946Y-85389882D01*
X152280865Y-85390118D01*
X152531252Y-85286661D01*
X152722987Y-85095259D01*
X152826882Y-84845054D01*
X152827118Y-84574135D01*
X152723661Y-84323748D01*
X152532259Y-84132013D01*
X152282054Y-84028118D01*
X152011135Y-84027882D01*
X151889839Y-84078000D01*
X151586464Y-84078000D01*
X151586464Y-84059000D01*
X151559897Y-83917810D01*
X151476454Y-83788135D01*
X151349134Y-83701141D01*
X151198000Y-83670536D01*
X149698000Y-83670536D01*
X149604000Y-83688223D01*
X149604000Y-83471691D01*
X154442000Y-83471691D01*
X154442000Y-84062250D01*
X154600750Y-84221000D01*
X155575000Y-84221000D01*
X155575000Y-83121750D01*
X155829000Y-83121750D01*
X155829000Y-84221000D01*
X156803250Y-84221000D01*
X156962000Y-84062250D01*
X156962000Y-83498000D01*
X157330536Y-83498000D01*
X157330536Y-84998000D01*
X157357103Y-85139190D01*
X157440546Y-85268865D01*
X157567866Y-85355859D01*
X157719000Y-85386464D01*
X159019000Y-85386464D01*
X159160190Y-85359897D01*
X159289865Y-85276454D01*
X159376859Y-85149134D01*
X159407464Y-84998000D01*
X159407464Y-83498000D01*
X159380897Y-83356810D01*
X159297454Y-83227135D01*
X159170134Y-83140141D01*
X159019000Y-83109536D01*
X159000000Y-83109536D01*
X159000000Y-82806182D01*
X159049882Y-82686054D01*
X159050118Y-82415135D01*
X158946661Y-82164748D01*
X158755259Y-81973013D01*
X158505054Y-81869118D01*
X158234135Y-81868882D01*
X157983748Y-81972339D01*
X157792013Y-82163741D01*
X157688118Y-82413946D01*
X157687882Y-82684865D01*
X157738000Y-82806161D01*
X157738000Y-83109536D01*
X157719000Y-83109536D01*
X157577810Y-83136103D01*
X157448135Y-83219546D01*
X157361141Y-83346866D01*
X157330536Y-83498000D01*
X156962000Y-83498000D01*
X156962000Y-83471691D01*
X156865327Y-83238302D01*
X156686699Y-83059673D01*
X156453310Y-82963000D01*
X155987750Y-82963000D01*
X155829000Y-83121750D01*
X155575000Y-83121750D01*
X155416250Y-82963000D01*
X154950690Y-82963000D01*
X154717301Y-83059673D01*
X154538673Y-83238302D01*
X154442000Y-83471691D01*
X149604000Y-83471691D01*
X149604000Y-83175000D01*
X150062250Y-83175000D01*
X150221000Y-83016250D01*
X150221000Y-82042000D01*
X150475000Y-82042000D01*
X150475000Y-83016250D01*
X150633750Y-83175000D01*
X151224309Y-83175000D01*
X151457698Y-83078327D01*
X151636327Y-82899699D01*
X151733000Y-82666310D01*
X151733000Y-82200750D01*
X151574250Y-82042000D01*
X150475000Y-82042000D01*
X150221000Y-82042000D01*
X150201000Y-82042000D01*
X150201000Y-81788000D01*
X150221000Y-81788000D01*
X150221000Y-80813750D01*
X150475000Y-80813750D01*
X150475000Y-81788000D01*
X151574250Y-81788000D01*
X151733000Y-81629250D01*
X151733000Y-81163690D01*
X151636327Y-80930301D01*
X151457698Y-80751673D01*
X151224309Y-80655000D01*
X150633750Y-80655000D01*
X150475000Y-80813750D01*
X150221000Y-80813750D01*
X150062250Y-80655000D01*
X149803592Y-80655000D01*
X149815592Y-80643000D01*
X157016633Y-80643000D01*
X157090546Y-80757865D01*
X157217866Y-80844859D01*
X157369000Y-80875464D01*
X157969000Y-80875464D01*
X158110190Y-80848897D01*
X158239865Y-80765454D01*
X158326859Y-80638134D01*
X158357464Y-80487000D01*
X158357464Y-79787000D01*
X158330897Y-79645810D01*
X158247454Y-79516135D01*
X158175000Y-79466629D01*
X158175000Y-78760592D01*
X158324592Y-78611000D01*
X168750110Y-78611000D01*
X168679141Y-78714866D01*
X168648536Y-78866000D01*
X168648536Y-79631000D01*
X159721367Y-79631000D01*
X159647454Y-79516135D01*
X159520134Y-79429141D01*
X159369000Y-79398536D01*
X158769000Y-79398536D01*
X158627810Y-79425103D01*
X158498135Y-79508546D01*
X158411141Y-79635866D01*
X158380536Y-79787000D01*
X158380536Y-80487000D01*
X158407103Y-80628190D01*
X158490546Y-80757865D01*
X158617866Y-80844859D01*
X158769000Y-80875464D01*
X159369000Y-80875464D01*
X159510190Y-80848897D01*
X159639865Y-80765454D01*
X159723534Y-80643000D01*
X160318408Y-80643000D01*
X160403000Y-80727592D01*
X160403000Y-83209536D01*
X160284000Y-83209536D01*
X160142810Y-83236103D01*
X160013135Y-83319546D01*
X159926141Y-83446866D01*
X159895536Y-83598000D01*
X159895536Y-85098000D01*
X159922103Y-85239190D01*
X160005546Y-85368865D01*
X160132866Y-85455859D01*
X160168130Y-85463000D01*
X160157690Y-85463000D01*
X159924301Y-85559673D01*
X159745673Y-85738302D01*
X159649000Y-85971691D01*
X159649000Y-86562250D01*
X159807750Y-86721000D01*
X160782000Y-86721000D01*
X160782000Y-86701000D01*
X161036000Y-86701000D01*
X161036000Y-86721000D01*
X162010250Y-86721000D01*
X162169000Y-86562250D01*
X162169000Y-86198000D01*
X162537536Y-86198000D01*
X162537536Y-87698000D01*
X162564103Y-87839190D01*
X162647546Y-87968865D01*
X162774866Y-88055859D01*
X162926000Y-88086464D01*
X164226000Y-88086464D01*
X164367190Y-88059897D01*
X164496865Y-87976454D01*
X164583859Y-87849134D01*
X164614464Y-87698000D01*
X164614464Y-87454000D01*
X165204536Y-87454000D01*
X165204536Y-87698000D01*
X165231103Y-87839190D01*
X165314546Y-87968865D01*
X165441866Y-88055859D01*
X165593000Y-88086464D01*
X166893000Y-88086464D01*
X167034190Y-88059897D01*
X167163865Y-87976454D01*
X167250859Y-87849134D01*
X167281464Y-87698000D01*
X167281464Y-86198000D01*
X167254897Y-86056810D01*
X167171454Y-85927135D01*
X167044134Y-85840141D01*
X166893000Y-85809536D01*
X165593000Y-85809536D01*
X165451810Y-85836103D01*
X165322135Y-85919546D01*
X165235141Y-86046866D01*
X165204536Y-86198000D01*
X165204536Y-86442000D01*
X164614464Y-86442000D01*
X164614464Y-86198000D01*
X164587897Y-86056810D01*
X164504454Y-85927135D01*
X164377134Y-85840141D01*
X164226000Y-85809536D01*
X162926000Y-85809536D01*
X162784810Y-85836103D01*
X162655135Y-85919546D01*
X162568141Y-86046866D01*
X162537536Y-86198000D01*
X162169000Y-86198000D01*
X162169000Y-85971691D01*
X162072327Y-85738302D01*
X161893699Y-85559673D01*
X161660310Y-85463000D01*
X161658699Y-85463000D01*
X161675190Y-85459897D01*
X161804865Y-85376454D01*
X161891859Y-85249134D01*
X161922464Y-85098000D01*
X161922464Y-84854000D01*
X162537536Y-84854000D01*
X162537536Y-84998000D01*
X162564103Y-85139190D01*
X162647546Y-85268865D01*
X162774866Y-85355859D01*
X162926000Y-85386464D01*
X164226000Y-85386464D01*
X164367190Y-85359897D01*
X164496865Y-85276454D01*
X164583859Y-85149134D01*
X164614464Y-84998000D01*
X164614464Y-84533750D01*
X164958000Y-84533750D01*
X164958000Y-85124309D01*
X165054673Y-85357698D01*
X165233301Y-85536327D01*
X165466690Y-85633000D01*
X165957250Y-85633000D01*
X166116000Y-85474250D01*
X166116000Y-84375000D01*
X166370000Y-84375000D01*
X166370000Y-85474250D01*
X166528750Y-85633000D01*
X167019310Y-85633000D01*
X167252699Y-85536327D01*
X167431327Y-85357698D01*
X167528000Y-85124309D01*
X167528000Y-84533750D01*
X167369250Y-84375000D01*
X166370000Y-84375000D01*
X166116000Y-84375000D01*
X165116750Y-84375000D01*
X164958000Y-84533750D01*
X164614464Y-84533750D01*
X164614464Y-83498000D01*
X164587897Y-83356810D01*
X164504454Y-83227135D01*
X164439860Y-83183000D01*
X165036158Y-83183000D01*
X164958000Y-83371691D01*
X164958000Y-83962250D01*
X165116750Y-84121000D01*
X166116000Y-84121000D01*
X166116000Y-84101000D01*
X166370000Y-84101000D01*
X166370000Y-84121000D01*
X167369250Y-84121000D01*
X167528000Y-83962250D01*
X167528000Y-83428918D01*
X167536204Y-83441196D01*
X167565800Y-83470792D01*
X167565800Y-90551000D01*
X167604317Y-90744638D01*
X167714004Y-90908796D01*
X167968004Y-91162796D01*
X168132162Y-91272483D01*
X168298400Y-91305550D01*
X168314046Y-91329865D01*
X168441366Y-91416859D01*
X168554288Y-91439726D01*
X168451310Y-91459103D01*
X168321635Y-91542546D01*
X168303560Y-91569000D01*
X167468592Y-91569000D01*
X166346796Y-90447204D01*
X166182638Y-90337517D01*
X165989000Y-90299000D01*
X163676093Y-90299000D01*
X163663954Y-90280135D01*
X163536634Y-90193141D01*
X163423712Y-90170274D01*
X163526690Y-90150897D01*
X163656365Y-90067454D01*
X163743359Y-89940134D01*
X163773964Y-89789000D01*
X163773964Y-89281000D01*
X163747397Y-89139810D01*
X163663954Y-89010135D01*
X163536634Y-88923141D01*
X163385500Y-88892536D01*
X162242500Y-88892536D01*
X162101310Y-88919103D01*
X161971635Y-89002546D01*
X161884641Y-89129866D01*
X161854036Y-89281000D01*
X161854036Y-89789000D01*
X161880603Y-89930190D01*
X161964046Y-90059865D01*
X162091366Y-90146859D01*
X162204288Y-90169726D01*
X162101310Y-90189103D01*
X161971635Y-90272546D01*
X161953560Y-90299000D01*
X160782000Y-90299000D01*
X160588362Y-90337517D01*
X160424204Y-90447204D01*
X160123204Y-90748204D01*
X160015405Y-90909536D01*
X159731000Y-90909536D01*
X159637000Y-90927223D01*
X159637000Y-88392000D01*
X159598483Y-88198362D01*
X159488796Y-88034204D01*
X159347173Y-87892581D01*
X159376859Y-87849134D01*
X159407464Y-87698000D01*
X159407464Y-87133750D01*
X159649000Y-87133750D01*
X159649000Y-87724309D01*
X159745673Y-87957698D01*
X159924301Y-88136327D01*
X160157690Y-88233000D01*
X160623250Y-88233000D01*
X160782000Y-88074250D01*
X160782000Y-86975000D01*
X161036000Y-86975000D01*
X161036000Y-88074250D01*
X161194750Y-88233000D01*
X161660310Y-88233000D01*
X161893699Y-88136327D01*
X162072327Y-87957698D01*
X162169000Y-87724309D01*
X162169000Y-87133750D01*
X162010250Y-86975000D01*
X161036000Y-86975000D01*
X160782000Y-86975000D01*
X159807750Y-86975000D01*
X159649000Y-87133750D01*
X159407464Y-87133750D01*
X159407464Y-86198000D01*
X159380897Y-86056810D01*
X159297454Y-85927135D01*
X159170134Y-85840141D01*
X159019000Y-85809536D01*
X157719000Y-85809536D01*
X157577810Y-85836103D01*
X157448135Y-85919546D01*
X157361141Y-86046866D01*
X157330536Y-86198000D01*
X157330536Y-86217000D01*
X156715464Y-86217000D01*
X156715464Y-86098000D01*
X156688897Y-85956810D01*
X156605454Y-85827135D01*
X156478134Y-85740141D01*
X156442870Y-85733000D01*
X156453310Y-85733000D01*
X156686699Y-85636327D01*
X156865327Y-85457698D01*
X156962000Y-85224309D01*
X156962000Y-84633750D01*
X156803250Y-84475000D01*
X155829000Y-84475000D01*
X155829000Y-84495000D01*
X155575000Y-84495000D01*
X155575000Y-84475000D01*
X154600750Y-84475000D01*
X154442000Y-84633750D01*
X154442000Y-85224309D01*
X154538673Y-85457698D01*
X154717301Y-85636327D01*
X154950690Y-85733000D01*
X154952301Y-85733000D01*
X154935810Y-85736103D01*
X154806135Y-85819546D01*
X154719141Y-85946866D01*
X154688536Y-86098000D01*
X154688536Y-86237000D01*
X152901112Y-86237000D01*
X152844500Y-86225536D01*
X151701500Y-86225536D01*
X151560310Y-86252103D01*
X151430635Y-86335546D01*
X151343641Y-86462866D01*
X151313036Y-86614000D01*
X151313036Y-87122000D01*
X151339603Y-87263190D01*
X151423046Y-87392865D01*
X151550366Y-87479859D01*
X151663288Y-87502726D01*
X151560310Y-87522103D01*
X151430635Y-87605546D01*
X151343641Y-87732866D01*
X151313036Y-87884000D01*
X151313036Y-88392000D01*
X151339603Y-88533190D01*
X151423046Y-88662865D01*
X151550366Y-88749859D01*
X151663288Y-88772726D01*
X151560310Y-88792103D01*
X151430635Y-88875546D01*
X151412560Y-88902000D01*
X150495000Y-88902000D01*
X150301362Y-88940517D01*
X150137204Y-89050204D01*
X149776204Y-89411204D01*
X149666517Y-89575362D01*
X149628000Y-89769000D01*
X149628000Y-93093536D01*
X149384000Y-93093536D01*
X149242810Y-93120103D01*
X149113135Y-93203546D01*
X149026141Y-93330866D01*
X148995536Y-93482000D01*
X148995536Y-93601000D01*
X148665464Y-93601000D01*
X148665464Y-93457000D01*
X148638897Y-93315810D01*
X148555454Y-93186135D01*
X148428134Y-93099141D01*
X148277000Y-93068536D01*
X146777000Y-93068536D01*
X146635810Y-93095103D01*
X146506135Y-93178546D01*
X146419141Y-93305866D01*
X146388536Y-93457000D01*
X146388536Y-94757000D01*
X146415103Y-94898190D01*
X146498546Y-95027865D01*
X146625866Y-95114859D01*
X146777000Y-95145464D01*
X147021000Y-95145464D01*
X147021000Y-95608536D01*
X146777000Y-95608536D01*
X146635810Y-95635103D01*
X146506135Y-95718546D01*
X146419141Y-95845866D01*
X146388536Y-95997000D01*
X146388536Y-97297000D01*
X146415103Y-97438190D01*
X146498546Y-97567865D01*
X146625866Y-97654859D01*
X146777000Y-97685464D01*
X148277000Y-97685464D01*
X148418190Y-97658897D01*
X148547865Y-97575454D01*
X148634859Y-97448134D01*
X148665464Y-97297000D01*
X148665464Y-95997000D01*
X148638897Y-95855810D01*
X148555454Y-95726135D01*
X148428134Y-95639141D01*
X148277000Y-95608536D01*
X148033000Y-95608536D01*
X148033000Y-95145464D01*
X148277000Y-95145464D01*
X148418190Y-95118897D01*
X148547865Y-95035454D01*
X148634859Y-94908134D01*
X148665464Y-94757000D01*
X148665464Y-94613000D01*
X148995536Y-94613000D01*
X148995536Y-94732000D01*
X149022103Y-94873190D01*
X149105546Y-95002865D01*
X149232866Y-95089859D01*
X149384000Y-95120464D01*
X150884000Y-95120464D01*
X151025190Y-95093897D01*
X151154865Y-95010454D01*
X151241859Y-94883134D01*
X151249000Y-94847870D01*
X151249000Y-94858310D01*
X151345673Y-95091699D01*
X151524302Y-95270327D01*
X151757691Y-95367000D01*
X152348250Y-95367000D01*
X152507000Y-95208250D01*
X152507000Y-94234000D01*
X152761000Y-94234000D01*
X152761000Y-95208250D01*
X152919750Y-95367000D01*
X153510309Y-95367000D01*
X153743698Y-95270327D01*
X153922327Y-95091699D01*
X154019000Y-94858310D01*
X154019000Y-94392750D01*
X153860250Y-94234000D01*
X152761000Y-94234000D01*
X152507000Y-94234000D01*
X152487000Y-94234000D01*
X152487000Y-93980000D01*
X152507000Y-93980000D01*
X152507000Y-93005750D01*
X152761000Y-93005750D01*
X152761000Y-93980000D01*
X153860250Y-93980000D01*
X154019000Y-93821250D01*
X154019000Y-93355690D01*
X153922327Y-93122301D01*
X153743698Y-92943673D01*
X153510309Y-92847000D01*
X152919750Y-92847000D01*
X152761000Y-93005750D01*
X152507000Y-93005750D01*
X152348250Y-92847000D01*
X151757691Y-92847000D01*
X151524302Y-92943673D01*
X151345673Y-93122301D01*
X151249000Y-93355690D01*
X151249000Y-93357301D01*
X151245897Y-93340810D01*
X151162454Y-93211135D01*
X151035134Y-93124141D01*
X150884000Y-93093536D01*
X150640000Y-93093536D01*
X150640000Y-89978592D01*
X150704592Y-89914000D01*
X151410907Y-89914000D01*
X151423046Y-89932865D01*
X151550366Y-90019859D01*
X151663288Y-90042726D01*
X151560310Y-90062103D01*
X151430635Y-90145546D01*
X151343641Y-90272866D01*
X151313036Y-90424000D01*
X151313036Y-90932000D01*
X151339603Y-91073190D01*
X151423046Y-91202865D01*
X151550366Y-91289859D01*
X151701500Y-91320464D01*
X151767000Y-91320464D01*
X151767000Y-91567000D01*
X151805517Y-91760638D01*
X151915204Y-91924796D01*
X152296204Y-92305796D01*
X152460362Y-92415483D01*
X152654000Y-92454000D01*
X156642536Y-92454000D01*
X156642536Y-92598000D01*
X156669103Y-92739190D01*
X156752546Y-92868865D01*
X156879866Y-92955859D01*
X157031000Y-92986464D01*
X158531000Y-92986464D01*
X158625000Y-92968777D01*
X158625000Y-93468571D01*
X158531000Y-93449536D01*
X157031000Y-93449536D01*
X156889810Y-93476103D01*
X156760135Y-93559546D01*
X156673141Y-93686866D01*
X156642536Y-93838000D01*
X156642536Y-95138000D01*
X156669103Y-95279190D01*
X156752546Y-95408865D01*
X156879866Y-95495859D01*
X157031000Y-95526464D01*
X157150000Y-95526464D01*
X157150000Y-95714169D01*
X157103918Y-95825146D01*
X157103682Y-96096065D01*
X157207139Y-96346452D01*
X157398541Y-96538187D01*
X157648746Y-96642082D01*
X157919665Y-96642318D01*
X158170052Y-96538861D01*
X158361787Y-96347459D01*
X158465682Y-96097254D01*
X158465918Y-95826335D01*
X158412000Y-95695842D01*
X158412000Y-95526464D01*
X158531000Y-95526464D01*
X158672190Y-95499897D01*
X158801865Y-95416454D01*
X158888859Y-95289134D01*
X158919464Y-95138000D01*
X158919464Y-94738056D01*
X159027204Y-94845796D01*
X159191362Y-94955483D01*
X159342536Y-94985553D01*
X159342536Y-95138000D01*
X159369103Y-95279190D01*
X159452546Y-95408865D01*
X159579866Y-95495859D01*
X159731000Y-95526464D01*
X161231000Y-95526464D01*
X161372190Y-95499897D01*
X161501865Y-95416454D01*
X161588859Y-95289134D01*
X161619464Y-95138000D01*
X161619464Y-94994000D01*
X162096408Y-94994000D01*
X162308000Y-95205592D01*
X162308000Y-96511974D01*
X162158698Y-96362673D01*
X161925309Y-96266000D01*
X160884750Y-96266000D01*
X160726000Y-96424750D01*
X160726000Y-99949000D01*
X160746000Y-99949000D01*
X160746000Y-100203000D01*
X160726000Y-100203000D01*
X160726000Y-103727250D01*
X160884750Y-103886000D01*
X161925309Y-103886000D01*
X162158698Y-103789327D01*
X162337327Y-103610699D01*
X162434000Y-103377310D01*
X162434000Y-102559565D01*
X162456204Y-102592796D01*
X162944204Y-103080796D01*
X163108362Y-103190483D01*
X163302000Y-103229000D01*
X166245536Y-103229000D01*
X166245536Y-103473000D01*
X166272103Y-103614190D01*
X166355546Y-103743865D01*
X166482866Y-103830859D01*
X166634000Y-103861464D01*
X167884000Y-103861464D01*
X168025190Y-103834897D01*
X168154865Y-103751454D01*
X168241859Y-103624134D01*
X168272464Y-103473000D01*
X168272464Y-102850220D01*
X175634422Y-102850220D01*
X175641053Y-102885460D01*
X175724496Y-103015135D01*
X175851816Y-103102129D01*
X176002950Y-103132734D01*
X176803050Y-103132734D01*
X176944240Y-103106167D01*
X177073915Y-103022724D01*
X177160909Y-102895404D01*
X177169141Y-102854750D01*
X181468000Y-102854750D01*
X181468000Y-103445309D01*
X181564673Y-103678698D01*
X181743301Y-103857327D01*
X181976690Y-103954000D01*
X182467250Y-103954000D01*
X182626000Y-103795250D01*
X182626000Y-102696000D01*
X182880000Y-102696000D01*
X182880000Y-103795250D01*
X183038750Y-103954000D01*
X183529310Y-103954000D01*
X183762699Y-103857327D01*
X183941327Y-103678698D01*
X184038000Y-103445309D01*
X184038000Y-102854750D01*
X183879250Y-102696000D01*
X182880000Y-102696000D01*
X182626000Y-102696000D01*
X181626750Y-102696000D01*
X181468000Y-102854750D01*
X177169141Y-102854750D01*
X177170059Y-102850220D01*
X180865780Y-102850220D01*
X181059418Y-102811703D01*
X181223576Y-102702016D01*
X181317556Y-102608036D01*
X181427243Y-102443878D01*
X181465760Y-102250240D01*
X181465760Y-102175578D01*
X181468000Y-102175156D01*
X181468000Y-102283250D01*
X181626750Y-102442000D01*
X182626000Y-102442000D01*
X182626000Y-101342750D01*
X182880000Y-101342750D01*
X182880000Y-102442000D01*
X183879250Y-102442000D01*
X184038000Y-102283250D01*
X184038000Y-101692691D01*
X183941327Y-101459302D01*
X183762699Y-101280673D01*
X183529310Y-101184000D01*
X183038750Y-101184000D01*
X182880000Y-101342750D01*
X182626000Y-101342750D01*
X182467250Y-101184000D01*
X181976690Y-101184000D01*
X181748274Y-101278613D01*
X181748274Y-101006950D01*
X181721707Y-100865760D01*
X181638264Y-100736085D01*
X181510944Y-100649091D01*
X181359810Y-100618486D01*
X180559710Y-100618486D01*
X180418520Y-100645053D01*
X180288845Y-100728496D01*
X180201851Y-100855816D01*
X180171246Y-101006950D01*
X180171246Y-101807050D01*
X180177111Y-101838220D01*
X177171578Y-101838220D01*
X177164947Y-101802980D01*
X177081504Y-101673305D01*
X176954184Y-101586311D01*
X176803050Y-101555706D01*
X176002950Y-101555706D01*
X175861760Y-101582273D01*
X175732085Y-101665716D01*
X175645091Y-101793036D01*
X175635941Y-101838220D01*
X168247103Y-101838220D01*
X168245897Y-101831810D01*
X168162454Y-101702135D01*
X168035134Y-101615141D01*
X167999870Y-101608000D01*
X168010310Y-101608000D01*
X168243699Y-101511327D01*
X168422327Y-101332698D01*
X168519000Y-101099309D01*
X168519000Y-100508750D01*
X168360250Y-100350000D01*
X167386000Y-100350000D01*
X167386000Y-100370000D01*
X167132000Y-100370000D01*
X167132000Y-100350000D01*
X166157750Y-100350000D01*
X165999000Y-100508750D01*
X165999000Y-101099309D01*
X166095673Y-101332698D01*
X166274301Y-101511327D01*
X166507690Y-101608000D01*
X166509301Y-101608000D01*
X166492810Y-101611103D01*
X166363135Y-101694546D01*
X166276141Y-101821866D01*
X166245536Y-101973000D01*
X166245536Y-102217000D01*
X163511592Y-102217000D01*
X163320000Y-102025408D01*
X163320000Y-94996000D01*
X163281483Y-94802362D01*
X163171796Y-94638204D01*
X162663796Y-94130204D01*
X162499638Y-94020517D01*
X162333469Y-93987464D01*
X163385500Y-93987464D01*
X163526690Y-93960897D01*
X163656365Y-93877454D01*
X163743359Y-93750134D01*
X163773964Y-93599000D01*
X163773964Y-93091000D01*
X163747397Y-92949810D01*
X163663954Y-92820135D01*
X163536634Y-92733141D01*
X163423712Y-92710274D01*
X163446425Y-92706000D01*
X163822632Y-92706000D01*
X163981000Y-92864369D01*
X163981000Y-94490536D01*
X163862000Y-94490536D01*
X163720810Y-94517103D01*
X163591135Y-94600546D01*
X163504141Y-94727866D01*
X163473536Y-94879000D01*
X163473536Y-96129000D01*
X163500103Y-96270190D01*
X163583546Y-96399865D01*
X163710866Y-96486859D01*
X163862000Y-96517464D01*
X163981000Y-96517464D01*
X163981000Y-96878536D01*
X163762000Y-96878536D01*
X163620810Y-96905103D01*
X163491135Y-96988546D01*
X163404141Y-97115866D01*
X163373536Y-97267000D01*
X163373536Y-98567000D01*
X163400103Y-98708190D01*
X163483546Y-98837865D01*
X163610866Y-98924859D01*
X163762000Y-98955464D01*
X165262000Y-98955464D01*
X165403190Y-98928897D01*
X165532865Y-98845454D01*
X165619859Y-98718134D01*
X165650464Y-98567000D01*
X165650464Y-98566539D01*
X165725946Y-98597882D01*
X165996865Y-98598118D01*
X166073536Y-98566438D01*
X166073536Y-98567000D01*
X166100103Y-98708190D01*
X166183546Y-98837865D01*
X166306008Y-98921540D01*
X166274301Y-98934673D01*
X166095673Y-99113302D01*
X165999000Y-99346691D01*
X165999000Y-99937250D01*
X166157750Y-100096000D01*
X167132000Y-100096000D01*
X167132000Y-100076000D01*
X167386000Y-100076000D01*
X167386000Y-100096000D01*
X168360250Y-100096000D01*
X168519000Y-99937250D01*
X168519000Y-99912170D01*
X172185486Y-99912170D01*
X172185486Y-100712270D01*
X172212053Y-100853460D01*
X172295496Y-100983135D01*
X172422816Y-101070129D01*
X172573950Y-101100734D01*
X173374050Y-101100734D01*
X173515240Y-101074167D01*
X173644915Y-100990724D01*
X173731909Y-100863404D01*
X173741059Y-100818220D01*
X174678209Y-100818220D01*
X174691053Y-100886480D01*
X174774496Y-101016155D01*
X174901816Y-101103149D01*
X175052950Y-101133754D01*
X175853050Y-101133754D01*
X175994240Y-101107187D01*
X176123915Y-101023744D01*
X176210909Y-100896424D01*
X176241514Y-100745290D01*
X176241514Y-99945190D01*
X176564486Y-99945190D01*
X176564486Y-100745290D01*
X176591053Y-100886480D01*
X176674496Y-101016155D01*
X176801816Y-101103149D01*
X176952950Y-101133754D01*
X177753050Y-101133754D01*
X177894240Y-101107187D01*
X178023915Y-101023744D01*
X178065420Y-100963000D01*
X178192202Y-100963000D01*
X178198833Y-100998240D01*
X178282276Y-101127915D01*
X178409596Y-101214909D01*
X178560730Y-101245514D01*
X179360830Y-101245514D01*
X179502020Y-101218947D01*
X179631695Y-101135504D01*
X179718689Y-101008184D01*
X179749294Y-100857050D01*
X179749294Y-100056950D01*
X179722727Y-99915760D01*
X179643573Y-99792750D01*
X179924710Y-99792750D01*
X179924710Y-100033359D01*
X180021383Y-100266748D01*
X180200011Y-100445377D01*
X180433400Y-100542050D01*
X180674010Y-100542050D01*
X180832760Y-100383300D01*
X180832760Y-99634000D01*
X180083460Y-99634000D01*
X179924710Y-99792750D01*
X179643573Y-99792750D01*
X179639284Y-99786085D01*
X179511964Y-99699091D01*
X179466780Y-99689941D01*
X179466780Y-98980641D01*
X179924710Y-98980641D01*
X179924710Y-99221250D01*
X180083460Y-99380000D01*
X180832760Y-99380000D01*
X180832760Y-98630700D01*
X180674010Y-98471950D01*
X180433400Y-98471950D01*
X180200011Y-98568623D01*
X180021383Y-98747252D01*
X179924710Y-98980641D01*
X179466780Y-98980641D01*
X179466780Y-98373464D01*
X180101000Y-98373464D01*
X180242190Y-98346897D01*
X180371865Y-98263454D01*
X180458859Y-98136134D01*
X180489464Y-97985000D01*
X180489464Y-97868000D01*
X181714536Y-97868000D01*
X181714536Y-98112000D01*
X181741103Y-98253190D01*
X181824546Y-98382865D01*
X181951866Y-98469859D01*
X182103000Y-98500464D01*
X182247000Y-98500464D01*
X182247000Y-98730536D01*
X182103000Y-98730536D01*
X181961810Y-98757103D01*
X181914758Y-98787380D01*
X181898137Y-98747252D01*
X181719509Y-98568623D01*
X181486120Y-98471950D01*
X181245510Y-98471950D01*
X181086760Y-98630700D01*
X181086760Y-99380000D01*
X181106760Y-99380000D01*
X181106760Y-99634000D01*
X181086760Y-99634000D01*
X181086760Y-100383300D01*
X181245510Y-100542050D01*
X181486120Y-100542050D01*
X181714536Y-100447437D01*
X181714536Y-100619000D01*
X181741103Y-100760190D01*
X181824546Y-100889865D01*
X181951866Y-100976859D01*
X182103000Y-101007464D01*
X183403000Y-101007464D01*
X183544190Y-100980897D01*
X183673865Y-100897454D01*
X183760859Y-100770134D01*
X183791464Y-100619000D01*
X183791464Y-99119000D01*
X183764897Y-98977810D01*
X183681454Y-98848135D01*
X183554134Y-98761141D01*
X183403000Y-98730536D01*
X183259000Y-98730536D01*
X183259000Y-98500464D01*
X183403000Y-98500464D01*
X183544190Y-98473897D01*
X183673865Y-98390454D01*
X183760859Y-98263134D01*
X183791464Y-98112000D01*
X183791464Y-96612000D01*
X183764897Y-96470810D01*
X183681454Y-96341135D01*
X183554134Y-96254141D01*
X183403000Y-96223536D01*
X182103000Y-96223536D01*
X181961810Y-96250103D01*
X181832135Y-96333546D01*
X181745141Y-96460866D01*
X181714536Y-96612000D01*
X181714536Y-96856000D01*
X180489464Y-96856000D01*
X180489464Y-96485000D01*
X180462897Y-96343810D01*
X180379454Y-96214135D01*
X180252134Y-96127141D01*
X180101000Y-96096536D01*
X178801000Y-96096536D01*
X178659810Y-96123103D01*
X178530135Y-96206546D01*
X178443141Y-96333866D01*
X178417801Y-96458998D01*
X178280062Y-96458998D01*
X178438810Y-96300250D01*
X178438810Y-96059641D01*
X178342137Y-95826252D01*
X178163509Y-95647623D01*
X177930120Y-95550950D01*
X177689510Y-95550950D01*
X177530760Y-95709700D01*
X177530760Y-96459000D01*
X177550760Y-96459000D01*
X177550760Y-96713000D01*
X177530760Y-96713000D01*
X177530760Y-97462300D01*
X177689510Y-97621050D01*
X177930120Y-97621050D01*
X178163509Y-97524377D01*
X178342137Y-97345748D01*
X178412536Y-97175790D01*
X178412536Y-97985000D01*
X178439103Y-98126190D01*
X178454780Y-98150553D01*
X178454780Y-99688422D01*
X178419540Y-99695053D01*
X178289865Y-99778496D01*
X178202871Y-99905816D01*
X178193721Y-99951000D01*
X178141514Y-99951000D01*
X178141514Y-99945190D01*
X178114947Y-99804000D01*
X178031504Y-99674325D01*
X177904184Y-99587331D01*
X177859000Y-99578181D01*
X177859000Y-99264129D01*
X177945000Y-99247947D01*
X178074675Y-99164504D01*
X178161669Y-99037184D01*
X178192274Y-98886050D01*
X178192274Y-98085950D01*
X178165707Y-97944760D01*
X178082264Y-97815085D01*
X177954944Y-97728091D01*
X177803810Y-97697486D01*
X177003710Y-97697486D01*
X176862520Y-97724053D01*
X176732845Y-97807496D01*
X176645851Y-97934816D01*
X176615246Y-98085950D01*
X176615246Y-98886050D01*
X176641813Y-99027240D01*
X176725256Y-99156915D01*
X176847000Y-99240099D01*
X176847000Y-99576662D01*
X176811760Y-99583293D01*
X176682085Y-99666736D01*
X176595091Y-99794056D01*
X176564486Y-99945190D01*
X176241514Y-99945190D01*
X176214947Y-99804000D01*
X176131504Y-99674325D01*
X176004184Y-99587331D01*
X175853050Y-99556726D01*
X175052950Y-99556726D01*
X174911760Y-99583293D01*
X174782085Y-99666736D01*
X174695091Y-99794056D01*
X174692628Y-99806220D01*
X173742578Y-99806220D01*
X173735947Y-99770980D01*
X173652504Y-99641305D01*
X173525184Y-99554311D01*
X173374050Y-99523706D01*
X172573950Y-99523706D01*
X172432760Y-99550273D01*
X172303085Y-99633716D01*
X172216091Y-99761036D01*
X172185486Y-99912170D01*
X168519000Y-99912170D01*
X168519000Y-99346691D01*
X168422327Y-99113302D01*
X168243699Y-98934673D01*
X168152755Y-98897003D01*
X168232865Y-98845454D01*
X168319859Y-98718134D01*
X168343985Y-98598990D01*
X170988950Y-98598990D01*
X170988950Y-98839600D01*
X171085623Y-99072989D01*
X171264252Y-99251617D01*
X171497641Y-99348290D01*
X171738250Y-99348290D01*
X171897000Y-99189540D01*
X171897000Y-98440240D01*
X172151000Y-98440240D01*
X172151000Y-99189540D01*
X172309750Y-99348290D01*
X172550359Y-99348290D01*
X172783748Y-99251617D01*
X172962377Y-99072989D01*
X173059050Y-98839600D01*
X173059050Y-98598990D01*
X172900300Y-98440240D01*
X172151000Y-98440240D01*
X171897000Y-98440240D01*
X171147700Y-98440240D01*
X170988950Y-98598990D01*
X168343985Y-98598990D01*
X168350464Y-98567000D01*
X168350464Y-97786880D01*
X170988950Y-97786880D01*
X170988950Y-98027490D01*
X171147700Y-98186240D01*
X171897000Y-98186240D01*
X171897000Y-97436940D01*
X172151000Y-97436940D01*
X172151000Y-98186240D01*
X172900300Y-98186240D01*
X173059050Y-98027490D01*
X173059050Y-97786880D01*
X172962377Y-97553491D01*
X172783748Y-97374863D01*
X172550359Y-97278190D01*
X172309750Y-97278190D01*
X172151000Y-97436940D01*
X171897000Y-97436940D01*
X171738250Y-97278190D01*
X171497641Y-97278190D01*
X171264252Y-97374863D01*
X171085623Y-97553491D01*
X170988950Y-97786880D01*
X168350464Y-97786880D01*
X168350464Y-97267000D01*
X168323897Y-97125810D01*
X168240454Y-96996135D01*
X168113134Y-96909141D01*
X167962000Y-96878536D01*
X166462000Y-96878536D01*
X166320810Y-96905103D01*
X166191135Y-96988546D01*
X166104141Y-97115866D01*
X166073536Y-97267000D01*
X166073536Y-97267461D01*
X165998054Y-97236118D01*
X165727135Y-97235882D01*
X165650464Y-97267562D01*
X165650464Y-97267000D01*
X165623897Y-97125810D01*
X165540454Y-96996135D01*
X165413134Y-96909141D01*
X165262000Y-96878536D01*
X165243000Y-96878536D01*
X165243000Y-96517464D01*
X165362000Y-96517464D01*
X165503190Y-96490897D01*
X165632865Y-96407454D01*
X165719859Y-96280134D01*
X165727000Y-96244870D01*
X165727000Y-96255310D01*
X165823673Y-96488699D01*
X166002302Y-96667327D01*
X166235691Y-96764000D01*
X166826250Y-96764000D01*
X166985000Y-96605250D01*
X166985000Y-95631000D01*
X167239000Y-95631000D01*
X167239000Y-96605250D01*
X167397750Y-96764000D01*
X167988309Y-96764000D01*
X168221698Y-96667327D01*
X168400327Y-96488699D01*
X168497000Y-96255310D01*
X168497000Y-95789750D01*
X168338250Y-95631000D01*
X167239000Y-95631000D01*
X166985000Y-95631000D01*
X166965000Y-95631000D01*
X166965000Y-95377000D01*
X166985000Y-95377000D01*
X166985000Y-94402750D01*
X167239000Y-94402750D01*
X167239000Y-95377000D01*
X168338250Y-95377000D01*
X168497000Y-95218250D01*
X168497000Y-94752690D01*
X168400327Y-94519301D01*
X168221698Y-94340673D01*
X167988309Y-94244000D01*
X167397750Y-94244000D01*
X167239000Y-94402750D01*
X166985000Y-94402750D01*
X166826250Y-94244000D01*
X166235691Y-94244000D01*
X166002302Y-94340673D01*
X165823673Y-94519301D01*
X165727000Y-94752690D01*
X165727000Y-94754301D01*
X165723897Y-94737810D01*
X165640454Y-94608135D01*
X165513134Y-94521141D01*
X165362000Y-94490536D01*
X165243000Y-94490536D01*
X165243000Y-92603000D01*
X165194968Y-92361527D01*
X165135680Y-92272796D01*
X165058185Y-92156816D01*
X164530184Y-91628816D01*
X164325473Y-91492032D01*
X164084000Y-91444000D01*
X163442112Y-91444000D01*
X163423712Y-91440274D01*
X163526690Y-91420897D01*
X163656365Y-91337454D01*
X163674440Y-91311000D01*
X165779408Y-91311000D01*
X166901204Y-92432796D01*
X167065362Y-92542483D01*
X167259000Y-92581000D01*
X168301907Y-92581000D01*
X168314046Y-92599865D01*
X168441366Y-92686859D01*
X168554288Y-92709726D01*
X168451310Y-92729103D01*
X168321635Y-92812546D01*
X168234641Y-92939866D01*
X168204036Y-93091000D01*
X168204036Y-93599000D01*
X168230603Y-93740190D01*
X168314046Y-93869865D01*
X168441366Y-93956859D01*
X168592500Y-93987464D01*
X169735500Y-93987464D01*
X169876690Y-93960897D01*
X170006365Y-93877454D01*
X170093359Y-93750134D01*
X170123964Y-93599000D01*
X170123964Y-93091000D01*
X170097397Y-92949810D01*
X170013954Y-92820135D01*
X169886634Y-92733141D01*
X169773712Y-92710274D01*
X169876690Y-92690897D01*
X170006365Y-92607454D01*
X170093359Y-92480134D01*
X170123964Y-92329000D01*
X170123964Y-91821000D01*
X170097397Y-91679810D01*
X170013954Y-91550135D01*
X169886634Y-91463141D01*
X169773712Y-91440274D01*
X169876690Y-91420897D01*
X170006365Y-91337454D01*
X170093359Y-91210134D01*
X170123964Y-91059000D01*
X170123964Y-90551000D01*
X170097397Y-90409810D01*
X170055028Y-90343966D01*
X170095199Y-90327327D01*
X170273827Y-90148698D01*
X170370500Y-89915309D01*
X170370500Y-89820750D01*
X170211750Y-89662000D01*
X169291000Y-89662000D01*
X169291000Y-89682000D01*
X169037000Y-89682000D01*
X169037000Y-89662000D01*
X169017000Y-89662000D01*
X169017000Y-89408000D01*
X169037000Y-89408000D01*
X169037000Y-89388000D01*
X169291000Y-89388000D01*
X169291000Y-89408000D01*
X170211750Y-89408000D01*
X170370500Y-89249250D01*
X170370500Y-89154691D01*
X170273827Y-88921302D01*
X170253525Y-88901000D01*
X171926250Y-88901000D01*
X172085000Y-88742250D01*
X172085000Y-87193000D01*
X172065000Y-87193000D01*
X172065000Y-86939000D01*
X172085000Y-86939000D01*
X172085000Y-85389750D01*
X171926250Y-85231000D01*
X168910690Y-85231000D01*
X168677301Y-85327673D01*
X168577800Y-85427175D01*
X168577800Y-83261200D01*
X168539283Y-83067562D01*
X168429596Y-82903404D01*
X168302943Y-82776751D01*
X168251796Y-82700204D01*
X167870796Y-82319204D01*
X167706638Y-82209517D01*
X167513000Y-82171000D01*
X163880800Y-82171000D01*
X163687162Y-82209517D01*
X163523004Y-82319204D01*
X163218204Y-82624004D01*
X163108517Y-82788162D01*
X163070000Y-82981800D01*
X163070000Y-83109536D01*
X162926000Y-83109536D01*
X162784810Y-83136103D01*
X162655135Y-83219546D01*
X162568141Y-83346866D01*
X162537536Y-83498000D01*
X162537536Y-83842000D01*
X161922464Y-83842000D01*
X161922464Y-83598000D01*
X161895897Y-83456810D01*
X161812454Y-83327135D01*
X161685134Y-83240141D01*
X161534000Y-83209536D01*
X161415000Y-83209536D01*
X161415000Y-80643000D01*
X168648536Y-80643000D01*
X168648536Y-81266000D01*
X168675103Y-81407190D01*
X168758546Y-81536865D01*
X168885866Y-81623859D01*
X169037000Y-81654464D01*
X175387000Y-81654464D01*
X175528190Y-81627897D01*
X175657865Y-81544454D01*
X175744859Y-81417134D01*
X175770000Y-81292982D01*
X175770000Y-85350974D01*
X175746699Y-85327673D01*
X175513310Y-85231000D01*
X172497750Y-85231000D01*
X172339000Y-85389750D01*
X172339000Y-86939000D01*
X172359000Y-86939000D01*
X172359000Y-87193000D01*
X172339000Y-87193000D01*
X172339000Y-88742250D01*
X172497750Y-88901000D01*
X175513310Y-88901000D01*
X175746699Y-88804327D01*
X175770000Y-88781026D01*
X175770000Y-89325408D01*
X175685408Y-89410000D01*
X174625000Y-89410000D01*
X174431362Y-89448517D01*
X174311728Y-89528454D01*
X174267204Y-89558204D01*
X173566204Y-90259204D01*
X173456517Y-90423362D01*
X173418000Y-90617000D01*
X173418000Y-90915206D01*
X173390000Y-90909536D01*
X171890000Y-90909536D01*
X171748810Y-90936103D01*
X171619135Y-91019546D01*
X171532141Y-91146866D01*
X171501536Y-91298000D01*
X171501536Y-92598000D01*
X171528103Y-92739190D01*
X171611546Y-92868865D01*
X171738866Y-92955859D01*
X171890000Y-92986464D01*
X172009000Y-92986464D01*
X172009000Y-93453569D01*
X171962918Y-93564546D01*
X171962682Y-93835465D01*
X172066139Y-94085852D01*
X172257541Y-94277587D01*
X172507746Y-94381482D01*
X172778665Y-94381718D01*
X173029052Y-94278261D01*
X173220787Y-94086859D01*
X173324682Y-93836654D01*
X173324918Y-93565735D01*
X173271000Y-93435242D01*
X173271000Y-92986464D01*
X173390000Y-92986464D01*
X173418000Y-92981195D01*
X173418000Y-97544662D01*
X173382760Y-97551293D01*
X173253085Y-97634736D01*
X173166091Y-97762056D01*
X173135486Y-97913190D01*
X173135486Y-98713290D01*
X173162053Y-98854480D01*
X173245496Y-98984155D01*
X173372816Y-99071149D01*
X173523950Y-99101754D01*
X174324050Y-99101754D01*
X174465240Y-99075187D01*
X174594915Y-98991744D01*
X174681909Y-98864424D01*
X174712514Y-98713290D01*
X174712514Y-98185528D01*
X174726276Y-98206915D01*
X174853596Y-98293909D01*
X175004730Y-98324514D01*
X175804830Y-98324514D01*
X175946020Y-98297947D01*
X176075695Y-98214504D01*
X176162689Y-98087184D01*
X176193294Y-97936050D01*
X176193294Y-97135950D01*
X176166727Y-96994760D01*
X176087573Y-96871750D01*
X176368710Y-96871750D01*
X176368710Y-97112359D01*
X176465383Y-97345748D01*
X176644011Y-97524377D01*
X176877400Y-97621050D01*
X177118010Y-97621050D01*
X177276760Y-97462300D01*
X177276760Y-96713000D01*
X176527460Y-96713000D01*
X176368710Y-96871750D01*
X176087573Y-96871750D01*
X176083284Y-96865085D01*
X175955964Y-96778091D01*
X175910780Y-96768941D01*
X175910780Y-96059641D01*
X176368710Y-96059641D01*
X176368710Y-96300250D01*
X176527460Y-96459000D01*
X177276760Y-96459000D01*
X177276760Y-95709700D01*
X177118010Y-95550950D01*
X176877400Y-95550950D01*
X176644011Y-95647623D01*
X176465383Y-95826252D01*
X176368710Y-96059641D01*
X175910780Y-96059641D01*
X175910780Y-94673665D01*
X177220482Y-94673665D01*
X177323939Y-94924052D01*
X177515341Y-95115787D01*
X177765546Y-95219682D01*
X178036465Y-95219918D01*
X178166958Y-95166000D01*
X178412536Y-95166000D01*
X178412536Y-95285000D01*
X178439103Y-95426190D01*
X178522546Y-95555865D01*
X178649866Y-95642859D01*
X178801000Y-95673464D01*
X180101000Y-95673464D01*
X180242190Y-95646897D01*
X180371865Y-95563454D01*
X180458859Y-95436134D01*
X180489464Y-95285000D01*
X180489464Y-93785000D01*
X180462897Y-93643810D01*
X180379454Y-93514135D01*
X180252134Y-93427141D01*
X180101000Y-93396536D01*
X178801000Y-93396536D01*
X178659810Y-93423103D01*
X178530135Y-93506546D01*
X178443141Y-93633866D01*
X178412536Y-93785000D01*
X178412536Y-93904000D01*
X178148631Y-93904000D01*
X178037654Y-93857918D01*
X177766735Y-93857682D01*
X177516348Y-93961139D01*
X177324613Y-94152541D01*
X177220718Y-94402746D01*
X177220482Y-94673665D01*
X175910780Y-94673665D01*
X175910780Y-92986464D01*
X176090000Y-92986464D01*
X176231190Y-92959897D01*
X176360865Y-92876454D01*
X176447859Y-92749134D01*
X176478464Y-92598000D01*
X176478464Y-92454000D01*
X176631600Y-92454000D01*
X176825238Y-92415483D01*
X176989396Y-92305796D01*
X177497396Y-91797796D01*
X177607083Y-91633638D01*
X177645600Y-91440000D01*
X177645600Y-85866000D01*
X177767136Y-85866000D01*
X177767136Y-88266000D01*
X177793703Y-88407190D01*
X177877146Y-88536865D01*
X178004466Y-88623859D01*
X178155600Y-88654464D01*
X182247000Y-88654464D01*
X182247000Y-93523536D01*
X182103000Y-93523536D01*
X181961810Y-93550103D01*
X181832135Y-93633546D01*
X181745141Y-93760866D01*
X181714536Y-93912000D01*
X181714536Y-95412000D01*
X181741103Y-95553190D01*
X181824546Y-95682865D01*
X181951866Y-95769859D01*
X182103000Y-95800464D01*
X183403000Y-95800464D01*
X183544190Y-95773897D01*
X183673865Y-95690454D01*
X183760859Y-95563134D01*
X183791464Y-95412000D01*
X183791464Y-93912000D01*
X183764897Y-93770810D01*
X183681454Y-93641135D01*
X183554134Y-93554141D01*
X183403000Y-93523536D01*
X183259000Y-93523536D01*
X183259000Y-88654464D01*
X184505600Y-88654464D01*
X184646790Y-88627897D01*
X184776465Y-88544454D01*
X184863459Y-88417134D01*
X184894064Y-88266000D01*
X184894064Y-85866000D01*
X184867497Y-85724810D01*
X184784054Y-85595135D01*
X184656734Y-85508141D01*
X184505600Y-85477536D01*
X178155600Y-85477536D01*
X178014410Y-85504103D01*
X177884735Y-85587546D01*
X177797741Y-85714866D01*
X177767136Y-85866000D01*
X177645600Y-85866000D01*
X177645600Y-80676792D01*
X177750392Y-80572000D01*
X177767136Y-80572000D01*
X177767136Y-81266000D01*
X177793703Y-81407190D01*
X177877146Y-81536865D01*
X178004466Y-81623859D01*
X178155600Y-81654464D01*
X184505600Y-81654464D01*
X184646790Y-81627897D01*
X184776465Y-81544454D01*
X184863459Y-81417134D01*
X184894064Y-81266000D01*
X184894064Y-78866000D01*
X184867497Y-78724810D01*
X184784054Y-78595135D01*
X184656734Y-78508141D01*
X184505600Y-78477536D01*
X178155600Y-78477536D01*
X178014410Y-78504103D01*
X177884735Y-78587546D01*
X177797741Y-78714866D01*
X177767136Y-78866000D01*
X177767136Y-79560000D01*
X177540800Y-79560000D01*
X177347162Y-79598517D01*
X177183004Y-79708204D01*
X176782000Y-80109208D01*
X176782000Y-78486000D01*
X176743483Y-78292362D01*
X176633796Y-78128204D01*
X176252796Y-77747204D01*
X176088638Y-77637517D01*
X175895000Y-77599000D01*
X158115000Y-77599000D01*
X157921362Y-77637517D01*
X157757204Y-77747204D01*
X157311204Y-78193204D01*
X157201517Y-78357362D01*
X157163000Y-78551000D01*
X157163000Y-79466807D01*
X157098135Y-79508546D01*
X157014466Y-79631000D01*
X151494456Y-79631000D01*
X151555859Y-79541134D01*
X151586464Y-79390000D01*
X151586464Y-78090000D01*
X151559897Y-77948810D01*
X151476454Y-77819135D01*
X151349134Y-77732141D01*
X151198000Y-77701536D01*
X149698000Y-77701536D01*
X149556810Y-77728103D01*
X149427135Y-77811546D01*
X149340141Y-77938866D01*
X149309536Y-78090000D01*
X149309536Y-78090461D01*
X149234054Y-78059118D01*
X148963135Y-78058882D01*
X148886464Y-78090562D01*
X148886464Y-78090000D01*
X148859897Y-77948810D01*
X148776454Y-77819135D01*
X148649134Y-77732141D01*
X148498000Y-77701536D01*
X146998000Y-77701536D01*
X146856810Y-77728103D01*
X146727135Y-77811546D01*
X146640141Y-77938866D01*
X146609536Y-78090000D01*
X146609536Y-78234000D01*
X145117664Y-78234000D01*
X145117664Y-78074520D01*
X145091097Y-77933330D01*
X145007654Y-77803655D01*
X144880334Y-77716661D01*
X144729200Y-77686056D01*
X143530320Y-77686056D01*
X143389130Y-77712623D01*
X143259455Y-77796066D01*
X143172461Y-77923386D01*
X143141856Y-78074520D01*
X143141856Y-79273400D01*
X143168423Y-79414590D01*
X143251866Y-79544265D01*
X143379186Y-79631259D01*
X143530320Y-79661864D01*
X144729200Y-79661864D01*
X144870390Y-79635297D01*
X145000065Y-79551854D01*
X145087059Y-79424534D01*
X145117664Y-79273400D01*
X145117664Y-79246000D01*
X146609536Y-79246000D01*
X146609536Y-79390000D01*
X146636103Y-79531190D01*
X146719546Y-79660865D01*
X146846866Y-79747859D01*
X146998000Y-79778464D01*
X148498000Y-79778464D01*
X148639190Y-79751897D01*
X148768865Y-79668454D01*
X148855859Y-79541134D01*
X148886464Y-79390000D01*
X148886464Y-79389539D01*
X148961946Y-79420882D01*
X149232865Y-79421118D01*
X149309536Y-79389438D01*
X149309536Y-79390000D01*
X149336103Y-79531190D01*
X149419546Y-79660865D01*
X149427734Y-79666459D01*
X149412362Y-79669517D01*
X149248204Y-79779204D01*
X148740204Y-80287204D01*
X148630517Y-80451362D01*
X148592000Y-80645000D01*
X148592000Y-80901536D01*
X147098000Y-80901536D01*
X146956810Y-80928103D01*
X146827135Y-81011546D01*
X146740141Y-81138866D01*
X146709536Y-81290000D01*
X146709536Y-81409000D01*
X144317564Y-81409000D01*
X144317564Y-81164430D01*
X144290997Y-81023240D01*
X144207554Y-80893565D01*
X144080234Y-80806571D01*
X143929100Y-80775966D01*
X142328900Y-80775966D01*
X142187710Y-80802533D01*
X142058035Y-80885976D01*
X141971041Y-81013296D01*
X141940436Y-81164430D01*
X141940436Y-82665570D01*
X141967003Y-82806760D01*
X142050446Y-82936435D01*
X142177766Y-83023429D01*
X142328900Y-83054034D01*
X142623000Y-83054034D01*
X142623000Y-83562571D01*
X142529000Y-83543536D01*
X141029000Y-83543536D01*
X140887810Y-83570103D01*
X140758135Y-83653546D01*
X140671141Y-83780866D01*
X140640536Y-83932000D01*
X140640536Y-85232000D01*
X140667103Y-85373190D01*
X140750546Y-85502865D01*
X140877866Y-85589859D01*
X141029000Y-85620464D01*
X141273000Y-85620464D01*
X141273000Y-86792536D01*
X141082000Y-86792536D01*
X140940810Y-86819103D01*
X140811135Y-86902546D01*
X140724141Y-87029866D01*
X140693536Y-87181000D01*
X140693536Y-88681000D01*
X140720103Y-88822190D01*
X140803546Y-88951865D01*
X140930866Y-89038859D01*
X141082000Y-89069464D01*
X141226000Y-89069464D01*
X141226000Y-89154000D01*
X141264517Y-89347638D01*
X141361335Y-89492536D01*
X141082000Y-89492536D01*
X140940810Y-89519103D01*
X140811135Y-89602546D01*
X140724141Y-89729866D01*
X140693536Y-89881000D01*
X140693536Y-90125000D01*
X138477000Y-90125000D01*
X138283362Y-90163517D01*
X138119204Y-90273204D01*
X137691204Y-90701204D01*
X137581517Y-90865362D01*
X137543000Y-91059000D01*
X137543000Y-94532408D01*
X137331408Y-94744000D01*
X137163429Y-94744000D01*
X137182464Y-94650000D01*
X137182464Y-93150000D01*
X137155897Y-93008810D01*
X137072454Y-92879135D01*
X136945134Y-92792141D01*
X136794000Y-92761536D01*
X135494000Y-92761536D01*
X135352810Y-92788103D01*
X135223135Y-92871546D01*
X135136141Y-92998866D01*
X135105536Y-93150000D01*
X135105536Y-93369000D01*
X134363464Y-93369000D01*
X134363464Y-93250000D01*
X134336897Y-93108810D01*
X134253454Y-92979135D01*
X134126134Y-92892141D01*
X133975000Y-92861536D01*
X132725000Y-92861536D01*
X132583810Y-92888103D01*
X132454135Y-92971546D01*
X132367141Y-93098866D01*
X132336536Y-93250000D01*
X132336536Y-93349000D01*
X131438112Y-93349000D01*
X131381500Y-93337536D01*
X130238500Y-93337536D01*
X130097310Y-93364103D01*
X129967635Y-93447546D01*
X129880641Y-93574866D01*
X129850036Y-93726000D01*
X129850036Y-94234000D01*
X129876603Y-94375190D01*
X129960046Y-94504865D01*
X130087366Y-94591859D01*
X130200288Y-94614726D01*
X130097310Y-94634103D01*
X129967635Y-94717546D01*
X129880641Y-94844866D01*
X129850036Y-94996000D01*
X129850036Y-95504000D01*
X129876603Y-95645190D01*
X129960046Y-95774865D01*
X130087366Y-95861859D01*
X130200288Y-95884726D01*
X130097310Y-95904103D01*
X129967635Y-95987546D01*
X129880641Y-96114866D01*
X129850036Y-96266000D01*
X129850036Y-96774000D01*
X129876603Y-96915190D01*
X129960046Y-97044865D01*
X130087366Y-97131859D01*
X130200288Y-97154726D01*
X130097310Y-97174103D01*
X129967635Y-97257546D01*
X129949560Y-97284000D01*
X128522000Y-97284000D01*
X128522000Y-92785464D01*
X128666000Y-92785464D01*
X128807190Y-92758897D01*
X128936865Y-92675454D01*
X129023859Y-92548134D01*
X129054464Y-92397000D01*
X129054464Y-90897000D01*
X129036777Y-90803000D01*
X133223000Y-90803000D01*
X133416638Y-90764483D01*
X133580796Y-90654796D01*
X133914796Y-90320796D01*
X134024483Y-90156638D01*
X134063000Y-89963000D01*
X134063000Y-89938464D01*
X134307000Y-89938464D01*
X134448190Y-89911897D01*
X134577865Y-89828454D01*
X134664859Y-89701134D01*
X134695464Y-89550000D01*
X134695464Y-88250000D01*
X134668897Y-88108810D01*
X134585454Y-87979135D01*
X134458134Y-87892141D01*
X134307000Y-87861536D01*
X134063000Y-87861536D01*
X134063000Y-87246464D01*
X134207000Y-87246464D01*
X134348190Y-87219897D01*
X134477865Y-87136454D01*
X134564859Y-87009134D01*
X134595464Y-86858000D01*
X134595464Y-85608000D01*
X134568897Y-85466810D01*
X134485454Y-85337135D01*
X134358134Y-85250141D01*
X134207000Y-85219536D01*
X133963000Y-85219536D01*
X133963000Y-84801874D01*
X133968190Y-84800897D01*
X134097865Y-84717454D01*
X134184859Y-84590134D01*
X134215464Y-84439000D01*
X134215464Y-83839000D01*
X134188897Y-83697810D01*
X134105454Y-83568135D01*
X133978134Y-83481141D01*
X133827000Y-83450536D01*
X133127000Y-83450536D01*
X132985810Y-83477103D01*
X132856135Y-83560546D01*
X132769141Y-83687866D01*
X132738536Y-83839000D01*
X132738536Y-84439000D01*
X132765103Y-84580190D01*
X132848546Y-84709865D01*
X132951000Y-84779869D01*
X132951000Y-85219536D01*
X132707000Y-85219536D01*
X132565810Y-85246103D01*
X132436135Y-85329546D01*
X132349141Y-85456866D01*
X132318536Y-85608000D01*
X132318536Y-86858000D01*
X132345103Y-86999190D01*
X132428546Y-87128865D01*
X132555866Y-87215859D01*
X132707000Y-87246464D01*
X133051000Y-87246464D01*
X133051000Y-87861536D01*
X132807000Y-87861536D01*
X132665810Y-87888103D01*
X132536135Y-87971546D01*
X132449141Y-88098866D01*
X132418536Y-88250000D01*
X132418536Y-89550000D01*
X132445103Y-89691190D01*
X132509329Y-89791000D01*
X131903456Y-89791000D01*
X131964859Y-89701134D01*
X131995464Y-89550000D01*
X131995464Y-88250000D01*
X131968897Y-88108810D01*
X131885454Y-87979135D01*
X131758134Y-87892141D01*
X131607000Y-87861536D01*
X131363000Y-87861536D01*
X131363000Y-87246464D01*
X131707000Y-87246464D01*
X131848190Y-87219897D01*
X131977865Y-87136454D01*
X132064859Y-87009134D01*
X132095464Y-86858000D01*
X132095464Y-85608000D01*
X132068897Y-85466810D01*
X131985454Y-85337135D01*
X131858134Y-85250141D01*
X131707000Y-85219536D01*
X131463000Y-85219536D01*
X131463000Y-84778498D01*
X131557865Y-84717454D01*
X131644859Y-84590134D01*
X131675464Y-84439000D01*
X131675464Y-83839000D01*
X131648897Y-83697810D01*
X131565454Y-83568135D01*
X131438134Y-83481141D01*
X131287000Y-83450536D01*
X130587000Y-83450536D01*
X130445810Y-83477103D01*
X130316135Y-83560546D01*
X130229141Y-83687866D01*
X130198536Y-83839000D01*
X130198536Y-84439000D01*
X130225103Y-84580190D01*
X130308546Y-84709865D01*
X130435866Y-84796859D01*
X130451000Y-84799924D01*
X130451000Y-85219536D01*
X130207000Y-85219536D01*
X130065810Y-85246103D01*
X129936135Y-85329546D01*
X129849141Y-85456866D01*
X129818536Y-85608000D01*
X129818536Y-86858000D01*
X129845103Y-86999190D01*
X129928546Y-87128865D01*
X130055866Y-87215859D01*
X130207000Y-87246464D01*
X130351000Y-87246464D01*
X130351000Y-87861536D01*
X130107000Y-87861536D01*
X129965810Y-87888103D01*
X129836135Y-87971546D01*
X129749141Y-88098866D01*
X129718536Y-88250000D01*
X129718536Y-88441000D01*
X129054464Y-88441000D01*
X129054464Y-88197000D01*
X129027897Y-88055810D01*
X128944454Y-87926135D01*
X128817134Y-87839141D01*
X128666000Y-87808536D01*
X127366000Y-87808536D01*
X127224810Y-87835103D01*
X127095135Y-87918546D01*
X127008141Y-88045866D01*
X126977536Y-88197000D01*
X126977536Y-88394000D01*
X126447367Y-88394000D01*
X126373454Y-88279135D01*
X126246134Y-88192141D01*
X126095000Y-88161536D01*
X125495000Y-88161536D01*
X125353810Y-88188103D01*
X125224135Y-88271546D01*
X125137141Y-88398866D01*
X125106536Y-88550000D01*
X125106536Y-89250000D01*
X125133103Y-89391190D01*
X125216546Y-89520865D01*
X125331537Y-89599435D01*
X125224135Y-89668546D01*
X125137141Y-89795866D01*
X125106536Y-89947000D01*
X125106536Y-90647000D01*
X125133103Y-90788190D01*
X125216546Y-90917865D01*
X125289000Y-90967371D01*
X125289000Y-93440818D01*
X125182634Y-93368141D01*
X125031500Y-93337536D01*
X124901000Y-93337536D01*
X124901000Y-90967193D01*
X124965865Y-90925454D01*
X125052859Y-90798134D01*
X125083464Y-90647000D01*
X125083464Y-89947000D01*
X125056897Y-89805810D01*
X124973454Y-89676135D01*
X124901000Y-89626629D01*
X124901000Y-89570193D01*
X124965865Y-89528454D01*
X125052859Y-89401134D01*
X125083464Y-89250000D01*
X125083464Y-88550000D01*
X125056897Y-88408810D01*
X124973454Y-88279135D01*
X124846134Y-88192141D01*
X124695000Y-88161536D01*
X124095000Y-88161536D01*
X123953810Y-88188103D01*
X123824135Y-88271546D01*
X123737141Y-88398866D01*
X123706536Y-88550000D01*
X123706536Y-89250000D01*
X123733103Y-89391190D01*
X123816546Y-89520865D01*
X123889000Y-89570371D01*
X123889000Y-89626807D01*
X123824135Y-89668546D01*
X123737141Y-89795866D01*
X123706536Y-89947000D01*
X123706536Y-90647000D01*
X123733103Y-90788190D01*
X123816546Y-90917865D01*
X123889000Y-90967371D01*
X123889000Y-93337536D01*
X123888500Y-93337536D01*
X123747310Y-93364103D01*
X123617635Y-93447546D01*
X123530641Y-93574866D01*
X123500036Y-93726000D01*
X123500036Y-94234000D01*
X123526603Y-94375190D01*
X123610046Y-94504865D01*
X123737366Y-94591859D01*
X123850288Y-94614726D01*
X123747310Y-94634103D01*
X123617635Y-94717546D01*
X123613225Y-94724000D01*
X120393464Y-94724000D01*
X120393464Y-94480000D01*
X120366897Y-94338810D01*
X120283454Y-94209135D01*
X120156134Y-94122141D01*
X120005000Y-94091536D01*
X118755000Y-94091536D01*
X118613810Y-94118103D01*
X118484135Y-94201546D01*
X118397141Y-94328866D01*
X118366536Y-94480000D01*
X118366536Y-95980000D01*
X118393103Y-96121190D01*
X118476546Y-96250865D01*
X118603866Y-96337859D01*
X118755000Y-96368464D01*
X120005000Y-96368464D01*
X120146190Y-96341897D01*
X120275865Y-96258454D01*
X120362859Y-96131134D01*
X120393464Y-95980000D01*
X120393464Y-95736000D01*
X123585037Y-95736000D01*
X123610046Y-95774865D01*
X123737366Y-95861859D01*
X123850288Y-95884726D01*
X123747310Y-95904103D01*
X123617635Y-95987546D01*
X123599560Y-96014000D01*
X120904000Y-96014000D01*
X120710362Y-96052517D01*
X120546204Y-96162204D01*
X120245204Y-96463204D01*
X120135517Y-96627362D01*
X120097000Y-96821000D01*
X120097000Y-97513536D01*
X119853000Y-97513536D01*
X119711810Y-97540103D01*
X119582135Y-97623546D01*
X119495141Y-97750866D01*
X119464536Y-97902000D01*
X119464536Y-99202000D01*
X119491103Y-99343190D01*
X119574546Y-99472865D01*
X119701866Y-99559859D01*
X119853000Y-99590464D01*
X120097000Y-99590464D01*
X120097000Y-100053536D01*
X119853000Y-100053536D01*
X119711810Y-100080103D01*
X119582135Y-100163546D01*
X119495141Y-100290866D01*
X119464536Y-100442000D01*
X119464536Y-101742000D01*
X119491103Y-101883190D01*
X119574546Y-102012865D01*
X119701866Y-102099859D01*
X119853000Y-102130464D01*
X119997000Y-102130464D01*
X119997000Y-102618536D01*
X119753000Y-102618536D01*
X119611810Y-102645103D01*
X119482135Y-102728546D01*
X119395141Y-102855866D01*
X119388000Y-102891130D01*
X119388000Y-102880690D01*
X119291327Y-102647301D01*
X119112698Y-102468673D01*
X118879309Y-102372000D01*
X118791380Y-102372000D01*
X119012698Y-102280327D01*
X119191327Y-102101699D01*
X119288000Y-101868310D01*
X119288000Y-101377750D01*
X119129250Y-101219000D01*
X118030000Y-101219000D01*
X117776000Y-101219000D01*
X116676750Y-101219000D01*
X116518000Y-101377750D01*
X116153000Y-101377750D01*
X116153000Y-100315690D01*
X116518000Y-100315690D01*
X116518000Y-100806250D01*
X116676750Y-100965000D01*
X117776000Y-100965000D01*
X117776000Y-99965750D01*
X118030000Y-99965750D01*
X118030000Y-100965000D01*
X119129250Y-100965000D01*
X119288000Y-100806250D01*
X119288000Y-100315690D01*
X119191327Y-100082301D01*
X119012698Y-99903673D01*
X118779309Y-99807000D01*
X118188750Y-99807000D01*
X118030000Y-99965750D01*
X117776000Y-99965750D01*
X117617250Y-99807000D01*
X117026691Y-99807000D01*
X116793302Y-99903673D01*
X116614673Y-100082301D01*
X116518000Y-100315690D01*
X116153000Y-100315690D01*
X116153000Y-97902000D01*
X116764536Y-97902000D01*
X116764536Y-99202000D01*
X116791103Y-99343190D01*
X116874546Y-99472865D01*
X117001866Y-99559859D01*
X117153000Y-99590464D01*
X118653000Y-99590464D01*
X118794190Y-99563897D01*
X118923865Y-99480454D01*
X119010859Y-99353134D01*
X119041464Y-99202000D01*
X119041464Y-97902000D01*
X119014897Y-97760810D01*
X118931454Y-97631135D01*
X118804134Y-97544141D01*
X118653000Y-97513536D01*
X118534000Y-97513536D01*
X118534000Y-97191734D01*
X118587682Y-97062454D01*
X118587918Y-96791535D01*
X118484461Y-96541148D01*
X118293059Y-96349413D01*
X118042854Y-96245518D01*
X117771935Y-96245282D01*
X117521548Y-96348739D01*
X117329813Y-96540141D01*
X117225918Y-96790346D01*
X117225682Y-97061265D01*
X117272000Y-97173364D01*
X117272000Y-97513536D01*
X117153000Y-97513536D01*
X117011810Y-97540103D01*
X116882135Y-97623546D01*
X116795141Y-97750866D01*
X116764536Y-97902000D01*
X116153000Y-97902000D01*
X116153000Y-78105000D01*
X117466536Y-78105000D01*
X117466536Y-84455000D01*
X117493103Y-84596190D01*
X117576546Y-84725865D01*
X117703866Y-84812859D01*
X117855000Y-84843464D01*
X118794000Y-84843464D01*
X118794000Y-87226536D01*
X118550000Y-87226536D01*
X118408810Y-87253103D01*
X118279135Y-87336546D01*
X118192141Y-87463866D01*
X118161536Y-87615000D01*
X118161536Y-88915000D01*
X118188103Y-89056190D01*
X118271546Y-89185865D01*
X118398866Y-89272859D01*
X118550000Y-89303464D01*
X118794000Y-89303464D01*
X118794000Y-91591536D01*
X118755000Y-91591536D01*
X118613810Y-91618103D01*
X118484135Y-91701546D01*
X118397141Y-91828866D01*
X118366536Y-91980000D01*
X118366536Y-93480000D01*
X118393103Y-93621190D01*
X118476546Y-93750865D01*
X118603866Y-93837859D01*
X118755000Y-93868464D01*
X120005000Y-93868464D01*
X120146190Y-93841897D01*
X120275865Y-93758454D01*
X120362859Y-93631134D01*
X120393464Y-93480000D01*
X120393464Y-91980000D01*
X120366897Y-91838810D01*
X120283454Y-91709135D01*
X120156134Y-91622141D01*
X120005000Y-91591536D01*
X119806000Y-91591536D01*
X119806000Y-89303464D01*
X120050000Y-89303464D01*
X120191190Y-89276897D01*
X120320865Y-89193454D01*
X120407859Y-89066134D01*
X120438464Y-88915000D01*
X120438464Y-87615000D01*
X120861536Y-87615000D01*
X120861536Y-88915000D01*
X120888103Y-89056190D01*
X120971546Y-89185865D01*
X121098866Y-89272859D01*
X121250000Y-89303464D01*
X122750000Y-89303464D01*
X122891190Y-89276897D01*
X123020865Y-89193454D01*
X123107859Y-89066134D01*
X123138464Y-88915000D01*
X123138464Y-87615000D01*
X123111897Y-87473810D01*
X123028454Y-87344135D01*
X122901134Y-87257141D01*
X122750000Y-87226536D01*
X122631000Y-87226536D01*
X122631000Y-86937231D01*
X122677082Y-86826254D01*
X122677318Y-86555335D01*
X122573861Y-86304948D01*
X122382459Y-86113213D01*
X122132254Y-86009318D01*
X121861335Y-86009082D01*
X121610948Y-86112539D01*
X121419213Y-86303941D01*
X121315318Y-86554146D01*
X121315082Y-86825065D01*
X121369000Y-86955558D01*
X121369000Y-87226536D01*
X121250000Y-87226536D01*
X121108810Y-87253103D01*
X120979135Y-87336546D01*
X120892141Y-87463866D01*
X120861536Y-87615000D01*
X120438464Y-87615000D01*
X120411897Y-87473810D01*
X120328454Y-87344135D01*
X120201134Y-87257141D01*
X120050000Y-87226536D01*
X119806000Y-87226536D01*
X119806000Y-84843464D01*
X120255000Y-84843464D01*
X120396190Y-84816897D01*
X120525865Y-84733454D01*
X120612859Y-84606134D01*
X120643464Y-84455000D01*
X120643464Y-81565750D01*
X124220000Y-81565750D01*
X124220000Y-84581310D01*
X124316673Y-84814699D01*
X124495302Y-84993327D01*
X124728691Y-85090000D01*
X125769250Y-85090000D01*
X125928000Y-84931250D01*
X125928000Y-81407000D01*
X126182000Y-81407000D01*
X126182000Y-84931250D01*
X126340750Y-85090000D01*
X127381309Y-85090000D01*
X127614698Y-84993327D01*
X127793327Y-84814699D01*
X127890000Y-84581310D01*
X127890000Y-82439000D01*
X130198536Y-82439000D01*
X130198536Y-83039000D01*
X130225103Y-83180190D01*
X130308546Y-83309865D01*
X130435866Y-83396859D01*
X130587000Y-83427464D01*
X131287000Y-83427464D01*
X131428190Y-83400897D01*
X131557865Y-83317454D01*
X131644859Y-83190134D01*
X131675464Y-83039000D01*
X131675464Y-82439000D01*
X131648897Y-82297810D01*
X131565454Y-82168135D01*
X131443000Y-82084466D01*
X131443000Y-81891464D01*
X131807000Y-81891464D01*
X131948190Y-81864897D01*
X132077865Y-81781454D01*
X132164859Y-81654134D01*
X132195464Y-81503000D01*
X132195464Y-80803000D01*
X132218536Y-80803000D01*
X132218536Y-81503000D01*
X132245103Y-81644190D01*
X132328546Y-81773865D01*
X132455866Y-81860859D01*
X132607000Y-81891464D01*
X132971000Y-81891464D01*
X132971000Y-82086633D01*
X132856135Y-82160546D01*
X132769141Y-82287866D01*
X132738536Y-82439000D01*
X132738536Y-83039000D01*
X132765103Y-83180190D01*
X132848546Y-83309865D01*
X132975866Y-83396859D01*
X133127000Y-83427464D01*
X133827000Y-83427464D01*
X133968190Y-83400897D01*
X134097865Y-83317454D01*
X134184859Y-83190134D01*
X134215464Y-83039000D01*
X134215464Y-82439000D01*
X134188897Y-82297810D01*
X134105454Y-82168135D01*
X133983000Y-82084466D01*
X133983000Y-81280000D01*
X133944483Y-81086362D01*
X133834796Y-80922204D01*
X133707796Y-80795204D01*
X133577632Y-80708231D01*
X133568897Y-80661810D01*
X133485454Y-80532135D01*
X133358134Y-80445141D01*
X133207000Y-80414536D01*
X132607000Y-80414536D01*
X132465810Y-80441103D01*
X132336135Y-80524546D01*
X132249141Y-80651866D01*
X132218536Y-80803000D01*
X132195464Y-80803000D01*
X132168897Y-80661810D01*
X132085454Y-80532135D01*
X131958134Y-80445141D01*
X131807000Y-80414536D01*
X131207000Y-80414536D01*
X131065810Y-80441103D01*
X130936135Y-80524546D01*
X130849141Y-80651866D01*
X130837940Y-80707181D01*
X130706204Y-80795204D01*
X130579204Y-80922204D01*
X130469517Y-81086362D01*
X130431000Y-81280000D01*
X130431000Y-82086633D01*
X130316135Y-82160546D01*
X130229141Y-82287866D01*
X130198536Y-82439000D01*
X127890000Y-82439000D01*
X127890000Y-81565750D01*
X127731250Y-81407000D01*
X126182000Y-81407000D01*
X125928000Y-81407000D01*
X124378750Y-81407000D01*
X124220000Y-81565750D01*
X120643464Y-81565750D01*
X120643464Y-78105000D01*
X120619697Y-77978690D01*
X124220000Y-77978690D01*
X124220000Y-80994250D01*
X124378750Y-81153000D01*
X125928000Y-81153000D01*
X125928000Y-77628750D01*
X126182000Y-77628750D01*
X126182000Y-81153000D01*
X127731250Y-81153000D01*
X127890000Y-80994250D01*
X127890000Y-78090000D01*
X135814536Y-78090000D01*
X135814536Y-79390000D01*
X135841103Y-79531190D01*
X135924546Y-79660865D01*
X136051866Y-79747859D01*
X136203000Y-79778464D01*
X136447000Y-79778464D01*
X136447000Y-80495536D01*
X136203000Y-80495536D01*
X136061810Y-80522103D01*
X135932135Y-80605546D01*
X135845141Y-80732866D01*
X135814536Y-80884000D01*
X135814536Y-82184000D01*
X135841103Y-82325190D01*
X135924546Y-82454865D01*
X136051866Y-82541859D01*
X136203000Y-82572464D01*
X137703000Y-82572464D01*
X137844190Y-82545897D01*
X137973865Y-82462454D01*
X138060859Y-82335134D01*
X138091464Y-82184000D01*
X138091464Y-81819750D01*
X138268000Y-81819750D01*
X138268000Y-82310310D01*
X138364673Y-82543699D01*
X138543302Y-82722327D01*
X138776691Y-82819000D01*
X139367250Y-82819000D01*
X139526000Y-82660250D01*
X139526000Y-81661000D01*
X139780000Y-81661000D01*
X139780000Y-82660250D01*
X139938750Y-82819000D01*
X140529309Y-82819000D01*
X140762698Y-82722327D01*
X140941327Y-82543699D01*
X141038000Y-82310310D01*
X141038000Y-81819750D01*
X140879250Y-81661000D01*
X139780000Y-81661000D01*
X139526000Y-81661000D01*
X138426750Y-81661000D01*
X138268000Y-81819750D01*
X138091464Y-81819750D01*
X138091464Y-80884000D01*
X138067697Y-80757690D01*
X138268000Y-80757690D01*
X138268000Y-81248250D01*
X138426750Y-81407000D01*
X139526000Y-81407000D01*
X139526000Y-80407750D01*
X139780000Y-80407750D01*
X139780000Y-81407000D01*
X140879250Y-81407000D01*
X141038000Y-81248250D01*
X141038000Y-80757690D01*
X140941327Y-80524301D01*
X140762698Y-80345673D01*
X140529309Y-80249000D01*
X139938750Y-80249000D01*
X139780000Y-80407750D01*
X139526000Y-80407750D01*
X139367250Y-80249000D01*
X138776691Y-80249000D01*
X138543302Y-80345673D01*
X138364673Y-80524301D01*
X138268000Y-80757690D01*
X138067697Y-80757690D01*
X138064897Y-80742810D01*
X137981454Y-80613135D01*
X137854134Y-80526141D01*
X137703000Y-80495536D01*
X137459000Y-80495536D01*
X137459000Y-79778464D01*
X137703000Y-79778464D01*
X137844190Y-79751897D01*
X137973865Y-79668454D01*
X138060859Y-79541134D01*
X138091464Y-79390000D01*
X138091464Y-78090000D01*
X138514536Y-78090000D01*
X138514536Y-79390000D01*
X138541103Y-79531190D01*
X138624546Y-79660865D01*
X138751866Y-79747859D01*
X138903000Y-79778464D01*
X140403000Y-79778464D01*
X140544190Y-79751897D01*
X140673865Y-79668454D01*
X140760859Y-79541134D01*
X140791464Y-79390000D01*
X140791464Y-79179960D01*
X141140336Y-79179960D01*
X141140336Y-79273400D01*
X141166903Y-79414590D01*
X141250346Y-79544265D01*
X141377666Y-79631259D01*
X141528800Y-79661864D01*
X142727680Y-79661864D01*
X142868870Y-79635297D01*
X142998545Y-79551854D01*
X143085539Y-79424534D01*
X143116144Y-79273400D01*
X143116144Y-78074520D01*
X143089577Y-77933330D01*
X143006134Y-77803655D01*
X142878814Y-77716661D01*
X142727680Y-77686056D01*
X141528800Y-77686056D01*
X141387610Y-77712623D01*
X141257935Y-77796066D01*
X141170941Y-77923386D01*
X141140336Y-78074520D01*
X141140336Y-78167960D01*
X140791464Y-78167960D01*
X140791464Y-78090000D01*
X140764897Y-77948810D01*
X140681454Y-77819135D01*
X140554134Y-77732141D01*
X140403000Y-77701536D01*
X138903000Y-77701536D01*
X138761810Y-77728103D01*
X138632135Y-77811546D01*
X138545141Y-77938866D01*
X138514536Y-78090000D01*
X138091464Y-78090000D01*
X138064897Y-77948810D01*
X137981454Y-77819135D01*
X137854134Y-77732141D01*
X137703000Y-77701536D01*
X136203000Y-77701536D01*
X136061810Y-77728103D01*
X135932135Y-77811546D01*
X135845141Y-77938866D01*
X135814536Y-78090000D01*
X127890000Y-78090000D01*
X127890000Y-77978690D01*
X127793327Y-77745301D01*
X127614698Y-77566673D01*
X127381309Y-77470000D01*
X126340750Y-77470000D01*
X126182000Y-77628750D01*
X125928000Y-77628750D01*
X125769250Y-77470000D01*
X124728691Y-77470000D01*
X124495302Y-77566673D01*
X124316673Y-77745301D01*
X124220000Y-77978690D01*
X120619697Y-77978690D01*
X120616897Y-77963810D01*
X120533454Y-77834135D01*
X120406134Y-77747141D01*
X120255000Y-77716536D01*
X117855000Y-77716536D01*
X117713810Y-77743103D01*
X117584135Y-77826546D01*
X117497141Y-77953866D01*
X117466536Y-78105000D01*
X116153000Y-78105000D01*
X116153000Y-77260910D01*
X116174878Y-77150918D01*
X116211745Y-77095745D01*
X116266918Y-77058879D01*
X116376911Y-77037000D01*
X185121090Y-77037000D01*
X185231082Y-77058878D01*
M02*
