G04 #@! TF.FileFunction,Copper,L1,Top,Signal*
%FSLAX46Y46*%
G04 Gerber Fmt 4.6, Leading zero omitted, Abs format (unit mm)*
G04 Created by KiCad (PCBNEW 4.0.4-stable) date Monday, October 17, 2016 'PMt' 09:40:26 PM*
%MOMM*%
%LPD*%
G01*
G04 APERTURE LIST*
%ADD10C,0.100000*%
%ADD11R,2.400000X6.350000*%
%ADD12R,1.500000X1.250000*%
%ADD13R,1.250000X1.500000*%
%ADD14R,3.599180X1.600200*%
%ADD15R,0.700000X0.600000*%
%ADD16R,1.300000X1.500000*%
%ADD17R,1.651000X3.048000*%
%ADD18R,6.096000X6.096000*%
%ADD19R,0.800100X0.800100*%
%ADD20R,1.500000X1.300000*%
%ADD21R,1.600200X1.501140*%
%ADD22R,1.198880X1.198880*%
%ADD23R,6.350000X2.400000*%
%ADD24R,1.143000X0.508000*%
%ADD25R,3.048000X1.651000*%
%ADD26C,0.600000*%
%ADD27C,0.250000*%
%ADD28C,0.500000*%
%ADD29C,0.254000*%
G04 APERTURE END LIST*
D10*
D11*
X125724800Y-83591400D03*
X118724800Y-83591400D03*
D12*
X136759000Y-89077800D03*
X134259000Y-89077800D03*
X141548800Y-82880200D03*
X144048800Y-82880200D03*
D13*
X146024600Y-91079000D03*
X146024600Y-93579000D03*
D14*
X166174420Y-93014800D03*
X160672780Y-93014800D03*
D12*
X131323400Y-86131400D03*
X128823400Y-86131400D03*
X150388000Y-90881200D03*
X152888000Y-90881200D03*
X155061600Y-84277200D03*
X157561600Y-84277200D03*
D13*
X134289800Y-84195600D03*
X134289800Y-86695600D03*
X146278600Y-101543800D03*
X146278600Y-104043800D03*
D12*
X132364800Y-103987600D03*
X129864800Y-103987600D03*
X175240000Y-96469200D03*
X172740000Y-96469200D03*
X181172800Y-96545400D03*
X183672800Y-96545400D03*
D15*
X148259800Y-92292400D03*
X148259800Y-90892400D03*
D16*
X170256200Y-101984800D03*
X170256200Y-99284800D03*
D11*
X160152200Y-100482400D03*
X167152200Y-100482400D03*
D17*
X178765200Y-88112600D03*
D18*
X181051200Y-81762600D03*
D17*
X183337200Y-88112600D03*
D19*
X159019240Y-78983800D03*
X159019240Y-80883800D03*
X161018220Y-79933800D03*
X155056800Y-80985360D03*
X156956800Y-80985360D03*
X156006800Y-78986380D03*
X150916640Y-79034600D03*
X150916640Y-80934600D03*
X152915620Y-79984600D03*
X149926000Y-84515960D03*
X151826000Y-84515960D03*
X150876000Y-82516980D03*
X177256400Y-93329760D03*
X179156400Y-93329760D03*
X178206400Y-91330780D03*
D20*
X133785600Y-95910400D03*
X131085600Y-95910400D03*
D16*
X136652000Y-95906600D03*
X136652000Y-98606600D03*
D20*
X133905000Y-91186000D03*
X136605000Y-91186000D03*
X141448800Y-80518000D03*
X144148800Y-80518000D03*
D16*
X143764000Y-90953600D03*
X143764000Y-93653600D03*
D20*
X148967200Y-95758000D03*
X151667200Y-95758000D03*
X136605000Y-93446600D03*
X133905000Y-93446600D03*
D16*
X163042600Y-82630000D03*
X163042600Y-79930000D03*
D20*
X151710400Y-98069400D03*
X154410400Y-98069400D03*
D16*
X128828800Y-80844400D03*
X128828800Y-83544400D03*
X160629600Y-88167200D03*
X160629600Y-85467200D03*
X141478000Y-93628200D03*
X141478000Y-90928200D03*
D20*
X154410400Y-93294200D03*
X151710400Y-93294200D03*
X152988000Y-88671400D03*
X150288000Y-88671400D03*
D16*
X136804400Y-84121000D03*
X136804400Y-86821000D03*
X167309800Y-82774800D03*
X167309800Y-85474800D03*
D20*
X150288000Y-86487000D03*
X152988000Y-86487000D03*
D16*
X129159000Y-101375200D03*
X129159000Y-98675200D03*
D20*
X153064200Y-104114600D03*
X150364200Y-104114600D03*
D16*
X136626600Y-104118400D03*
X136626600Y-101418400D03*
D20*
X153038800Y-101523800D03*
X150338800Y-101523800D03*
D16*
X139369800Y-101418400D03*
X139369800Y-104118400D03*
X163042600Y-88141800D03*
X163042600Y-85441800D03*
X181178200Y-94034600D03*
X181178200Y-91334600D03*
D20*
X175187600Y-91135200D03*
X172487600Y-91135200D03*
X172487600Y-93345000D03*
X175187600Y-93345000D03*
D21*
X132334000Y-98145600D03*
D22*
X131333240Y-101386640D03*
X133334760Y-101386640D03*
D23*
X122301000Y-94315400D03*
X122301000Y-101315400D03*
D17*
X174777400Y-79959200D03*
D18*
X172491400Y-86309200D03*
D17*
X170205400Y-79959200D03*
D24*
X145999200Y-84937600D03*
X145999200Y-86207600D03*
X145999200Y-87477600D03*
X145999200Y-88747600D03*
X139649200Y-88747600D03*
X139649200Y-87477600D03*
X139649200Y-86207600D03*
X139649200Y-84937600D03*
X145999200Y-95961200D03*
X145999200Y-97231200D03*
X145999200Y-98501200D03*
X145999200Y-99771200D03*
X139649200Y-99771200D03*
X139649200Y-98501200D03*
X139649200Y-97231200D03*
X139649200Y-95961200D03*
D25*
X173888400Y-99288600D03*
D18*
X180238400Y-101574600D03*
D25*
X173888400Y-103860600D03*
D26*
X148107400Y-86512400D03*
X146024600Y-89585800D03*
X126542800Y-101295200D03*
X144653000Y-88112600D03*
X129159000Y-100025200D03*
X132435600Y-95910400D03*
X151688800Y-104114600D03*
X166166800Y-94665800D03*
X173888400Y-101600000D03*
X160629600Y-86817200D03*
X161391600Y-82626200D03*
X150317200Y-95758000D03*
X139700000Y-80518000D03*
X143764000Y-88773000D03*
X135255000Y-91186000D03*
X128828800Y-79222600D03*
X177038000Y-88112600D03*
X181203600Y-92659200D03*
D27*
X136759000Y-89077800D02*
X138125200Y-89077800D01*
X138531600Y-87477600D02*
X139649200Y-87477600D01*
X138277600Y-87731600D02*
X138531600Y-87477600D01*
X138277600Y-88925400D02*
X138277600Y-87731600D01*
X138125200Y-89077800D02*
X138277600Y-88925400D01*
X136759000Y-89077800D02*
X136759000Y-91032000D01*
X136759000Y-91032000D02*
X136605000Y-91186000D01*
X136605000Y-93446600D02*
X136605000Y-91186000D01*
D28*
X146024600Y-91079000D02*
X146024600Y-89585800D01*
X148132800Y-86487000D02*
X150288000Y-86487000D01*
X148107400Y-86512400D02*
X148132800Y-86487000D01*
X144048800Y-82880200D02*
X145669000Y-82880200D01*
X145999200Y-83210400D02*
X145999200Y-84937600D01*
X145669000Y-82880200D02*
X145999200Y-83210400D01*
X144148800Y-80518000D02*
X144148800Y-82780200D01*
X144148800Y-82780200D02*
X144048800Y-82880200D01*
D27*
X144148800Y-82780200D02*
X144048800Y-82880200D01*
D28*
X143764000Y-93653600D02*
X145950000Y-93653600D01*
X145950000Y-93653600D02*
X145999200Y-93702800D01*
X145999200Y-93702800D02*
X145999200Y-95961200D01*
D27*
X145950000Y-93653600D02*
X145999200Y-93702800D01*
X139649200Y-86207600D02*
X137417800Y-86207600D01*
X137417800Y-86207600D02*
X136804400Y-86821000D01*
X134289800Y-86695600D02*
X136679000Y-86695600D01*
X136679000Y-86695600D02*
X136804400Y-86821000D01*
X134289800Y-86695600D02*
X131887600Y-86695600D01*
X131887600Y-86695600D02*
X131323400Y-86131400D01*
X128828800Y-83544400D02*
X125771800Y-83544400D01*
X125771800Y-83544400D02*
X125724800Y-83591400D01*
X128823400Y-86131400D02*
X128823400Y-83549800D01*
X128823400Y-83549800D02*
X128828800Y-83544400D01*
X128792800Y-86100800D02*
X128823400Y-86131400D01*
X126542800Y-101295200D02*
X126522600Y-101315400D01*
X122301000Y-101315400D02*
X126522600Y-101315400D01*
X145999200Y-88442800D02*
X145999200Y-88747600D01*
X145669000Y-88112600D02*
X145999200Y-88442800D01*
X144653000Y-88112600D02*
X145669000Y-88112600D01*
X150288000Y-88671400D02*
X150288000Y-90781200D01*
X150288000Y-90781200D02*
X150388000Y-90881200D01*
X150388000Y-90881200D02*
X148271000Y-90881200D01*
X148271000Y-90881200D02*
X148259800Y-90892400D01*
X148259800Y-90892400D02*
X148259800Y-89281000D01*
X147726400Y-88747600D02*
X145999200Y-88747600D01*
X148259800Y-89281000D02*
X147726400Y-88747600D01*
X155056800Y-80985360D02*
X155056800Y-84272400D01*
X155056800Y-84272400D02*
X155061600Y-84277200D01*
X145999200Y-97231200D02*
X150872200Y-97231200D01*
X150872200Y-97231200D02*
X151710400Y-98069400D01*
X155056800Y-80985360D02*
X152994360Y-80985360D01*
X152915620Y-80906620D02*
X152915620Y-79984600D01*
X152994360Y-80985360D02*
X152915620Y-80906620D01*
X155061600Y-84277200D02*
X155061600Y-91420000D01*
X152933400Y-95758000D02*
X151667200Y-95758000D01*
X153085800Y-95605600D02*
X152933400Y-95758000D01*
X153085800Y-92329000D02*
X153085800Y-95605600D01*
X153365200Y-92049600D02*
X153085800Y-92329000D01*
X154432000Y-92049600D02*
X153365200Y-92049600D01*
X155061600Y-91420000D02*
X154432000Y-92049600D01*
X151667200Y-95758000D02*
X151667200Y-98026200D01*
X151667200Y-98026200D02*
X151710400Y-98069400D01*
X139649200Y-84937600D02*
X141046200Y-84937600D01*
X141478000Y-85369400D02*
X141478000Y-90928200D01*
X141046200Y-84937600D02*
X141478000Y-85369400D01*
X136804400Y-84121000D02*
X139340600Y-84121000D01*
X139649200Y-84429600D02*
X139649200Y-84937600D01*
X139340600Y-84121000D02*
X139649200Y-84429600D01*
X134289800Y-84195600D02*
X136729800Y-84195600D01*
X136729800Y-84195600D02*
X136804400Y-84121000D01*
X145999200Y-98501200D02*
X144627600Y-98501200D01*
X144647600Y-101543800D02*
X146278600Y-101543800D01*
X144297400Y-101193600D02*
X144647600Y-101543800D01*
X144297400Y-98831400D02*
X144297400Y-101193600D01*
X144627600Y-98501200D02*
X144297400Y-98831400D01*
X150338800Y-101523800D02*
X146298600Y-101523800D01*
X146298600Y-101523800D02*
X146278600Y-101543800D01*
X150364200Y-104114600D02*
X150364200Y-101549200D01*
X150364200Y-101549200D02*
X150338800Y-101523800D01*
X132334000Y-98145600D02*
X132334000Y-103956800D01*
X132334000Y-103956800D02*
X132364800Y-103987600D01*
X139649200Y-97231200D02*
X132689600Y-97231200D01*
X132689600Y-97231200D02*
X132334000Y-97586800D01*
X132334000Y-97586800D02*
X132334000Y-98145600D01*
D28*
X175240000Y-96469200D02*
X175240000Y-97937000D01*
X175240000Y-97937000D02*
X173888400Y-99288600D01*
X173888400Y-99288600D02*
X170260000Y-99288600D01*
X170260000Y-99288600D02*
X170256200Y-99284800D01*
D27*
X170260000Y-99288600D02*
X170256200Y-99284800D01*
D28*
X129159000Y-98675200D02*
X129159000Y-100025200D01*
X131085600Y-95910400D02*
X132435600Y-95910400D01*
X153064200Y-104114600D02*
X151688800Y-104114600D01*
X166174420Y-93014800D02*
X166174420Y-94658180D01*
X166174420Y-94658180D02*
X166166800Y-94665800D01*
X173888400Y-103860600D02*
X173888400Y-101600000D01*
X160629600Y-88167200D02*
X160629600Y-86817200D01*
X163042600Y-82630000D02*
X161395400Y-82630000D01*
X161395400Y-82630000D02*
X161391600Y-82626200D01*
X148967200Y-95758000D02*
X150317200Y-95758000D01*
X141448800Y-80518000D02*
X139700000Y-80518000D01*
X143764000Y-90953600D02*
X143764000Y-88773000D01*
X133905000Y-91186000D02*
X135255000Y-91186000D01*
X128828800Y-80844400D02*
X128828800Y-79222600D01*
X178765200Y-88112600D02*
X177038000Y-88112600D01*
X181172800Y-96545400D02*
X181172800Y-94040000D01*
X181172800Y-94040000D02*
X181203600Y-94009200D01*
X181203600Y-94009200D02*
X181203600Y-92659200D01*
D27*
X181072800Y-94056200D02*
X181051200Y-94034600D01*
X149926000Y-84515960D02*
X148605240Y-84515960D01*
X142646400Y-86182200D02*
X142646400Y-92292400D01*
X143256000Y-85572600D02*
X142646400Y-86182200D01*
X147548600Y-85572600D02*
X143256000Y-85572600D01*
X148605240Y-84515960D02*
X147548600Y-85572600D01*
X148259800Y-92292400D02*
X142646400Y-92292400D01*
X142646400Y-92292400D02*
X142595600Y-92292400D01*
X142595600Y-92292400D02*
X140422400Y-92292400D01*
X139649200Y-93065600D02*
X139649200Y-95961200D01*
X140422400Y-92292400D02*
X139649200Y-93065600D01*
X133785600Y-95910400D02*
X136648200Y-95910400D01*
X136648200Y-95910400D02*
X136699000Y-95961200D01*
X136699000Y-95961200D02*
X139649200Y-95961200D01*
D28*
X170256200Y-101984800D02*
X168654600Y-101984800D01*
X168654600Y-101984800D02*
X167152200Y-100482400D01*
D27*
X163042600Y-79930000D02*
X170176200Y-79930000D01*
X170176200Y-79930000D02*
X170205400Y-79959200D01*
X161018220Y-79933800D02*
X163038800Y-79933800D01*
X163038800Y-79933800D02*
X163042600Y-79930000D01*
X150916640Y-80934600D02*
X150916640Y-82476340D01*
X150916640Y-82476340D02*
X150876000Y-82516980D01*
X154410400Y-93294200D02*
X154410400Y-98069400D01*
X145999200Y-99771200D02*
X153695400Y-99771200D01*
X154410400Y-99056200D02*
X154410400Y-98069400D01*
X153695400Y-99771200D02*
X154410400Y-99056200D01*
X145999200Y-87477600D02*
X151333200Y-87477600D01*
X151638000Y-87782400D02*
X151638000Y-93221800D01*
X151333200Y-87477600D02*
X151638000Y-87782400D01*
X151638000Y-93221800D02*
X151710400Y-93294200D01*
X145999200Y-87477600D02*
X145999200Y-86207600D01*
X174777400Y-79959200D02*
X174777400Y-81965800D01*
X174421800Y-82321400D02*
X167763200Y-82321400D01*
X174777400Y-81965800D02*
X174421800Y-82321400D01*
X167763200Y-82321400D02*
X167309800Y-82774800D01*
X163042600Y-85441800D02*
X167276800Y-85441800D01*
X167276800Y-85441800D02*
X167309800Y-85474800D01*
X163042600Y-85441800D02*
X160655000Y-85441800D01*
X160655000Y-85441800D02*
X160629600Y-85467200D01*
X159019240Y-78983800D02*
X159882800Y-78983800D01*
X160096200Y-79197200D02*
X160096200Y-84933800D01*
X159882800Y-78983800D02*
X160096200Y-79197200D01*
X160096200Y-84933800D02*
X160629600Y-85467200D01*
X159019240Y-78983800D02*
X156009380Y-78983800D01*
X156009380Y-78983800D02*
X156006800Y-78986380D01*
X156006800Y-78986380D02*
X150964860Y-78986380D01*
X150964860Y-78986380D02*
X150916640Y-79034600D01*
X175187600Y-93345000D02*
X177241160Y-93345000D01*
X177241160Y-93345000D02*
X177256400Y-93329760D01*
X175187600Y-91135200D02*
X175187600Y-93345000D01*
X139649200Y-98501200D02*
X136757400Y-98501200D01*
X136757400Y-98501200D02*
X136652000Y-98606600D01*
X141478000Y-93628200D02*
X141478000Y-98069400D01*
X141046200Y-98501200D02*
X139649200Y-98501200D01*
X141478000Y-98069400D02*
X141046200Y-98501200D01*
X152988000Y-86487000D02*
X152988000Y-88671400D01*
X131333240Y-101386640D02*
X129170440Y-101386640D01*
X129170440Y-101386640D02*
X129159000Y-101375200D01*
X136626600Y-104118400D02*
X139369800Y-104118400D01*
X133334760Y-101386640D02*
X136594840Y-101386640D01*
X136594840Y-101386640D02*
X136626600Y-101418400D01*
X172487600Y-91135200D02*
X172487600Y-86313000D01*
X172487600Y-86313000D02*
X172491400Y-86309200D01*
X172487600Y-86313000D02*
X172491400Y-86309200D01*
X181178200Y-91334600D02*
X181178200Y-81889600D01*
X181178200Y-81889600D02*
X181051200Y-81762600D01*
X178206400Y-91330780D02*
X181174380Y-91330780D01*
X181174380Y-91330780D02*
X181178200Y-91334600D01*
D29*
G36*
X185231082Y-77058878D02*
X185286255Y-77095745D01*
X185323121Y-77150918D01*
X185345000Y-77260911D01*
X185345000Y-105111089D01*
X185323121Y-105221082D01*
X185286255Y-105276255D01*
X185231082Y-105313122D01*
X185121090Y-105335000D01*
X147256363Y-105335000D01*
X147263299Y-105332127D01*
X147441927Y-105153498D01*
X147538600Y-104920109D01*
X147538600Y-104329550D01*
X147379850Y-104170800D01*
X146405600Y-104170800D01*
X146405600Y-104190800D01*
X146151600Y-104190800D01*
X146151600Y-104170800D01*
X145177350Y-104170800D01*
X145018600Y-104329550D01*
X145018600Y-104920109D01*
X145115273Y-105153498D01*
X145293901Y-105332127D01*
X145300837Y-105335000D01*
X116376911Y-105335000D01*
X116266918Y-105313121D01*
X116211745Y-105276255D01*
X116174878Y-105221082D01*
X116153000Y-105111090D01*
X116153000Y-104273350D01*
X128479800Y-104273350D01*
X128479800Y-104738910D01*
X128576473Y-104972299D01*
X128755102Y-105150927D01*
X128988491Y-105247600D01*
X129579050Y-105247600D01*
X129737800Y-105088850D01*
X129737800Y-104114600D01*
X128638550Y-104114600D01*
X128479800Y-104273350D01*
X116153000Y-104273350D01*
X116153000Y-103236290D01*
X128479800Y-103236290D01*
X128479800Y-103701850D01*
X128638550Y-103860600D01*
X129737800Y-103860600D01*
X129737800Y-102886350D01*
X129579050Y-102727600D01*
X128988491Y-102727600D01*
X128755102Y-102824273D01*
X128576473Y-103002901D01*
X128479800Y-103236290D01*
X116153000Y-103236290D01*
X116153000Y-100115400D01*
X118737536Y-100115400D01*
X118737536Y-102515400D01*
X118764103Y-102656590D01*
X118847546Y-102786265D01*
X118974866Y-102873259D01*
X119126000Y-102903864D01*
X125476000Y-102903864D01*
X125617190Y-102877297D01*
X125746865Y-102793854D01*
X125833859Y-102666534D01*
X125864464Y-102515400D01*
X125864464Y-101821400D01*
X126105842Y-101821400D01*
X126156541Y-101872187D01*
X126406746Y-101976082D01*
X126677665Y-101976318D01*
X126928052Y-101872861D01*
X127119787Y-101681459D01*
X127223682Y-101431254D01*
X127223918Y-101160335D01*
X127120461Y-100909948D01*
X126929059Y-100718213D01*
X126678854Y-100614318D01*
X126407935Y-100614082D01*
X126157548Y-100717539D01*
X126065527Y-100809400D01*
X125864464Y-100809400D01*
X125864464Y-100115400D01*
X125837897Y-99974210D01*
X125754454Y-99844535D01*
X125627134Y-99757541D01*
X125476000Y-99726936D01*
X119126000Y-99726936D01*
X118984810Y-99753503D01*
X118855135Y-99836946D01*
X118768141Y-99964266D01*
X118737536Y-100115400D01*
X116153000Y-100115400D01*
X116153000Y-97925200D01*
X128120536Y-97925200D01*
X128120536Y-99425200D01*
X128147103Y-99566390D01*
X128230546Y-99696065D01*
X128357866Y-99783059D01*
X128509000Y-99813664D01*
X128509461Y-99813664D01*
X128478118Y-99889146D01*
X128477882Y-100160065D01*
X128509562Y-100236736D01*
X128509000Y-100236736D01*
X128367810Y-100263303D01*
X128238135Y-100346746D01*
X128151141Y-100474066D01*
X128120536Y-100625200D01*
X128120536Y-102125200D01*
X128147103Y-102266390D01*
X128230546Y-102396065D01*
X128357866Y-102483059D01*
X128509000Y-102513664D01*
X129809000Y-102513664D01*
X129950190Y-102487097D01*
X130079865Y-102403654D01*
X130166859Y-102276334D01*
X130197464Y-102125200D01*
X130197464Y-101892640D01*
X130345336Y-101892640D01*
X130345336Y-101986080D01*
X130371903Y-102127270D01*
X130455346Y-102256945D01*
X130582666Y-102343939D01*
X130733800Y-102374544D01*
X131828000Y-102374544D01*
X131828000Y-102974136D01*
X131614800Y-102974136D01*
X131473610Y-103000703D01*
X131343935Y-103084146D01*
X131256941Y-103211466D01*
X131249800Y-103246730D01*
X131249800Y-103236290D01*
X131153127Y-103002901D01*
X130974498Y-102824273D01*
X130741109Y-102727600D01*
X130150550Y-102727600D01*
X129991800Y-102886350D01*
X129991800Y-103860600D01*
X130011800Y-103860600D01*
X130011800Y-104114600D01*
X129991800Y-104114600D01*
X129991800Y-105088850D01*
X130150550Y-105247600D01*
X130741109Y-105247600D01*
X130974498Y-105150927D01*
X131153127Y-104972299D01*
X131249800Y-104738910D01*
X131249800Y-104737299D01*
X131252903Y-104753790D01*
X131336346Y-104883465D01*
X131463666Y-104970459D01*
X131614800Y-105001064D01*
X133114800Y-105001064D01*
X133255990Y-104974497D01*
X133385665Y-104891054D01*
X133472659Y-104763734D01*
X133503264Y-104612600D01*
X133503264Y-103368400D01*
X135588136Y-103368400D01*
X135588136Y-104868400D01*
X135614703Y-105009590D01*
X135698146Y-105139265D01*
X135825466Y-105226259D01*
X135976600Y-105256864D01*
X137276600Y-105256864D01*
X137417790Y-105230297D01*
X137547465Y-105146854D01*
X137634459Y-105019534D01*
X137665064Y-104868400D01*
X137665064Y-104624400D01*
X138331336Y-104624400D01*
X138331336Y-104868400D01*
X138357903Y-105009590D01*
X138441346Y-105139265D01*
X138568666Y-105226259D01*
X138719800Y-105256864D01*
X140019800Y-105256864D01*
X140160990Y-105230297D01*
X140290665Y-105146854D01*
X140377659Y-105019534D01*
X140408264Y-104868400D01*
X140408264Y-103368400D01*
X140381697Y-103227210D01*
X140298254Y-103097535D01*
X140170934Y-103010541D01*
X140019800Y-102979936D01*
X138719800Y-102979936D01*
X138578610Y-103006503D01*
X138448935Y-103089946D01*
X138361941Y-103217266D01*
X138331336Y-103368400D01*
X138331336Y-103612400D01*
X137665064Y-103612400D01*
X137665064Y-103368400D01*
X137638497Y-103227210D01*
X137555054Y-103097535D01*
X137427734Y-103010541D01*
X137276600Y-102979936D01*
X135976600Y-102979936D01*
X135835410Y-103006503D01*
X135705735Y-103089946D01*
X135618741Y-103217266D01*
X135588136Y-103368400D01*
X133503264Y-103368400D01*
X133503264Y-103362600D01*
X133476697Y-103221410D01*
X133393254Y-103091735D01*
X133265934Y-103004741D01*
X133114800Y-102974136D01*
X132840000Y-102974136D01*
X132840000Y-102374544D01*
X133934200Y-102374544D01*
X134075390Y-102347977D01*
X134205065Y-102264534D01*
X134292059Y-102137214D01*
X134322664Y-101986080D01*
X134322664Y-101892640D01*
X135588136Y-101892640D01*
X135588136Y-102168400D01*
X135614703Y-102309590D01*
X135698146Y-102439265D01*
X135825466Y-102526259D01*
X135976600Y-102556864D01*
X137276600Y-102556864D01*
X137417790Y-102530297D01*
X137547465Y-102446854D01*
X137634459Y-102319534D01*
X137665064Y-102168400D01*
X137665064Y-101704150D01*
X138084800Y-101704150D01*
X138084800Y-102294709D01*
X138181473Y-102528098D01*
X138360101Y-102706727D01*
X138593490Y-102803400D01*
X139084050Y-102803400D01*
X139242800Y-102644650D01*
X139242800Y-101545400D01*
X139496800Y-101545400D01*
X139496800Y-102644650D01*
X139655550Y-102803400D01*
X140146110Y-102803400D01*
X140379499Y-102706727D01*
X140558127Y-102528098D01*
X140654800Y-102294709D01*
X140654800Y-101704150D01*
X140496050Y-101545400D01*
X139496800Y-101545400D01*
X139242800Y-101545400D01*
X138243550Y-101545400D01*
X138084800Y-101704150D01*
X137665064Y-101704150D01*
X137665064Y-100668400D01*
X137641298Y-100542091D01*
X138084800Y-100542091D01*
X138084800Y-101132650D01*
X138243550Y-101291400D01*
X139242800Y-101291400D01*
X139242800Y-101271400D01*
X139496800Y-101271400D01*
X139496800Y-101291400D01*
X140496050Y-101291400D01*
X140654800Y-101132650D01*
X140654800Y-100542091D01*
X140639287Y-100504639D01*
X140759027Y-100384898D01*
X140855700Y-100151509D01*
X140855700Y-100056950D01*
X140696950Y-99898200D01*
X139776200Y-99898200D01*
X139776200Y-99918200D01*
X139522200Y-99918200D01*
X139522200Y-99898200D01*
X138601450Y-99898200D01*
X138442700Y-100056950D01*
X138442700Y-100095859D01*
X138360101Y-100130073D01*
X138181473Y-100308702D01*
X138084800Y-100542091D01*
X137641298Y-100542091D01*
X137638497Y-100527210D01*
X137555054Y-100397535D01*
X137427734Y-100310541D01*
X137276600Y-100279936D01*
X135976600Y-100279936D01*
X135835410Y-100306503D01*
X135705735Y-100389946D01*
X135618741Y-100517266D01*
X135588136Y-100668400D01*
X135588136Y-100880640D01*
X134322664Y-100880640D01*
X134322664Y-100787200D01*
X134296097Y-100646010D01*
X134212654Y-100516335D01*
X134085334Y-100429341D01*
X133934200Y-100398736D01*
X132840000Y-100398736D01*
X132840000Y-99284634D01*
X133134100Y-99284634D01*
X133275290Y-99258067D01*
X133404965Y-99174624D01*
X133491959Y-99047304D01*
X133522564Y-98896170D01*
X133522564Y-97737200D01*
X135637715Y-97737200D01*
X135613536Y-97856600D01*
X135613536Y-99356600D01*
X135640103Y-99497790D01*
X135723546Y-99627465D01*
X135850866Y-99714459D01*
X136002000Y-99745064D01*
X137302000Y-99745064D01*
X137443190Y-99718497D01*
X137572865Y-99635054D01*
X137659859Y-99507734D01*
X137690464Y-99356600D01*
X137690464Y-99007200D01*
X138689674Y-99007200D01*
X138539373Y-99157502D01*
X138442700Y-99390891D01*
X138442700Y-99485450D01*
X138601450Y-99644200D01*
X139522200Y-99644200D01*
X139522200Y-99624200D01*
X139776200Y-99624200D01*
X139776200Y-99644200D01*
X140696950Y-99644200D01*
X140855700Y-99485450D01*
X140855700Y-99390891D01*
X140759027Y-99157502D01*
X140608726Y-99007200D01*
X141046200Y-99007200D01*
X141239838Y-98968683D01*
X141403996Y-98858996D01*
X141835796Y-98427196D01*
X141945483Y-98263038D01*
X141984000Y-98069400D01*
X141984000Y-94766664D01*
X142128000Y-94766664D01*
X142269190Y-94740097D01*
X142398865Y-94656654D01*
X142485859Y-94529334D01*
X142516464Y-94378200D01*
X142516464Y-92878200D01*
X142501448Y-92798400D01*
X142746839Y-92798400D01*
X142725536Y-92903600D01*
X142725536Y-94403600D01*
X142752103Y-94544790D01*
X142835546Y-94674465D01*
X142962866Y-94761459D01*
X143114000Y-94792064D01*
X144414000Y-94792064D01*
X144555190Y-94765497D01*
X144684865Y-94682054D01*
X144771859Y-94554734D01*
X144802464Y-94403600D01*
X144802464Y-94284600D01*
X145011136Y-94284600D01*
X145011136Y-94329000D01*
X145037703Y-94470190D01*
X145121146Y-94599865D01*
X145248466Y-94686859D01*
X145368200Y-94711105D01*
X145368200Y-95329932D01*
X145286510Y-95345303D01*
X145156835Y-95428746D01*
X145069841Y-95556066D01*
X145039236Y-95707200D01*
X145039236Y-96215200D01*
X145065803Y-96356390D01*
X145149246Y-96486065D01*
X145276566Y-96573059D01*
X145389488Y-96595926D01*
X145286510Y-96615303D01*
X145156835Y-96698746D01*
X145069841Y-96826066D01*
X145039236Y-96977200D01*
X145039236Y-97485200D01*
X145065803Y-97626390D01*
X145149246Y-97756065D01*
X145276566Y-97843059D01*
X145389488Y-97865926D01*
X145286510Y-97885303D01*
X145156835Y-97968746D01*
X145138760Y-97995200D01*
X144627600Y-97995200D01*
X144433962Y-98033717D01*
X144269804Y-98143404D01*
X143939604Y-98473604D01*
X143829917Y-98637762D01*
X143791400Y-98831400D01*
X143791400Y-101193600D01*
X143829917Y-101387238D01*
X143939604Y-101551396D01*
X144289804Y-101901596D01*
X144453962Y-102011283D01*
X144647600Y-102049800D01*
X145265136Y-102049800D01*
X145265136Y-102293800D01*
X145291703Y-102434990D01*
X145375146Y-102564665D01*
X145502466Y-102651659D01*
X145537730Y-102658800D01*
X145527290Y-102658800D01*
X145293901Y-102755473D01*
X145115273Y-102934102D01*
X145018600Y-103167491D01*
X145018600Y-103758050D01*
X145177350Y-103916800D01*
X146151600Y-103916800D01*
X146151600Y-103896800D01*
X146405600Y-103896800D01*
X146405600Y-103916800D01*
X147379850Y-103916800D01*
X147538600Y-103758050D01*
X147538600Y-103167491D01*
X147441927Y-102934102D01*
X147263299Y-102755473D01*
X147029910Y-102658800D01*
X147028299Y-102658800D01*
X147044790Y-102655697D01*
X147174465Y-102572254D01*
X147261459Y-102444934D01*
X147292064Y-102293800D01*
X147292064Y-102029800D01*
X149200336Y-102029800D01*
X149200336Y-102173800D01*
X149226903Y-102314990D01*
X149310346Y-102444665D01*
X149437666Y-102531659D01*
X149588800Y-102562264D01*
X149858200Y-102562264D01*
X149858200Y-103076136D01*
X149614200Y-103076136D01*
X149473010Y-103102703D01*
X149343335Y-103186146D01*
X149256341Y-103313466D01*
X149225736Y-103464600D01*
X149225736Y-104764600D01*
X149252303Y-104905790D01*
X149335746Y-105035465D01*
X149463066Y-105122459D01*
X149614200Y-105153064D01*
X151114200Y-105153064D01*
X151255390Y-105126497D01*
X151385065Y-105043054D01*
X151472059Y-104915734D01*
X151500780Y-104773904D01*
X151552746Y-104795482D01*
X151823665Y-104795718D01*
X151925736Y-104753543D01*
X151925736Y-104764600D01*
X151952303Y-104905790D01*
X152035746Y-105035465D01*
X152163066Y-105122459D01*
X152314200Y-105153064D01*
X153814200Y-105153064D01*
X153955390Y-105126497D01*
X154085065Y-105043054D01*
X154172059Y-104915734D01*
X154202664Y-104764600D01*
X154202664Y-103464600D01*
X154176097Y-103323410D01*
X154092654Y-103193735D01*
X153965334Y-103106741D01*
X153814200Y-103076136D01*
X152314200Y-103076136D01*
X152173010Y-103102703D01*
X152043335Y-103186146D01*
X151956341Y-103313466D01*
X151925736Y-103464600D01*
X151925736Y-103475608D01*
X151824854Y-103433718D01*
X151553935Y-103433482D01*
X151500930Y-103455383D01*
X151476097Y-103323410D01*
X151392654Y-103193735D01*
X151265334Y-103106741D01*
X151114200Y-103076136D01*
X150870200Y-103076136D01*
X150870200Y-102562264D01*
X151088800Y-102562264D01*
X151229990Y-102535697D01*
X151359665Y-102452254D01*
X151446659Y-102324934D01*
X151477264Y-102173800D01*
X151477264Y-101809550D01*
X151653800Y-101809550D01*
X151653800Y-102300110D01*
X151750473Y-102533499D01*
X151929102Y-102712127D01*
X152162491Y-102808800D01*
X152753050Y-102808800D01*
X152911800Y-102650050D01*
X152911800Y-101650800D01*
X153165800Y-101650800D01*
X153165800Y-102650050D01*
X153324550Y-102808800D01*
X153915109Y-102808800D01*
X154148498Y-102712127D01*
X154327127Y-102533499D01*
X154423800Y-102300110D01*
X154423800Y-101809550D01*
X154265050Y-101650800D01*
X153165800Y-101650800D01*
X152911800Y-101650800D01*
X151812550Y-101650800D01*
X151653800Y-101809550D01*
X151477264Y-101809550D01*
X151477264Y-100873800D01*
X151450697Y-100732610D01*
X151367254Y-100602935D01*
X151239934Y-100515941D01*
X151088800Y-100485336D01*
X149588800Y-100485336D01*
X149447610Y-100511903D01*
X149317935Y-100595346D01*
X149230941Y-100722666D01*
X149200336Y-100873800D01*
X149200336Y-101017800D01*
X147292064Y-101017800D01*
X147292064Y-100793800D01*
X147265497Y-100652610D01*
X147182054Y-100522935D01*
X147054734Y-100435941D01*
X146903600Y-100405336D01*
X146614959Y-100405336D01*
X146711890Y-100387097D01*
X146841565Y-100303654D01*
X146859640Y-100277200D01*
X152069785Y-100277200D01*
X151929102Y-100335473D01*
X151750473Y-100514101D01*
X151653800Y-100747490D01*
X151653800Y-101238050D01*
X151812550Y-101396800D01*
X152911800Y-101396800D01*
X152911800Y-101376800D01*
X153165800Y-101376800D01*
X153165800Y-101396800D01*
X154265050Y-101396800D01*
X154423800Y-101238050D01*
X154423800Y-100768150D01*
X158317200Y-100768150D01*
X158317200Y-103783710D01*
X158413873Y-104017099D01*
X158592502Y-104195727D01*
X158825891Y-104292400D01*
X159866450Y-104292400D01*
X160025200Y-104133650D01*
X160025200Y-100609400D01*
X160279200Y-100609400D01*
X160279200Y-104133650D01*
X160437950Y-104292400D01*
X161478509Y-104292400D01*
X161711898Y-104195727D01*
X161890527Y-104017099D01*
X161987200Y-103783710D01*
X161987200Y-100768150D01*
X161828450Y-100609400D01*
X160279200Y-100609400D01*
X160025200Y-100609400D01*
X158475950Y-100609400D01*
X158317200Y-100768150D01*
X154423800Y-100768150D01*
X154423800Y-100747490D01*
X154327127Y-100514101D01*
X154148498Y-100335473D01*
X153915109Y-100238800D01*
X153888450Y-100238800D01*
X153889038Y-100238683D01*
X154053196Y-100128996D01*
X154768196Y-99413996D01*
X154867618Y-99265200D01*
X154877883Y-99249838D01*
X154906123Y-99107864D01*
X155160400Y-99107864D01*
X155301590Y-99081297D01*
X155431265Y-98997854D01*
X155518259Y-98870534D01*
X155548864Y-98719400D01*
X155548864Y-97419400D01*
X155522297Y-97278210D01*
X155459803Y-97181090D01*
X158317200Y-97181090D01*
X158317200Y-100196650D01*
X158475950Y-100355400D01*
X160025200Y-100355400D01*
X160025200Y-96831150D01*
X160279200Y-96831150D01*
X160279200Y-100355400D01*
X161828450Y-100355400D01*
X161987200Y-100196650D01*
X161987200Y-97307400D01*
X165563736Y-97307400D01*
X165563736Y-103657400D01*
X165590303Y-103798590D01*
X165673746Y-103928265D01*
X165801066Y-104015259D01*
X165952200Y-104045864D01*
X168352200Y-104045864D01*
X168493390Y-104019297D01*
X168623065Y-103935854D01*
X168710059Y-103808534D01*
X168740664Y-103657400D01*
X168740664Y-102615800D01*
X169217736Y-102615800D01*
X169217736Y-102734800D01*
X169244303Y-102875990D01*
X169327746Y-103005665D01*
X169455066Y-103092659D01*
X169606200Y-103123264D01*
X170906200Y-103123264D01*
X171047390Y-103096697D01*
X171143115Y-103035100D01*
X171975936Y-103035100D01*
X171975936Y-104686100D01*
X172002503Y-104827290D01*
X172085946Y-104956965D01*
X172213266Y-105043959D01*
X172364400Y-105074564D01*
X175412400Y-105074564D01*
X175553590Y-105047997D01*
X175683265Y-104964554D01*
X175770259Y-104837234D01*
X175800864Y-104686100D01*
X175800864Y-103035100D01*
X175774297Y-102893910D01*
X175690854Y-102764235D01*
X175563534Y-102677241D01*
X175412400Y-102646636D01*
X174519400Y-102646636D01*
X174519400Y-101860350D01*
X176555400Y-101860350D01*
X176555400Y-104748909D01*
X176652073Y-104982298D01*
X176830701Y-105160927D01*
X177064090Y-105257600D01*
X179952650Y-105257600D01*
X180111400Y-105098850D01*
X180111400Y-101701600D01*
X180365400Y-101701600D01*
X180365400Y-105098850D01*
X180524150Y-105257600D01*
X183412710Y-105257600D01*
X183646099Y-105160927D01*
X183824727Y-104982298D01*
X183921400Y-104748909D01*
X183921400Y-101860350D01*
X183762650Y-101701600D01*
X180365400Y-101701600D01*
X180111400Y-101701600D01*
X176714150Y-101701600D01*
X176555400Y-101860350D01*
X174519400Y-101860350D01*
X174519400Y-101856182D01*
X174569282Y-101736054D01*
X174569518Y-101465135D01*
X174466061Y-101214748D01*
X174274659Y-101023013D01*
X174024454Y-100919118D01*
X173753535Y-100918882D01*
X173503148Y-101022339D01*
X173311413Y-101213741D01*
X173207518Y-101463946D01*
X173207282Y-101734865D01*
X173257400Y-101856161D01*
X173257400Y-102646636D01*
X172364400Y-102646636D01*
X172223210Y-102673203D01*
X172093535Y-102756646D01*
X172006541Y-102883966D01*
X171975936Y-103035100D01*
X171143115Y-103035100D01*
X171177065Y-103013254D01*
X171264059Y-102885934D01*
X171294664Y-102734800D01*
X171294664Y-101234800D01*
X171268097Y-101093610D01*
X171184654Y-100963935D01*
X171057334Y-100876941D01*
X170906200Y-100846336D01*
X169606200Y-100846336D01*
X169465010Y-100872903D01*
X169335335Y-100956346D01*
X169248341Y-101083666D01*
X169217736Y-101234800D01*
X169217736Y-101353800D01*
X168915969Y-101353800D01*
X168740664Y-101178495D01*
X168740664Y-98534800D01*
X169217736Y-98534800D01*
X169217736Y-100034800D01*
X169244303Y-100175990D01*
X169327746Y-100305665D01*
X169455066Y-100392659D01*
X169606200Y-100423264D01*
X170906200Y-100423264D01*
X171047390Y-100396697D01*
X171177065Y-100313254D01*
X171264059Y-100185934D01*
X171294664Y-100034800D01*
X171294664Y-99919600D01*
X171975936Y-99919600D01*
X171975936Y-100114100D01*
X172002503Y-100255290D01*
X172085946Y-100384965D01*
X172213266Y-100471959D01*
X172364400Y-100502564D01*
X175412400Y-100502564D01*
X175553590Y-100475997D01*
X175683265Y-100392554D01*
X175770259Y-100265234D01*
X175800864Y-100114100D01*
X175800864Y-98463100D01*
X175789046Y-98400291D01*
X176555400Y-98400291D01*
X176555400Y-101288850D01*
X176714150Y-101447600D01*
X180111400Y-101447600D01*
X180111400Y-98050350D01*
X180365400Y-98050350D01*
X180365400Y-101447600D01*
X183762650Y-101447600D01*
X183921400Y-101288850D01*
X183921400Y-98400291D01*
X183824727Y-98166902D01*
X183646099Y-97988273D01*
X183412710Y-97891600D01*
X180524150Y-97891600D01*
X180365400Y-98050350D01*
X180111400Y-98050350D01*
X179952650Y-97891600D01*
X177064090Y-97891600D01*
X176830701Y-97988273D01*
X176652073Y-98166902D01*
X176555400Y-98400291D01*
X175789046Y-98400291D01*
X175774297Y-98321910D01*
X175751156Y-98285947D01*
X175822968Y-98178473D01*
X175829944Y-98143404D01*
X175871000Y-97937000D01*
X175871000Y-97482664D01*
X175990000Y-97482664D01*
X176131190Y-97456097D01*
X176260865Y-97372654D01*
X176347859Y-97245334D01*
X176378464Y-97094200D01*
X176378464Y-95844200D01*
X176351897Y-95703010D01*
X176268454Y-95573335D01*
X176141134Y-95486341D01*
X175990000Y-95455736D01*
X174490000Y-95455736D01*
X174348810Y-95482303D01*
X174219135Y-95565746D01*
X174132141Y-95693066D01*
X174125000Y-95728330D01*
X174125000Y-95717890D01*
X174028327Y-95484501D01*
X173849698Y-95305873D01*
X173616309Y-95209200D01*
X173025750Y-95209200D01*
X172867000Y-95367950D01*
X172867000Y-96342200D01*
X172887000Y-96342200D01*
X172887000Y-96596200D01*
X172867000Y-96596200D01*
X172867000Y-97570450D01*
X173025750Y-97729200D01*
X173616309Y-97729200D01*
X173849698Y-97632527D01*
X174028327Y-97453899D01*
X174125000Y-97220510D01*
X174125000Y-97218899D01*
X174128103Y-97235390D01*
X174211546Y-97365065D01*
X174338866Y-97452059D01*
X174490000Y-97482664D01*
X174609000Y-97482664D01*
X174609000Y-97675632D01*
X174209996Y-98074636D01*
X172364400Y-98074636D01*
X172223210Y-98101203D01*
X172093535Y-98184646D01*
X172006541Y-98311966D01*
X171975936Y-98463100D01*
X171975936Y-98657600D01*
X171294664Y-98657600D01*
X171294664Y-98534800D01*
X171268097Y-98393610D01*
X171184654Y-98263935D01*
X171057334Y-98176941D01*
X170906200Y-98146336D01*
X169606200Y-98146336D01*
X169465010Y-98172903D01*
X169335335Y-98256346D01*
X169248341Y-98383666D01*
X169217736Y-98534800D01*
X168740664Y-98534800D01*
X168740664Y-97307400D01*
X168714097Y-97166210D01*
X168630654Y-97036535D01*
X168503334Y-96949541D01*
X168352200Y-96918936D01*
X165952200Y-96918936D01*
X165811010Y-96945503D01*
X165681335Y-97028946D01*
X165594341Y-97156266D01*
X165563736Y-97307400D01*
X161987200Y-97307400D01*
X161987200Y-97181090D01*
X161890527Y-96947701D01*
X161711898Y-96769073D01*
X161677803Y-96754950D01*
X171355000Y-96754950D01*
X171355000Y-97220510D01*
X171451673Y-97453899D01*
X171630302Y-97632527D01*
X171863691Y-97729200D01*
X172454250Y-97729200D01*
X172613000Y-97570450D01*
X172613000Y-96596200D01*
X171513750Y-96596200D01*
X171355000Y-96754950D01*
X161677803Y-96754950D01*
X161478509Y-96672400D01*
X160437950Y-96672400D01*
X160279200Y-96831150D01*
X160025200Y-96831150D01*
X159866450Y-96672400D01*
X158825891Y-96672400D01*
X158592502Y-96769073D01*
X158413873Y-96947701D01*
X158317200Y-97181090D01*
X155459803Y-97181090D01*
X155438854Y-97148535D01*
X155311534Y-97061541D01*
X155160400Y-97030936D01*
X154916400Y-97030936D01*
X154916400Y-95717890D01*
X171355000Y-95717890D01*
X171355000Y-96183450D01*
X171513750Y-96342200D01*
X172613000Y-96342200D01*
X172613000Y-95367950D01*
X172454250Y-95209200D01*
X171863691Y-95209200D01*
X171630302Y-95305873D01*
X171451673Y-95484501D01*
X171355000Y-95717890D01*
X154916400Y-95717890D01*
X154916400Y-94332664D01*
X155160400Y-94332664D01*
X155301590Y-94306097D01*
X155431265Y-94222654D01*
X155518259Y-94095334D01*
X155548864Y-93944200D01*
X155548864Y-93300550D01*
X158238190Y-93300550D01*
X158238190Y-93941210D01*
X158334863Y-94174599D01*
X158513492Y-94353227D01*
X158746881Y-94449900D01*
X160387030Y-94449900D01*
X160545780Y-94291150D01*
X160545780Y-93141800D01*
X160799780Y-93141800D01*
X160799780Y-94291150D01*
X160958530Y-94449900D01*
X162598679Y-94449900D01*
X162832068Y-94353227D01*
X163010697Y-94174599D01*
X163107370Y-93941210D01*
X163107370Y-93300550D01*
X162948620Y-93141800D01*
X160799780Y-93141800D01*
X160545780Y-93141800D01*
X158396940Y-93141800D01*
X158238190Y-93300550D01*
X155548864Y-93300550D01*
X155548864Y-92644200D01*
X155522297Y-92503010D01*
X155438854Y-92373335D01*
X155311534Y-92286341D01*
X155160400Y-92255736D01*
X154941456Y-92255736D01*
X155108802Y-92088390D01*
X158238190Y-92088390D01*
X158238190Y-92729050D01*
X158396940Y-92887800D01*
X160545780Y-92887800D01*
X160545780Y-91738450D01*
X160799780Y-91738450D01*
X160799780Y-92887800D01*
X162948620Y-92887800D01*
X163107370Y-92729050D01*
X163107370Y-92214700D01*
X163986366Y-92214700D01*
X163986366Y-93814900D01*
X164012933Y-93956090D01*
X164096376Y-94085765D01*
X164223696Y-94172759D01*
X164374830Y-94203364D01*
X165543420Y-94203364D01*
X165543420Y-94391267D01*
X165485918Y-94529746D01*
X165485682Y-94800665D01*
X165589139Y-95051052D01*
X165780541Y-95242787D01*
X166030746Y-95346682D01*
X166301665Y-95346918D01*
X166552052Y-95243461D01*
X166743787Y-95052059D01*
X166847682Y-94801854D01*
X166847918Y-94530935D01*
X166805420Y-94428081D01*
X166805420Y-94203364D01*
X167974010Y-94203364D01*
X168115200Y-94176797D01*
X168244875Y-94093354D01*
X168331869Y-93966034D01*
X168362474Y-93814900D01*
X168362474Y-93630750D01*
X171102600Y-93630750D01*
X171102600Y-94121310D01*
X171199273Y-94354699D01*
X171377902Y-94533327D01*
X171611291Y-94630000D01*
X172201850Y-94630000D01*
X172360600Y-94471250D01*
X172360600Y-93472000D01*
X172614600Y-93472000D01*
X172614600Y-94471250D01*
X172773350Y-94630000D01*
X173363909Y-94630000D01*
X173597298Y-94533327D01*
X173775927Y-94354699D01*
X173872600Y-94121310D01*
X173872600Y-93630750D01*
X173713850Y-93472000D01*
X172614600Y-93472000D01*
X172360600Y-93472000D01*
X171261350Y-93472000D01*
X171102600Y-93630750D01*
X168362474Y-93630750D01*
X168362474Y-92214700D01*
X168335907Y-92073510D01*
X168252464Y-91943835D01*
X168125144Y-91856841D01*
X167974010Y-91826236D01*
X164374830Y-91826236D01*
X164233640Y-91852803D01*
X164103965Y-91936246D01*
X164016971Y-92063566D01*
X163986366Y-92214700D01*
X163107370Y-92214700D01*
X163107370Y-92088390D01*
X163010697Y-91855001D01*
X162832068Y-91676373D01*
X162598679Y-91579700D01*
X160958530Y-91579700D01*
X160799780Y-91738450D01*
X160545780Y-91738450D01*
X160387030Y-91579700D01*
X158746881Y-91579700D01*
X158513492Y-91676373D01*
X158334863Y-91855001D01*
X158238190Y-92088390D01*
X155108802Y-92088390D01*
X155419396Y-91777796D01*
X155529083Y-91613638D01*
X155567600Y-91420000D01*
X155567600Y-85290664D01*
X155811600Y-85290664D01*
X155952790Y-85264097D01*
X156082465Y-85180654D01*
X156169459Y-85053334D01*
X156176600Y-85018070D01*
X156176600Y-85028510D01*
X156273273Y-85261899D01*
X156451902Y-85440527D01*
X156685291Y-85537200D01*
X157275850Y-85537200D01*
X157434600Y-85378450D01*
X157434600Y-84404200D01*
X157688600Y-84404200D01*
X157688600Y-85378450D01*
X157847350Y-85537200D01*
X158437909Y-85537200D01*
X158671298Y-85440527D01*
X158849927Y-85261899D01*
X158946600Y-85028510D01*
X158946600Y-84562950D01*
X158787850Y-84404200D01*
X157688600Y-84404200D01*
X157434600Y-84404200D01*
X157414600Y-84404200D01*
X157414600Y-84150200D01*
X157434600Y-84150200D01*
X157434600Y-83175950D01*
X157688600Y-83175950D01*
X157688600Y-84150200D01*
X158787850Y-84150200D01*
X158946600Y-83991450D01*
X158946600Y-83525890D01*
X158849927Y-83292501D01*
X158671298Y-83113873D01*
X158437909Y-83017200D01*
X157847350Y-83017200D01*
X157688600Y-83175950D01*
X157434600Y-83175950D01*
X157275850Y-83017200D01*
X156685291Y-83017200D01*
X156451902Y-83113873D01*
X156273273Y-83292501D01*
X156176600Y-83525890D01*
X156176600Y-83527501D01*
X156173497Y-83511010D01*
X156090054Y-83381335D01*
X155962734Y-83294341D01*
X155811600Y-83263736D01*
X155562800Y-83263736D01*
X155562800Y-81753938D01*
X155598040Y-81747307D01*
X155727715Y-81663864D01*
X155814709Y-81536544D01*
X155845314Y-81385410D01*
X155845314Y-81271110D01*
X155921750Y-81271110D01*
X155921750Y-81511720D01*
X156018423Y-81745109D01*
X156197052Y-81923737D01*
X156430441Y-82020410D01*
X156671050Y-82020410D01*
X156829800Y-81861660D01*
X156829800Y-81112360D01*
X157083800Y-81112360D01*
X157083800Y-81861660D01*
X157242550Y-82020410D01*
X157483159Y-82020410D01*
X157716548Y-81923737D01*
X157895177Y-81745109D01*
X157991850Y-81511720D01*
X157991850Y-81428652D01*
X158080863Y-81643548D01*
X158259491Y-81822177D01*
X158492880Y-81918850D01*
X158733490Y-81918850D01*
X158892240Y-81760100D01*
X158892240Y-81010800D01*
X158142940Y-81010800D01*
X157984190Y-81169550D01*
X157984190Y-81263450D01*
X157833100Y-81112360D01*
X157083800Y-81112360D01*
X156829800Y-81112360D01*
X156080500Y-81112360D01*
X155921750Y-81271110D01*
X155845314Y-81271110D01*
X155845314Y-80585310D01*
X155821547Y-80459000D01*
X155921750Y-80459000D01*
X155921750Y-80699610D01*
X156080500Y-80858360D01*
X156829800Y-80858360D01*
X156829800Y-80109060D01*
X157083800Y-80109060D01*
X157083800Y-80858360D01*
X157833100Y-80858360D01*
X157991850Y-80699610D01*
X157991850Y-80605710D01*
X158142940Y-80756800D01*
X158892240Y-80756800D01*
X158892240Y-80007500D01*
X158733490Y-79848750D01*
X158492880Y-79848750D01*
X158259491Y-79945423D01*
X158080863Y-80124052D01*
X157984190Y-80357441D01*
X157984190Y-80440507D01*
X157895177Y-80225611D01*
X157716548Y-80046983D01*
X157483159Y-79950310D01*
X157242550Y-79950310D01*
X157083800Y-80109060D01*
X156829800Y-80109060D01*
X156671050Y-79950310D01*
X156430441Y-79950310D01*
X156197052Y-80046983D01*
X156018423Y-80225611D01*
X155921750Y-80459000D01*
X155821547Y-80459000D01*
X155818747Y-80444120D01*
X155735304Y-80314445D01*
X155607984Y-80227451D01*
X155456850Y-80196846D01*
X154656750Y-80196846D01*
X154515560Y-80223413D01*
X154385885Y-80306856D01*
X154298891Y-80434176D01*
X154289741Y-80479360D01*
X153684955Y-80479360D01*
X153704134Y-80384650D01*
X153704134Y-79584550D01*
X153686791Y-79492380D01*
X155238222Y-79492380D01*
X155244853Y-79527620D01*
X155328296Y-79657295D01*
X155455616Y-79744289D01*
X155606750Y-79774894D01*
X156406850Y-79774894D01*
X156548040Y-79748327D01*
X156677715Y-79664884D01*
X156764709Y-79537564D01*
X156774381Y-79489800D01*
X158250662Y-79489800D01*
X158257293Y-79525040D01*
X158340736Y-79654715D01*
X158468056Y-79741709D01*
X158619190Y-79772314D01*
X159419290Y-79772314D01*
X159560480Y-79745747D01*
X159590200Y-79726623D01*
X159590200Y-79867224D01*
X159545600Y-79848750D01*
X159304990Y-79848750D01*
X159146240Y-80007500D01*
X159146240Y-80756800D01*
X159166240Y-80756800D01*
X159166240Y-81010800D01*
X159146240Y-81010800D01*
X159146240Y-81760100D01*
X159304990Y-81918850D01*
X159545600Y-81918850D01*
X159590200Y-81900376D01*
X159590200Y-84933800D01*
X159591136Y-84938506D01*
X159591136Y-86217200D01*
X159617703Y-86358390D01*
X159701146Y-86488065D01*
X159828466Y-86575059D01*
X159979600Y-86605664D01*
X159980061Y-86605664D01*
X159948718Y-86681146D01*
X159948482Y-86952065D01*
X159980162Y-87028736D01*
X159979600Y-87028736D01*
X159838410Y-87055303D01*
X159708735Y-87138746D01*
X159621741Y-87266066D01*
X159591136Y-87417200D01*
X159591136Y-88917200D01*
X159617703Y-89058390D01*
X159701146Y-89188065D01*
X159828466Y-89275059D01*
X159979600Y-89305664D01*
X161279600Y-89305664D01*
X161420790Y-89279097D01*
X161550465Y-89195654D01*
X161637459Y-89068334D01*
X161668064Y-88917200D01*
X161668064Y-88427550D01*
X161757600Y-88427550D01*
X161757600Y-89018109D01*
X161854273Y-89251498D01*
X162032901Y-89430127D01*
X162266290Y-89526800D01*
X162756850Y-89526800D01*
X162915600Y-89368050D01*
X162915600Y-88268800D01*
X163169600Y-88268800D01*
X163169600Y-89368050D01*
X163328350Y-89526800D01*
X163818910Y-89526800D01*
X164052299Y-89430127D01*
X164230927Y-89251498D01*
X164327600Y-89018109D01*
X164327600Y-88427550D01*
X164168850Y-88268800D01*
X163169600Y-88268800D01*
X162915600Y-88268800D01*
X161916350Y-88268800D01*
X161757600Y-88427550D01*
X161668064Y-88427550D01*
X161668064Y-87417200D01*
X161641497Y-87276010D01*
X161634729Y-87265491D01*
X161757600Y-87265491D01*
X161757600Y-87856050D01*
X161916350Y-88014800D01*
X162915600Y-88014800D01*
X162915600Y-86915550D01*
X163169600Y-86915550D01*
X163169600Y-88014800D01*
X164168850Y-88014800D01*
X164327600Y-87856050D01*
X164327600Y-87265491D01*
X164230927Y-87032102D01*
X164052299Y-86853473D01*
X163818910Y-86756800D01*
X163328350Y-86756800D01*
X163169600Y-86915550D01*
X162915600Y-86915550D01*
X162756850Y-86756800D01*
X162266290Y-86756800D01*
X162032901Y-86853473D01*
X161854273Y-87032102D01*
X161757600Y-87265491D01*
X161634729Y-87265491D01*
X161558054Y-87146335D01*
X161430734Y-87059341D01*
X161279600Y-87028736D01*
X161279139Y-87028736D01*
X161310482Y-86953254D01*
X161310718Y-86682335D01*
X161279038Y-86605664D01*
X161279600Y-86605664D01*
X161420790Y-86579097D01*
X161550465Y-86495654D01*
X161637459Y-86368334D01*
X161668064Y-86217200D01*
X161668064Y-85947800D01*
X162004136Y-85947800D01*
X162004136Y-86191800D01*
X162030703Y-86332990D01*
X162114146Y-86462665D01*
X162241466Y-86549659D01*
X162392600Y-86580264D01*
X163692600Y-86580264D01*
X163833790Y-86553697D01*
X163963465Y-86470254D01*
X164050459Y-86342934D01*
X164081064Y-86191800D01*
X164081064Y-85947800D01*
X166271336Y-85947800D01*
X166271336Y-86224800D01*
X166297903Y-86365990D01*
X166381346Y-86495665D01*
X166508666Y-86582659D01*
X166659800Y-86613264D01*
X167959800Y-86613264D01*
X168100990Y-86586697D01*
X168230665Y-86503254D01*
X168317659Y-86375934D01*
X168348264Y-86224800D01*
X168348264Y-84724800D01*
X168321697Y-84583610D01*
X168238254Y-84453935D01*
X168110934Y-84366941D01*
X167959800Y-84336336D01*
X166659800Y-84336336D01*
X166518610Y-84362903D01*
X166388935Y-84446346D01*
X166301941Y-84573666D01*
X166271336Y-84724800D01*
X166271336Y-84935800D01*
X164081064Y-84935800D01*
X164081064Y-84691800D01*
X164054497Y-84550610D01*
X163971054Y-84420935D01*
X163843734Y-84333941D01*
X163692600Y-84303336D01*
X162392600Y-84303336D01*
X162251410Y-84329903D01*
X162121735Y-84413346D01*
X162034741Y-84540666D01*
X162004136Y-84691800D01*
X162004136Y-84935800D01*
X161668064Y-84935800D01*
X161668064Y-84717200D01*
X161641497Y-84576010D01*
X161558054Y-84446335D01*
X161430734Y-84359341D01*
X161279600Y-84328736D01*
X160602200Y-84328736D01*
X160602200Y-82761065D01*
X160710482Y-82761065D01*
X160813939Y-83011452D01*
X161005341Y-83203187D01*
X161255546Y-83307082D01*
X161526465Y-83307318D01*
X161638564Y-83261000D01*
X162004136Y-83261000D01*
X162004136Y-83380000D01*
X162030703Y-83521190D01*
X162114146Y-83650865D01*
X162241466Y-83737859D01*
X162392600Y-83768464D01*
X163692600Y-83768464D01*
X163833790Y-83741897D01*
X163963465Y-83658454D01*
X164050459Y-83531134D01*
X164081064Y-83380000D01*
X164081064Y-81880000D01*
X164054497Y-81738810D01*
X163971054Y-81609135D01*
X163843734Y-81522141D01*
X163692600Y-81491536D01*
X162392600Y-81491536D01*
X162251410Y-81518103D01*
X162121735Y-81601546D01*
X162034741Y-81728866D01*
X162004136Y-81880000D01*
X162004136Y-81999000D01*
X161656934Y-81999000D01*
X161527654Y-81945318D01*
X161256735Y-81945082D01*
X161006348Y-82048539D01*
X160814613Y-82239941D01*
X160710718Y-82490146D01*
X160710482Y-82761065D01*
X160602200Y-82761065D01*
X160602200Y-80719080D01*
X160618170Y-80722314D01*
X161418270Y-80722314D01*
X161559460Y-80695747D01*
X161689135Y-80612304D01*
X161776129Y-80484984D01*
X161785279Y-80439800D01*
X162004136Y-80439800D01*
X162004136Y-80680000D01*
X162030703Y-80821190D01*
X162114146Y-80950865D01*
X162241466Y-81037859D01*
X162392600Y-81068464D01*
X163692600Y-81068464D01*
X163833790Y-81041897D01*
X163963465Y-80958454D01*
X164050459Y-80831134D01*
X164081064Y-80680000D01*
X164081064Y-80436000D01*
X168991436Y-80436000D01*
X168991436Y-81483200D01*
X169018003Y-81624390D01*
X169101446Y-81754065D01*
X169191213Y-81815400D01*
X168277805Y-81815400D01*
X168238254Y-81753935D01*
X168110934Y-81666941D01*
X167959800Y-81636336D01*
X166659800Y-81636336D01*
X166518610Y-81662903D01*
X166388935Y-81746346D01*
X166301941Y-81873666D01*
X166271336Y-82024800D01*
X166271336Y-83524800D01*
X166297903Y-83665990D01*
X166381346Y-83795665D01*
X166508666Y-83882659D01*
X166659800Y-83913264D01*
X167959800Y-83913264D01*
X168100990Y-83886697D01*
X168230665Y-83803254D01*
X168317659Y-83675934D01*
X168348264Y-83524800D01*
X168348264Y-83261200D01*
X169054936Y-83261200D01*
X169054936Y-89357200D01*
X169081503Y-89498390D01*
X169164946Y-89628065D01*
X169292266Y-89715059D01*
X169443400Y-89745664D01*
X171981600Y-89745664D01*
X171981600Y-90096736D01*
X171737600Y-90096736D01*
X171596410Y-90123303D01*
X171466735Y-90206746D01*
X171379741Y-90334066D01*
X171349136Y-90485200D01*
X171349136Y-91785200D01*
X171375703Y-91926390D01*
X171459146Y-92056065D01*
X171520154Y-92097750D01*
X171377902Y-92156673D01*
X171199273Y-92335301D01*
X171102600Y-92568690D01*
X171102600Y-93059250D01*
X171261350Y-93218000D01*
X172360600Y-93218000D01*
X172360600Y-93198000D01*
X172614600Y-93198000D01*
X172614600Y-93218000D01*
X173713850Y-93218000D01*
X173872600Y-93059250D01*
X173872600Y-92568690D01*
X173775927Y-92335301D01*
X173597298Y-92156673D01*
X173455309Y-92097859D01*
X173508465Y-92063654D01*
X173595459Y-91936334D01*
X173626064Y-91785200D01*
X173626064Y-90485200D01*
X174049136Y-90485200D01*
X174049136Y-91785200D01*
X174075703Y-91926390D01*
X174159146Y-92056065D01*
X174286466Y-92143059D01*
X174437600Y-92173664D01*
X174681600Y-92173664D01*
X174681600Y-92306536D01*
X174437600Y-92306536D01*
X174296410Y-92333103D01*
X174166735Y-92416546D01*
X174079741Y-92543866D01*
X174049136Y-92695000D01*
X174049136Y-93995000D01*
X174075703Y-94136190D01*
X174159146Y-94265865D01*
X174286466Y-94352859D01*
X174437600Y-94383464D01*
X175937600Y-94383464D01*
X176078790Y-94356897D01*
X176208465Y-94273454D01*
X176295459Y-94146134D01*
X176326064Y-93995000D01*
X176326064Y-93851000D01*
X176490690Y-93851000D01*
X176494453Y-93871000D01*
X176577896Y-94000675D01*
X176705216Y-94087669D01*
X176856350Y-94118274D01*
X177656450Y-94118274D01*
X177797640Y-94091707D01*
X177927315Y-94008264D01*
X178014309Y-93880944D01*
X178044914Y-93729810D01*
X178044914Y-93615510D01*
X178121350Y-93615510D01*
X178121350Y-93856120D01*
X178218023Y-94089509D01*
X178396652Y-94268137D01*
X178630041Y-94364810D01*
X178870650Y-94364810D01*
X179029400Y-94206060D01*
X179029400Y-93456760D01*
X178280100Y-93456760D01*
X178121350Y-93615510D01*
X178044914Y-93615510D01*
X178044914Y-92929710D01*
X178021147Y-92803400D01*
X178121350Y-92803400D01*
X178121350Y-93044010D01*
X178280100Y-93202760D01*
X179029400Y-93202760D01*
X179029400Y-92453460D01*
X178870650Y-92294710D01*
X178630041Y-92294710D01*
X178396652Y-92391383D01*
X178218023Y-92570011D01*
X178121350Y-92803400D01*
X178021147Y-92803400D01*
X178018347Y-92788520D01*
X177934904Y-92658845D01*
X177807584Y-92571851D01*
X177656450Y-92541246D01*
X176856350Y-92541246D01*
X176715160Y-92567813D01*
X176585485Y-92651256D01*
X176498491Y-92778576D01*
X176486255Y-92839000D01*
X176326064Y-92839000D01*
X176326064Y-92695000D01*
X176299497Y-92553810D01*
X176216054Y-92424135D01*
X176088734Y-92337141D01*
X175937600Y-92306536D01*
X175693600Y-92306536D01*
X175693600Y-92173664D01*
X175937600Y-92173664D01*
X176078790Y-92147097D01*
X176208465Y-92063654D01*
X176295459Y-91936334D01*
X176326064Y-91785200D01*
X176326064Y-90930730D01*
X177417886Y-90930730D01*
X177417886Y-91730830D01*
X177444453Y-91872020D01*
X177527896Y-92001695D01*
X177655216Y-92088689D01*
X177806350Y-92119294D01*
X178606450Y-92119294D01*
X178747640Y-92092727D01*
X178877315Y-92009284D01*
X178964309Y-91881964D01*
X178973459Y-91836780D01*
X180139736Y-91836780D01*
X180139736Y-92084600D01*
X180166303Y-92225790D01*
X180249746Y-92355465D01*
X180377066Y-92442459D01*
X180528200Y-92473064D01*
X180543514Y-92473064D01*
X180522718Y-92523146D01*
X180522482Y-92794065D01*
X180564657Y-92896136D01*
X180528200Y-92896136D01*
X180387010Y-92922703D01*
X180257335Y-93006146D01*
X180170341Y-93133466D01*
X180156309Y-93202758D01*
X180032702Y-93202758D01*
X180191450Y-93044010D01*
X180191450Y-92803400D01*
X180094777Y-92570011D01*
X179916148Y-92391383D01*
X179682759Y-92294710D01*
X179442150Y-92294710D01*
X179283400Y-92453460D01*
X179283400Y-93202760D01*
X179303400Y-93202760D01*
X179303400Y-93456760D01*
X179283400Y-93456760D01*
X179283400Y-94206060D01*
X179442150Y-94364810D01*
X179682759Y-94364810D01*
X179916148Y-94268137D01*
X180094777Y-94089509D01*
X180139736Y-93980968D01*
X180139736Y-94784600D01*
X180166303Y-94925790D01*
X180249746Y-95055465D01*
X180377066Y-95142459D01*
X180528200Y-95173064D01*
X180541800Y-95173064D01*
X180541800Y-95531936D01*
X180422800Y-95531936D01*
X180281610Y-95558503D01*
X180151935Y-95641946D01*
X180064941Y-95769266D01*
X180034336Y-95920400D01*
X180034336Y-97170400D01*
X180060903Y-97311590D01*
X180144346Y-97441265D01*
X180271666Y-97528259D01*
X180422800Y-97558864D01*
X181922800Y-97558864D01*
X182063990Y-97532297D01*
X182193665Y-97448854D01*
X182280659Y-97321534D01*
X182287800Y-97286270D01*
X182287800Y-97296710D01*
X182384473Y-97530099D01*
X182563102Y-97708727D01*
X182796491Y-97805400D01*
X183387050Y-97805400D01*
X183545800Y-97646650D01*
X183545800Y-96672400D01*
X183799800Y-96672400D01*
X183799800Y-97646650D01*
X183958550Y-97805400D01*
X184549109Y-97805400D01*
X184782498Y-97708727D01*
X184961127Y-97530099D01*
X185057800Y-97296710D01*
X185057800Y-96831150D01*
X184899050Y-96672400D01*
X183799800Y-96672400D01*
X183545800Y-96672400D01*
X183525800Y-96672400D01*
X183525800Y-96418400D01*
X183545800Y-96418400D01*
X183545800Y-95444150D01*
X183799800Y-95444150D01*
X183799800Y-96418400D01*
X184899050Y-96418400D01*
X185057800Y-96259650D01*
X185057800Y-95794090D01*
X184961127Y-95560701D01*
X184782498Y-95382073D01*
X184549109Y-95285400D01*
X183958550Y-95285400D01*
X183799800Y-95444150D01*
X183545800Y-95444150D01*
X183387050Y-95285400D01*
X182796491Y-95285400D01*
X182563102Y-95382073D01*
X182384473Y-95560701D01*
X182287800Y-95794090D01*
X182287800Y-95795701D01*
X182284697Y-95779210D01*
X182201254Y-95649535D01*
X182073934Y-95562541D01*
X181922800Y-95531936D01*
X181803800Y-95531936D01*
X181803800Y-95173064D01*
X181828200Y-95173064D01*
X181969390Y-95146497D01*
X182099065Y-95063054D01*
X182186059Y-94935734D01*
X182216664Y-94784600D01*
X182216664Y-93284600D01*
X182190097Y-93143410D01*
X182106654Y-93013735D01*
X181979334Y-92926741D01*
X181841476Y-92898824D01*
X181884482Y-92795254D01*
X181884718Y-92524335D01*
X181860985Y-92466895D01*
X181969390Y-92446497D01*
X182099065Y-92363054D01*
X182186059Y-92235734D01*
X182216664Y-92084600D01*
X182216664Y-90584600D01*
X182190097Y-90443410D01*
X182106654Y-90313735D01*
X181979334Y-90226741D01*
X181828200Y-90196136D01*
X181684200Y-90196136D01*
X181684200Y-88398350D01*
X181876700Y-88398350D01*
X181876700Y-89762910D01*
X181973373Y-89996299D01*
X182152002Y-90174927D01*
X182385391Y-90271600D01*
X183051450Y-90271600D01*
X183210200Y-90112850D01*
X183210200Y-88239600D01*
X183464200Y-88239600D01*
X183464200Y-90112850D01*
X183622950Y-90271600D01*
X184289009Y-90271600D01*
X184522398Y-90174927D01*
X184701027Y-89996299D01*
X184797700Y-89762910D01*
X184797700Y-88398350D01*
X184638950Y-88239600D01*
X183464200Y-88239600D01*
X183210200Y-88239600D01*
X182035450Y-88239600D01*
X181876700Y-88398350D01*
X181684200Y-88398350D01*
X181684200Y-86462290D01*
X181876700Y-86462290D01*
X181876700Y-87826850D01*
X182035450Y-87985600D01*
X183210200Y-87985600D01*
X183210200Y-86112350D01*
X183464200Y-86112350D01*
X183464200Y-87985600D01*
X184638950Y-87985600D01*
X184797700Y-87826850D01*
X184797700Y-86462290D01*
X184701027Y-86228901D01*
X184522398Y-86050273D01*
X184289009Y-85953600D01*
X183622950Y-85953600D01*
X183464200Y-86112350D01*
X183210200Y-86112350D01*
X183051450Y-85953600D01*
X182385391Y-85953600D01*
X182152002Y-86050273D01*
X181973373Y-86228901D01*
X181876700Y-86462290D01*
X181684200Y-86462290D01*
X181684200Y-85199064D01*
X184099200Y-85199064D01*
X184240390Y-85172497D01*
X184370065Y-85089054D01*
X184457059Y-84961734D01*
X184487664Y-84810600D01*
X184487664Y-78714600D01*
X184461097Y-78573410D01*
X184377654Y-78443735D01*
X184250334Y-78356741D01*
X184099200Y-78326136D01*
X178003200Y-78326136D01*
X177862010Y-78352703D01*
X177732335Y-78436146D01*
X177645341Y-78563466D01*
X177614736Y-78714600D01*
X177614736Y-84810600D01*
X177641303Y-84951790D01*
X177724746Y-85081465D01*
X177852066Y-85168459D01*
X178003200Y-85199064D01*
X180672200Y-85199064D01*
X180672200Y-90196136D01*
X180528200Y-90196136D01*
X180387010Y-90222703D01*
X180257335Y-90306146D01*
X180170341Y-90433466D01*
X180139736Y-90584600D01*
X180139736Y-90824780D01*
X178974978Y-90824780D01*
X178968347Y-90789540D01*
X178884904Y-90659865D01*
X178757584Y-90572871D01*
X178606450Y-90542266D01*
X177806350Y-90542266D01*
X177665160Y-90568833D01*
X177535485Y-90652276D01*
X177448491Y-90779596D01*
X177417886Y-90930730D01*
X176326064Y-90930730D01*
X176326064Y-90485200D01*
X176299497Y-90344010D01*
X176216054Y-90214335D01*
X176088734Y-90127341D01*
X175937600Y-90096736D01*
X174437600Y-90096736D01*
X174296410Y-90123303D01*
X174166735Y-90206746D01*
X174079741Y-90334066D01*
X174049136Y-90485200D01*
X173626064Y-90485200D01*
X173599497Y-90344010D01*
X173516054Y-90214335D01*
X173388734Y-90127341D01*
X173237600Y-90096736D01*
X172993600Y-90096736D01*
X172993600Y-89745664D01*
X175539400Y-89745664D01*
X175680590Y-89719097D01*
X175810265Y-89635654D01*
X175897259Y-89508334D01*
X175927864Y-89357200D01*
X175927864Y-88247465D01*
X176356882Y-88247465D01*
X176460339Y-88497852D01*
X176651741Y-88689587D01*
X176901946Y-88793482D01*
X177172865Y-88793718D01*
X177294161Y-88743600D01*
X177551236Y-88743600D01*
X177551236Y-89636600D01*
X177577803Y-89777790D01*
X177661246Y-89907465D01*
X177788566Y-89994459D01*
X177939700Y-90025064D01*
X179590700Y-90025064D01*
X179731890Y-89998497D01*
X179861565Y-89915054D01*
X179948559Y-89787734D01*
X179979164Y-89636600D01*
X179979164Y-86588600D01*
X179952597Y-86447410D01*
X179869154Y-86317735D01*
X179741834Y-86230741D01*
X179590700Y-86200136D01*
X177939700Y-86200136D01*
X177798510Y-86226703D01*
X177668835Y-86310146D01*
X177581841Y-86437466D01*
X177551236Y-86588600D01*
X177551236Y-87481600D01*
X177294182Y-87481600D01*
X177174054Y-87431718D01*
X176903135Y-87431482D01*
X176652748Y-87534939D01*
X176461013Y-87726341D01*
X176357118Y-87976546D01*
X176356882Y-88247465D01*
X175927864Y-88247465D01*
X175927864Y-83261200D01*
X175901297Y-83120010D01*
X175817854Y-82990335D01*
X175690534Y-82903341D01*
X175539400Y-82872736D01*
X169443400Y-82872736D01*
X169302210Y-82899303D01*
X169172535Y-82982746D01*
X169085541Y-83110066D01*
X169054936Y-83261200D01*
X168348264Y-83261200D01*
X168348264Y-82827400D01*
X174421800Y-82827400D01*
X174615438Y-82788883D01*
X174779596Y-82679196D01*
X175135196Y-82323596D01*
X175244883Y-82159438D01*
X175283400Y-81965800D01*
X175283400Y-81871664D01*
X175602900Y-81871664D01*
X175744090Y-81845097D01*
X175873765Y-81761654D01*
X175960759Y-81634334D01*
X175991364Y-81483200D01*
X175991364Y-78435200D01*
X175964797Y-78294010D01*
X175881354Y-78164335D01*
X175754034Y-78077341D01*
X175602900Y-78046736D01*
X173951900Y-78046736D01*
X173810710Y-78073303D01*
X173681035Y-78156746D01*
X173594041Y-78284066D01*
X173563436Y-78435200D01*
X173563436Y-81483200D01*
X173590003Y-81624390D01*
X173673446Y-81754065D01*
X173763213Y-81815400D01*
X171218241Y-81815400D01*
X171301765Y-81761654D01*
X171388759Y-81634334D01*
X171419364Y-81483200D01*
X171419364Y-78435200D01*
X171392797Y-78294010D01*
X171309354Y-78164335D01*
X171182034Y-78077341D01*
X171030900Y-78046736D01*
X169379900Y-78046736D01*
X169238710Y-78073303D01*
X169109035Y-78156746D01*
X169022041Y-78284066D01*
X168991436Y-78435200D01*
X168991436Y-79424000D01*
X164081064Y-79424000D01*
X164081064Y-79180000D01*
X164054497Y-79038810D01*
X163971054Y-78909135D01*
X163843734Y-78822141D01*
X163692600Y-78791536D01*
X162392600Y-78791536D01*
X162251410Y-78818103D01*
X162121735Y-78901546D01*
X162034741Y-79028866D01*
X162004136Y-79180000D01*
X162004136Y-79427800D01*
X161786798Y-79427800D01*
X161780167Y-79392560D01*
X161696724Y-79262885D01*
X161569404Y-79175891D01*
X161418270Y-79145286D01*
X160618170Y-79145286D01*
X160592822Y-79150056D01*
X160563683Y-79003562D01*
X160453996Y-78839404D01*
X160240596Y-78626004D01*
X160076438Y-78516317D01*
X159882800Y-78477800D01*
X159787818Y-78477800D01*
X159781187Y-78442560D01*
X159697744Y-78312885D01*
X159570424Y-78225891D01*
X159419290Y-78195286D01*
X158619190Y-78195286D01*
X158478000Y-78221853D01*
X158348325Y-78305296D01*
X158261331Y-78432616D01*
X158252181Y-78477800D01*
X156774892Y-78477800D01*
X156768747Y-78445140D01*
X156685304Y-78315465D01*
X156557984Y-78228471D01*
X156406850Y-78197866D01*
X155606750Y-78197866D01*
X155465560Y-78224433D01*
X155335885Y-78307876D01*
X155248891Y-78435196D01*
X155239741Y-78480380D01*
X151670235Y-78480380D01*
X151595144Y-78363685D01*
X151467824Y-78276691D01*
X151316690Y-78246086D01*
X150516590Y-78246086D01*
X150375400Y-78272653D01*
X150245725Y-78356096D01*
X150158731Y-78483416D01*
X150128126Y-78634550D01*
X150128126Y-79434650D01*
X150154693Y-79575840D01*
X150238136Y-79705515D01*
X150365456Y-79792509D01*
X150516590Y-79823114D01*
X151316690Y-79823114D01*
X151457880Y-79796547D01*
X151587555Y-79713104D01*
X151674549Y-79585784D01*
X151693464Y-79492380D01*
X152145771Y-79492380D01*
X152127106Y-79584550D01*
X152127106Y-80384650D01*
X152153673Y-80525840D01*
X152237116Y-80655515D01*
X152364436Y-80742509D01*
X152409620Y-80751659D01*
X152409620Y-80906620D01*
X152448137Y-81100258D01*
X152557824Y-81264416D01*
X152636564Y-81343156D01*
X152800722Y-81452843D01*
X152994360Y-81491360D01*
X154288222Y-81491360D01*
X154294853Y-81526600D01*
X154378296Y-81656275D01*
X154505616Y-81743269D01*
X154550800Y-81752419D01*
X154550800Y-83263736D01*
X154311600Y-83263736D01*
X154170410Y-83290303D01*
X154040735Y-83373746D01*
X153953741Y-83501066D01*
X153923136Y-83652200D01*
X153923136Y-84902200D01*
X153949703Y-85043390D01*
X154033146Y-85173065D01*
X154160466Y-85260059D01*
X154311600Y-85290664D01*
X154555600Y-85290664D01*
X154555600Y-91210408D01*
X154273000Y-91493008D01*
X154273000Y-91166950D01*
X154114250Y-91008200D01*
X153015000Y-91008200D01*
X153015000Y-91028200D01*
X152761000Y-91028200D01*
X152761000Y-91008200D01*
X152741000Y-91008200D01*
X152741000Y-90754200D01*
X152761000Y-90754200D01*
X152761000Y-90734200D01*
X153015000Y-90734200D01*
X153015000Y-90754200D01*
X154114250Y-90754200D01*
X154273000Y-90595450D01*
X154273000Y-90129890D01*
X154176327Y-89896501D01*
X153997698Y-89717873D01*
X153892910Y-89674468D01*
X154008865Y-89599854D01*
X154095859Y-89472534D01*
X154126464Y-89321400D01*
X154126464Y-88021400D01*
X154099897Y-87880210D01*
X154016454Y-87750535D01*
X153889134Y-87663541D01*
X153738000Y-87632936D01*
X153494000Y-87632936D01*
X153494000Y-87525464D01*
X153738000Y-87525464D01*
X153879190Y-87498897D01*
X154008865Y-87415454D01*
X154095859Y-87288134D01*
X154126464Y-87137000D01*
X154126464Y-85837000D01*
X154099897Y-85695810D01*
X154016454Y-85566135D01*
X153889134Y-85479141D01*
X153738000Y-85448536D01*
X152591549Y-85448536D01*
X152764377Y-85275709D01*
X152861050Y-85042320D01*
X152861050Y-84801710D01*
X152702300Y-84642960D01*
X151953000Y-84642960D01*
X151953000Y-85392260D01*
X152059714Y-85498974D01*
X151967135Y-85558546D01*
X151880141Y-85685866D01*
X151849536Y-85837000D01*
X151849536Y-87137000D01*
X151876103Y-87278190D01*
X151924331Y-87353139D01*
X151690996Y-87119804D01*
X151673000Y-87107779D01*
X151673000Y-86772750D01*
X151514250Y-86614000D01*
X150415000Y-86614000D01*
X150415000Y-86634000D01*
X150161000Y-86634000D01*
X150161000Y-86614000D01*
X149061750Y-86614000D01*
X148903000Y-86772750D01*
X148903000Y-86971600D01*
X146861293Y-86971600D01*
X146849154Y-86952735D01*
X146721834Y-86865741D01*
X146608912Y-86842874D01*
X146711890Y-86823497D01*
X146841565Y-86740054D01*
X146928559Y-86612734D01*
X146959164Y-86461600D01*
X146959164Y-86078600D01*
X147548600Y-86078600D01*
X147742238Y-86040083D01*
X147906396Y-85930396D01*
X148814832Y-85021960D01*
X149157422Y-85021960D01*
X149164053Y-85057200D01*
X149247496Y-85186875D01*
X149323248Y-85238634D01*
X149178302Y-85298673D01*
X148999673Y-85477301D01*
X148903000Y-85710690D01*
X148903000Y-86201250D01*
X149061750Y-86360000D01*
X150161000Y-86360000D01*
X150161000Y-86340000D01*
X150415000Y-86340000D01*
X150415000Y-86360000D01*
X151514250Y-86360000D01*
X151673000Y-86201250D01*
X151673000Y-85710690D01*
X151587349Y-85503911D01*
X151699000Y-85392260D01*
X151699000Y-84642960D01*
X150949700Y-84642960D01*
X150790950Y-84801710D01*
X150790950Y-85042320D01*
X150857092Y-85202000D01*
X150585204Y-85202000D01*
X150596915Y-85194464D01*
X150683909Y-85067144D01*
X150714514Y-84916010D01*
X150714514Y-84115910D01*
X150690747Y-83989600D01*
X150790950Y-83989600D01*
X150790950Y-84230210D01*
X150949700Y-84388960D01*
X151699000Y-84388960D01*
X151699000Y-83639660D01*
X151953000Y-83639660D01*
X151953000Y-84388960D01*
X152702300Y-84388960D01*
X152861050Y-84230210D01*
X152861050Y-83989600D01*
X152764377Y-83756211D01*
X152585748Y-83577583D01*
X152352359Y-83480910D01*
X152111750Y-83480910D01*
X151953000Y-83639660D01*
X151699000Y-83639660D01*
X151540250Y-83480910D01*
X151299641Y-83480910D01*
X151066252Y-83577583D01*
X150887623Y-83756211D01*
X150790950Y-83989600D01*
X150690747Y-83989600D01*
X150687947Y-83974720D01*
X150604504Y-83845045D01*
X150477184Y-83758051D01*
X150326050Y-83727446D01*
X149525950Y-83727446D01*
X149384760Y-83754013D01*
X149255085Y-83837456D01*
X149168091Y-83964776D01*
X149158941Y-84009960D01*
X148605240Y-84009960D01*
X148411602Y-84048477D01*
X148359094Y-84083562D01*
X148247444Y-84158164D01*
X147339008Y-85066600D01*
X146959164Y-85066600D01*
X146959164Y-84683600D01*
X146932597Y-84542410D01*
X146849154Y-84412735D01*
X146721834Y-84325741D01*
X146630200Y-84307185D01*
X146630200Y-83210400D01*
X146582168Y-82968927D01*
X146582168Y-82968926D01*
X146445384Y-82764215D01*
X146115184Y-82434016D01*
X145910473Y-82297232D01*
X145669000Y-82249200D01*
X145186135Y-82249200D01*
X145161247Y-82116930D01*
X150087486Y-82116930D01*
X150087486Y-82917030D01*
X150114053Y-83058220D01*
X150197496Y-83187895D01*
X150324816Y-83274889D01*
X150475950Y-83305494D01*
X151276050Y-83305494D01*
X151417240Y-83278927D01*
X151546915Y-83195484D01*
X151633909Y-83068164D01*
X151664514Y-82917030D01*
X151664514Y-82116930D01*
X151637947Y-81975740D01*
X151554504Y-81846065D01*
X151427184Y-81759071D01*
X151422640Y-81758151D01*
X151422640Y-81703178D01*
X151457880Y-81696547D01*
X151587555Y-81613104D01*
X151674549Y-81485784D01*
X151705154Y-81334650D01*
X151705154Y-80534550D01*
X151678587Y-80393360D01*
X151595144Y-80263685D01*
X151467824Y-80176691D01*
X151316690Y-80146086D01*
X150516590Y-80146086D01*
X150375400Y-80172653D01*
X150245725Y-80256096D01*
X150158731Y-80383416D01*
X150128126Y-80534550D01*
X150128126Y-81334650D01*
X150154693Y-81475840D01*
X150238136Y-81605515D01*
X150365456Y-81692509D01*
X150410640Y-81701659D01*
X150410640Y-81740755D01*
X150334760Y-81755033D01*
X150205085Y-81838476D01*
X150118091Y-81965796D01*
X150087486Y-82116930D01*
X145161247Y-82116930D01*
X145160697Y-82114010D01*
X145077254Y-81984335D01*
X144949934Y-81897341D01*
X144798800Y-81866736D01*
X144779800Y-81866736D01*
X144779800Y-81556464D01*
X144898800Y-81556464D01*
X145039990Y-81529897D01*
X145169665Y-81446454D01*
X145256659Y-81319134D01*
X145287264Y-81168000D01*
X145287264Y-79868000D01*
X145260697Y-79726810D01*
X145177254Y-79597135D01*
X145049934Y-79510141D01*
X144898800Y-79479536D01*
X143398800Y-79479536D01*
X143257610Y-79506103D01*
X143127935Y-79589546D01*
X143040941Y-79716866D01*
X143010336Y-79868000D01*
X143010336Y-81168000D01*
X143036903Y-81309190D01*
X143120346Y-81438865D01*
X143247666Y-81525859D01*
X143398800Y-81556464D01*
X143517800Y-81556464D01*
X143517800Y-81866736D01*
X143298800Y-81866736D01*
X143157610Y-81893303D01*
X143027935Y-81976746D01*
X142940941Y-82104066D01*
X142933800Y-82139330D01*
X142933800Y-82128890D01*
X142837127Y-81895501D01*
X142658498Y-81716873D01*
X142425109Y-81620200D01*
X141834550Y-81620200D01*
X141675800Y-81778950D01*
X141675800Y-82753200D01*
X141695800Y-82753200D01*
X141695800Y-83007200D01*
X141675800Y-83007200D01*
X141675800Y-83981450D01*
X141834550Y-84140200D01*
X142425109Y-84140200D01*
X142658498Y-84043527D01*
X142837127Y-83864899D01*
X142933800Y-83631510D01*
X142933800Y-83629899D01*
X142936903Y-83646390D01*
X143020346Y-83776065D01*
X143147666Y-83863059D01*
X143298800Y-83893664D01*
X144798800Y-83893664D01*
X144939990Y-83867097D01*
X145069665Y-83783654D01*
X145156659Y-83656334D01*
X145186049Y-83511200D01*
X145368200Y-83511200D01*
X145368200Y-84306332D01*
X145286510Y-84321703D01*
X145156835Y-84405146D01*
X145069841Y-84532466D01*
X145039236Y-84683600D01*
X145039236Y-85066600D01*
X143256000Y-85066600D01*
X143062362Y-85105117D01*
X142951679Y-85179073D01*
X142898204Y-85214804D01*
X142288604Y-85824404D01*
X142178917Y-85988562D01*
X142140400Y-86182200D01*
X142140400Y-89792247D01*
X142128000Y-89789736D01*
X141984000Y-89789736D01*
X141984000Y-85369400D01*
X141945483Y-85175762D01*
X141835796Y-85011604D01*
X141403996Y-84579804D01*
X141239838Y-84470117D01*
X141046200Y-84431600D01*
X140511293Y-84431600D01*
X140499154Y-84412735D01*
X140371834Y-84325741D01*
X140220700Y-84295136D01*
X140128453Y-84295136D01*
X140116683Y-84235962D01*
X140006996Y-84071804D01*
X139698396Y-83763204D01*
X139534238Y-83653517D01*
X139340600Y-83615000D01*
X137842864Y-83615000D01*
X137842864Y-83371000D01*
X137816297Y-83229810D01*
X137775205Y-83165950D01*
X140163800Y-83165950D01*
X140163800Y-83631510D01*
X140260473Y-83864899D01*
X140439102Y-84043527D01*
X140672491Y-84140200D01*
X141263050Y-84140200D01*
X141421800Y-83981450D01*
X141421800Y-83007200D01*
X140322550Y-83007200D01*
X140163800Y-83165950D01*
X137775205Y-83165950D01*
X137732854Y-83100135D01*
X137605534Y-83013141D01*
X137454400Y-82982536D01*
X136154400Y-82982536D01*
X136013210Y-83009103D01*
X135883535Y-83092546D01*
X135796541Y-83219866D01*
X135765936Y-83371000D01*
X135765936Y-83689600D01*
X135303264Y-83689600D01*
X135303264Y-83445600D01*
X135276697Y-83304410D01*
X135193254Y-83174735D01*
X135065934Y-83087741D01*
X134914800Y-83057136D01*
X133664800Y-83057136D01*
X133523610Y-83083703D01*
X133393935Y-83167146D01*
X133306941Y-83294466D01*
X133276336Y-83445600D01*
X133276336Y-84945600D01*
X133302903Y-85086790D01*
X133386346Y-85216465D01*
X133513666Y-85303459D01*
X133664800Y-85334064D01*
X134914800Y-85334064D01*
X135055990Y-85307497D01*
X135185665Y-85224054D01*
X135272659Y-85096734D01*
X135303264Y-84945600D01*
X135303264Y-84701600D01*
X135765936Y-84701600D01*
X135765936Y-84871000D01*
X135792503Y-85012190D01*
X135875946Y-85141865D01*
X136003266Y-85228859D01*
X136154400Y-85259464D01*
X137454400Y-85259464D01*
X137595590Y-85232897D01*
X137725265Y-85149454D01*
X137812259Y-85022134D01*
X137842864Y-84871000D01*
X137842864Y-84627000D01*
X138700698Y-84627000D01*
X138689236Y-84683600D01*
X138689236Y-85191600D01*
X138715803Y-85332790D01*
X138799246Y-85462465D01*
X138926566Y-85549459D01*
X139039488Y-85572326D01*
X138936510Y-85591703D01*
X138806835Y-85675146D01*
X138788760Y-85701600D01*
X137548542Y-85701600D01*
X137454400Y-85682536D01*
X136154400Y-85682536D01*
X136013210Y-85709103D01*
X135883535Y-85792546D01*
X135796541Y-85919866D01*
X135765936Y-86071000D01*
X135765936Y-86189600D01*
X135303264Y-86189600D01*
X135303264Y-85945600D01*
X135276697Y-85804410D01*
X135193254Y-85674735D01*
X135065934Y-85587741D01*
X134914800Y-85557136D01*
X133664800Y-85557136D01*
X133523610Y-85583703D01*
X133393935Y-85667146D01*
X133306941Y-85794466D01*
X133276336Y-85945600D01*
X133276336Y-86189600D01*
X132461864Y-86189600D01*
X132461864Y-85506400D01*
X132435297Y-85365210D01*
X132351854Y-85235535D01*
X132224534Y-85148541D01*
X132073400Y-85117936D01*
X130573400Y-85117936D01*
X130432210Y-85144503D01*
X130302535Y-85227946D01*
X130215541Y-85355266D01*
X130184936Y-85506400D01*
X130184936Y-86756400D01*
X130211503Y-86897590D01*
X130294946Y-87027265D01*
X130422266Y-87114259D01*
X130573400Y-87144864D01*
X131666695Y-87144864D01*
X131693962Y-87163083D01*
X131887600Y-87201600D01*
X133276336Y-87201600D01*
X133276336Y-87445600D01*
X133302903Y-87586790D01*
X133386346Y-87716465D01*
X133513666Y-87803459D01*
X133584485Y-87817800D01*
X133382691Y-87817800D01*
X133149302Y-87914473D01*
X132970673Y-88093101D01*
X132874000Y-88326490D01*
X132874000Y-88792050D01*
X133032750Y-88950800D01*
X134132000Y-88950800D01*
X134132000Y-88930800D01*
X134386000Y-88930800D01*
X134386000Y-88950800D01*
X134406000Y-88950800D01*
X134406000Y-89204800D01*
X134386000Y-89204800D01*
X134386000Y-89224800D01*
X134132000Y-89224800D01*
X134132000Y-89204800D01*
X133032750Y-89204800D01*
X132874000Y-89363550D01*
X132874000Y-89829110D01*
X132970673Y-90062499D01*
X133071435Y-90163260D01*
X133013810Y-90174103D01*
X132884135Y-90257546D01*
X132797141Y-90384866D01*
X132766536Y-90536000D01*
X132766536Y-91836000D01*
X132793103Y-91977190D01*
X132876546Y-92106865D01*
X132983842Y-92180177D01*
X132795302Y-92258273D01*
X132616673Y-92436901D01*
X132520000Y-92670290D01*
X132520000Y-93160850D01*
X132678750Y-93319600D01*
X133778000Y-93319600D01*
X133778000Y-93299600D01*
X134032000Y-93299600D01*
X134032000Y-93319600D01*
X135131250Y-93319600D01*
X135290000Y-93160850D01*
X135290000Y-92670290D01*
X135193327Y-92436901D01*
X135014698Y-92258273D01*
X134824679Y-92179565D01*
X134925865Y-92114454D01*
X135012859Y-91987134D01*
X135043464Y-91836000D01*
X135043464Y-91835539D01*
X135118946Y-91866882D01*
X135389865Y-91867118D01*
X135466536Y-91835438D01*
X135466536Y-91836000D01*
X135493103Y-91977190D01*
X135576546Y-92106865D01*
X135703866Y-92193859D01*
X135855000Y-92224464D01*
X136099000Y-92224464D01*
X136099000Y-92408136D01*
X135855000Y-92408136D01*
X135713810Y-92434703D01*
X135584135Y-92518146D01*
X135497141Y-92645466D01*
X135466536Y-92796600D01*
X135466536Y-94096600D01*
X135493103Y-94237790D01*
X135576546Y-94367465D01*
X135703866Y-94454459D01*
X135855000Y-94485064D01*
X137355000Y-94485064D01*
X137496190Y-94458497D01*
X137625865Y-94375054D01*
X137712859Y-94247734D01*
X137743464Y-94096600D01*
X137743464Y-92796600D01*
X137716897Y-92655410D01*
X137633454Y-92525735D01*
X137506134Y-92438741D01*
X137355000Y-92408136D01*
X137111000Y-92408136D01*
X137111000Y-92224464D01*
X137355000Y-92224464D01*
X137496190Y-92197897D01*
X137625865Y-92114454D01*
X137712859Y-91987134D01*
X137743464Y-91836000D01*
X137743464Y-90536000D01*
X137716897Y-90394810D01*
X137633454Y-90265135D01*
X137506134Y-90178141D01*
X137355000Y-90147536D01*
X137265000Y-90147536D01*
X137265000Y-90091264D01*
X137509000Y-90091264D01*
X137650190Y-90064697D01*
X137779865Y-89981254D01*
X137866859Y-89853934D01*
X137897464Y-89702800D01*
X137897464Y-89583800D01*
X138125200Y-89583800D01*
X138318838Y-89545283D01*
X138482996Y-89435596D01*
X138548333Y-89370259D01*
X138718001Y-89539927D01*
X138951390Y-89636600D01*
X139363450Y-89636600D01*
X139522200Y-89477850D01*
X139522200Y-88874600D01*
X139776200Y-88874600D01*
X139776200Y-89477850D01*
X139934950Y-89636600D01*
X140347010Y-89636600D01*
X140580399Y-89539927D01*
X140759027Y-89361298D01*
X140855700Y-89127909D01*
X140855700Y-89033350D01*
X140696950Y-88874600D01*
X139776200Y-88874600D01*
X139522200Y-88874600D01*
X139502200Y-88874600D01*
X139502200Y-88620600D01*
X139522200Y-88620600D01*
X139522200Y-88600600D01*
X139776200Y-88600600D01*
X139776200Y-88620600D01*
X140696950Y-88620600D01*
X140855700Y-88461850D01*
X140855700Y-88367291D01*
X140759027Y-88133902D01*
X140580399Y-87955273D01*
X140540334Y-87938678D01*
X140578559Y-87882734D01*
X140609164Y-87731600D01*
X140609164Y-87223600D01*
X140582597Y-87082410D01*
X140499154Y-86952735D01*
X140371834Y-86865741D01*
X140258912Y-86842874D01*
X140361890Y-86823497D01*
X140491565Y-86740054D01*
X140578559Y-86612734D01*
X140609164Y-86461600D01*
X140609164Y-85953600D01*
X140582597Y-85812410D01*
X140499154Y-85682735D01*
X140371834Y-85595741D01*
X140258912Y-85572874D01*
X140361890Y-85553497D01*
X140491565Y-85470054D01*
X140509640Y-85443600D01*
X140836608Y-85443600D01*
X140972000Y-85578992D01*
X140972000Y-89789736D01*
X140828000Y-89789736D01*
X140686810Y-89816303D01*
X140557135Y-89899746D01*
X140470141Y-90027066D01*
X140439536Y-90178200D01*
X140439536Y-91678200D01*
X140459895Y-91786400D01*
X140422400Y-91786400D01*
X140228762Y-91824917D01*
X140064604Y-91934604D01*
X139291404Y-92707804D01*
X139181717Y-92871962D01*
X139143200Y-93065600D01*
X139143200Y-95318736D01*
X139077700Y-95318736D01*
X138936510Y-95345303D01*
X138806835Y-95428746D01*
X138788760Y-95455200D01*
X137690464Y-95455200D01*
X137690464Y-95156600D01*
X137663897Y-95015410D01*
X137580454Y-94885735D01*
X137453134Y-94798741D01*
X137302000Y-94768136D01*
X136002000Y-94768136D01*
X135860810Y-94794703D01*
X135731135Y-94878146D01*
X135644141Y-95005466D01*
X135613536Y-95156600D01*
X135613536Y-95404400D01*
X134924064Y-95404400D01*
X134924064Y-95260400D01*
X134897497Y-95119210D01*
X134814054Y-94989535D01*
X134686734Y-94902541D01*
X134535600Y-94871936D01*
X133035600Y-94871936D01*
X132894410Y-94898503D01*
X132764735Y-94981946D01*
X132677741Y-95109266D01*
X132647136Y-95260400D01*
X132647136Y-95260861D01*
X132571654Y-95229518D01*
X132300735Y-95229282D01*
X132224064Y-95260962D01*
X132224064Y-95260400D01*
X132197497Y-95119210D01*
X132114054Y-94989535D01*
X131986734Y-94902541D01*
X131835600Y-94871936D01*
X130335600Y-94871936D01*
X130194410Y-94898503D01*
X130064735Y-94981946D01*
X129977741Y-95109266D01*
X129947136Y-95260400D01*
X129947136Y-96560400D01*
X129973703Y-96701590D01*
X130057146Y-96831265D01*
X130184466Y-96918259D01*
X130335600Y-96948864D01*
X131835600Y-96948864D01*
X131976790Y-96922297D01*
X132106465Y-96838854D01*
X132193459Y-96711534D01*
X132224064Y-96560400D01*
X132224064Y-96559939D01*
X132299546Y-96591282D01*
X132570465Y-96591518D01*
X132647136Y-96559838D01*
X132647136Y-96560400D01*
X132673703Y-96701590D01*
X132688975Y-96725324D01*
X132495962Y-96763717D01*
X132331804Y-96873404D01*
X132198642Y-97006566D01*
X131533900Y-97006566D01*
X131392710Y-97033133D01*
X131263035Y-97116576D01*
X131176041Y-97243896D01*
X131145436Y-97395030D01*
X131145436Y-98896170D01*
X131172003Y-99037360D01*
X131255446Y-99167035D01*
X131382766Y-99254029D01*
X131533900Y-99284634D01*
X131828000Y-99284634D01*
X131828000Y-100398736D01*
X130733800Y-100398736D01*
X130592610Y-100425303D01*
X130462935Y-100508746D01*
X130375941Y-100636066D01*
X130345336Y-100787200D01*
X130345336Y-100880640D01*
X130197464Y-100880640D01*
X130197464Y-100625200D01*
X130170897Y-100484010D01*
X130087454Y-100354335D01*
X129960134Y-100267341D01*
X129809000Y-100236736D01*
X129808539Y-100236736D01*
X129839882Y-100161254D01*
X129840118Y-99890335D01*
X129808438Y-99813664D01*
X129809000Y-99813664D01*
X129950190Y-99787097D01*
X130079865Y-99703654D01*
X130166859Y-99576334D01*
X130197464Y-99425200D01*
X130197464Y-97925200D01*
X130170897Y-97784010D01*
X130087454Y-97654335D01*
X129960134Y-97567341D01*
X129809000Y-97536736D01*
X128509000Y-97536736D01*
X128367810Y-97563303D01*
X128238135Y-97646746D01*
X128151141Y-97774066D01*
X128120536Y-97925200D01*
X116153000Y-97925200D01*
X116153000Y-94601150D01*
X118491000Y-94601150D01*
X118491000Y-95641709D01*
X118587673Y-95875098D01*
X118766301Y-96053727D01*
X118999690Y-96150400D01*
X122015250Y-96150400D01*
X122174000Y-95991650D01*
X122174000Y-94442400D01*
X122428000Y-94442400D01*
X122428000Y-95991650D01*
X122586750Y-96150400D01*
X125602310Y-96150400D01*
X125835699Y-96053727D01*
X126014327Y-95875098D01*
X126111000Y-95641709D01*
X126111000Y-94601150D01*
X125952250Y-94442400D01*
X122428000Y-94442400D01*
X122174000Y-94442400D01*
X118649750Y-94442400D01*
X118491000Y-94601150D01*
X116153000Y-94601150D01*
X116153000Y-92989091D01*
X118491000Y-92989091D01*
X118491000Y-94029650D01*
X118649750Y-94188400D01*
X122174000Y-94188400D01*
X122174000Y-92639150D01*
X122428000Y-92639150D01*
X122428000Y-94188400D01*
X125952250Y-94188400D01*
X126111000Y-94029650D01*
X126111000Y-93732350D01*
X132520000Y-93732350D01*
X132520000Y-94222910D01*
X132616673Y-94456299D01*
X132795302Y-94634927D01*
X133028691Y-94731600D01*
X133619250Y-94731600D01*
X133778000Y-94572850D01*
X133778000Y-93573600D01*
X134032000Y-93573600D01*
X134032000Y-94572850D01*
X134190750Y-94731600D01*
X134781309Y-94731600D01*
X135014698Y-94634927D01*
X135193327Y-94456299D01*
X135290000Y-94222910D01*
X135290000Y-93732350D01*
X135131250Y-93573600D01*
X134032000Y-93573600D01*
X133778000Y-93573600D01*
X132678750Y-93573600D01*
X132520000Y-93732350D01*
X126111000Y-93732350D01*
X126111000Y-92989091D01*
X126014327Y-92755702D01*
X125835699Y-92577073D01*
X125602310Y-92480400D01*
X122586750Y-92480400D01*
X122428000Y-92639150D01*
X122174000Y-92639150D01*
X122015250Y-92480400D01*
X118999690Y-92480400D01*
X118766301Y-92577073D01*
X118587673Y-92755702D01*
X118491000Y-92989091D01*
X116153000Y-92989091D01*
X116153000Y-83877150D01*
X116889800Y-83877150D01*
X116889800Y-86892710D01*
X116986473Y-87126099D01*
X117165102Y-87304727D01*
X117398491Y-87401400D01*
X118439050Y-87401400D01*
X118597800Y-87242650D01*
X118597800Y-83718400D01*
X118851800Y-83718400D01*
X118851800Y-87242650D01*
X119010550Y-87401400D01*
X120051109Y-87401400D01*
X120284498Y-87304727D01*
X120463127Y-87126099D01*
X120559800Y-86892710D01*
X120559800Y-83877150D01*
X120401050Y-83718400D01*
X118851800Y-83718400D01*
X118597800Y-83718400D01*
X117048550Y-83718400D01*
X116889800Y-83877150D01*
X116153000Y-83877150D01*
X116153000Y-80290090D01*
X116889800Y-80290090D01*
X116889800Y-83305650D01*
X117048550Y-83464400D01*
X118597800Y-83464400D01*
X118597800Y-79940150D01*
X118851800Y-79940150D01*
X118851800Y-83464400D01*
X120401050Y-83464400D01*
X120559800Y-83305650D01*
X120559800Y-80416400D01*
X124136336Y-80416400D01*
X124136336Y-86766400D01*
X124162903Y-86907590D01*
X124246346Y-87037265D01*
X124373666Y-87124259D01*
X124524800Y-87154864D01*
X126924800Y-87154864D01*
X127065990Y-87128297D01*
X127195665Y-87044854D01*
X127282659Y-86917534D01*
X127313264Y-86766400D01*
X127313264Y-84050400D01*
X127790336Y-84050400D01*
X127790336Y-84294400D01*
X127816903Y-84435590D01*
X127900346Y-84565265D01*
X128027666Y-84652259D01*
X128178800Y-84682864D01*
X128317400Y-84682864D01*
X128317400Y-85117936D01*
X128073400Y-85117936D01*
X127932210Y-85144503D01*
X127802535Y-85227946D01*
X127715541Y-85355266D01*
X127684936Y-85506400D01*
X127684936Y-86756400D01*
X127711503Y-86897590D01*
X127794946Y-87027265D01*
X127922266Y-87114259D01*
X128073400Y-87144864D01*
X129573400Y-87144864D01*
X129714590Y-87118297D01*
X129844265Y-87034854D01*
X129931259Y-86907534D01*
X129961864Y-86756400D01*
X129961864Y-85506400D01*
X129935297Y-85365210D01*
X129851854Y-85235535D01*
X129724534Y-85148541D01*
X129573400Y-85117936D01*
X129329400Y-85117936D01*
X129329400Y-84682864D01*
X129478800Y-84682864D01*
X129619990Y-84656297D01*
X129749665Y-84572854D01*
X129836659Y-84445534D01*
X129867264Y-84294400D01*
X129867264Y-82794400D01*
X129840697Y-82653210D01*
X129757254Y-82523535D01*
X129629934Y-82436541D01*
X129478800Y-82405936D01*
X128178800Y-82405936D01*
X128037610Y-82432503D01*
X127907935Y-82515946D01*
X127820941Y-82643266D01*
X127790336Y-82794400D01*
X127790336Y-83038400D01*
X127313264Y-83038400D01*
X127313264Y-82128890D01*
X140163800Y-82128890D01*
X140163800Y-82594450D01*
X140322550Y-82753200D01*
X141421800Y-82753200D01*
X141421800Y-81778950D01*
X141263050Y-81620200D01*
X140672491Y-81620200D01*
X140439102Y-81716873D01*
X140260473Y-81895501D01*
X140163800Y-82128890D01*
X127313264Y-82128890D01*
X127313264Y-80416400D01*
X127286697Y-80275210D01*
X127203254Y-80145535D01*
X127128416Y-80094400D01*
X127790336Y-80094400D01*
X127790336Y-81594400D01*
X127816903Y-81735590D01*
X127900346Y-81865265D01*
X128027666Y-81952259D01*
X128178800Y-81982864D01*
X129478800Y-81982864D01*
X129619990Y-81956297D01*
X129749665Y-81872854D01*
X129836659Y-81745534D01*
X129867264Y-81594400D01*
X129867264Y-80652865D01*
X139018882Y-80652865D01*
X139122339Y-80903252D01*
X139313741Y-81094987D01*
X139563946Y-81198882D01*
X139834865Y-81199118D01*
X139956161Y-81149000D01*
X140310336Y-81149000D01*
X140310336Y-81168000D01*
X140336903Y-81309190D01*
X140420346Y-81438865D01*
X140547666Y-81525859D01*
X140698800Y-81556464D01*
X142198800Y-81556464D01*
X142339990Y-81529897D01*
X142469665Y-81446454D01*
X142556659Y-81319134D01*
X142587264Y-81168000D01*
X142587264Y-79868000D01*
X142560697Y-79726810D01*
X142477254Y-79597135D01*
X142349934Y-79510141D01*
X142198800Y-79479536D01*
X140698800Y-79479536D01*
X140557610Y-79506103D01*
X140427935Y-79589546D01*
X140340941Y-79716866D01*
X140310336Y-79868000D01*
X140310336Y-79887000D01*
X139956182Y-79887000D01*
X139836054Y-79837118D01*
X139565135Y-79836882D01*
X139314748Y-79940339D01*
X139123013Y-80131741D01*
X139019118Y-80381946D01*
X139018882Y-80652865D01*
X129867264Y-80652865D01*
X129867264Y-80094400D01*
X129840697Y-79953210D01*
X129757254Y-79823535D01*
X129629934Y-79736541D01*
X129478800Y-79705936D01*
X129459800Y-79705936D01*
X129459800Y-79478782D01*
X129509682Y-79358654D01*
X129509918Y-79087735D01*
X129406461Y-78837348D01*
X129215059Y-78645613D01*
X128964854Y-78541718D01*
X128693935Y-78541482D01*
X128443548Y-78644939D01*
X128251813Y-78836341D01*
X128147918Y-79086546D01*
X128147682Y-79357465D01*
X128197800Y-79478761D01*
X128197800Y-79705936D01*
X128178800Y-79705936D01*
X128037610Y-79732503D01*
X127907935Y-79815946D01*
X127820941Y-79943266D01*
X127790336Y-80094400D01*
X127128416Y-80094400D01*
X127075934Y-80058541D01*
X126924800Y-80027936D01*
X124524800Y-80027936D01*
X124383610Y-80054503D01*
X124253935Y-80137946D01*
X124166941Y-80265266D01*
X124136336Y-80416400D01*
X120559800Y-80416400D01*
X120559800Y-80290090D01*
X120463127Y-80056701D01*
X120284498Y-79878073D01*
X120051109Y-79781400D01*
X119010550Y-79781400D01*
X118851800Y-79940150D01*
X118597800Y-79940150D01*
X118439050Y-79781400D01*
X117398491Y-79781400D01*
X117165102Y-79878073D01*
X116986473Y-80056701D01*
X116889800Y-80290090D01*
X116153000Y-80290090D01*
X116153000Y-77260910D01*
X116174878Y-77150918D01*
X116211745Y-77095745D01*
X116266918Y-77058879D01*
X116376911Y-77037000D01*
X185121090Y-77037000D01*
X185231082Y-77058878D01*
X185231082Y-77058878D01*
G37*
X185231082Y-77058878D02*
X185286255Y-77095745D01*
X185323121Y-77150918D01*
X185345000Y-77260911D01*
X185345000Y-105111089D01*
X185323121Y-105221082D01*
X185286255Y-105276255D01*
X185231082Y-105313122D01*
X185121090Y-105335000D01*
X147256363Y-105335000D01*
X147263299Y-105332127D01*
X147441927Y-105153498D01*
X147538600Y-104920109D01*
X147538600Y-104329550D01*
X147379850Y-104170800D01*
X146405600Y-104170800D01*
X146405600Y-104190800D01*
X146151600Y-104190800D01*
X146151600Y-104170800D01*
X145177350Y-104170800D01*
X145018600Y-104329550D01*
X145018600Y-104920109D01*
X145115273Y-105153498D01*
X145293901Y-105332127D01*
X145300837Y-105335000D01*
X116376911Y-105335000D01*
X116266918Y-105313121D01*
X116211745Y-105276255D01*
X116174878Y-105221082D01*
X116153000Y-105111090D01*
X116153000Y-104273350D01*
X128479800Y-104273350D01*
X128479800Y-104738910D01*
X128576473Y-104972299D01*
X128755102Y-105150927D01*
X128988491Y-105247600D01*
X129579050Y-105247600D01*
X129737800Y-105088850D01*
X129737800Y-104114600D01*
X128638550Y-104114600D01*
X128479800Y-104273350D01*
X116153000Y-104273350D01*
X116153000Y-103236290D01*
X128479800Y-103236290D01*
X128479800Y-103701850D01*
X128638550Y-103860600D01*
X129737800Y-103860600D01*
X129737800Y-102886350D01*
X129579050Y-102727600D01*
X128988491Y-102727600D01*
X128755102Y-102824273D01*
X128576473Y-103002901D01*
X128479800Y-103236290D01*
X116153000Y-103236290D01*
X116153000Y-100115400D01*
X118737536Y-100115400D01*
X118737536Y-102515400D01*
X118764103Y-102656590D01*
X118847546Y-102786265D01*
X118974866Y-102873259D01*
X119126000Y-102903864D01*
X125476000Y-102903864D01*
X125617190Y-102877297D01*
X125746865Y-102793854D01*
X125833859Y-102666534D01*
X125864464Y-102515400D01*
X125864464Y-101821400D01*
X126105842Y-101821400D01*
X126156541Y-101872187D01*
X126406746Y-101976082D01*
X126677665Y-101976318D01*
X126928052Y-101872861D01*
X127119787Y-101681459D01*
X127223682Y-101431254D01*
X127223918Y-101160335D01*
X127120461Y-100909948D01*
X126929059Y-100718213D01*
X126678854Y-100614318D01*
X126407935Y-100614082D01*
X126157548Y-100717539D01*
X126065527Y-100809400D01*
X125864464Y-100809400D01*
X125864464Y-100115400D01*
X125837897Y-99974210D01*
X125754454Y-99844535D01*
X125627134Y-99757541D01*
X125476000Y-99726936D01*
X119126000Y-99726936D01*
X118984810Y-99753503D01*
X118855135Y-99836946D01*
X118768141Y-99964266D01*
X118737536Y-100115400D01*
X116153000Y-100115400D01*
X116153000Y-97925200D01*
X128120536Y-97925200D01*
X128120536Y-99425200D01*
X128147103Y-99566390D01*
X128230546Y-99696065D01*
X128357866Y-99783059D01*
X128509000Y-99813664D01*
X128509461Y-99813664D01*
X128478118Y-99889146D01*
X128477882Y-100160065D01*
X128509562Y-100236736D01*
X128509000Y-100236736D01*
X128367810Y-100263303D01*
X128238135Y-100346746D01*
X128151141Y-100474066D01*
X128120536Y-100625200D01*
X128120536Y-102125200D01*
X128147103Y-102266390D01*
X128230546Y-102396065D01*
X128357866Y-102483059D01*
X128509000Y-102513664D01*
X129809000Y-102513664D01*
X129950190Y-102487097D01*
X130079865Y-102403654D01*
X130166859Y-102276334D01*
X130197464Y-102125200D01*
X130197464Y-101892640D01*
X130345336Y-101892640D01*
X130345336Y-101986080D01*
X130371903Y-102127270D01*
X130455346Y-102256945D01*
X130582666Y-102343939D01*
X130733800Y-102374544D01*
X131828000Y-102374544D01*
X131828000Y-102974136D01*
X131614800Y-102974136D01*
X131473610Y-103000703D01*
X131343935Y-103084146D01*
X131256941Y-103211466D01*
X131249800Y-103246730D01*
X131249800Y-103236290D01*
X131153127Y-103002901D01*
X130974498Y-102824273D01*
X130741109Y-102727600D01*
X130150550Y-102727600D01*
X129991800Y-102886350D01*
X129991800Y-103860600D01*
X130011800Y-103860600D01*
X130011800Y-104114600D01*
X129991800Y-104114600D01*
X129991800Y-105088850D01*
X130150550Y-105247600D01*
X130741109Y-105247600D01*
X130974498Y-105150927D01*
X131153127Y-104972299D01*
X131249800Y-104738910D01*
X131249800Y-104737299D01*
X131252903Y-104753790D01*
X131336346Y-104883465D01*
X131463666Y-104970459D01*
X131614800Y-105001064D01*
X133114800Y-105001064D01*
X133255990Y-104974497D01*
X133385665Y-104891054D01*
X133472659Y-104763734D01*
X133503264Y-104612600D01*
X133503264Y-103368400D01*
X135588136Y-103368400D01*
X135588136Y-104868400D01*
X135614703Y-105009590D01*
X135698146Y-105139265D01*
X135825466Y-105226259D01*
X135976600Y-105256864D01*
X137276600Y-105256864D01*
X137417790Y-105230297D01*
X137547465Y-105146854D01*
X137634459Y-105019534D01*
X137665064Y-104868400D01*
X137665064Y-104624400D01*
X138331336Y-104624400D01*
X138331336Y-104868400D01*
X138357903Y-105009590D01*
X138441346Y-105139265D01*
X138568666Y-105226259D01*
X138719800Y-105256864D01*
X140019800Y-105256864D01*
X140160990Y-105230297D01*
X140290665Y-105146854D01*
X140377659Y-105019534D01*
X140408264Y-104868400D01*
X140408264Y-103368400D01*
X140381697Y-103227210D01*
X140298254Y-103097535D01*
X140170934Y-103010541D01*
X140019800Y-102979936D01*
X138719800Y-102979936D01*
X138578610Y-103006503D01*
X138448935Y-103089946D01*
X138361941Y-103217266D01*
X138331336Y-103368400D01*
X138331336Y-103612400D01*
X137665064Y-103612400D01*
X137665064Y-103368400D01*
X137638497Y-103227210D01*
X137555054Y-103097535D01*
X137427734Y-103010541D01*
X137276600Y-102979936D01*
X135976600Y-102979936D01*
X135835410Y-103006503D01*
X135705735Y-103089946D01*
X135618741Y-103217266D01*
X135588136Y-103368400D01*
X133503264Y-103368400D01*
X133503264Y-103362600D01*
X133476697Y-103221410D01*
X133393254Y-103091735D01*
X133265934Y-103004741D01*
X133114800Y-102974136D01*
X132840000Y-102974136D01*
X132840000Y-102374544D01*
X133934200Y-102374544D01*
X134075390Y-102347977D01*
X134205065Y-102264534D01*
X134292059Y-102137214D01*
X134322664Y-101986080D01*
X134322664Y-101892640D01*
X135588136Y-101892640D01*
X135588136Y-102168400D01*
X135614703Y-102309590D01*
X135698146Y-102439265D01*
X135825466Y-102526259D01*
X135976600Y-102556864D01*
X137276600Y-102556864D01*
X137417790Y-102530297D01*
X137547465Y-102446854D01*
X137634459Y-102319534D01*
X137665064Y-102168400D01*
X137665064Y-101704150D01*
X138084800Y-101704150D01*
X138084800Y-102294709D01*
X138181473Y-102528098D01*
X138360101Y-102706727D01*
X138593490Y-102803400D01*
X139084050Y-102803400D01*
X139242800Y-102644650D01*
X139242800Y-101545400D01*
X139496800Y-101545400D01*
X139496800Y-102644650D01*
X139655550Y-102803400D01*
X140146110Y-102803400D01*
X140379499Y-102706727D01*
X140558127Y-102528098D01*
X140654800Y-102294709D01*
X140654800Y-101704150D01*
X140496050Y-101545400D01*
X139496800Y-101545400D01*
X139242800Y-101545400D01*
X138243550Y-101545400D01*
X138084800Y-101704150D01*
X137665064Y-101704150D01*
X137665064Y-100668400D01*
X137641298Y-100542091D01*
X138084800Y-100542091D01*
X138084800Y-101132650D01*
X138243550Y-101291400D01*
X139242800Y-101291400D01*
X139242800Y-101271400D01*
X139496800Y-101271400D01*
X139496800Y-101291400D01*
X140496050Y-101291400D01*
X140654800Y-101132650D01*
X140654800Y-100542091D01*
X140639287Y-100504639D01*
X140759027Y-100384898D01*
X140855700Y-100151509D01*
X140855700Y-100056950D01*
X140696950Y-99898200D01*
X139776200Y-99898200D01*
X139776200Y-99918200D01*
X139522200Y-99918200D01*
X139522200Y-99898200D01*
X138601450Y-99898200D01*
X138442700Y-100056950D01*
X138442700Y-100095859D01*
X138360101Y-100130073D01*
X138181473Y-100308702D01*
X138084800Y-100542091D01*
X137641298Y-100542091D01*
X137638497Y-100527210D01*
X137555054Y-100397535D01*
X137427734Y-100310541D01*
X137276600Y-100279936D01*
X135976600Y-100279936D01*
X135835410Y-100306503D01*
X135705735Y-100389946D01*
X135618741Y-100517266D01*
X135588136Y-100668400D01*
X135588136Y-100880640D01*
X134322664Y-100880640D01*
X134322664Y-100787200D01*
X134296097Y-100646010D01*
X134212654Y-100516335D01*
X134085334Y-100429341D01*
X133934200Y-100398736D01*
X132840000Y-100398736D01*
X132840000Y-99284634D01*
X133134100Y-99284634D01*
X133275290Y-99258067D01*
X133404965Y-99174624D01*
X133491959Y-99047304D01*
X133522564Y-98896170D01*
X133522564Y-97737200D01*
X135637715Y-97737200D01*
X135613536Y-97856600D01*
X135613536Y-99356600D01*
X135640103Y-99497790D01*
X135723546Y-99627465D01*
X135850866Y-99714459D01*
X136002000Y-99745064D01*
X137302000Y-99745064D01*
X137443190Y-99718497D01*
X137572865Y-99635054D01*
X137659859Y-99507734D01*
X137690464Y-99356600D01*
X137690464Y-99007200D01*
X138689674Y-99007200D01*
X138539373Y-99157502D01*
X138442700Y-99390891D01*
X138442700Y-99485450D01*
X138601450Y-99644200D01*
X139522200Y-99644200D01*
X139522200Y-99624200D01*
X139776200Y-99624200D01*
X139776200Y-99644200D01*
X140696950Y-99644200D01*
X140855700Y-99485450D01*
X140855700Y-99390891D01*
X140759027Y-99157502D01*
X140608726Y-99007200D01*
X141046200Y-99007200D01*
X141239838Y-98968683D01*
X141403996Y-98858996D01*
X141835796Y-98427196D01*
X141945483Y-98263038D01*
X141984000Y-98069400D01*
X141984000Y-94766664D01*
X142128000Y-94766664D01*
X142269190Y-94740097D01*
X142398865Y-94656654D01*
X142485859Y-94529334D01*
X142516464Y-94378200D01*
X142516464Y-92878200D01*
X142501448Y-92798400D01*
X142746839Y-92798400D01*
X142725536Y-92903600D01*
X142725536Y-94403600D01*
X142752103Y-94544790D01*
X142835546Y-94674465D01*
X142962866Y-94761459D01*
X143114000Y-94792064D01*
X144414000Y-94792064D01*
X144555190Y-94765497D01*
X144684865Y-94682054D01*
X144771859Y-94554734D01*
X144802464Y-94403600D01*
X144802464Y-94284600D01*
X145011136Y-94284600D01*
X145011136Y-94329000D01*
X145037703Y-94470190D01*
X145121146Y-94599865D01*
X145248466Y-94686859D01*
X145368200Y-94711105D01*
X145368200Y-95329932D01*
X145286510Y-95345303D01*
X145156835Y-95428746D01*
X145069841Y-95556066D01*
X145039236Y-95707200D01*
X145039236Y-96215200D01*
X145065803Y-96356390D01*
X145149246Y-96486065D01*
X145276566Y-96573059D01*
X145389488Y-96595926D01*
X145286510Y-96615303D01*
X145156835Y-96698746D01*
X145069841Y-96826066D01*
X145039236Y-96977200D01*
X145039236Y-97485200D01*
X145065803Y-97626390D01*
X145149246Y-97756065D01*
X145276566Y-97843059D01*
X145389488Y-97865926D01*
X145286510Y-97885303D01*
X145156835Y-97968746D01*
X145138760Y-97995200D01*
X144627600Y-97995200D01*
X144433962Y-98033717D01*
X144269804Y-98143404D01*
X143939604Y-98473604D01*
X143829917Y-98637762D01*
X143791400Y-98831400D01*
X143791400Y-101193600D01*
X143829917Y-101387238D01*
X143939604Y-101551396D01*
X144289804Y-101901596D01*
X144453962Y-102011283D01*
X144647600Y-102049800D01*
X145265136Y-102049800D01*
X145265136Y-102293800D01*
X145291703Y-102434990D01*
X145375146Y-102564665D01*
X145502466Y-102651659D01*
X145537730Y-102658800D01*
X145527290Y-102658800D01*
X145293901Y-102755473D01*
X145115273Y-102934102D01*
X145018600Y-103167491D01*
X145018600Y-103758050D01*
X145177350Y-103916800D01*
X146151600Y-103916800D01*
X146151600Y-103896800D01*
X146405600Y-103896800D01*
X146405600Y-103916800D01*
X147379850Y-103916800D01*
X147538600Y-103758050D01*
X147538600Y-103167491D01*
X147441927Y-102934102D01*
X147263299Y-102755473D01*
X147029910Y-102658800D01*
X147028299Y-102658800D01*
X147044790Y-102655697D01*
X147174465Y-102572254D01*
X147261459Y-102444934D01*
X147292064Y-102293800D01*
X147292064Y-102029800D01*
X149200336Y-102029800D01*
X149200336Y-102173800D01*
X149226903Y-102314990D01*
X149310346Y-102444665D01*
X149437666Y-102531659D01*
X149588800Y-102562264D01*
X149858200Y-102562264D01*
X149858200Y-103076136D01*
X149614200Y-103076136D01*
X149473010Y-103102703D01*
X149343335Y-103186146D01*
X149256341Y-103313466D01*
X149225736Y-103464600D01*
X149225736Y-104764600D01*
X149252303Y-104905790D01*
X149335746Y-105035465D01*
X149463066Y-105122459D01*
X149614200Y-105153064D01*
X151114200Y-105153064D01*
X151255390Y-105126497D01*
X151385065Y-105043054D01*
X151472059Y-104915734D01*
X151500780Y-104773904D01*
X151552746Y-104795482D01*
X151823665Y-104795718D01*
X151925736Y-104753543D01*
X151925736Y-104764600D01*
X151952303Y-104905790D01*
X152035746Y-105035465D01*
X152163066Y-105122459D01*
X152314200Y-105153064D01*
X153814200Y-105153064D01*
X153955390Y-105126497D01*
X154085065Y-105043054D01*
X154172059Y-104915734D01*
X154202664Y-104764600D01*
X154202664Y-103464600D01*
X154176097Y-103323410D01*
X154092654Y-103193735D01*
X153965334Y-103106741D01*
X153814200Y-103076136D01*
X152314200Y-103076136D01*
X152173010Y-103102703D01*
X152043335Y-103186146D01*
X151956341Y-103313466D01*
X151925736Y-103464600D01*
X151925736Y-103475608D01*
X151824854Y-103433718D01*
X151553935Y-103433482D01*
X151500930Y-103455383D01*
X151476097Y-103323410D01*
X151392654Y-103193735D01*
X151265334Y-103106741D01*
X151114200Y-103076136D01*
X150870200Y-103076136D01*
X150870200Y-102562264D01*
X151088800Y-102562264D01*
X151229990Y-102535697D01*
X151359665Y-102452254D01*
X151446659Y-102324934D01*
X151477264Y-102173800D01*
X151477264Y-101809550D01*
X151653800Y-101809550D01*
X151653800Y-102300110D01*
X151750473Y-102533499D01*
X151929102Y-102712127D01*
X152162491Y-102808800D01*
X152753050Y-102808800D01*
X152911800Y-102650050D01*
X152911800Y-101650800D01*
X153165800Y-101650800D01*
X153165800Y-102650050D01*
X153324550Y-102808800D01*
X153915109Y-102808800D01*
X154148498Y-102712127D01*
X154327127Y-102533499D01*
X154423800Y-102300110D01*
X154423800Y-101809550D01*
X154265050Y-101650800D01*
X153165800Y-101650800D01*
X152911800Y-101650800D01*
X151812550Y-101650800D01*
X151653800Y-101809550D01*
X151477264Y-101809550D01*
X151477264Y-100873800D01*
X151450697Y-100732610D01*
X151367254Y-100602935D01*
X151239934Y-100515941D01*
X151088800Y-100485336D01*
X149588800Y-100485336D01*
X149447610Y-100511903D01*
X149317935Y-100595346D01*
X149230941Y-100722666D01*
X149200336Y-100873800D01*
X149200336Y-101017800D01*
X147292064Y-101017800D01*
X147292064Y-100793800D01*
X147265497Y-100652610D01*
X147182054Y-100522935D01*
X147054734Y-100435941D01*
X146903600Y-100405336D01*
X146614959Y-100405336D01*
X146711890Y-100387097D01*
X146841565Y-100303654D01*
X146859640Y-100277200D01*
X152069785Y-100277200D01*
X151929102Y-100335473D01*
X151750473Y-100514101D01*
X151653800Y-100747490D01*
X151653800Y-101238050D01*
X151812550Y-101396800D01*
X152911800Y-101396800D01*
X152911800Y-101376800D01*
X153165800Y-101376800D01*
X153165800Y-101396800D01*
X154265050Y-101396800D01*
X154423800Y-101238050D01*
X154423800Y-100768150D01*
X158317200Y-100768150D01*
X158317200Y-103783710D01*
X158413873Y-104017099D01*
X158592502Y-104195727D01*
X158825891Y-104292400D01*
X159866450Y-104292400D01*
X160025200Y-104133650D01*
X160025200Y-100609400D01*
X160279200Y-100609400D01*
X160279200Y-104133650D01*
X160437950Y-104292400D01*
X161478509Y-104292400D01*
X161711898Y-104195727D01*
X161890527Y-104017099D01*
X161987200Y-103783710D01*
X161987200Y-100768150D01*
X161828450Y-100609400D01*
X160279200Y-100609400D01*
X160025200Y-100609400D01*
X158475950Y-100609400D01*
X158317200Y-100768150D01*
X154423800Y-100768150D01*
X154423800Y-100747490D01*
X154327127Y-100514101D01*
X154148498Y-100335473D01*
X153915109Y-100238800D01*
X153888450Y-100238800D01*
X153889038Y-100238683D01*
X154053196Y-100128996D01*
X154768196Y-99413996D01*
X154867618Y-99265200D01*
X154877883Y-99249838D01*
X154906123Y-99107864D01*
X155160400Y-99107864D01*
X155301590Y-99081297D01*
X155431265Y-98997854D01*
X155518259Y-98870534D01*
X155548864Y-98719400D01*
X155548864Y-97419400D01*
X155522297Y-97278210D01*
X155459803Y-97181090D01*
X158317200Y-97181090D01*
X158317200Y-100196650D01*
X158475950Y-100355400D01*
X160025200Y-100355400D01*
X160025200Y-96831150D01*
X160279200Y-96831150D01*
X160279200Y-100355400D01*
X161828450Y-100355400D01*
X161987200Y-100196650D01*
X161987200Y-97307400D01*
X165563736Y-97307400D01*
X165563736Y-103657400D01*
X165590303Y-103798590D01*
X165673746Y-103928265D01*
X165801066Y-104015259D01*
X165952200Y-104045864D01*
X168352200Y-104045864D01*
X168493390Y-104019297D01*
X168623065Y-103935854D01*
X168710059Y-103808534D01*
X168740664Y-103657400D01*
X168740664Y-102615800D01*
X169217736Y-102615800D01*
X169217736Y-102734800D01*
X169244303Y-102875990D01*
X169327746Y-103005665D01*
X169455066Y-103092659D01*
X169606200Y-103123264D01*
X170906200Y-103123264D01*
X171047390Y-103096697D01*
X171143115Y-103035100D01*
X171975936Y-103035100D01*
X171975936Y-104686100D01*
X172002503Y-104827290D01*
X172085946Y-104956965D01*
X172213266Y-105043959D01*
X172364400Y-105074564D01*
X175412400Y-105074564D01*
X175553590Y-105047997D01*
X175683265Y-104964554D01*
X175770259Y-104837234D01*
X175800864Y-104686100D01*
X175800864Y-103035100D01*
X175774297Y-102893910D01*
X175690854Y-102764235D01*
X175563534Y-102677241D01*
X175412400Y-102646636D01*
X174519400Y-102646636D01*
X174519400Y-101860350D01*
X176555400Y-101860350D01*
X176555400Y-104748909D01*
X176652073Y-104982298D01*
X176830701Y-105160927D01*
X177064090Y-105257600D01*
X179952650Y-105257600D01*
X180111400Y-105098850D01*
X180111400Y-101701600D01*
X180365400Y-101701600D01*
X180365400Y-105098850D01*
X180524150Y-105257600D01*
X183412710Y-105257600D01*
X183646099Y-105160927D01*
X183824727Y-104982298D01*
X183921400Y-104748909D01*
X183921400Y-101860350D01*
X183762650Y-101701600D01*
X180365400Y-101701600D01*
X180111400Y-101701600D01*
X176714150Y-101701600D01*
X176555400Y-101860350D01*
X174519400Y-101860350D01*
X174519400Y-101856182D01*
X174569282Y-101736054D01*
X174569518Y-101465135D01*
X174466061Y-101214748D01*
X174274659Y-101023013D01*
X174024454Y-100919118D01*
X173753535Y-100918882D01*
X173503148Y-101022339D01*
X173311413Y-101213741D01*
X173207518Y-101463946D01*
X173207282Y-101734865D01*
X173257400Y-101856161D01*
X173257400Y-102646636D01*
X172364400Y-102646636D01*
X172223210Y-102673203D01*
X172093535Y-102756646D01*
X172006541Y-102883966D01*
X171975936Y-103035100D01*
X171143115Y-103035100D01*
X171177065Y-103013254D01*
X171264059Y-102885934D01*
X171294664Y-102734800D01*
X171294664Y-101234800D01*
X171268097Y-101093610D01*
X171184654Y-100963935D01*
X171057334Y-100876941D01*
X170906200Y-100846336D01*
X169606200Y-100846336D01*
X169465010Y-100872903D01*
X169335335Y-100956346D01*
X169248341Y-101083666D01*
X169217736Y-101234800D01*
X169217736Y-101353800D01*
X168915969Y-101353800D01*
X168740664Y-101178495D01*
X168740664Y-98534800D01*
X169217736Y-98534800D01*
X169217736Y-100034800D01*
X169244303Y-100175990D01*
X169327746Y-100305665D01*
X169455066Y-100392659D01*
X169606200Y-100423264D01*
X170906200Y-100423264D01*
X171047390Y-100396697D01*
X171177065Y-100313254D01*
X171264059Y-100185934D01*
X171294664Y-100034800D01*
X171294664Y-99919600D01*
X171975936Y-99919600D01*
X171975936Y-100114100D01*
X172002503Y-100255290D01*
X172085946Y-100384965D01*
X172213266Y-100471959D01*
X172364400Y-100502564D01*
X175412400Y-100502564D01*
X175553590Y-100475997D01*
X175683265Y-100392554D01*
X175770259Y-100265234D01*
X175800864Y-100114100D01*
X175800864Y-98463100D01*
X175789046Y-98400291D01*
X176555400Y-98400291D01*
X176555400Y-101288850D01*
X176714150Y-101447600D01*
X180111400Y-101447600D01*
X180111400Y-98050350D01*
X180365400Y-98050350D01*
X180365400Y-101447600D01*
X183762650Y-101447600D01*
X183921400Y-101288850D01*
X183921400Y-98400291D01*
X183824727Y-98166902D01*
X183646099Y-97988273D01*
X183412710Y-97891600D01*
X180524150Y-97891600D01*
X180365400Y-98050350D01*
X180111400Y-98050350D01*
X179952650Y-97891600D01*
X177064090Y-97891600D01*
X176830701Y-97988273D01*
X176652073Y-98166902D01*
X176555400Y-98400291D01*
X175789046Y-98400291D01*
X175774297Y-98321910D01*
X175751156Y-98285947D01*
X175822968Y-98178473D01*
X175829944Y-98143404D01*
X175871000Y-97937000D01*
X175871000Y-97482664D01*
X175990000Y-97482664D01*
X176131190Y-97456097D01*
X176260865Y-97372654D01*
X176347859Y-97245334D01*
X176378464Y-97094200D01*
X176378464Y-95844200D01*
X176351897Y-95703010D01*
X176268454Y-95573335D01*
X176141134Y-95486341D01*
X175990000Y-95455736D01*
X174490000Y-95455736D01*
X174348810Y-95482303D01*
X174219135Y-95565746D01*
X174132141Y-95693066D01*
X174125000Y-95728330D01*
X174125000Y-95717890D01*
X174028327Y-95484501D01*
X173849698Y-95305873D01*
X173616309Y-95209200D01*
X173025750Y-95209200D01*
X172867000Y-95367950D01*
X172867000Y-96342200D01*
X172887000Y-96342200D01*
X172887000Y-96596200D01*
X172867000Y-96596200D01*
X172867000Y-97570450D01*
X173025750Y-97729200D01*
X173616309Y-97729200D01*
X173849698Y-97632527D01*
X174028327Y-97453899D01*
X174125000Y-97220510D01*
X174125000Y-97218899D01*
X174128103Y-97235390D01*
X174211546Y-97365065D01*
X174338866Y-97452059D01*
X174490000Y-97482664D01*
X174609000Y-97482664D01*
X174609000Y-97675632D01*
X174209996Y-98074636D01*
X172364400Y-98074636D01*
X172223210Y-98101203D01*
X172093535Y-98184646D01*
X172006541Y-98311966D01*
X171975936Y-98463100D01*
X171975936Y-98657600D01*
X171294664Y-98657600D01*
X171294664Y-98534800D01*
X171268097Y-98393610D01*
X171184654Y-98263935D01*
X171057334Y-98176941D01*
X170906200Y-98146336D01*
X169606200Y-98146336D01*
X169465010Y-98172903D01*
X169335335Y-98256346D01*
X169248341Y-98383666D01*
X169217736Y-98534800D01*
X168740664Y-98534800D01*
X168740664Y-97307400D01*
X168714097Y-97166210D01*
X168630654Y-97036535D01*
X168503334Y-96949541D01*
X168352200Y-96918936D01*
X165952200Y-96918936D01*
X165811010Y-96945503D01*
X165681335Y-97028946D01*
X165594341Y-97156266D01*
X165563736Y-97307400D01*
X161987200Y-97307400D01*
X161987200Y-97181090D01*
X161890527Y-96947701D01*
X161711898Y-96769073D01*
X161677803Y-96754950D01*
X171355000Y-96754950D01*
X171355000Y-97220510D01*
X171451673Y-97453899D01*
X171630302Y-97632527D01*
X171863691Y-97729200D01*
X172454250Y-97729200D01*
X172613000Y-97570450D01*
X172613000Y-96596200D01*
X171513750Y-96596200D01*
X171355000Y-96754950D01*
X161677803Y-96754950D01*
X161478509Y-96672400D01*
X160437950Y-96672400D01*
X160279200Y-96831150D01*
X160025200Y-96831150D01*
X159866450Y-96672400D01*
X158825891Y-96672400D01*
X158592502Y-96769073D01*
X158413873Y-96947701D01*
X158317200Y-97181090D01*
X155459803Y-97181090D01*
X155438854Y-97148535D01*
X155311534Y-97061541D01*
X155160400Y-97030936D01*
X154916400Y-97030936D01*
X154916400Y-95717890D01*
X171355000Y-95717890D01*
X171355000Y-96183450D01*
X171513750Y-96342200D01*
X172613000Y-96342200D01*
X172613000Y-95367950D01*
X172454250Y-95209200D01*
X171863691Y-95209200D01*
X171630302Y-95305873D01*
X171451673Y-95484501D01*
X171355000Y-95717890D01*
X154916400Y-95717890D01*
X154916400Y-94332664D01*
X155160400Y-94332664D01*
X155301590Y-94306097D01*
X155431265Y-94222654D01*
X155518259Y-94095334D01*
X155548864Y-93944200D01*
X155548864Y-93300550D01*
X158238190Y-93300550D01*
X158238190Y-93941210D01*
X158334863Y-94174599D01*
X158513492Y-94353227D01*
X158746881Y-94449900D01*
X160387030Y-94449900D01*
X160545780Y-94291150D01*
X160545780Y-93141800D01*
X160799780Y-93141800D01*
X160799780Y-94291150D01*
X160958530Y-94449900D01*
X162598679Y-94449900D01*
X162832068Y-94353227D01*
X163010697Y-94174599D01*
X163107370Y-93941210D01*
X163107370Y-93300550D01*
X162948620Y-93141800D01*
X160799780Y-93141800D01*
X160545780Y-93141800D01*
X158396940Y-93141800D01*
X158238190Y-93300550D01*
X155548864Y-93300550D01*
X155548864Y-92644200D01*
X155522297Y-92503010D01*
X155438854Y-92373335D01*
X155311534Y-92286341D01*
X155160400Y-92255736D01*
X154941456Y-92255736D01*
X155108802Y-92088390D01*
X158238190Y-92088390D01*
X158238190Y-92729050D01*
X158396940Y-92887800D01*
X160545780Y-92887800D01*
X160545780Y-91738450D01*
X160799780Y-91738450D01*
X160799780Y-92887800D01*
X162948620Y-92887800D01*
X163107370Y-92729050D01*
X163107370Y-92214700D01*
X163986366Y-92214700D01*
X163986366Y-93814900D01*
X164012933Y-93956090D01*
X164096376Y-94085765D01*
X164223696Y-94172759D01*
X164374830Y-94203364D01*
X165543420Y-94203364D01*
X165543420Y-94391267D01*
X165485918Y-94529746D01*
X165485682Y-94800665D01*
X165589139Y-95051052D01*
X165780541Y-95242787D01*
X166030746Y-95346682D01*
X166301665Y-95346918D01*
X166552052Y-95243461D01*
X166743787Y-95052059D01*
X166847682Y-94801854D01*
X166847918Y-94530935D01*
X166805420Y-94428081D01*
X166805420Y-94203364D01*
X167974010Y-94203364D01*
X168115200Y-94176797D01*
X168244875Y-94093354D01*
X168331869Y-93966034D01*
X168362474Y-93814900D01*
X168362474Y-93630750D01*
X171102600Y-93630750D01*
X171102600Y-94121310D01*
X171199273Y-94354699D01*
X171377902Y-94533327D01*
X171611291Y-94630000D01*
X172201850Y-94630000D01*
X172360600Y-94471250D01*
X172360600Y-93472000D01*
X172614600Y-93472000D01*
X172614600Y-94471250D01*
X172773350Y-94630000D01*
X173363909Y-94630000D01*
X173597298Y-94533327D01*
X173775927Y-94354699D01*
X173872600Y-94121310D01*
X173872600Y-93630750D01*
X173713850Y-93472000D01*
X172614600Y-93472000D01*
X172360600Y-93472000D01*
X171261350Y-93472000D01*
X171102600Y-93630750D01*
X168362474Y-93630750D01*
X168362474Y-92214700D01*
X168335907Y-92073510D01*
X168252464Y-91943835D01*
X168125144Y-91856841D01*
X167974010Y-91826236D01*
X164374830Y-91826236D01*
X164233640Y-91852803D01*
X164103965Y-91936246D01*
X164016971Y-92063566D01*
X163986366Y-92214700D01*
X163107370Y-92214700D01*
X163107370Y-92088390D01*
X163010697Y-91855001D01*
X162832068Y-91676373D01*
X162598679Y-91579700D01*
X160958530Y-91579700D01*
X160799780Y-91738450D01*
X160545780Y-91738450D01*
X160387030Y-91579700D01*
X158746881Y-91579700D01*
X158513492Y-91676373D01*
X158334863Y-91855001D01*
X158238190Y-92088390D01*
X155108802Y-92088390D01*
X155419396Y-91777796D01*
X155529083Y-91613638D01*
X155567600Y-91420000D01*
X155567600Y-85290664D01*
X155811600Y-85290664D01*
X155952790Y-85264097D01*
X156082465Y-85180654D01*
X156169459Y-85053334D01*
X156176600Y-85018070D01*
X156176600Y-85028510D01*
X156273273Y-85261899D01*
X156451902Y-85440527D01*
X156685291Y-85537200D01*
X157275850Y-85537200D01*
X157434600Y-85378450D01*
X157434600Y-84404200D01*
X157688600Y-84404200D01*
X157688600Y-85378450D01*
X157847350Y-85537200D01*
X158437909Y-85537200D01*
X158671298Y-85440527D01*
X158849927Y-85261899D01*
X158946600Y-85028510D01*
X158946600Y-84562950D01*
X158787850Y-84404200D01*
X157688600Y-84404200D01*
X157434600Y-84404200D01*
X157414600Y-84404200D01*
X157414600Y-84150200D01*
X157434600Y-84150200D01*
X157434600Y-83175950D01*
X157688600Y-83175950D01*
X157688600Y-84150200D01*
X158787850Y-84150200D01*
X158946600Y-83991450D01*
X158946600Y-83525890D01*
X158849927Y-83292501D01*
X158671298Y-83113873D01*
X158437909Y-83017200D01*
X157847350Y-83017200D01*
X157688600Y-83175950D01*
X157434600Y-83175950D01*
X157275850Y-83017200D01*
X156685291Y-83017200D01*
X156451902Y-83113873D01*
X156273273Y-83292501D01*
X156176600Y-83525890D01*
X156176600Y-83527501D01*
X156173497Y-83511010D01*
X156090054Y-83381335D01*
X155962734Y-83294341D01*
X155811600Y-83263736D01*
X155562800Y-83263736D01*
X155562800Y-81753938D01*
X155598040Y-81747307D01*
X155727715Y-81663864D01*
X155814709Y-81536544D01*
X155845314Y-81385410D01*
X155845314Y-81271110D01*
X155921750Y-81271110D01*
X155921750Y-81511720D01*
X156018423Y-81745109D01*
X156197052Y-81923737D01*
X156430441Y-82020410D01*
X156671050Y-82020410D01*
X156829800Y-81861660D01*
X156829800Y-81112360D01*
X157083800Y-81112360D01*
X157083800Y-81861660D01*
X157242550Y-82020410D01*
X157483159Y-82020410D01*
X157716548Y-81923737D01*
X157895177Y-81745109D01*
X157991850Y-81511720D01*
X157991850Y-81428652D01*
X158080863Y-81643548D01*
X158259491Y-81822177D01*
X158492880Y-81918850D01*
X158733490Y-81918850D01*
X158892240Y-81760100D01*
X158892240Y-81010800D01*
X158142940Y-81010800D01*
X157984190Y-81169550D01*
X157984190Y-81263450D01*
X157833100Y-81112360D01*
X157083800Y-81112360D01*
X156829800Y-81112360D01*
X156080500Y-81112360D01*
X155921750Y-81271110D01*
X155845314Y-81271110D01*
X155845314Y-80585310D01*
X155821547Y-80459000D01*
X155921750Y-80459000D01*
X155921750Y-80699610D01*
X156080500Y-80858360D01*
X156829800Y-80858360D01*
X156829800Y-80109060D01*
X157083800Y-80109060D01*
X157083800Y-80858360D01*
X157833100Y-80858360D01*
X157991850Y-80699610D01*
X157991850Y-80605710D01*
X158142940Y-80756800D01*
X158892240Y-80756800D01*
X158892240Y-80007500D01*
X158733490Y-79848750D01*
X158492880Y-79848750D01*
X158259491Y-79945423D01*
X158080863Y-80124052D01*
X157984190Y-80357441D01*
X157984190Y-80440507D01*
X157895177Y-80225611D01*
X157716548Y-80046983D01*
X157483159Y-79950310D01*
X157242550Y-79950310D01*
X157083800Y-80109060D01*
X156829800Y-80109060D01*
X156671050Y-79950310D01*
X156430441Y-79950310D01*
X156197052Y-80046983D01*
X156018423Y-80225611D01*
X155921750Y-80459000D01*
X155821547Y-80459000D01*
X155818747Y-80444120D01*
X155735304Y-80314445D01*
X155607984Y-80227451D01*
X155456850Y-80196846D01*
X154656750Y-80196846D01*
X154515560Y-80223413D01*
X154385885Y-80306856D01*
X154298891Y-80434176D01*
X154289741Y-80479360D01*
X153684955Y-80479360D01*
X153704134Y-80384650D01*
X153704134Y-79584550D01*
X153686791Y-79492380D01*
X155238222Y-79492380D01*
X155244853Y-79527620D01*
X155328296Y-79657295D01*
X155455616Y-79744289D01*
X155606750Y-79774894D01*
X156406850Y-79774894D01*
X156548040Y-79748327D01*
X156677715Y-79664884D01*
X156764709Y-79537564D01*
X156774381Y-79489800D01*
X158250662Y-79489800D01*
X158257293Y-79525040D01*
X158340736Y-79654715D01*
X158468056Y-79741709D01*
X158619190Y-79772314D01*
X159419290Y-79772314D01*
X159560480Y-79745747D01*
X159590200Y-79726623D01*
X159590200Y-79867224D01*
X159545600Y-79848750D01*
X159304990Y-79848750D01*
X159146240Y-80007500D01*
X159146240Y-80756800D01*
X159166240Y-80756800D01*
X159166240Y-81010800D01*
X159146240Y-81010800D01*
X159146240Y-81760100D01*
X159304990Y-81918850D01*
X159545600Y-81918850D01*
X159590200Y-81900376D01*
X159590200Y-84933800D01*
X159591136Y-84938506D01*
X159591136Y-86217200D01*
X159617703Y-86358390D01*
X159701146Y-86488065D01*
X159828466Y-86575059D01*
X159979600Y-86605664D01*
X159980061Y-86605664D01*
X159948718Y-86681146D01*
X159948482Y-86952065D01*
X159980162Y-87028736D01*
X159979600Y-87028736D01*
X159838410Y-87055303D01*
X159708735Y-87138746D01*
X159621741Y-87266066D01*
X159591136Y-87417200D01*
X159591136Y-88917200D01*
X159617703Y-89058390D01*
X159701146Y-89188065D01*
X159828466Y-89275059D01*
X159979600Y-89305664D01*
X161279600Y-89305664D01*
X161420790Y-89279097D01*
X161550465Y-89195654D01*
X161637459Y-89068334D01*
X161668064Y-88917200D01*
X161668064Y-88427550D01*
X161757600Y-88427550D01*
X161757600Y-89018109D01*
X161854273Y-89251498D01*
X162032901Y-89430127D01*
X162266290Y-89526800D01*
X162756850Y-89526800D01*
X162915600Y-89368050D01*
X162915600Y-88268800D01*
X163169600Y-88268800D01*
X163169600Y-89368050D01*
X163328350Y-89526800D01*
X163818910Y-89526800D01*
X164052299Y-89430127D01*
X164230927Y-89251498D01*
X164327600Y-89018109D01*
X164327600Y-88427550D01*
X164168850Y-88268800D01*
X163169600Y-88268800D01*
X162915600Y-88268800D01*
X161916350Y-88268800D01*
X161757600Y-88427550D01*
X161668064Y-88427550D01*
X161668064Y-87417200D01*
X161641497Y-87276010D01*
X161634729Y-87265491D01*
X161757600Y-87265491D01*
X161757600Y-87856050D01*
X161916350Y-88014800D01*
X162915600Y-88014800D01*
X162915600Y-86915550D01*
X163169600Y-86915550D01*
X163169600Y-88014800D01*
X164168850Y-88014800D01*
X164327600Y-87856050D01*
X164327600Y-87265491D01*
X164230927Y-87032102D01*
X164052299Y-86853473D01*
X163818910Y-86756800D01*
X163328350Y-86756800D01*
X163169600Y-86915550D01*
X162915600Y-86915550D01*
X162756850Y-86756800D01*
X162266290Y-86756800D01*
X162032901Y-86853473D01*
X161854273Y-87032102D01*
X161757600Y-87265491D01*
X161634729Y-87265491D01*
X161558054Y-87146335D01*
X161430734Y-87059341D01*
X161279600Y-87028736D01*
X161279139Y-87028736D01*
X161310482Y-86953254D01*
X161310718Y-86682335D01*
X161279038Y-86605664D01*
X161279600Y-86605664D01*
X161420790Y-86579097D01*
X161550465Y-86495654D01*
X161637459Y-86368334D01*
X161668064Y-86217200D01*
X161668064Y-85947800D01*
X162004136Y-85947800D01*
X162004136Y-86191800D01*
X162030703Y-86332990D01*
X162114146Y-86462665D01*
X162241466Y-86549659D01*
X162392600Y-86580264D01*
X163692600Y-86580264D01*
X163833790Y-86553697D01*
X163963465Y-86470254D01*
X164050459Y-86342934D01*
X164081064Y-86191800D01*
X164081064Y-85947800D01*
X166271336Y-85947800D01*
X166271336Y-86224800D01*
X166297903Y-86365990D01*
X166381346Y-86495665D01*
X166508666Y-86582659D01*
X166659800Y-86613264D01*
X167959800Y-86613264D01*
X168100990Y-86586697D01*
X168230665Y-86503254D01*
X168317659Y-86375934D01*
X168348264Y-86224800D01*
X168348264Y-84724800D01*
X168321697Y-84583610D01*
X168238254Y-84453935D01*
X168110934Y-84366941D01*
X167959800Y-84336336D01*
X166659800Y-84336336D01*
X166518610Y-84362903D01*
X166388935Y-84446346D01*
X166301941Y-84573666D01*
X166271336Y-84724800D01*
X166271336Y-84935800D01*
X164081064Y-84935800D01*
X164081064Y-84691800D01*
X164054497Y-84550610D01*
X163971054Y-84420935D01*
X163843734Y-84333941D01*
X163692600Y-84303336D01*
X162392600Y-84303336D01*
X162251410Y-84329903D01*
X162121735Y-84413346D01*
X162034741Y-84540666D01*
X162004136Y-84691800D01*
X162004136Y-84935800D01*
X161668064Y-84935800D01*
X161668064Y-84717200D01*
X161641497Y-84576010D01*
X161558054Y-84446335D01*
X161430734Y-84359341D01*
X161279600Y-84328736D01*
X160602200Y-84328736D01*
X160602200Y-82761065D01*
X160710482Y-82761065D01*
X160813939Y-83011452D01*
X161005341Y-83203187D01*
X161255546Y-83307082D01*
X161526465Y-83307318D01*
X161638564Y-83261000D01*
X162004136Y-83261000D01*
X162004136Y-83380000D01*
X162030703Y-83521190D01*
X162114146Y-83650865D01*
X162241466Y-83737859D01*
X162392600Y-83768464D01*
X163692600Y-83768464D01*
X163833790Y-83741897D01*
X163963465Y-83658454D01*
X164050459Y-83531134D01*
X164081064Y-83380000D01*
X164081064Y-81880000D01*
X164054497Y-81738810D01*
X163971054Y-81609135D01*
X163843734Y-81522141D01*
X163692600Y-81491536D01*
X162392600Y-81491536D01*
X162251410Y-81518103D01*
X162121735Y-81601546D01*
X162034741Y-81728866D01*
X162004136Y-81880000D01*
X162004136Y-81999000D01*
X161656934Y-81999000D01*
X161527654Y-81945318D01*
X161256735Y-81945082D01*
X161006348Y-82048539D01*
X160814613Y-82239941D01*
X160710718Y-82490146D01*
X160710482Y-82761065D01*
X160602200Y-82761065D01*
X160602200Y-80719080D01*
X160618170Y-80722314D01*
X161418270Y-80722314D01*
X161559460Y-80695747D01*
X161689135Y-80612304D01*
X161776129Y-80484984D01*
X161785279Y-80439800D01*
X162004136Y-80439800D01*
X162004136Y-80680000D01*
X162030703Y-80821190D01*
X162114146Y-80950865D01*
X162241466Y-81037859D01*
X162392600Y-81068464D01*
X163692600Y-81068464D01*
X163833790Y-81041897D01*
X163963465Y-80958454D01*
X164050459Y-80831134D01*
X164081064Y-80680000D01*
X164081064Y-80436000D01*
X168991436Y-80436000D01*
X168991436Y-81483200D01*
X169018003Y-81624390D01*
X169101446Y-81754065D01*
X169191213Y-81815400D01*
X168277805Y-81815400D01*
X168238254Y-81753935D01*
X168110934Y-81666941D01*
X167959800Y-81636336D01*
X166659800Y-81636336D01*
X166518610Y-81662903D01*
X166388935Y-81746346D01*
X166301941Y-81873666D01*
X166271336Y-82024800D01*
X166271336Y-83524800D01*
X166297903Y-83665990D01*
X166381346Y-83795665D01*
X166508666Y-83882659D01*
X166659800Y-83913264D01*
X167959800Y-83913264D01*
X168100990Y-83886697D01*
X168230665Y-83803254D01*
X168317659Y-83675934D01*
X168348264Y-83524800D01*
X168348264Y-83261200D01*
X169054936Y-83261200D01*
X169054936Y-89357200D01*
X169081503Y-89498390D01*
X169164946Y-89628065D01*
X169292266Y-89715059D01*
X169443400Y-89745664D01*
X171981600Y-89745664D01*
X171981600Y-90096736D01*
X171737600Y-90096736D01*
X171596410Y-90123303D01*
X171466735Y-90206746D01*
X171379741Y-90334066D01*
X171349136Y-90485200D01*
X171349136Y-91785200D01*
X171375703Y-91926390D01*
X171459146Y-92056065D01*
X171520154Y-92097750D01*
X171377902Y-92156673D01*
X171199273Y-92335301D01*
X171102600Y-92568690D01*
X171102600Y-93059250D01*
X171261350Y-93218000D01*
X172360600Y-93218000D01*
X172360600Y-93198000D01*
X172614600Y-93198000D01*
X172614600Y-93218000D01*
X173713850Y-93218000D01*
X173872600Y-93059250D01*
X173872600Y-92568690D01*
X173775927Y-92335301D01*
X173597298Y-92156673D01*
X173455309Y-92097859D01*
X173508465Y-92063654D01*
X173595459Y-91936334D01*
X173626064Y-91785200D01*
X173626064Y-90485200D01*
X174049136Y-90485200D01*
X174049136Y-91785200D01*
X174075703Y-91926390D01*
X174159146Y-92056065D01*
X174286466Y-92143059D01*
X174437600Y-92173664D01*
X174681600Y-92173664D01*
X174681600Y-92306536D01*
X174437600Y-92306536D01*
X174296410Y-92333103D01*
X174166735Y-92416546D01*
X174079741Y-92543866D01*
X174049136Y-92695000D01*
X174049136Y-93995000D01*
X174075703Y-94136190D01*
X174159146Y-94265865D01*
X174286466Y-94352859D01*
X174437600Y-94383464D01*
X175937600Y-94383464D01*
X176078790Y-94356897D01*
X176208465Y-94273454D01*
X176295459Y-94146134D01*
X176326064Y-93995000D01*
X176326064Y-93851000D01*
X176490690Y-93851000D01*
X176494453Y-93871000D01*
X176577896Y-94000675D01*
X176705216Y-94087669D01*
X176856350Y-94118274D01*
X177656450Y-94118274D01*
X177797640Y-94091707D01*
X177927315Y-94008264D01*
X178014309Y-93880944D01*
X178044914Y-93729810D01*
X178044914Y-93615510D01*
X178121350Y-93615510D01*
X178121350Y-93856120D01*
X178218023Y-94089509D01*
X178396652Y-94268137D01*
X178630041Y-94364810D01*
X178870650Y-94364810D01*
X179029400Y-94206060D01*
X179029400Y-93456760D01*
X178280100Y-93456760D01*
X178121350Y-93615510D01*
X178044914Y-93615510D01*
X178044914Y-92929710D01*
X178021147Y-92803400D01*
X178121350Y-92803400D01*
X178121350Y-93044010D01*
X178280100Y-93202760D01*
X179029400Y-93202760D01*
X179029400Y-92453460D01*
X178870650Y-92294710D01*
X178630041Y-92294710D01*
X178396652Y-92391383D01*
X178218023Y-92570011D01*
X178121350Y-92803400D01*
X178021147Y-92803400D01*
X178018347Y-92788520D01*
X177934904Y-92658845D01*
X177807584Y-92571851D01*
X177656450Y-92541246D01*
X176856350Y-92541246D01*
X176715160Y-92567813D01*
X176585485Y-92651256D01*
X176498491Y-92778576D01*
X176486255Y-92839000D01*
X176326064Y-92839000D01*
X176326064Y-92695000D01*
X176299497Y-92553810D01*
X176216054Y-92424135D01*
X176088734Y-92337141D01*
X175937600Y-92306536D01*
X175693600Y-92306536D01*
X175693600Y-92173664D01*
X175937600Y-92173664D01*
X176078790Y-92147097D01*
X176208465Y-92063654D01*
X176295459Y-91936334D01*
X176326064Y-91785200D01*
X176326064Y-90930730D01*
X177417886Y-90930730D01*
X177417886Y-91730830D01*
X177444453Y-91872020D01*
X177527896Y-92001695D01*
X177655216Y-92088689D01*
X177806350Y-92119294D01*
X178606450Y-92119294D01*
X178747640Y-92092727D01*
X178877315Y-92009284D01*
X178964309Y-91881964D01*
X178973459Y-91836780D01*
X180139736Y-91836780D01*
X180139736Y-92084600D01*
X180166303Y-92225790D01*
X180249746Y-92355465D01*
X180377066Y-92442459D01*
X180528200Y-92473064D01*
X180543514Y-92473064D01*
X180522718Y-92523146D01*
X180522482Y-92794065D01*
X180564657Y-92896136D01*
X180528200Y-92896136D01*
X180387010Y-92922703D01*
X180257335Y-93006146D01*
X180170341Y-93133466D01*
X180156309Y-93202758D01*
X180032702Y-93202758D01*
X180191450Y-93044010D01*
X180191450Y-92803400D01*
X180094777Y-92570011D01*
X179916148Y-92391383D01*
X179682759Y-92294710D01*
X179442150Y-92294710D01*
X179283400Y-92453460D01*
X179283400Y-93202760D01*
X179303400Y-93202760D01*
X179303400Y-93456760D01*
X179283400Y-93456760D01*
X179283400Y-94206060D01*
X179442150Y-94364810D01*
X179682759Y-94364810D01*
X179916148Y-94268137D01*
X180094777Y-94089509D01*
X180139736Y-93980968D01*
X180139736Y-94784600D01*
X180166303Y-94925790D01*
X180249746Y-95055465D01*
X180377066Y-95142459D01*
X180528200Y-95173064D01*
X180541800Y-95173064D01*
X180541800Y-95531936D01*
X180422800Y-95531936D01*
X180281610Y-95558503D01*
X180151935Y-95641946D01*
X180064941Y-95769266D01*
X180034336Y-95920400D01*
X180034336Y-97170400D01*
X180060903Y-97311590D01*
X180144346Y-97441265D01*
X180271666Y-97528259D01*
X180422800Y-97558864D01*
X181922800Y-97558864D01*
X182063990Y-97532297D01*
X182193665Y-97448854D01*
X182280659Y-97321534D01*
X182287800Y-97286270D01*
X182287800Y-97296710D01*
X182384473Y-97530099D01*
X182563102Y-97708727D01*
X182796491Y-97805400D01*
X183387050Y-97805400D01*
X183545800Y-97646650D01*
X183545800Y-96672400D01*
X183799800Y-96672400D01*
X183799800Y-97646650D01*
X183958550Y-97805400D01*
X184549109Y-97805400D01*
X184782498Y-97708727D01*
X184961127Y-97530099D01*
X185057800Y-97296710D01*
X185057800Y-96831150D01*
X184899050Y-96672400D01*
X183799800Y-96672400D01*
X183545800Y-96672400D01*
X183525800Y-96672400D01*
X183525800Y-96418400D01*
X183545800Y-96418400D01*
X183545800Y-95444150D01*
X183799800Y-95444150D01*
X183799800Y-96418400D01*
X184899050Y-96418400D01*
X185057800Y-96259650D01*
X185057800Y-95794090D01*
X184961127Y-95560701D01*
X184782498Y-95382073D01*
X184549109Y-95285400D01*
X183958550Y-95285400D01*
X183799800Y-95444150D01*
X183545800Y-95444150D01*
X183387050Y-95285400D01*
X182796491Y-95285400D01*
X182563102Y-95382073D01*
X182384473Y-95560701D01*
X182287800Y-95794090D01*
X182287800Y-95795701D01*
X182284697Y-95779210D01*
X182201254Y-95649535D01*
X182073934Y-95562541D01*
X181922800Y-95531936D01*
X181803800Y-95531936D01*
X181803800Y-95173064D01*
X181828200Y-95173064D01*
X181969390Y-95146497D01*
X182099065Y-95063054D01*
X182186059Y-94935734D01*
X182216664Y-94784600D01*
X182216664Y-93284600D01*
X182190097Y-93143410D01*
X182106654Y-93013735D01*
X181979334Y-92926741D01*
X181841476Y-92898824D01*
X181884482Y-92795254D01*
X181884718Y-92524335D01*
X181860985Y-92466895D01*
X181969390Y-92446497D01*
X182099065Y-92363054D01*
X182186059Y-92235734D01*
X182216664Y-92084600D01*
X182216664Y-90584600D01*
X182190097Y-90443410D01*
X182106654Y-90313735D01*
X181979334Y-90226741D01*
X181828200Y-90196136D01*
X181684200Y-90196136D01*
X181684200Y-88398350D01*
X181876700Y-88398350D01*
X181876700Y-89762910D01*
X181973373Y-89996299D01*
X182152002Y-90174927D01*
X182385391Y-90271600D01*
X183051450Y-90271600D01*
X183210200Y-90112850D01*
X183210200Y-88239600D01*
X183464200Y-88239600D01*
X183464200Y-90112850D01*
X183622950Y-90271600D01*
X184289009Y-90271600D01*
X184522398Y-90174927D01*
X184701027Y-89996299D01*
X184797700Y-89762910D01*
X184797700Y-88398350D01*
X184638950Y-88239600D01*
X183464200Y-88239600D01*
X183210200Y-88239600D01*
X182035450Y-88239600D01*
X181876700Y-88398350D01*
X181684200Y-88398350D01*
X181684200Y-86462290D01*
X181876700Y-86462290D01*
X181876700Y-87826850D01*
X182035450Y-87985600D01*
X183210200Y-87985600D01*
X183210200Y-86112350D01*
X183464200Y-86112350D01*
X183464200Y-87985600D01*
X184638950Y-87985600D01*
X184797700Y-87826850D01*
X184797700Y-86462290D01*
X184701027Y-86228901D01*
X184522398Y-86050273D01*
X184289009Y-85953600D01*
X183622950Y-85953600D01*
X183464200Y-86112350D01*
X183210200Y-86112350D01*
X183051450Y-85953600D01*
X182385391Y-85953600D01*
X182152002Y-86050273D01*
X181973373Y-86228901D01*
X181876700Y-86462290D01*
X181684200Y-86462290D01*
X181684200Y-85199064D01*
X184099200Y-85199064D01*
X184240390Y-85172497D01*
X184370065Y-85089054D01*
X184457059Y-84961734D01*
X184487664Y-84810600D01*
X184487664Y-78714600D01*
X184461097Y-78573410D01*
X184377654Y-78443735D01*
X184250334Y-78356741D01*
X184099200Y-78326136D01*
X178003200Y-78326136D01*
X177862010Y-78352703D01*
X177732335Y-78436146D01*
X177645341Y-78563466D01*
X177614736Y-78714600D01*
X177614736Y-84810600D01*
X177641303Y-84951790D01*
X177724746Y-85081465D01*
X177852066Y-85168459D01*
X178003200Y-85199064D01*
X180672200Y-85199064D01*
X180672200Y-90196136D01*
X180528200Y-90196136D01*
X180387010Y-90222703D01*
X180257335Y-90306146D01*
X180170341Y-90433466D01*
X180139736Y-90584600D01*
X180139736Y-90824780D01*
X178974978Y-90824780D01*
X178968347Y-90789540D01*
X178884904Y-90659865D01*
X178757584Y-90572871D01*
X178606450Y-90542266D01*
X177806350Y-90542266D01*
X177665160Y-90568833D01*
X177535485Y-90652276D01*
X177448491Y-90779596D01*
X177417886Y-90930730D01*
X176326064Y-90930730D01*
X176326064Y-90485200D01*
X176299497Y-90344010D01*
X176216054Y-90214335D01*
X176088734Y-90127341D01*
X175937600Y-90096736D01*
X174437600Y-90096736D01*
X174296410Y-90123303D01*
X174166735Y-90206746D01*
X174079741Y-90334066D01*
X174049136Y-90485200D01*
X173626064Y-90485200D01*
X173599497Y-90344010D01*
X173516054Y-90214335D01*
X173388734Y-90127341D01*
X173237600Y-90096736D01*
X172993600Y-90096736D01*
X172993600Y-89745664D01*
X175539400Y-89745664D01*
X175680590Y-89719097D01*
X175810265Y-89635654D01*
X175897259Y-89508334D01*
X175927864Y-89357200D01*
X175927864Y-88247465D01*
X176356882Y-88247465D01*
X176460339Y-88497852D01*
X176651741Y-88689587D01*
X176901946Y-88793482D01*
X177172865Y-88793718D01*
X177294161Y-88743600D01*
X177551236Y-88743600D01*
X177551236Y-89636600D01*
X177577803Y-89777790D01*
X177661246Y-89907465D01*
X177788566Y-89994459D01*
X177939700Y-90025064D01*
X179590700Y-90025064D01*
X179731890Y-89998497D01*
X179861565Y-89915054D01*
X179948559Y-89787734D01*
X179979164Y-89636600D01*
X179979164Y-86588600D01*
X179952597Y-86447410D01*
X179869154Y-86317735D01*
X179741834Y-86230741D01*
X179590700Y-86200136D01*
X177939700Y-86200136D01*
X177798510Y-86226703D01*
X177668835Y-86310146D01*
X177581841Y-86437466D01*
X177551236Y-86588600D01*
X177551236Y-87481600D01*
X177294182Y-87481600D01*
X177174054Y-87431718D01*
X176903135Y-87431482D01*
X176652748Y-87534939D01*
X176461013Y-87726341D01*
X176357118Y-87976546D01*
X176356882Y-88247465D01*
X175927864Y-88247465D01*
X175927864Y-83261200D01*
X175901297Y-83120010D01*
X175817854Y-82990335D01*
X175690534Y-82903341D01*
X175539400Y-82872736D01*
X169443400Y-82872736D01*
X169302210Y-82899303D01*
X169172535Y-82982746D01*
X169085541Y-83110066D01*
X169054936Y-83261200D01*
X168348264Y-83261200D01*
X168348264Y-82827400D01*
X174421800Y-82827400D01*
X174615438Y-82788883D01*
X174779596Y-82679196D01*
X175135196Y-82323596D01*
X175244883Y-82159438D01*
X175283400Y-81965800D01*
X175283400Y-81871664D01*
X175602900Y-81871664D01*
X175744090Y-81845097D01*
X175873765Y-81761654D01*
X175960759Y-81634334D01*
X175991364Y-81483200D01*
X175991364Y-78435200D01*
X175964797Y-78294010D01*
X175881354Y-78164335D01*
X175754034Y-78077341D01*
X175602900Y-78046736D01*
X173951900Y-78046736D01*
X173810710Y-78073303D01*
X173681035Y-78156746D01*
X173594041Y-78284066D01*
X173563436Y-78435200D01*
X173563436Y-81483200D01*
X173590003Y-81624390D01*
X173673446Y-81754065D01*
X173763213Y-81815400D01*
X171218241Y-81815400D01*
X171301765Y-81761654D01*
X171388759Y-81634334D01*
X171419364Y-81483200D01*
X171419364Y-78435200D01*
X171392797Y-78294010D01*
X171309354Y-78164335D01*
X171182034Y-78077341D01*
X171030900Y-78046736D01*
X169379900Y-78046736D01*
X169238710Y-78073303D01*
X169109035Y-78156746D01*
X169022041Y-78284066D01*
X168991436Y-78435200D01*
X168991436Y-79424000D01*
X164081064Y-79424000D01*
X164081064Y-79180000D01*
X164054497Y-79038810D01*
X163971054Y-78909135D01*
X163843734Y-78822141D01*
X163692600Y-78791536D01*
X162392600Y-78791536D01*
X162251410Y-78818103D01*
X162121735Y-78901546D01*
X162034741Y-79028866D01*
X162004136Y-79180000D01*
X162004136Y-79427800D01*
X161786798Y-79427800D01*
X161780167Y-79392560D01*
X161696724Y-79262885D01*
X161569404Y-79175891D01*
X161418270Y-79145286D01*
X160618170Y-79145286D01*
X160592822Y-79150056D01*
X160563683Y-79003562D01*
X160453996Y-78839404D01*
X160240596Y-78626004D01*
X160076438Y-78516317D01*
X159882800Y-78477800D01*
X159787818Y-78477800D01*
X159781187Y-78442560D01*
X159697744Y-78312885D01*
X159570424Y-78225891D01*
X159419290Y-78195286D01*
X158619190Y-78195286D01*
X158478000Y-78221853D01*
X158348325Y-78305296D01*
X158261331Y-78432616D01*
X158252181Y-78477800D01*
X156774892Y-78477800D01*
X156768747Y-78445140D01*
X156685304Y-78315465D01*
X156557984Y-78228471D01*
X156406850Y-78197866D01*
X155606750Y-78197866D01*
X155465560Y-78224433D01*
X155335885Y-78307876D01*
X155248891Y-78435196D01*
X155239741Y-78480380D01*
X151670235Y-78480380D01*
X151595144Y-78363685D01*
X151467824Y-78276691D01*
X151316690Y-78246086D01*
X150516590Y-78246086D01*
X150375400Y-78272653D01*
X150245725Y-78356096D01*
X150158731Y-78483416D01*
X150128126Y-78634550D01*
X150128126Y-79434650D01*
X150154693Y-79575840D01*
X150238136Y-79705515D01*
X150365456Y-79792509D01*
X150516590Y-79823114D01*
X151316690Y-79823114D01*
X151457880Y-79796547D01*
X151587555Y-79713104D01*
X151674549Y-79585784D01*
X151693464Y-79492380D01*
X152145771Y-79492380D01*
X152127106Y-79584550D01*
X152127106Y-80384650D01*
X152153673Y-80525840D01*
X152237116Y-80655515D01*
X152364436Y-80742509D01*
X152409620Y-80751659D01*
X152409620Y-80906620D01*
X152448137Y-81100258D01*
X152557824Y-81264416D01*
X152636564Y-81343156D01*
X152800722Y-81452843D01*
X152994360Y-81491360D01*
X154288222Y-81491360D01*
X154294853Y-81526600D01*
X154378296Y-81656275D01*
X154505616Y-81743269D01*
X154550800Y-81752419D01*
X154550800Y-83263736D01*
X154311600Y-83263736D01*
X154170410Y-83290303D01*
X154040735Y-83373746D01*
X153953741Y-83501066D01*
X153923136Y-83652200D01*
X153923136Y-84902200D01*
X153949703Y-85043390D01*
X154033146Y-85173065D01*
X154160466Y-85260059D01*
X154311600Y-85290664D01*
X154555600Y-85290664D01*
X154555600Y-91210408D01*
X154273000Y-91493008D01*
X154273000Y-91166950D01*
X154114250Y-91008200D01*
X153015000Y-91008200D01*
X153015000Y-91028200D01*
X152761000Y-91028200D01*
X152761000Y-91008200D01*
X152741000Y-91008200D01*
X152741000Y-90754200D01*
X152761000Y-90754200D01*
X152761000Y-90734200D01*
X153015000Y-90734200D01*
X153015000Y-90754200D01*
X154114250Y-90754200D01*
X154273000Y-90595450D01*
X154273000Y-90129890D01*
X154176327Y-89896501D01*
X153997698Y-89717873D01*
X153892910Y-89674468D01*
X154008865Y-89599854D01*
X154095859Y-89472534D01*
X154126464Y-89321400D01*
X154126464Y-88021400D01*
X154099897Y-87880210D01*
X154016454Y-87750535D01*
X153889134Y-87663541D01*
X153738000Y-87632936D01*
X153494000Y-87632936D01*
X153494000Y-87525464D01*
X153738000Y-87525464D01*
X153879190Y-87498897D01*
X154008865Y-87415454D01*
X154095859Y-87288134D01*
X154126464Y-87137000D01*
X154126464Y-85837000D01*
X154099897Y-85695810D01*
X154016454Y-85566135D01*
X153889134Y-85479141D01*
X153738000Y-85448536D01*
X152591549Y-85448536D01*
X152764377Y-85275709D01*
X152861050Y-85042320D01*
X152861050Y-84801710D01*
X152702300Y-84642960D01*
X151953000Y-84642960D01*
X151953000Y-85392260D01*
X152059714Y-85498974D01*
X151967135Y-85558546D01*
X151880141Y-85685866D01*
X151849536Y-85837000D01*
X151849536Y-87137000D01*
X151876103Y-87278190D01*
X151924331Y-87353139D01*
X151690996Y-87119804D01*
X151673000Y-87107779D01*
X151673000Y-86772750D01*
X151514250Y-86614000D01*
X150415000Y-86614000D01*
X150415000Y-86634000D01*
X150161000Y-86634000D01*
X150161000Y-86614000D01*
X149061750Y-86614000D01*
X148903000Y-86772750D01*
X148903000Y-86971600D01*
X146861293Y-86971600D01*
X146849154Y-86952735D01*
X146721834Y-86865741D01*
X146608912Y-86842874D01*
X146711890Y-86823497D01*
X146841565Y-86740054D01*
X146928559Y-86612734D01*
X146959164Y-86461600D01*
X146959164Y-86078600D01*
X147548600Y-86078600D01*
X147742238Y-86040083D01*
X147906396Y-85930396D01*
X148814832Y-85021960D01*
X149157422Y-85021960D01*
X149164053Y-85057200D01*
X149247496Y-85186875D01*
X149323248Y-85238634D01*
X149178302Y-85298673D01*
X148999673Y-85477301D01*
X148903000Y-85710690D01*
X148903000Y-86201250D01*
X149061750Y-86360000D01*
X150161000Y-86360000D01*
X150161000Y-86340000D01*
X150415000Y-86340000D01*
X150415000Y-86360000D01*
X151514250Y-86360000D01*
X151673000Y-86201250D01*
X151673000Y-85710690D01*
X151587349Y-85503911D01*
X151699000Y-85392260D01*
X151699000Y-84642960D01*
X150949700Y-84642960D01*
X150790950Y-84801710D01*
X150790950Y-85042320D01*
X150857092Y-85202000D01*
X150585204Y-85202000D01*
X150596915Y-85194464D01*
X150683909Y-85067144D01*
X150714514Y-84916010D01*
X150714514Y-84115910D01*
X150690747Y-83989600D01*
X150790950Y-83989600D01*
X150790950Y-84230210D01*
X150949700Y-84388960D01*
X151699000Y-84388960D01*
X151699000Y-83639660D01*
X151953000Y-83639660D01*
X151953000Y-84388960D01*
X152702300Y-84388960D01*
X152861050Y-84230210D01*
X152861050Y-83989600D01*
X152764377Y-83756211D01*
X152585748Y-83577583D01*
X152352359Y-83480910D01*
X152111750Y-83480910D01*
X151953000Y-83639660D01*
X151699000Y-83639660D01*
X151540250Y-83480910D01*
X151299641Y-83480910D01*
X151066252Y-83577583D01*
X150887623Y-83756211D01*
X150790950Y-83989600D01*
X150690747Y-83989600D01*
X150687947Y-83974720D01*
X150604504Y-83845045D01*
X150477184Y-83758051D01*
X150326050Y-83727446D01*
X149525950Y-83727446D01*
X149384760Y-83754013D01*
X149255085Y-83837456D01*
X149168091Y-83964776D01*
X149158941Y-84009960D01*
X148605240Y-84009960D01*
X148411602Y-84048477D01*
X148359094Y-84083562D01*
X148247444Y-84158164D01*
X147339008Y-85066600D01*
X146959164Y-85066600D01*
X146959164Y-84683600D01*
X146932597Y-84542410D01*
X146849154Y-84412735D01*
X146721834Y-84325741D01*
X146630200Y-84307185D01*
X146630200Y-83210400D01*
X146582168Y-82968927D01*
X146582168Y-82968926D01*
X146445384Y-82764215D01*
X146115184Y-82434016D01*
X145910473Y-82297232D01*
X145669000Y-82249200D01*
X145186135Y-82249200D01*
X145161247Y-82116930D01*
X150087486Y-82116930D01*
X150087486Y-82917030D01*
X150114053Y-83058220D01*
X150197496Y-83187895D01*
X150324816Y-83274889D01*
X150475950Y-83305494D01*
X151276050Y-83305494D01*
X151417240Y-83278927D01*
X151546915Y-83195484D01*
X151633909Y-83068164D01*
X151664514Y-82917030D01*
X151664514Y-82116930D01*
X151637947Y-81975740D01*
X151554504Y-81846065D01*
X151427184Y-81759071D01*
X151422640Y-81758151D01*
X151422640Y-81703178D01*
X151457880Y-81696547D01*
X151587555Y-81613104D01*
X151674549Y-81485784D01*
X151705154Y-81334650D01*
X151705154Y-80534550D01*
X151678587Y-80393360D01*
X151595144Y-80263685D01*
X151467824Y-80176691D01*
X151316690Y-80146086D01*
X150516590Y-80146086D01*
X150375400Y-80172653D01*
X150245725Y-80256096D01*
X150158731Y-80383416D01*
X150128126Y-80534550D01*
X150128126Y-81334650D01*
X150154693Y-81475840D01*
X150238136Y-81605515D01*
X150365456Y-81692509D01*
X150410640Y-81701659D01*
X150410640Y-81740755D01*
X150334760Y-81755033D01*
X150205085Y-81838476D01*
X150118091Y-81965796D01*
X150087486Y-82116930D01*
X145161247Y-82116930D01*
X145160697Y-82114010D01*
X145077254Y-81984335D01*
X144949934Y-81897341D01*
X144798800Y-81866736D01*
X144779800Y-81866736D01*
X144779800Y-81556464D01*
X144898800Y-81556464D01*
X145039990Y-81529897D01*
X145169665Y-81446454D01*
X145256659Y-81319134D01*
X145287264Y-81168000D01*
X145287264Y-79868000D01*
X145260697Y-79726810D01*
X145177254Y-79597135D01*
X145049934Y-79510141D01*
X144898800Y-79479536D01*
X143398800Y-79479536D01*
X143257610Y-79506103D01*
X143127935Y-79589546D01*
X143040941Y-79716866D01*
X143010336Y-79868000D01*
X143010336Y-81168000D01*
X143036903Y-81309190D01*
X143120346Y-81438865D01*
X143247666Y-81525859D01*
X143398800Y-81556464D01*
X143517800Y-81556464D01*
X143517800Y-81866736D01*
X143298800Y-81866736D01*
X143157610Y-81893303D01*
X143027935Y-81976746D01*
X142940941Y-82104066D01*
X142933800Y-82139330D01*
X142933800Y-82128890D01*
X142837127Y-81895501D01*
X142658498Y-81716873D01*
X142425109Y-81620200D01*
X141834550Y-81620200D01*
X141675800Y-81778950D01*
X141675800Y-82753200D01*
X141695800Y-82753200D01*
X141695800Y-83007200D01*
X141675800Y-83007200D01*
X141675800Y-83981450D01*
X141834550Y-84140200D01*
X142425109Y-84140200D01*
X142658498Y-84043527D01*
X142837127Y-83864899D01*
X142933800Y-83631510D01*
X142933800Y-83629899D01*
X142936903Y-83646390D01*
X143020346Y-83776065D01*
X143147666Y-83863059D01*
X143298800Y-83893664D01*
X144798800Y-83893664D01*
X144939990Y-83867097D01*
X145069665Y-83783654D01*
X145156659Y-83656334D01*
X145186049Y-83511200D01*
X145368200Y-83511200D01*
X145368200Y-84306332D01*
X145286510Y-84321703D01*
X145156835Y-84405146D01*
X145069841Y-84532466D01*
X145039236Y-84683600D01*
X145039236Y-85066600D01*
X143256000Y-85066600D01*
X143062362Y-85105117D01*
X142951679Y-85179073D01*
X142898204Y-85214804D01*
X142288604Y-85824404D01*
X142178917Y-85988562D01*
X142140400Y-86182200D01*
X142140400Y-89792247D01*
X142128000Y-89789736D01*
X141984000Y-89789736D01*
X141984000Y-85369400D01*
X141945483Y-85175762D01*
X141835796Y-85011604D01*
X141403996Y-84579804D01*
X141239838Y-84470117D01*
X141046200Y-84431600D01*
X140511293Y-84431600D01*
X140499154Y-84412735D01*
X140371834Y-84325741D01*
X140220700Y-84295136D01*
X140128453Y-84295136D01*
X140116683Y-84235962D01*
X140006996Y-84071804D01*
X139698396Y-83763204D01*
X139534238Y-83653517D01*
X139340600Y-83615000D01*
X137842864Y-83615000D01*
X137842864Y-83371000D01*
X137816297Y-83229810D01*
X137775205Y-83165950D01*
X140163800Y-83165950D01*
X140163800Y-83631510D01*
X140260473Y-83864899D01*
X140439102Y-84043527D01*
X140672491Y-84140200D01*
X141263050Y-84140200D01*
X141421800Y-83981450D01*
X141421800Y-83007200D01*
X140322550Y-83007200D01*
X140163800Y-83165950D01*
X137775205Y-83165950D01*
X137732854Y-83100135D01*
X137605534Y-83013141D01*
X137454400Y-82982536D01*
X136154400Y-82982536D01*
X136013210Y-83009103D01*
X135883535Y-83092546D01*
X135796541Y-83219866D01*
X135765936Y-83371000D01*
X135765936Y-83689600D01*
X135303264Y-83689600D01*
X135303264Y-83445600D01*
X135276697Y-83304410D01*
X135193254Y-83174735D01*
X135065934Y-83087741D01*
X134914800Y-83057136D01*
X133664800Y-83057136D01*
X133523610Y-83083703D01*
X133393935Y-83167146D01*
X133306941Y-83294466D01*
X133276336Y-83445600D01*
X133276336Y-84945600D01*
X133302903Y-85086790D01*
X133386346Y-85216465D01*
X133513666Y-85303459D01*
X133664800Y-85334064D01*
X134914800Y-85334064D01*
X135055990Y-85307497D01*
X135185665Y-85224054D01*
X135272659Y-85096734D01*
X135303264Y-84945600D01*
X135303264Y-84701600D01*
X135765936Y-84701600D01*
X135765936Y-84871000D01*
X135792503Y-85012190D01*
X135875946Y-85141865D01*
X136003266Y-85228859D01*
X136154400Y-85259464D01*
X137454400Y-85259464D01*
X137595590Y-85232897D01*
X137725265Y-85149454D01*
X137812259Y-85022134D01*
X137842864Y-84871000D01*
X137842864Y-84627000D01*
X138700698Y-84627000D01*
X138689236Y-84683600D01*
X138689236Y-85191600D01*
X138715803Y-85332790D01*
X138799246Y-85462465D01*
X138926566Y-85549459D01*
X139039488Y-85572326D01*
X138936510Y-85591703D01*
X138806835Y-85675146D01*
X138788760Y-85701600D01*
X137548542Y-85701600D01*
X137454400Y-85682536D01*
X136154400Y-85682536D01*
X136013210Y-85709103D01*
X135883535Y-85792546D01*
X135796541Y-85919866D01*
X135765936Y-86071000D01*
X135765936Y-86189600D01*
X135303264Y-86189600D01*
X135303264Y-85945600D01*
X135276697Y-85804410D01*
X135193254Y-85674735D01*
X135065934Y-85587741D01*
X134914800Y-85557136D01*
X133664800Y-85557136D01*
X133523610Y-85583703D01*
X133393935Y-85667146D01*
X133306941Y-85794466D01*
X133276336Y-85945600D01*
X133276336Y-86189600D01*
X132461864Y-86189600D01*
X132461864Y-85506400D01*
X132435297Y-85365210D01*
X132351854Y-85235535D01*
X132224534Y-85148541D01*
X132073400Y-85117936D01*
X130573400Y-85117936D01*
X130432210Y-85144503D01*
X130302535Y-85227946D01*
X130215541Y-85355266D01*
X130184936Y-85506400D01*
X130184936Y-86756400D01*
X130211503Y-86897590D01*
X130294946Y-87027265D01*
X130422266Y-87114259D01*
X130573400Y-87144864D01*
X131666695Y-87144864D01*
X131693962Y-87163083D01*
X131887600Y-87201600D01*
X133276336Y-87201600D01*
X133276336Y-87445600D01*
X133302903Y-87586790D01*
X133386346Y-87716465D01*
X133513666Y-87803459D01*
X133584485Y-87817800D01*
X133382691Y-87817800D01*
X133149302Y-87914473D01*
X132970673Y-88093101D01*
X132874000Y-88326490D01*
X132874000Y-88792050D01*
X133032750Y-88950800D01*
X134132000Y-88950800D01*
X134132000Y-88930800D01*
X134386000Y-88930800D01*
X134386000Y-88950800D01*
X134406000Y-88950800D01*
X134406000Y-89204800D01*
X134386000Y-89204800D01*
X134386000Y-89224800D01*
X134132000Y-89224800D01*
X134132000Y-89204800D01*
X133032750Y-89204800D01*
X132874000Y-89363550D01*
X132874000Y-89829110D01*
X132970673Y-90062499D01*
X133071435Y-90163260D01*
X133013810Y-90174103D01*
X132884135Y-90257546D01*
X132797141Y-90384866D01*
X132766536Y-90536000D01*
X132766536Y-91836000D01*
X132793103Y-91977190D01*
X132876546Y-92106865D01*
X132983842Y-92180177D01*
X132795302Y-92258273D01*
X132616673Y-92436901D01*
X132520000Y-92670290D01*
X132520000Y-93160850D01*
X132678750Y-93319600D01*
X133778000Y-93319600D01*
X133778000Y-93299600D01*
X134032000Y-93299600D01*
X134032000Y-93319600D01*
X135131250Y-93319600D01*
X135290000Y-93160850D01*
X135290000Y-92670290D01*
X135193327Y-92436901D01*
X135014698Y-92258273D01*
X134824679Y-92179565D01*
X134925865Y-92114454D01*
X135012859Y-91987134D01*
X135043464Y-91836000D01*
X135043464Y-91835539D01*
X135118946Y-91866882D01*
X135389865Y-91867118D01*
X135466536Y-91835438D01*
X135466536Y-91836000D01*
X135493103Y-91977190D01*
X135576546Y-92106865D01*
X135703866Y-92193859D01*
X135855000Y-92224464D01*
X136099000Y-92224464D01*
X136099000Y-92408136D01*
X135855000Y-92408136D01*
X135713810Y-92434703D01*
X135584135Y-92518146D01*
X135497141Y-92645466D01*
X135466536Y-92796600D01*
X135466536Y-94096600D01*
X135493103Y-94237790D01*
X135576546Y-94367465D01*
X135703866Y-94454459D01*
X135855000Y-94485064D01*
X137355000Y-94485064D01*
X137496190Y-94458497D01*
X137625865Y-94375054D01*
X137712859Y-94247734D01*
X137743464Y-94096600D01*
X137743464Y-92796600D01*
X137716897Y-92655410D01*
X137633454Y-92525735D01*
X137506134Y-92438741D01*
X137355000Y-92408136D01*
X137111000Y-92408136D01*
X137111000Y-92224464D01*
X137355000Y-92224464D01*
X137496190Y-92197897D01*
X137625865Y-92114454D01*
X137712859Y-91987134D01*
X137743464Y-91836000D01*
X137743464Y-90536000D01*
X137716897Y-90394810D01*
X137633454Y-90265135D01*
X137506134Y-90178141D01*
X137355000Y-90147536D01*
X137265000Y-90147536D01*
X137265000Y-90091264D01*
X137509000Y-90091264D01*
X137650190Y-90064697D01*
X137779865Y-89981254D01*
X137866859Y-89853934D01*
X137897464Y-89702800D01*
X137897464Y-89583800D01*
X138125200Y-89583800D01*
X138318838Y-89545283D01*
X138482996Y-89435596D01*
X138548333Y-89370259D01*
X138718001Y-89539927D01*
X138951390Y-89636600D01*
X139363450Y-89636600D01*
X139522200Y-89477850D01*
X139522200Y-88874600D01*
X139776200Y-88874600D01*
X139776200Y-89477850D01*
X139934950Y-89636600D01*
X140347010Y-89636600D01*
X140580399Y-89539927D01*
X140759027Y-89361298D01*
X140855700Y-89127909D01*
X140855700Y-89033350D01*
X140696950Y-88874600D01*
X139776200Y-88874600D01*
X139522200Y-88874600D01*
X139502200Y-88874600D01*
X139502200Y-88620600D01*
X139522200Y-88620600D01*
X139522200Y-88600600D01*
X139776200Y-88600600D01*
X139776200Y-88620600D01*
X140696950Y-88620600D01*
X140855700Y-88461850D01*
X140855700Y-88367291D01*
X140759027Y-88133902D01*
X140580399Y-87955273D01*
X140540334Y-87938678D01*
X140578559Y-87882734D01*
X140609164Y-87731600D01*
X140609164Y-87223600D01*
X140582597Y-87082410D01*
X140499154Y-86952735D01*
X140371834Y-86865741D01*
X140258912Y-86842874D01*
X140361890Y-86823497D01*
X140491565Y-86740054D01*
X140578559Y-86612734D01*
X140609164Y-86461600D01*
X140609164Y-85953600D01*
X140582597Y-85812410D01*
X140499154Y-85682735D01*
X140371834Y-85595741D01*
X140258912Y-85572874D01*
X140361890Y-85553497D01*
X140491565Y-85470054D01*
X140509640Y-85443600D01*
X140836608Y-85443600D01*
X140972000Y-85578992D01*
X140972000Y-89789736D01*
X140828000Y-89789736D01*
X140686810Y-89816303D01*
X140557135Y-89899746D01*
X140470141Y-90027066D01*
X140439536Y-90178200D01*
X140439536Y-91678200D01*
X140459895Y-91786400D01*
X140422400Y-91786400D01*
X140228762Y-91824917D01*
X140064604Y-91934604D01*
X139291404Y-92707804D01*
X139181717Y-92871962D01*
X139143200Y-93065600D01*
X139143200Y-95318736D01*
X139077700Y-95318736D01*
X138936510Y-95345303D01*
X138806835Y-95428746D01*
X138788760Y-95455200D01*
X137690464Y-95455200D01*
X137690464Y-95156600D01*
X137663897Y-95015410D01*
X137580454Y-94885735D01*
X137453134Y-94798741D01*
X137302000Y-94768136D01*
X136002000Y-94768136D01*
X135860810Y-94794703D01*
X135731135Y-94878146D01*
X135644141Y-95005466D01*
X135613536Y-95156600D01*
X135613536Y-95404400D01*
X134924064Y-95404400D01*
X134924064Y-95260400D01*
X134897497Y-95119210D01*
X134814054Y-94989535D01*
X134686734Y-94902541D01*
X134535600Y-94871936D01*
X133035600Y-94871936D01*
X132894410Y-94898503D01*
X132764735Y-94981946D01*
X132677741Y-95109266D01*
X132647136Y-95260400D01*
X132647136Y-95260861D01*
X132571654Y-95229518D01*
X132300735Y-95229282D01*
X132224064Y-95260962D01*
X132224064Y-95260400D01*
X132197497Y-95119210D01*
X132114054Y-94989535D01*
X131986734Y-94902541D01*
X131835600Y-94871936D01*
X130335600Y-94871936D01*
X130194410Y-94898503D01*
X130064735Y-94981946D01*
X129977741Y-95109266D01*
X129947136Y-95260400D01*
X129947136Y-96560400D01*
X129973703Y-96701590D01*
X130057146Y-96831265D01*
X130184466Y-96918259D01*
X130335600Y-96948864D01*
X131835600Y-96948864D01*
X131976790Y-96922297D01*
X132106465Y-96838854D01*
X132193459Y-96711534D01*
X132224064Y-96560400D01*
X132224064Y-96559939D01*
X132299546Y-96591282D01*
X132570465Y-96591518D01*
X132647136Y-96559838D01*
X132647136Y-96560400D01*
X132673703Y-96701590D01*
X132688975Y-96725324D01*
X132495962Y-96763717D01*
X132331804Y-96873404D01*
X132198642Y-97006566D01*
X131533900Y-97006566D01*
X131392710Y-97033133D01*
X131263035Y-97116576D01*
X131176041Y-97243896D01*
X131145436Y-97395030D01*
X131145436Y-98896170D01*
X131172003Y-99037360D01*
X131255446Y-99167035D01*
X131382766Y-99254029D01*
X131533900Y-99284634D01*
X131828000Y-99284634D01*
X131828000Y-100398736D01*
X130733800Y-100398736D01*
X130592610Y-100425303D01*
X130462935Y-100508746D01*
X130375941Y-100636066D01*
X130345336Y-100787200D01*
X130345336Y-100880640D01*
X130197464Y-100880640D01*
X130197464Y-100625200D01*
X130170897Y-100484010D01*
X130087454Y-100354335D01*
X129960134Y-100267341D01*
X129809000Y-100236736D01*
X129808539Y-100236736D01*
X129839882Y-100161254D01*
X129840118Y-99890335D01*
X129808438Y-99813664D01*
X129809000Y-99813664D01*
X129950190Y-99787097D01*
X130079865Y-99703654D01*
X130166859Y-99576334D01*
X130197464Y-99425200D01*
X130197464Y-97925200D01*
X130170897Y-97784010D01*
X130087454Y-97654335D01*
X129960134Y-97567341D01*
X129809000Y-97536736D01*
X128509000Y-97536736D01*
X128367810Y-97563303D01*
X128238135Y-97646746D01*
X128151141Y-97774066D01*
X128120536Y-97925200D01*
X116153000Y-97925200D01*
X116153000Y-94601150D01*
X118491000Y-94601150D01*
X118491000Y-95641709D01*
X118587673Y-95875098D01*
X118766301Y-96053727D01*
X118999690Y-96150400D01*
X122015250Y-96150400D01*
X122174000Y-95991650D01*
X122174000Y-94442400D01*
X122428000Y-94442400D01*
X122428000Y-95991650D01*
X122586750Y-96150400D01*
X125602310Y-96150400D01*
X125835699Y-96053727D01*
X126014327Y-95875098D01*
X126111000Y-95641709D01*
X126111000Y-94601150D01*
X125952250Y-94442400D01*
X122428000Y-94442400D01*
X122174000Y-94442400D01*
X118649750Y-94442400D01*
X118491000Y-94601150D01*
X116153000Y-94601150D01*
X116153000Y-92989091D01*
X118491000Y-92989091D01*
X118491000Y-94029650D01*
X118649750Y-94188400D01*
X122174000Y-94188400D01*
X122174000Y-92639150D01*
X122428000Y-92639150D01*
X122428000Y-94188400D01*
X125952250Y-94188400D01*
X126111000Y-94029650D01*
X126111000Y-93732350D01*
X132520000Y-93732350D01*
X132520000Y-94222910D01*
X132616673Y-94456299D01*
X132795302Y-94634927D01*
X133028691Y-94731600D01*
X133619250Y-94731600D01*
X133778000Y-94572850D01*
X133778000Y-93573600D01*
X134032000Y-93573600D01*
X134032000Y-94572850D01*
X134190750Y-94731600D01*
X134781309Y-94731600D01*
X135014698Y-94634927D01*
X135193327Y-94456299D01*
X135290000Y-94222910D01*
X135290000Y-93732350D01*
X135131250Y-93573600D01*
X134032000Y-93573600D01*
X133778000Y-93573600D01*
X132678750Y-93573600D01*
X132520000Y-93732350D01*
X126111000Y-93732350D01*
X126111000Y-92989091D01*
X126014327Y-92755702D01*
X125835699Y-92577073D01*
X125602310Y-92480400D01*
X122586750Y-92480400D01*
X122428000Y-92639150D01*
X122174000Y-92639150D01*
X122015250Y-92480400D01*
X118999690Y-92480400D01*
X118766301Y-92577073D01*
X118587673Y-92755702D01*
X118491000Y-92989091D01*
X116153000Y-92989091D01*
X116153000Y-83877150D01*
X116889800Y-83877150D01*
X116889800Y-86892710D01*
X116986473Y-87126099D01*
X117165102Y-87304727D01*
X117398491Y-87401400D01*
X118439050Y-87401400D01*
X118597800Y-87242650D01*
X118597800Y-83718400D01*
X118851800Y-83718400D01*
X118851800Y-87242650D01*
X119010550Y-87401400D01*
X120051109Y-87401400D01*
X120284498Y-87304727D01*
X120463127Y-87126099D01*
X120559800Y-86892710D01*
X120559800Y-83877150D01*
X120401050Y-83718400D01*
X118851800Y-83718400D01*
X118597800Y-83718400D01*
X117048550Y-83718400D01*
X116889800Y-83877150D01*
X116153000Y-83877150D01*
X116153000Y-80290090D01*
X116889800Y-80290090D01*
X116889800Y-83305650D01*
X117048550Y-83464400D01*
X118597800Y-83464400D01*
X118597800Y-79940150D01*
X118851800Y-79940150D01*
X118851800Y-83464400D01*
X120401050Y-83464400D01*
X120559800Y-83305650D01*
X120559800Y-80416400D01*
X124136336Y-80416400D01*
X124136336Y-86766400D01*
X124162903Y-86907590D01*
X124246346Y-87037265D01*
X124373666Y-87124259D01*
X124524800Y-87154864D01*
X126924800Y-87154864D01*
X127065990Y-87128297D01*
X127195665Y-87044854D01*
X127282659Y-86917534D01*
X127313264Y-86766400D01*
X127313264Y-84050400D01*
X127790336Y-84050400D01*
X127790336Y-84294400D01*
X127816903Y-84435590D01*
X127900346Y-84565265D01*
X128027666Y-84652259D01*
X128178800Y-84682864D01*
X128317400Y-84682864D01*
X128317400Y-85117936D01*
X128073400Y-85117936D01*
X127932210Y-85144503D01*
X127802535Y-85227946D01*
X127715541Y-85355266D01*
X127684936Y-85506400D01*
X127684936Y-86756400D01*
X127711503Y-86897590D01*
X127794946Y-87027265D01*
X127922266Y-87114259D01*
X128073400Y-87144864D01*
X129573400Y-87144864D01*
X129714590Y-87118297D01*
X129844265Y-87034854D01*
X129931259Y-86907534D01*
X129961864Y-86756400D01*
X129961864Y-85506400D01*
X129935297Y-85365210D01*
X129851854Y-85235535D01*
X129724534Y-85148541D01*
X129573400Y-85117936D01*
X129329400Y-85117936D01*
X129329400Y-84682864D01*
X129478800Y-84682864D01*
X129619990Y-84656297D01*
X129749665Y-84572854D01*
X129836659Y-84445534D01*
X129867264Y-84294400D01*
X129867264Y-82794400D01*
X129840697Y-82653210D01*
X129757254Y-82523535D01*
X129629934Y-82436541D01*
X129478800Y-82405936D01*
X128178800Y-82405936D01*
X128037610Y-82432503D01*
X127907935Y-82515946D01*
X127820941Y-82643266D01*
X127790336Y-82794400D01*
X127790336Y-83038400D01*
X127313264Y-83038400D01*
X127313264Y-82128890D01*
X140163800Y-82128890D01*
X140163800Y-82594450D01*
X140322550Y-82753200D01*
X141421800Y-82753200D01*
X141421800Y-81778950D01*
X141263050Y-81620200D01*
X140672491Y-81620200D01*
X140439102Y-81716873D01*
X140260473Y-81895501D01*
X140163800Y-82128890D01*
X127313264Y-82128890D01*
X127313264Y-80416400D01*
X127286697Y-80275210D01*
X127203254Y-80145535D01*
X127128416Y-80094400D01*
X127790336Y-80094400D01*
X127790336Y-81594400D01*
X127816903Y-81735590D01*
X127900346Y-81865265D01*
X128027666Y-81952259D01*
X128178800Y-81982864D01*
X129478800Y-81982864D01*
X129619990Y-81956297D01*
X129749665Y-81872854D01*
X129836659Y-81745534D01*
X129867264Y-81594400D01*
X129867264Y-80652865D01*
X139018882Y-80652865D01*
X139122339Y-80903252D01*
X139313741Y-81094987D01*
X139563946Y-81198882D01*
X139834865Y-81199118D01*
X139956161Y-81149000D01*
X140310336Y-81149000D01*
X140310336Y-81168000D01*
X140336903Y-81309190D01*
X140420346Y-81438865D01*
X140547666Y-81525859D01*
X140698800Y-81556464D01*
X142198800Y-81556464D01*
X142339990Y-81529897D01*
X142469665Y-81446454D01*
X142556659Y-81319134D01*
X142587264Y-81168000D01*
X142587264Y-79868000D01*
X142560697Y-79726810D01*
X142477254Y-79597135D01*
X142349934Y-79510141D01*
X142198800Y-79479536D01*
X140698800Y-79479536D01*
X140557610Y-79506103D01*
X140427935Y-79589546D01*
X140340941Y-79716866D01*
X140310336Y-79868000D01*
X140310336Y-79887000D01*
X139956182Y-79887000D01*
X139836054Y-79837118D01*
X139565135Y-79836882D01*
X139314748Y-79940339D01*
X139123013Y-80131741D01*
X139019118Y-80381946D01*
X139018882Y-80652865D01*
X129867264Y-80652865D01*
X129867264Y-80094400D01*
X129840697Y-79953210D01*
X129757254Y-79823535D01*
X129629934Y-79736541D01*
X129478800Y-79705936D01*
X129459800Y-79705936D01*
X129459800Y-79478782D01*
X129509682Y-79358654D01*
X129509918Y-79087735D01*
X129406461Y-78837348D01*
X129215059Y-78645613D01*
X128964854Y-78541718D01*
X128693935Y-78541482D01*
X128443548Y-78644939D01*
X128251813Y-78836341D01*
X128147918Y-79086546D01*
X128147682Y-79357465D01*
X128197800Y-79478761D01*
X128197800Y-79705936D01*
X128178800Y-79705936D01*
X128037610Y-79732503D01*
X127907935Y-79815946D01*
X127820941Y-79943266D01*
X127790336Y-80094400D01*
X127128416Y-80094400D01*
X127075934Y-80058541D01*
X126924800Y-80027936D01*
X124524800Y-80027936D01*
X124383610Y-80054503D01*
X124253935Y-80137946D01*
X124166941Y-80265266D01*
X124136336Y-80416400D01*
X120559800Y-80416400D01*
X120559800Y-80290090D01*
X120463127Y-80056701D01*
X120284498Y-79878073D01*
X120051109Y-79781400D01*
X119010550Y-79781400D01*
X118851800Y-79940150D01*
X118597800Y-79940150D01*
X118439050Y-79781400D01*
X117398491Y-79781400D01*
X117165102Y-79878073D01*
X116986473Y-80056701D01*
X116889800Y-80290090D01*
X116153000Y-80290090D01*
X116153000Y-77260910D01*
X116174878Y-77150918D01*
X116211745Y-77095745D01*
X116266918Y-77058879D01*
X116376911Y-77037000D01*
X185121090Y-77037000D01*
X185231082Y-77058878D01*
G36*
X145039236Y-89001600D02*
X145065803Y-89142790D01*
X145149246Y-89272465D01*
X145276566Y-89359459D01*
X145427700Y-89390064D01*
X146570700Y-89390064D01*
X146711890Y-89363497D01*
X146841565Y-89280054D01*
X146859640Y-89253600D01*
X147516808Y-89253600D01*
X147753800Y-89490592D01*
X147753800Y-90240033D01*
X147638935Y-90313946D01*
X147551941Y-90441266D01*
X147521336Y-90592400D01*
X147521336Y-91192400D01*
X147547903Y-91333590D01*
X147631346Y-91463265D01*
X147758666Y-91550259D01*
X147909800Y-91580864D01*
X148609800Y-91580864D01*
X148750990Y-91554297D01*
X148880665Y-91470854D01*
X148937823Y-91387200D01*
X149249536Y-91387200D01*
X149249536Y-91506200D01*
X149276103Y-91647390D01*
X149359546Y-91777065D01*
X149486866Y-91864059D01*
X149638000Y-91894664D01*
X151132000Y-91894664D01*
X151132000Y-92255736D01*
X150960400Y-92255736D01*
X150819210Y-92282303D01*
X150689535Y-92365746D01*
X150602541Y-92493066D01*
X150571936Y-92644200D01*
X150571936Y-93944200D01*
X150598503Y-94085390D01*
X150681946Y-94215065D01*
X150809266Y-94302059D01*
X150960400Y-94332664D01*
X152460400Y-94332664D01*
X152579800Y-94310197D01*
X152579800Y-94757975D01*
X152568334Y-94750141D01*
X152417200Y-94719536D01*
X150917200Y-94719536D01*
X150776010Y-94746103D01*
X150646335Y-94829546D01*
X150559341Y-94956866D01*
X150528736Y-95108000D01*
X150528736Y-95108461D01*
X150453254Y-95077118D01*
X150182335Y-95076882D01*
X150105664Y-95108562D01*
X150105664Y-95108000D01*
X150079097Y-94966810D01*
X149995654Y-94837135D01*
X149868334Y-94750141D01*
X149717200Y-94719536D01*
X148217200Y-94719536D01*
X148076010Y-94746103D01*
X147946335Y-94829546D01*
X147859341Y-94956866D01*
X147828736Y-95108000D01*
X147828736Y-96408000D01*
X147855303Y-96549190D01*
X147938746Y-96678865D01*
X148006560Y-96725200D01*
X146861293Y-96725200D01*
X146849154Y-96706335D01*
X146721834Y-96619341D01*
X146608912Y-96596474D01*
X146711890Y-96577097D01*
X146841565Y-96493654D01*
X146928559Y-96366334D01*
X146959164Y-96215200D01*
X146959164Y-95707200D01*
X146932597Y-95566010D01*
X146849154Y-95436335D01*
X146721834Y-95349341D01*
X146630200Y-95330785D01*
X146630200Y-94717464D01*
X146649600Y-94717464D01*
X146790790Y-94690897D01*
X146920465Y-94607454D01*
X147007459Y-94480134D01*
X147038064Y-94329000D01*
X147038064Y-92829000D01*
X147032306Y-92798400D01*
X147589607Y-92798400D01*
X147631346Y-92863265D01*
X147758666Y-92950259D01*
X147909800Y-92980864D01*
X148609800Y-92980864D01*
X148750990Y-92954297D01*
X148880665Y-92870854D01*
X148967659Y-92743534D01*
X148998264Y-92592400D01*
X148998264Y-91992400D01*
X148971697Y-91851210D01*
X148888254Y-91721535D01*
X148760934Y-91634541D01*
X148609800Y-91603936D01*
X147909800Y-91603936D01*
X147768610Y-91630503D01*
X147638935Y-91713946D01*
X147589429Y-91786400D01*
X147284600Y-91786400D01*
X147284600Y-91364750D01*
X147125850Y-91206000D01*
X146151600Y-91206000D01*
X146151600Y-91226000D01*
X145897600Y-91226000D01*
X145897600Y-91206000D01*
X145877600Y-91206000D01*
X145877600Y-90952000D01*
X145897600Y-90952000D01*
X145897600Y-89852750D01*
X146151600Y-89852750D01*
X146151600Y-90952000D01*
X147125850Y-90952000D01*
X147284600Y-90793250D01*
X147284600Y-90202691D01*
X147187927Y-89969302D01*
X147009299Y-89790673D01*
X146775910Y-89694000D01*
X146310350Y-89694000D01*
X146151600Y-89852750D01*
X145897600Y-89852750D01*
X145738850Y-89694000D01*
X145273290Y-89694000D01*
X145039901Y-89790673D01*
X144861273Y-89969302D01*
X144790519Y-90140117D01*
X144775897Y-90062410D01*
X144692454Y-89932735D01*
X144565134Y-89845741D01*
X144414000Y-89815136D01*
X144395000Y-89815136D01*
X144395000Y-89029182D01*
X144444882Y-88909054D01*
X144445009Y-88763611D01*
X144516946Y-88793482D01*
X144787865Y-88793718D01*
X145038252Y-88690261D01*
X145039236Y-88689279D01*
X145039236Y-89001600D01*
X145039236Y-89001600D01*
G37*
X145039236Y-89001600D02*
X145065803Y-89142790D01*
X145149246Y-89272465D01*
X145276566Y-89359459D01*
X145427700Y-89390064D01*
X146570700Y-89390064D01*
X146711890Y-89363497D01*
X146841565Y-89280054D01*
X146859640Y-89253600D01*
X147516808Y-89253600D01*
X147753800Y-89490592D01*
X147753800Y-90240033D01*
X147638935Y-90313946D01*
X147551941Y-90441266D01*
X147521336Y-90592400D01*
X147521336Y-91192400D01*
X147547903Y-91333590D01*
X147631346Y-91463265D01*
X147758666Y-91550259D01*
X147909800Y-91580864D01*
X148609800Y-91580864D01*
X148750990Y-91554297D01*
X148880665Y-91470854D01*
X148937823Y-91387200D01*
X149249536Y-91387200D01*
X149249536Y-91506200D01*
X149276103Y-91647390D01*
X149359546Y-91777065D01*
X149486866Y-91864059D01*
X149638000Y-91894664D01*
X151132000Y-91894664D01*
X151132000Y-92255736D01*
X150960400Y-92255736D01*
X150819210Y-92282303D01*
X150689535Y-92365746D01*
X150602541Y-92493066D01*
X150571936Y-92644200D01*
X150571936Y-93944200D01*
X150598503Y-94085390D01*
X150681946Y-94215065D01*
X150809266Y-94302059D01*
X150960400Y-94332664D01*
X152460400Y-94332664D01*
X152579800Y-94310197D01*
X152579800Y-94757975D01*
X152568334Y-94750141D01*
X152417200Y-94719536D01*
X150917200Y-94719536D01*
X150776010Y-94746103D01*
X150646335Y-94829546D01*
X150559341Y-94956866D01*
X150528736Y-95108000D01*
X150528736Y-95108461D01*
X150453254Y-95077118D01*
X150182335Y-95076882D01*
X150105664Y-95108562D01*
X150105664Y-95108000D01*
X150079097Y-94966810D01*
X149995654Y-94837135D01*
X149868334Y-94750141D01*
X149717200Y-94719536D01*
X148217200Y-94719536D01*
X148076010Y-94746103D01*
X147946335Y-94829546D01*
X147859341Y-94956866D01*
X147828736Y-95108000D01*
X147828736Y-96408000D01*
X147855303Y-96549190D01*
X147938746Y-96678865D01*
X148006560Y-96725200D01*
X146861293Y-96725200D01*
X146849154Y-96706335D01*
X146721834Y-96619341D01*
X146608912Y-96596474D01*
X146711890Y-96577097D01*
X146841565Y-96493654D01*
X146928559Y-96366334D01*
X146959164Y-96215200D01*
X146959164Y-95707200D01*
X146932597Y-95566010D01*
X146849154Y-95436335D01*
X146721834Y-95349341D01*
X146630200Y-95330785D01*
X146630200Y-94717464D01*
X146649600Y-94717464D01*
X146790790Y-94690897D01*
X146920465Y-94607454D01*
X147007459Y-94480134D01*
X147038064Y-94329000D01*
X147038064Y-92829000D01*
X147032306Y-92798400D01*
X147589607Y-92798400D01*
X147631346Y-92863265D01*
X147758666Y-92950259D01*
X147909800Y-92980864D01*
X148609800Y-92980864D01*
X148750990Y-92954297D01*
X148880665Y-92870854D01*
X148967659Y-92743534D01*
X148998264Y-92592400D01*
X148998264Y-91992400D01*
X148971697Y-91851210D01*
X148888254Y-91721535D01*
X148760934Y-91634541D01*
X148609800Y-91603936D01*
X147909800Y-91603936D01*
X147768610Y-91630503D01*
X147638935Y-91713946D01*
X147589429Y-91786400D01*
X147284600Y-91786400D01*
X147284600Y-91364750D01*
X147125850Y-91206000D01*
X146151600Y-91206000D01*
X146151600Y-91226000D01*
X145897600Y-91226000D01*
X145897600Y-91206000D01*
X145877600Y-91206000D01*
X145877600Y-90952000D01*
X145897600Y-90952000D01*
X145897600Y-89852750D01*
X146151600Y-89852750D01*
X146151600Y-90952000D01*
X147125850Y-90952000D01*
X147284600Y-90793250D01*
X147284600Y-90202691D01*
X147187927Y-89969302D01*
X147009299Y-89790673D01*
X146775910Y-89694000D01*
X146310350Y-89694000D01*
X146151600Y-89852750D01*
X145897600Y-89852750D01*
X145738850Y-89694000D01*
X145273290Y-89694000D01*
X145039901Y-89790673D01*
X144861273Y-89969302D01*
X144790519Y-90140117D01*
X144775897Y-90062410D01*
X144692454Y-89932735D01*
X144565134Y-89845741D01*
X144414000Y-89815136D01*
X144395000Y-89815136D01*
X144395000Y-89029182D01*
X144444882Y-88909054D01*
X144445009Y-88763611D01*
X144516946Y-88793482D01*
X144787865Y-88793718D01*
X145038252Y-88690261D01*
X145039236Y-88689279D01*
X145039236Y-89001600D01*
M02*
