G04 #@! TF.FileFunction,Soldermask,Top*
%FSLAX46Y46*%
G04 Gerber Fmt 4.6, Leading zero omitted, Abs format (unit mm)*
G04 Created by KiCad (PCBNEW 4.0.4-stable) date Sunday, October 16, 2016 'AMt' 09:48:37 AM*
%MOMM*%
%LPD*%
G01*
G04 APERTURE LIST*
%ADD10C,0.100000*%
%ADD11R,1.900000X1.650000*%
%ADD12R,1.650000X1.900000*%
%ADD13R,1.000000X1.100000*%
%ADD14R,1.100000X1.000000*%
%ADD15R,1.900000X1.700000*%
%ADD16R,2.800000X6.750000*%
%ADD17R,1.200100X1.200100*%
%ADD18R,1.700000X1.900000*%
%ADD19R,2.000200X1.901140*%
%ADD20R,1.598880X1.598880*%
%ADD21R,6.750000X2.800000*%
%ADD22R,1.901140X2.899360*%
%ADD23R,7.400240X7.400240*%
%ADD24R,1.543000X0.908000*%
%ADD25R,3.448000X2.051000*%
%ADD26R,6.496000X6.496000*%
G04 APERTURE END LIST*
D10*
D11*
X120503000Y-103632000D03*
X118003000Y-103632000D03*
D12*
X133350000Y-96500000D03*
X133350000Y-94000000D03*
X155702000Y-84348000D03*
X155702000Y-86848000D03*
D11*
X167112000Y-95504000D03*
X164612000Y-95504000D03*
D12*
X119380000Y-95230000D03*
X119380000Y-92730000D03*
D11*
X128885000Y-101600000D03*
X126385000Y-101600000D03*
D12*
X160909000Y-84348000D03*
X160909000Y-86848000D03*
X167259000Y-102723000D03*
X167259000Y-100223000D03*
D11*
X130957000Y-86233000D03*
X133457000Y-86233000D03*
X150134000Y-94107000D03*
X152634000Y-94107000D03*
X147848000Y-81915000D03*
X150348000Y-81915000D03*
X147594000Y-104140000D03*
X150094000Y-104140000D03*
D12*
X141732000Y-96627000D03*
X141732000Y-94127000D03*
D13*
X124395000Y-88900000D03*
X125795000Y-88900000D03*
X157669000Y-80137000D03*
X159069000Y-80137000D03*
X125795000Y-90297000D03*
X124395000Y-90297000D03*
D14*
X130937000Y-84139000D03*
X130937000Y-82739000D03*
D13*
X131507000Y-81153000D03*
X132907000Y-81153000D03*
D14*
X133477000Y-82739000D03*
X133477000Y-84139000D03*
D15*
X150194000Y-100076000D03*
X147494000Y-100076000D03*
D16*
X119055000Y-81280000D03*
X126055000Y-81280000D03*
X160599000Y-100076000D03*
X153599000Y-100076000D03*
D17*
X180959760Y-101407000D03*
X180959760Y-99507000D03*
X178960780Y-100457000D03*
X177403760Y-98486000D03*
X177403760Y-96586000D03*
X175404780Y-97536000D03*
X177353000Y-100345240D03*
X175453000Y-100345240D03*
X176403000Y-102344220D03*
X173924000Y-98313240D03*
X172024000Y-98313240D03*
X172974000Y-100312220D03*
D15*
X147748000Y-84709000D03*
X150448000Y-84709000D03*
X144479000Y-84582000D03*
X141779000Y-84582000D03*
X117903000Y-98552000D03*
X120603000Y-98552000D03*
D18*
X136144000Y-96600000D03*
X136144000Y-93900000D03*
D15*
X120603000Y-101092000D03*
X117903000Y-101092000D03*
D18*
X158369000Y-84248000D03*
X158369000Y-86948000D03*
D15*
X157781000Y-94488000D03*
X160481000Y-94488000D03*
X167212000Y-97917000D03*
X164512000Y-97917000D03*
X172640000Y-91948000D03*
X175340000Y-91948000D03*
X155114000Y-89662000D03*
X157814000Y-89662000D03*
X122000000Y-88265000D03*
X119300000Y-88265000D03*
D18*
X179451000Y-94535000D03*
X179451000Y-97235000D03*
X128016000Y-91647000D03*
X128016000Y-88947000D03*
X141732000Y-87931000D03*
X141732000Y-90631000D03*
D15*
X157781000Y-91948000D03*
X160481000Y-91948000D03*
D18*
X163576000Y-86948000D03*
X163576000Y-84248000D03*
X182753000Y-94662000D03*
X182753000Y-97362000D03*
X166243000Y-84248000D03*
X166243000Y-86948000D03*
D15*
X130857000Y-88900000D03*
X133557000Y-88900000D03*
X147748000Y-78740000D03*
X150448000Y-78740000D03*
X144827000Y-96647000D03*
X147527000Y-96647000D03*
X136953000Y-78740000D03*
X139653000Y-78740000D03*
X144827000Y-94107000D03*
X147527000Y-94107000D03*
X139653000Y-81534000D03*
X136953000Y-81534000D03*
D18*
X182753000Y-102569000D03*
X182753000Y-99869000D03*
D19*
X143129000Y-81915000D03*
D20*
X144129760Y-78673960D03*
X142128240Y-78673960D03*
D21*
X172212000Y-87066000D03*
X172212000Y-80066000D03*
D22*
X178191160Y-89174320D03*
X182742840Y-89174320D03*
D23*
X180467000Y-82275680D03*
D24*
X130810000Y-93980000D03*
X130810000Y-95250000D03*
X130810000Y-96520000D03*
X130810000Y-97790000D03*
X124460000Y-97790000D03*
X124460000Y-96520000D03*
X124460000Y-95250000D03*
X124460000Y-93980000D03*
X152273000Y-86868000D03*
X152273000Y-88138000D03*
X152273000Y-89408000D03*
X152273000Y-90678000D03*
X145923000Y-90678000D03*
X145923000Y-89408000D03*
X145923000Y-88138000D03*
X145923000Y-86868000D03*
X162814000Y-93345000D03*
X162814000Y-92075000D03*
X162814000Y-90805000D03*
X162814000Y-89535000D03*
X169164000Y-89535000D03*
X169164000Y-90805000D03*
X169164000Y-92075000D03*
X169164000Y-93345000D03*
D25*
X141986000Y-104140000D03*
D26*
X135636000Y-101854000D03*
D25*
X141986000Y-99568000D03*
M02*
