G04 #@! TF.FileFunction,Copper,L2,Bot,Signal*
%FSLAX46Y46*%
G04 Gerber Fmt 4.6, Leading zero omitted, Abs format (unit mm)*
G04 Created by KiCad (PCBNEW 4.0.4-stable) date Monday, October 17, 2016 'PMt' 09:40:26 PM*
%MOMM*%
%LPD*%
G01*
G04 APERTURE LIST*
%ADD10C,0.100000*%
%ADD11C,0.600000*%
%ADD12C,0.500000*%
%ADD13C,0.250000*%
%ADD14C,0.254000*%
G04 APERTURE END LIST*
D10*
D11*
X148107400Y-86512400D03*
X146024600Y-89585800D03*
X126542800Y-101295200D03*
X144653000Y-88112600D03*
X129159000Y-100025200D03*
X132435600Y-95910400D03*
X151688800Y-104114600D03*
X166166800Y-94665800D03*
X173888400Y-101600000D03*
X160629600Y-86817200D03*
X161391600Y-82626200D03*
X150317200Y-95758000D03*
X139700000Y-80518000D03*
X143764000Y-88773000D03*
X135255000Y-91186000D03*
X128828800Y-79222600D03*
X177038000Y-88112600D03*
X181203600Y-92659200D03*
D12*
X148107400Y-87503000D02*
X148107400Y-86512400D01*
X146024600Y-89585800D02*
X148107400Y-87503000D01*
D13*
X144653000Y-88747600D02*
X144653000Y-88112600D01*
X144653000Y-88747600D02*
X144653000Y-90170000D01*
X144653000Y-90170000D02*
X144678400Y-90195400D01*
X144678400Y-90195400D02*
X144678400Y-100304600D01*
X144678400Y-100304600D02*
X143687800Y-101295200D01*
X143687800Y-101295200D02*
X126542800Y-101295200D01*
D14*
G36*
X185231082Y-77058878D02*
X185286255Y-77095745D01*
X185323121Y-77150918D01*
X185345000Y-77260911D01*
X185345000Y-105111089D01*
X185323121Y-105221082D01*
X185286255Y-105276255D01*
X185231082Y-105313122D01*
X185121090Y-105335000D01*
X116376911Y-105335000D01*
X116266918Y-105313121D01*
X116211745Y-105276255D01*
X116174878Y-105221082D01*
X116153000Y-105111090D01*
X116153000Y-101430065D01*
X125861682Y-101430065D01*
X125965139Y-101680452D01*
X126156541Y-101872187D01*
X126406746Y-101976082D01*
X126677665Y-101976318D01*
X126928052Y-101872861D01*
X126999838Y-101801200D01*
X143687800Y-101801200D01*
X143881438Y-101762683D01*
X144045596Y-101652996D01*
X145036196Y-100662396D01*
X145145883Y-100498238D01*
X145184400Y-100304600D01*
X145184400Y-90195400D01*
X145159000Y-90067706D01*
X145159000Y-89720665D01*
X145343482Y-89720665D01*
X145446939Y-89971052D01*
X145638341Y-90162787D01*
X145888546Y-90266682D01*
X146159465Y-90266918D01*
X146409852Y-90163461D01*
X146601587Y-89972059D01*
X146651918Y-89850850D01*
X148553584Y-87949184D01*
X148690368Y-87744473D01*
X148710131Y-87645117D01*
X148738400Y-87503000D01*
X148738400Y-86768582D01*
X148788282Y-86648454D01*
X148788518Y-86377535D01*
X148685061Y-86127148D01*
X148493659Y-85935413D01*
X148243454Y-85831518D01*
X147972535Y-85831282D01*
X147722148Y-85934739D01*
X147530413Y-86126141D01*
X147426518Y-86376346D01*
X147426282Y-86647265D01*
X147476400Y-86768561D01*
X147476400Y-87241632D01*
X145759565Y-88958467D01*
X145639348Y-89008139D01*
X145447613Y-89199541D01*
X145343718Y-89449746D01*
X145343482Y-89720665D01*
X145159000Y-89720665D01*
X145159000Y-88569723D01*
X145229987Y-88498859D01*
X145333882Y-88248654D01*
X145334118Y-87977735D01*
X145230661Y-87727348D01*
X145039259Y-87535613D01*
X144789054Y-87431718D01*
X144518135Y-87431482D01*
X144267748Y-87534939D01*
X144076013Y-87726341D01*
X143972118Y-87976546D01*
X143971882Y-88247465D01*
X144075339Y-88497852D01*
X144147000Y-88569638D01*
X144147000Y-90170000D01*
X144172400Y-90297694D01*
X144172400Y-100095008D01*
X143478208Y-100789200D01*
X126999923Y-100789200D01*
X126929059Y-100718213D01*
X126678854Y-100614318D01*
X126407935Y-100614082D01*
X126157548Y-100717539D01*
X125965813Y-100908941D01*
X125861918Y-101159146D01*
X125861682Y-101430065D01*
X116153000Y-101430065D01*
X116153000Y-77260910D01*
X116174878Y-77150918D01*
X116211745Y-77095745D01*
X116266918Y-77058879D01*
X116376911Y-77037000D01*
X185121090Y-77037000D01*
X185231082Y-77058878D01*
X185231082Y-77058878D01*
G37*
X185231082Y-77058878D02*
X185286255Y-77095745D01*
X185323121Y-77150918D01*
X185345000Y-77260911D01*
X185345000Y-105111089D01*
X185323121Y-105221082D01*
X185286255Y-105276255D01*
X185231082Y-105313122D01*
X185121090Y-105335000D01*
X116376911Y-105335000D01*
X116266918Y-105313121D01*
X116211745Y-105276255D01*
X116174878Y-105221082D01*
X116153000Y-105111090D01*
X116153000Y-101430065D01*
X125861682Y-101430065D01*
X125965139Y-101680452D01*
X126156541Y-101872187D01*
X126406746Y-101976082D01*
X126677665Y-101976318D01*
X126928052Y-101872861D01*
X126999838Y-101801200D01*
X143687800Y-101801200D01*
X143881438Y-101762683D01*
X144045596Y-101652996D01*
X145036196Y-100662396D01*
X145145883Y-100498238D01*
X145184400Y-100304600D01*
X145184400Y-90195400D01*
X145159000Y-90067706D01*
X145159000Y-89720665D01*
X145343482Y-89720665D01*
X145446939Y-89971052D01*
X145638341Y-90162787D01*
X145888546Y-90266682D01*
X146159465Y-90266918D01*
X146409852Y-90163461D01*
X146601587Y-89972059D01*
X146651918Y-89850850D01*
X148553584Y-87949184D01*
X148690368Y-87744473D01*
X148710131Y-87645117D01*
X148738400Y-87503000D01*
X148738400Y-86768582D01*
X148788282Y-86648454D01*
X148788518Y-86377535D01*
X148685061Y-86127148D01*
X148493659Y-85935413D01*
X148243454Y-85831518D01*
X147972535Y-85831282D01*
X147722148Y-85934739D01*
X147530413Y-86126141D01*
X147426518Y-86376346D01*
X147426282Y-86647265D01*
X147476400Y-86768561D01*
X147476400Y-87241632D01*
X145759565Y-88958467D01*
X145639348Y-89008139D01*
X145447613Y-89199541D01*
X145343718Y-89449746D01*
X145343482Y-89720665D01*
X145159000Y-89720665D01*
X145159000Y-88569723D01*
X145229987Y-88498859D01*
X145333882Y-88248654D01*
X145334118Y-87977735D01*
X145230661Y-87727348D01*
X145039259Y-87535613D01*
X144789054Y-87431718D01*
X144518135Y-87431482D01*
X144267748Y-87534939D01*
X144076013Y-87726341D01*
X143972118Y-87976546D01*
X143971882Y-88247465D01*
X144075339Y-88497852D01*
X144147000Y-88569638D01*
X144147000Y-90170000D01*
X144172400Y-90297694D01*
X144172400Y-100095008D01*
X143478208Y-100789200D01*
X126999923Y-100789200D01*
X126929059Y-100718213D01*
X126678854Y-100614318D01*
X126407935Y-100614082D01*
X126157548Y-100717539D01*
X125965813Y-100908941D01*
X125861918Y-101159146D01*
X125861682Y-101430065D01*
X116153000Y-101430065D01*
X116153000Y-77260910D01*
X116174878Y-77150918D01*
X116211745Y-77095745D01*
X116266918Y-77058879D01*
X116376911Y-77037000D01*
X185121090Y-77037000D01*
X185231082Y-77058878D01*
M02*
